%TF.GenerationSoftware,KiCad,Pcbnew,7.0.5*%
%TF.CreationDate,2023-10-21T15:45:58-07:00*%
%TF.ProjectId,VBox,56426f78-2e6b-4696-9361-645f70636258,rev?*%
%TF.SameCoordinates,Original*%
%TF.FileFunction,Copper,L1,Top*%
%TF.FilePolarity,Positive*%
%FSLAX46Y46*%
G04 Gerber Fmt 4.6, Leading zero omitted, Abs format (unit mm)*
G04 Created by KiCad (PCBNEW 7.0.5) date 2023-10-21 15:45:58*
%MOMM*%
%LPD*%
G01*
G04 APERTURE LIST*
G04 Aperture macros list*
%AMRoundRect*
0 Rectangle with rounded corners*
0 $1 Rounding radius*
0 $2 $3 $4 $5 $6 $7 $8 $9 X,Y pos of 4 corners*
0 Add a 4 corners polygon primitive as box body*
4,1,4,$2,$3,$4,$5,$6,$7,$8,$9,$2,$3,0*
0 Add four circle primitives for the rounded corners*
1,1,$1+$1,$2,$3*
1,1,$1+$1,$4,$5*
1,1,$1+$1,$6,$7*
1,1,$1+$1,$8,$9*
0 Add four rect primitives between the rounded corners*
20,1,$1+$1,$2,$3,$4,$5,0*
20,1,$1+$1,$4,$5,$6,$7,0*
20,1,$1+$1,$6,$7,$8,$9,0*
20,1,$1+$1,$8,$9,$2,$3,0*%
G04 Aperture macros list end*
%TA.AperFunction,SMDPad,CuDef*%
%ADD10R,0.700000X0.800000*%
%TD*%
%TA.AperFunction,SMDPad,CuDef*%
%ADD11RoundRect,0.135000X0.135000X0.185000X-0.135000X0.185000X-0.135000X-0.185000X0.135000X-0.185000X0*%
%TD*%
%TA.AperFunction,SMDPad,CuDef*%
%ADD12RoundRect,0.140000X-0.170000X0.140000X-0.170000X-0.140000X0.170000X-0.140000X0.170000X0.140000X0*%
%TD*%
%TA.AperFunction,SMDPad,CuDef*%
%ADD13RoundRect,0.135000X0.185000X-0.135000X0.185000X0.135000X-0.185000X0.135000X-0.185000X-0.135000X0*%
%TD*%
%TA.AperFunction,ComponentPad*%
%ADD14C,2.000000*%
%TD*%
%TA.AperFunction,ComponentPad*%
%ADD15C,2.032000*%
%TD*%
%TA.AperFunction,SMDPad,CuDef*%
%ADD16R,0.600000X1.450000*%
%TD*%
%TA.AperFunction,SMDPad,CuDef*%
%ADD17R,0.300000X1.450000*%
%TD*%
%TA.AperFunction,ComponentPad*%
%ADD18O,1.000000X2.100000*%
%TD*%
%TA.AperFunction,ComponentPad*%
%ADD19O,1.000000X1.600000*%
%TD*%
%TA.AperFunction,SMDPad,CuDef*%
%ADD20RoundRect,0.140000X0.140000X0.170000X-0.140000X0.170000X-0.140000X-0.170000X0.140000X-0.170000X0*%
%TD*%
%TA.AperFunction,SMDPad,CuDef*%
%ADD21RoundRect,0.140000X-0.140000X-0.170000X0.140000X-0.170000X0.140000X0.170000X-0.140000X0.170000X0*%
%TD*%
%TA.AperFunction,SMDPad,CuDef*%
%ADD22RoundRect,0.135000X-0.185000X0.135000X-0.185000X-0.135000X0.185000X-0.135000X0.185000X0.135000X0*%
%TD*%
%TA.AperFunction,ComponentPad*%
%ADD23O,1.600000X2.000000*%
%TD*%
%TA.AperFunction,SMDPad,CuDef*%
%ADD24RoundRect,0.140000X0.170000X-0.140000X0.170000X0.140000X-0.170000X0.140000X-0.170000X-0.140000X0*%
%TD*%
%TA.AperFunction,SMDPad,CuDef*%
%ADD25RoundRect,0.150000X-0.650000X-0.150000X0.650000X-0.150000X0.650000X0.150000X-0.650000X0.150000X0*%
%TD*%
%TA.AperFunction,SMDPad,CuDef*%
%ADD26R,1.200000X1.400000*%
%TD*%
%TA.AperFunction,SMDPad,CuDef*%
%ADD27R,1.400000X1.600000*%
%TD*%
%TA.AperFunction,SMDPad,CuDef*%
%ADD28RoundRect,0.050000X-0.387500X-0.050000X0.387500X-0.050000X0.387500X0.050000X-0.387500X0.050000X0*%
%TD*%
%TA.AperFunction,SMDPad,CuDef*%
%ADD29RoundRect,0.050000X-0.050000X-0.387500X0.050000X-0.387500X0.050000X0.387500X-0.050000X0.387500X0*%
%TD*%
%TA.AperFunction,ComponentPad*%
%ADD30C,0.600000*%
%TD*%
%TA.AperFunction,SMDPad,CuDef*%
%ADD31RoundRect,0.144000X-1.456000X-1.456000X1.456000X-1.456000X1.456000X1.456000X-1.456000X1.456000X0*%
%TD*%
%TA.AperFunction,SMDPad,CuDef*%
%ADD32R,1.060000X0.650000*%
%TD*%
%TA.AperFunction,ViaPad*%
%ADD33C,0.600000*%
%TD*%
%TA.AperFunction,ViaPad*%
%ADD34C,0.800000*%
%TD*%
%TA.AperFunction,Conductor*%
%ADD35C,0.400000*%
%TD*%
%TA.AperFunction,Conductor*%
%ADD36C,0.381000*%
%TD*%
%TA.AperFunction,Conductor*%
%ADD37C,0.200000*%
%TD*%
%TA.AperFunction,Conductor*%
%ADD38C,0.254000*%
%TD*%
G04 APERTURE END LIST*
D10*
%TO.P,D9,1,VDD*%
%TO.N,+5V*%
X201860000Y-86749741D03*
%TO.P,D9,2,DOUT*%
%TO.N,RGB_DATA_CIRCLE*%
X200660000Y-86749741D03*
%TO.P,D9,3,GND*%
%TO.N,GND*%
X200660000Y-88049741D03*
%TO.P,D9,4,DIN*%
%TO.N,RGB_DATA_R2*%
X201860000Y-88049741D03*
%TD*%
D11*
%TO.P,R2,1*%
%TO.N,QSPI_SS*%
X71620000Y-97322500D03*
%TO.P,R2,2*%
%TO.N,+3V3*%
X70600000Y-97322500D03*
%TD*%
D12*
%TO.P,C21,1*%
%TO.N,+5V*%
X84265534Y-77529534D03*
%TO.P,C21,2*%
%TO.N,GND*%
X84265534Y-78489534D03*
%TD*%
D13*
%TO.P,R4,1*%
%TO.N,Net-(U3-USB_DM)*%
X87630000Y-100840000D03*
%TO.P,R4,2*%
%TO.N,USB_D-*%
X87630000Y-99820000D03*
%TD*%
D11*
%TO.P,R6,1*%
%TO.N,Net-(USB1-CC2)*%
X140565534Y-34290000D03*
%TO.P,R6,2*%
%TO.N,GND*%
X139545534Y-34290000D03*
%TD*%
D14*
%TO.P,SW5,1,1*%
%TO.N,OPT5*%
X89750000Y-40750000D03*
X89750000Y-34250000D03*
%TO.P,SW5,2,2*%
%TO.N,GND*%
X94250000Y-40750000D03*
X94250000Y-34250000D03*
%TD*%
D15*
%TO.P,SW10,1,1*%
%TO.N,SQUARE*%
X146765534Y-68755534D03*
%TO.P,SW10,2,2*%
%TO.N,GND*%
X141765534Y-66655534D03*
%TD*%
D16*
%TO.P,USB1,1,GND*%
%TO.N,GND*%
X146130534Y-29940534D03*
%TO.P,USB1,2,VBUS*%
%TO.N,+5V*%
X145355534Y-29940534D03*
D17*
%TO.P,USB1,3,SBU2*%
%TO.N,unconnected-(USB1-SBU2-Pad3)*%
X144655534Y-29940534D03*
%TO.P,USB1,4,CC1*%
%TO.N,Net-(USB1-CC1)*%
X144155534Y-29940534D03*
%TO.P,USB1,5,DN2*%
%TO.N,USB_D-*%
X143655534Y-29940534D03*
%TO.P,USB1,6,DP1*%
%TO.N,USB_D+*%
X143155534Y-29940534D03*
%TO.P,USB1,7,DN1*%
%TO.N,USB_D-*%
X142655534Y-29940534D03*
%TO.P,USB1,8,DP2*%
%TO.N,USB_D+*%
X142155534Y-29940534D03*
%TO.P,USB1,9,SBU1*%
%TO.N,unconnected-(USB1-SBU1-Pad9)*%
X141655534Y-29940534D03*
%TO.P,USB1,10,CC2*%
%TO.N,Net-(USB1-CC2)*%
X141155534Y-29940534D03*
D16*
%TO.P,USB1,11,VBUS*%
%TO.N,+5V*%
X140455534Y-29940534D03*
%TO.P,USB1,12,GND*%
%TO.N,GND*%
X139680534Y-29940534D03*
D18*
%TO.P,USB1,13,SHIELD*%
X147225534Y-29025534D03*
D19*
X147225534Y-24845534D03*
D18*
X138585534Y-29025534D03*
D19*
X138585534Y-24845534D03*
%TD*%
D10*
%TO.P,D14,1,VDD*%
%TO.N,+5V*%
X70641534Y-142891534D03*
%TO.P,D14,2,DOUT*%
%TO.N,RGB_DATA_P3*%
X69441534Y-142891534D03*
%TO.P,D14,3,GND*%
%TO.N,GND*%
X69441534Y-144191534D03*
%TO.P,D14,4,DIN*%
%TO.N,RGB_DATA_P2*%
X70641534Y-144191534D03*
%TD*%
D12*
%TO.P,C22,1*%
%TO.N,+5V*%
X140145534Y-108009534D03*
%TO.P,C22,2*%
%TO.N,GND*%
X140145534Y-108969534D03*
%TD*%
D13*
%TO.P,R3,1*%
%TO.N,Net-(U3-USB_DP)*%
X86550000Y-100840000D03*
%TO.P,R3,2*%
%TO.N,USB_D+*%
X86550000Y-99820000D03*
%TD*%
D12*
%TO.P,C17,1*%
%TO.N,+5V*%
X115789534Y-139505534D03*
%TO.P,C17,2*%
%TO.N,GND*%
X115789534Y-140465534D03*
%TD*%
D20*
%TO.P,C20,1*%
%TO.N,+5V*%
X229045534Y-64293534D03*
%TO.P,C20,2*%
%TO.N,GND*%
X228085534Y-64293534D03*
%TD*%
D14*
%TO.P,SW4,1,1*%
%TO.N,OPT4*%
X81050000Y-40750000D03*
X81050000Y-34250000D03*
%TO.P,SW4,2,2*%
%TO.N,GND*%
X85550000Y-40750000D03*
X85550000Y-34250000D03*
%TD*%
D21*
%TO.P,C12,1*%
%TO.N,+3V3*%
X90936950Y-108327974D03*
%TO.P,C12,2*%
%TO.N,GND*%
X91896950Y-108327974D03*
%TD*%
D15*
%TO.P,SW15,1,1*%
%TO.N,CIRCLE*%
X167765534Y-88685534D03*
%TO.P,SW15,2,2*%
%TO.N,GND*%
X162765534Y-86585534D03*
%TD*%
D22*
%TO.P,R1,1*%
%TO.N,QSPI_SS*%
X74760000Y-104012500D03*
%TO.P,R1,2*%
%TO.N,Net-(R1-Pad2)*%
X74760000Y-105032500D03*
%TD*%
D21*
%TO.P,C15,1*%
%TO.N,+3V3*%
X90310232Y-104586961D03*
%TO.P,C15,2*%
%TO.N,GND*%
X91270232Y-104586961D03*
%TD*%
%TO.P,C30,1*%
%TO.N,+5V*%
X73117534Y-141509534D03*
%TO.P,C30,2*%
%TO.N,GND*%
X74077534Y-141509534D03*
%TD*%
D14*
%TO.P,SW6,1,1*%
%TO.N,OPT6*%
X98450000Y-40750000D03*
X98450000Y-34250000D03*
%TO.P,SW6,2,2*%
%TO.N,GND*%
X102950000Y-40750000D03*
X102950000Y-34250000D03*
%TD*%
D12*
%TO.P,C26,1*%
%TO.N,+5V*%
X195517534Y-96517463D03*
%TO.P,C26,2*%
%TO.N,GND*%
X195517534Y-97477463D03*
%TD*%
D10*
%TO.P,D11,1,VDD*%
%TO.N,+5V*%
X146050000Y-97790000D03*
%TO.P,D11,2,DOUT*%
%TO.N,RGB_DATA_UP*%
X144850000Y-97790000D03*
%TO.P,D11,3,GND*%
%TO.N,GND*%
X144850000Y-99090000D03*
%TO.P,D11,4,DIN*%
%TO.N,RGB_DATA_CROSS*%
X146050000Y-99090000D03*
%TD*%
D14*
%TO.P,SW3,1,1*%
%TO.N,OPT3*%
X71150000Y-40750000D03*
X71150000Y-34250000D03*
%TO.P,SW3,2,2*%
%TO.N,GND*%
X75650000Y-40750000D03*
X75650000Y-34250000D03*
%TD*%
D15*
%TO.P,SW12,1,1*%
%TO.N,R1*%
X202295534Y-57105534D03*
%TO.P,SW12,2,2*%
%TO.N,GND*%
X197295534Y-55005534D03*
%TD*%
D10*
%TO.P,D5,1,VDD*%
%TO.N,+5V*%
X176600000Y-56580877D03*
%TO.P,D5,2,DOUT*%
%TO.N,RGB_DATA_R1*%
X177800000Y-56580877D03*
%TO.P,D5,3,GND*%
%TO.N,GND*%
X177800000Y-55280877D03*
%TO.P,D5,4,DIN*%
%TO.N,RGB_DATA_TRIANGLE*%
X176600000Y-55280877D03*
%TD*%
%TO.P,D8,1,VDD*%
%TO.N,+5V*%
X231140000Y-86740832D03*
%TO.P,D8,2,DOUT*%
%TO.N,RGB_DATA_R2*%
X229940000Y-86740832D03*
%TO.P,D8,3,GND*%
%TO.N,GND*%
X229940000Y-88040832D03*
%TO.P,D8,4,DIN*%
%TO.N,RGB_DATA_L2*%
X231140000Y-88040832D03*
%TD*%
D22*
%TO.P,R7,1*%
%TO.N,Net-(USB1-CC1)*%
X144455534Y-31735534D03*
%TO.P,R7,2*%
%TO.N,GND*%
X144455534Y-32755534D03*
%TD*%
D15*
%TO.P,SW8,1,1*%
%TO.N,DOWN*%
X85225534Y-68815534D03*
%TO.P,SW8,2,2*%
%TO.N,GND*%
X80225534Y-66715534D03*
%TD*%
D21*
%TO.P,C18,1*%
%TO.N,+5V*%
X206530000Y-64770000D03*
%TO.P,C18,2*%
%TO.N,GND*%
X207490000Y-64770000D03*
%TD*%
D23*
%TO.P,OLED1,1,GND*%
%TO.N,GND*%
X116200000Y-31200000D03*
%TO.P,OLED1,2,VCC*%
%TO.N,+5V*%
X118740000Y-31200000D03*
%TO.P,OLED1,3,SCL*%
%TO.N,SCL*%
X121280000Y-31200000D03*
%TO.P,OLED1,4,SDA*%
%TO.N,SDA*%
X123820000Y-31200000D03*
%TD*%
D10*
%TO.P,D15,1,VDD*%
%TO.N,+5V*%
X79277534Y-142891534D03*
%TO.P,D15,2,DOUT*%
%TO.N,RGB_DATA_P4*%
X78077534Y-142891534D03*
%TO.P,D15,3,GND*%
%TO.N,GND*%
X78077534Y-144191534D03*
%TO.P,D15,4,DIN*%
%TO.N,RGB_DATA_P3*%
X79277534Y-144191534D03*
%TD*%
%TO.P,D3,1,VDD*%
%TO.N,+5V*%
X115315014Y-79259701D03*
%TO.P,D3,2,DOUT*%
%TO.N,RGB_DATA_SQUARE*%
X116515014Y-79259701D03*
%TO.P,D3,3,GND*%
%TO.N,GND*%
X116515014Y-77959701D03*
%TO.P,D3,4,DIN*%
%TO.N,RGB_DATA_RIGHT*%
X115315014Y-77959701D03*
%TD*%
D15*
%TO.P,SW18,1,1*%
%TO.N,UP*%
X129325534Y-133265534D03*
%TO.P,SW18,2,2*%
%TO.N,GND*%
X124325534Y-131165534D03*
%TD*%
D10*
%TO.P,D16,1,VDD*%
%TO.N,+5V*%
X87913534Y-142891534D03*
%TO.P,D16,2,DOUT*%
%TO.N,unconnected-(D16-DOUT-Pad2)*%
X86713534Y-142891534D03*
%TO.P,D16,3,GND*%
%TO.N,GND*%
X86713534Y-144191534D03*
%TO.P,D16,4,DIN*%
%TO.N,RGB_DATA_P4*%
X87913534Y-144191534D03*
%TD*%
D24*
%TO.P,C4,1*%
%TO.N,+3V3*%
X93490000Y-100990000D03*
%TO.P,C4,2*%
%TO.N,GND*%
X93490000Y-100030000D03*
%TD*%
D10*
%TO.P,D10,1,VDD*%
%TO.N,+5V*%
X172720000Y-86730437D03*
%TO.P,D10,2,DOUT*%
%TO.N,RGB_DATA_CROSS*%
X171520000Y-86730437D03*
%TO.P,D10,3,GND*%
%TO.N,GND*%
X171520000Y-88030437D03*
%TO.P,D10,4,DIN*%
%TO.N,RGB_DATA_CIRCLE*%
X172720000Y-88030437D03*
%TD*%
D21*
%TO.P,C32,1*%
%TO.N,+5V*%
X90389534Y-141509534D03*
%TO.P,C32,2*%
%TO.N,GND*%
X91349534Y-141509534D03*
%TD*%
D25*
%TO.P,U2,1,~{CS}*%
%TO.N,QSPI_SS*%
X73560000Y-97317500D03*
%TO.P,U2,2,DO(IO1)*%
%TO.N,QSPI_SD1*%
X73560000Y-98587500D03*
%TO.P,U2,3,IO2*%
%TO.N,QSPI_SD2*%
X73560000Y-99857500D03*
%TO.P,U2,4,GND*%
%TO.N,GND*%
X73560000Y-101127500D03*
%TO.P,U2,5,DI(IO0)*%
%TO.N,QSPI_SD0*%
X80760000Y-101127500D03*
%TO.P,U2,6,CLK*%
%TO.N,QSPI_SCLK*%
X80760000Y-99857500D03*
%TO.P,U2,7,IO3*%
%TO.N,QSPI_SD3*%
X80760000Y-98587500D03*
%TO.P,U2,8,VCC*%
%TO.N,+3V3*%
X80760000Y-97317500D03*
%TD*%
D12*
%TO.P,C24,1*%
%TO.N,+5V*%
X55309534Y-77021534D03*
%TO.P,C24,2*%
%TO.N,GND*%
X55309534Y-77981534D03*
%TD*%
D21*
%TO.P,C31,1*%
%TO.N,+5V*%
X81753534Y-141509534D03*
%TO.P,C31,2*%
%TO.N,GND*%
X82713534Y-141509534D03*
%TD*%
D14*
%TO.P,SW1,1,1*%
%TO.N,OPT1*%
X53700000Y-40745534D03*
X53700000Y-34245534D03*
%TO.P,SW1,2,2*%
%TO.N,GND*%
X58200000Y-40745534D03*
X58200000Y-34245534D03*
%TD*%
D10*
%TO.P,D12,1,VDD*%
%TO.N,+5V*%
X134620000Y-131364896D03*
%TO.P,D12,2,DOUT*%
%TO.N,RGB_DATA_P1*%
X133420000Y-131364896D03*
%TO.P,D12,3,GND*%
%TO.N,GND*%
X133420000Y-132664896D03*
%TO.P,D12,4,DIN*%
%TO.N,RGB_DATA_UP*%
X134620000Y-132664896D03*
%TD*%
D24*
%TO.P,C1,1*%
%TO.N,+5V*%
X98290000Y-100990000D03*
%TO.P,C1,2*%
%TO.N,GND*%
X98290000Y-100030000D03*
%TD*%
D12*
%TO.P,C28,1*%
%TO.N,+5V*%
X167069534Y-96520000D03*
%TO.P,C28,2*%
%TO.N,GND*%
X167069534Y-97480000D03*
%TD*%
D15*
%TO.P,SW17,1,1*%
%TO.N,L2*%
X225825534Y-88685534D03*
%TO.P,SW17,2,2*%
%TO.N,GND*%
X220825534Y-86585534D03*
%TD*%
D12*
%TO.P,C25,1*%
%TO.N,+5V*%
X224981534Y-96520000D03*
%TO.P,C25,2*%
%TO.N,GND*%
X224981534Y-97480000D03*
%TD*%
D24*
%TO.P,C6,1*%
%TO.N,+1V1*%
X84450000Y-100210000D03*
%TO.P,C6,2*%
%TO.N,GND*%
X84450000Y-99250000D03*
%TD*%
D12*
%TO.P,C7,1*%
%TO.N,+1V1*%
X86560000Y-115090000D03*
%TO.P,C7,2*%
%TO.N,GND*%
X86560000Y-116050000D03*
%TD*%
D15*
%TO.P,SW16,1,1*%
%TO.N,R2*%
X196615534Y-88685534D03*
%TO.P,SW16,2,2*%
%TO.N,GND*%
X191615534Y-86585534D03*
%TD*%
D26*
%TO.P,Y1,1,1*%
%TO.N,XIN*%
X83010000Y-118420000D03*
%TO.P,Y1,2,2*%
%TO.N,GND*%
X83010000Y-120620000D03*
%TO.P,Y1,3,3*%
%TO.N,Net-(C3-Pad1)*%
X84710000Y-120620000D03*
%TO.P,Y1,4,4*%
%TO.N,GND*%
X84710000Y-118420000D03*
%TD*%
D12*
%TO.P,C3,1*%
%TO.N,Net-(C3-Pad1)*%
X86210000Y-119040000D03*
%TO.P,C3,2*%
%TO.N,GND*%
X86210000Y-120000000D03*
%TD*%
D10*
%TO.P,D1,1,VDD*%
%TO.N,+5V*%
X59869740Y-67842899D03*
%TO.P,D1,2,DOUT*%
%TO.N,RGB_DATA_DOWN*%
X61069740Y-67842899D03*
%TO.P,D1,3,GND*%
%TO.N,GND*%
X61069740Y-66542899D03*
%TO.P,D1,4,DIN*%
%TO.N,RGB_DATA_LEFT*%
X59869740Y-66542899D03*
%TD*%
%TO.P,D2,1,VDD*%
%TO.N,+5V*%
X88768173Y-67810023D03*
%TO.P,D2,2,DOUT*%
%TO.N,RGB_DATA_RIGHT*%
X89968173Y-67810023D03*
%TO.P,D2,3,GND*%
%TO.N,GND*%
X89968173Y-66510023D03*
%TO.P,D2,4,DIN*%
%TO.N,RGB_DATA_DOWN*%
X88768173Y-66510023D03*
%TD*%
D15*
%TO.P,SW9,1,1*%
%TO.N,RIGHT*%
X111825534Y-80165534D03*
%TO.P,SW9,2,2*%
%TO.N,GND*%
X106825534Y-78065534D03*
%TD*%
D21*
%TO.P,C5,1*%
%TO.N,+3V3*%
X80380000Y-95722500D03*
%TO.P,C5,2*%
%TO.N,GND*%
X81340000Y-95722500D03*
%TD*%
D20*
%TO.P,C11,1*%
%TO.N,+3V3*%
X79066250Y-104922500D03*
%TO.P,C11,2*%
%TO.N,GND*%
X78106250Y-104922500D03*
%TD*%
D27*
%TO.P,SW20,1,1*%
%TO.N,GND*%
X65530000Y-115570000D03*
X65530000Y-123570000D03*
%TO.P,SW20,2,2*%
%TO.N,Net-(U3-RUN)*%
X70030000Y-115570000D03*
X70030000Y-123570000D03*
%TD*%
D24*
%TO.P,C8,1*%
%TO.N,+1V1*%
X88700000Y-100810000D03*
%TO.P,C8,2*%
%TO.N,GND*%
X88700000Y-99850000D03*
%TD*%
D14*
%TO.P,SW2,1,1*%
%TO.N,OPT2*%
X62400000Y-40750000D03*
X62400000Y-34250000D03*
%TO.P,SW2,2,2*%
%TO.N,GND*%
X66900000Y-40750000D03*
X66900000Y-34250000D03*
%TD*%
D10*
%TO.P,D13,1,VDD*%
%TO.N,+5V*%
X62005534Y-142891534D03*
%TO.P,D13,2,DOUT*%
%TO.N,RGB_DATA_P2*%
X60805534Y-142891534D03*
%TO.P,D13,3,GND*%
%TO.N,GND*%
X60805534Y-144191534D03*
%TO.P,D13,4,DIN*%
%TO.N,RGB_DATA_P1*%
X62005534Y-144191534D03*
%TD*%
D21*
%TO.P,C16,1*%
%TO.N,+3V3*%
X90310232Y-103576212D03*
%TO.P,C16,2*%
%TO.N,GND*%
X91270232Y-103576212D03*
%TD*%
D28*
%TO.P,U3,1,IOVDD*%
%TO.N,+3V3*%
X81621356Y-105290000D03*
%TO.P,U3,2,GPIO0*%
%TO.N,unconnected-(U3-GPIO0-Pad2)*%
X81621356Y-105690000D03*
%TO.P,U3,3,GPIO1*%
%TO.N,OPT6*%
X81621356Y-106090000D03*
%TO.P,U3,4,GPIO2*%
%TO.N,OPT5*%
X81621356Y-106490000D03*
%TO.P,U3,5,GPIO3*%
%TO.N,OPT4*%
X81621356Y-106890000D03*
%TO.P,U3,6,GPIO4*%
%TO.N,OPT3*%
X81621356Y-107290000D03*
%TO.P,U3,7,GPIO5*%
%TO.N,OPT2*%
X81621356Y-107690000D03*
%TO.P,U3,8,GPIO6*%
%TO.N,OPT1*%
X81621356Y-108090000D03*
%TO.P,U3,9,GPIO7*%
%TO.N,RGB_DATA_LEFT*%
X81621356Y-108490000D03*
%TO.P,U3,10,IOVDD*%
%TO.N,+3V3*%
X81621356Y-108890000D03*
%TO.P,U3,11,GPIO8*%
%TO.N,unconnected-(U3-GPIO8-Pad11)*%
X81621356Y-109290000D03*
%TO.P,U3,12,GPIO9*%
%TO.N,LEFT*%
X81621356Y-109690000D03*
%TO.P,U3,13,GPIO10*%
%TO.N,DOWN*%
X81621356Y-110090000D03*
%TO.P,U3,14,GPIO11*%
%TO.N,RIGHT*%
X81621356Y-110490000D03*
D29*
%TO.P,U3,15,GPIO12*%
%TO.N,unconnected-(U3-GPIO12-Pad15)*%
X82458856Y-111327500D03*
%TO.P,U3,16,GPIO13*%
%TO.N,unconnected-(U3-GPIO13-Pad16)*%
X82858856Y-111327500D03*
%TO.P,U3,17,GPIO14*%
%TO.N,unconnected-(U3-GPIO14-Pad17)*%
X83258856Y-111327500D03*
%TO.P,U3,18,GPIO15*%
%TO.N,unconnected-(U3-GPIO15-Pad18)*%
X83658856Y-111327500D03*
%TO.P,U3,19,TESTEN*%
%TO.N,GND*%
X84058856Y-111327500D03*
%TO.P,U3,20,XIN*%
%TO.N,XIN*%
X84458856Y-111327500D03*
%TO.P,U3,21,XOUT*%
%TO.N,XOUT*%
X84858856Y-111327500D03*
%TO.P,U3,22,IOVDD*%
%TO.N,+3V3*%
X85258856Y-111327500D03*
%TO.P,U3,23,DVDD*%
%TO.N,+1V1*%
X85658856Y-111327500D03*
%TO.P,U3,24,SWCLK*%
%TO.N,unconnected-(U3-SWCLK-Pad24)*%
X86058856Y-111327500D03*
%TO.P,U3,25,SWD*%
%TO.N,unconnected-(U3-SWD-Pad25)*%
X86458856Y-111327500D03*
%TO.P,U3,26,RUN*%
%TO.N,Net-(U3-RUN)*%
X86858856Y-111327500D03*
%TO.P,U3,27,GPIO16*%
%TO.N,UP*%
X87258856Y-111327500D03*
%TO.P,U3,28,GPIO17*%
%TO.N,unconnected-(U3-GPIO17-Pad28)*%
X87658856Y-111327500D03*
D28*
%TO.P,U3,29,GPIO18*%
%TO.N,SQUARE*%
X88496356Y-110490000D03*
%TO.P,U3,30,GPIO19*%
%TO.N,CROSS*%
X88496356Y-110090000D03*
%TO.P,U3,31,GPIO20*%
%TO.N,SCL*%
X88496356Y-109690000D03*
%TO.P,U3,32,GPIO21*%
%TO.N,SDA*%
X88496356Y-109290000D03*
%TO.P,U3,33,IOVDD*%
%TO.N,+3V3*%
X88496356Y-108890000D03*
%TO.P,U3,34,GPIO22*%
%TO.N,unconnected-(U3-GPIO22-Pad34)*%
X88496356Y-108490000D03*
%TO.P,U3,35,GPIO23*%
%TO.N,unconnected-(U3-GPIO23-Pad35)*%
X88496356Y-108090000D03*
%TO.P,U3,36,GPIO24*%
%TO.N,CIRCLE*%
X88496356Y-107690000D03*
%TO.P,U3,37,GPIO25*%
%TO.N,TRIANGLE*%
X88496356Y-107290000D03*
%TO.P,U3,38,GPIO26_ADC0*%
%TO.N,R2*%
X88496356Y-106890000D03*
%TO.P,U3,39,GPIO27_ADC1*%
%TO.N,R1*%
X88496356Y-106490000D03*
%TO.P,U3,40,GPIO28_ADC2*%
%TO.N,L2*%
X88496356Y-106090000D03*
%TO.P,U3,41,GPIO29_ADC3*%
%TO.N,L1*%
X88496356Y-105690000D03*
%TO.P,U3,42,IOVDD*%
%TO.N,+3V3*%
X88496356Y-105290000D03*
D29*
%TO.P,U3,43,ADC_AVDD*%
X87658856Y-104452500D03*
%TO.P,U3,44,VREG_IN*%
X87258856Y-104452500D03*
%TO.P,U3,45,VREG_VOUT*%
%TO.N,+1V1*%
X86858856Y-104452500D03*
%TO.P,U3,46,USB_DM*%
%TO.N,Net-(U3-USB_DM)*%
X86458856Y-104452500D03*
%TO.P,U3,47,USB_DP*%
%TO.N,Net-(U3-USB_DP)*%
X86058856Y-104452500D03*
%TO.P,U3,48,USB_VDD*%
%TO.N,+3V3*%
X85658856Y-104452500D03*
%TO.P,U3,49,IOVDD*%
X85258856Y-104452500D03*
%TO.P,U3,50,DVDD*%
%TO.N,+1V1*%
X84858856Y-104452500D03*
%TO.P,U3,51,QSPI_SD3*%
%TO.N,QSPI_SD3*%
X84458856Y-104452500D03*
%TO.P,U3,52,QSPI_SCLK*%
%TO.N,QSPI_SCLK*%
X84058856Y-104452500D03*
%TO.P,U3,53,QSPI_SD0*%
%TO.N,QSPI_SD0*%
X83658856Y-104452500D03*
%TO.P,U3,54,QSPI_SD2*%
%TO.N,QSPI_SD2*%
X83258856Y-104452500D03*
%TO.P,U3,55,QSPI_SD1*%
%TO.N,QSPI_SD1*%
X82858856Y-104452500D03*
%TO.P,U3,56,QSPI_SS*%
%TO.N,QSPI_SS*%
X82458856Y-104452500D03*
D30*
%TO.P,U3,57,GND*%
%TO.N,GND*%
X83783856Y-106615000D03*
X83783856Y-107890000D03*
X83783856Y-109165000D03*
X85058856Y-106615000D03*
X85058856Y-107890000D03*
D31*
X85058856Y-107890000D03*
D30*
X85058856Y-109165000D03*
X86333856Y-106615000D03*
X86333856Y-107890000D03*
X86333856Y-109165000D03*
%TD*%
D10*
%TO.P,D6,1,VDD*%
%TO.N,+5V*%
X205810000Y-56456638D03*
%TO.P,D6,2,DOUT*%
%TO.N,RGB_DATA_L1*%
X207010000Y-56456638D03*
%TO.P,D6,3,GND*%
%TO.N,GND*%
X207010000Y-55156638D03*
%TO.P,D6,4,DIN*%
%TO.N,RGB_DATA_R1*%
X205810000Y-55156638D03*
%TD*%
D21*
%TO.P,C19,1*%
%TO.N,+5V*%
X176749534Y-65309534D03*
%TO.P,C19,2*%
%TO.N,GND*%
X177709534Y-65309534D03*
%TD*%
D22*
%TO.P,R5,1*%
%TO.N,XOUT*%
X84510000Y-115910000D03*
%TO.P,R5,2*%
%TO.N,Net-(C3-Pad1)*%
X84510000Y-116930000D03*
%TD*%
D24*
%TO.P,C29,1*%
%TO.N,+5V*%
X62421534Y-139477534D03*
%TO.P,C29,2*%
%TO.N,GND*%
X62421534Y-138517534D03*
%TD*%
D20*
%TO.P,C27,1*%
%TO.N,+5V*%
X108621534Y-88169534D03*
%TO.P,C27,2*%
%TO.N,GND*%
X107661534Y-88169534D03*
%TD*%
%TO.P,C13,1*%
%TO.N,+3V3*%
X72870000Y-109220000D03*
%TO.P,C13,2*%
%TO.N,GND*%
X71910000Y-109220000D03*
%TD*%
%TO.P,C2,1*%
%TO.N,XIN*%
X83490000Y-116870000D03*
%TO.P,C2,2*%
%TO.N,GND*%
X82530000Y-116870000D03*
%TD*%
D24*
%TO.P,C9,1*%
%TO.N,+3V3*%
X85500000Y-100810000D03*
%TO.P,C9,2*%
%TO.N,GND*%
X85500000Y-99850000D03*
%TD*%
%TO.P,C10,1*%
%TO.N,+3V3*%
X89750000Y-101810000D03*
%TO.P,C10,2*%
%TO.N,GND*%
X89750000Y-100850000D03*
%TD*%
D15*
%TO.P,SW11,1,1*%
%TO.N,TRIANGLE*%
X173325534Y-57225534D03*
%TO.P,SW11,2,2*%
%TO.N,GND*%
X168325534Y-55125534D03*
%TD*%
D10*
%TO.P,D7,1,VDD*%
%TO.N,+5V*%
X235020000Y-56671975D03*
%TO.P,D7,2,DOUT*%
%TO.N,RGB_DATA_L2*%
X236220000Y-56671975D03*
%TO.P,D7,3,GND*%
%TO.N,GND*%
X236220000Y-55371975D03*
%TO.P,D7,4,DIN*%
%TO.N,RGB_DATA_L1*%
X235020000Y-55371975D03*
%TD*%
D32*
%TO.P,U1,1,IN*%
%TO.N,+5V*%
X96990000Y-100960000D03*
%TO.P,U1,2,GND*%
%TO.N,GND*%
X96990000Y-100010000D03*
%TO.P,U1,3,EN*%
%TO.N,+5V*%
X96990000Y-99060000D03*
%TO.P,U1,4,NC*%
%TO.N,unconnected-(U1-NC-Pad4)*%
X94790000Y-99060000D03*
%TO.P,U1,5,OUT*%
%TO.N,+3V3*%
X94790000Y-100960000D03*
%TD*%
D10*
%TO.P,D4,1,VDD*%
%TO.N,+5V*%
X149930000Y-67991534D03*
%TO.P,D4,2,DOUT*%
%TO.N,RGB_DATA_TRIANGLE*%
X151130000Y-67991534D03*
%TO.P,D4,3,GND*%
%TO.N,GND*%
X151130000Y-66691534D03*
%TO.P,D4,4,DIN*%
%TO.N,RGB_DATA_SQUARE*%
X149930000Y-66691534D03*
%TD*%
D15*
%TO.P,SW7,1,1*%
%TO.N,LEFT*%
X56130534Y-68695534D03*
%TO.P,SW7,2,2*%
%TO.N,GND*%
X51130534Y-66595534D03*
%TD*%
%TO.P,SW14,1,1*%
%TO.N,CROSS*%
X141155534Y-99795534D03*
%TO.P,SW14,2,2*%
%TO.N,GND*%
X136155534Y-97695534D03*
%TD*%
D12*
%TO.P,C14,1*%
%TO.N,+3V3*%
X85530000Y-115090000D03*
%TO.P,C14,2*%
%TO.N,GND*%
X85530000Y-116050000D03*
%TD*%
D20*
%TO.P,C23,1*%
%TO.N,+5V*%
X143673534Y-75977534D03*
%TO.P,C23,2*%
%TO.N,GND*%
X142713534Y-75977534D03*
%TD*%
D15*
%TO.P,SW13,1,1*%
%TO.N,L1*%
X231265534Y-57345534D03*
%TO.P,SW13,2,2*%
%TO.N,GND*%
X226265534Y-55245534D03*
%TD*%
D27*
%TO.P,SW19,1,1*%
%TO.N,Net-(R1-Pad2)*%
X77180000Y-123570000D03*
X77180000Y-115570000D03*
%TO.P,SW19,2,2*%
%TO.N,GND*%
X72680000Y-123570000D03*
X72680000Y-115570000D03*
%TD*%
D33*
%TO.N,+5V*%
X215900000Y-39370000D03*
X124460000Y-50800000D03*
X190500000Y-39370000D03*
X146050000Y-34290000D03*
X140556034Y-33020000D03*
X153670000Y-50800000D03*
X96520000Y-50800000D03*
X68580000Y-48260000D03*
%TO.N,+1V1*%
X86360000Y-113030000D03*
X85664062Y-110018436D03*
X85090000Y-101600000D03*
X85719565Y-105770032D03*
%TO.N,GND*%
X85090000Y-143510000D03*
X67310000Y-143510000D03*
X146158298Y-31496650D03*
X210820000Y-55880000D03*
X209612466Y-64738466D03*
D34*
X144463023Y-34089454D03*
D33*
X84441384Y-98288026D03*
X83820000Y-80010000D03*
X82550000Y-95250000D03*
X133350000Y-134620000D03*
X179070000Y-66040000D03*
X92710000Y-142240000D03*
X166370000Y-99060000D03*
X224790000Y-99060000D03*
X120650000Y-78740000D03*
X66040000Y-113030000D03*
X69850000Y-109220000D03*
X240030000Y-55880000D03*
X171450000Y-90170000D03*
X85504830Y-98396173D03*
X92710000Y-104140000D03*
X105410000Y-88900000D03*
X140970000Y-76200000D03*
X74930000Y-140970000D03*
X200660000Y-90170000D03*
X83820000Y-142240000D03*
X64770000Y-67310000D03*
X88695169Y-98693577D03*
X229870000Y-90170000D03*
X154940000Y-67310000D03*
X62230000Y-137160000D03*
X144780000Y-101600000D03*
X55880000Y-80010000D03*
X93980000Y-108289500D03*
X181610000Y-55880000D03*
X92710000Y-102870000D03*
X89749603Y-99243325D03*
X139700000Y-110490000D03*
X83319438Y-113760933D03*
X75170654Y-101128317D03*
D34*
X92919973Y-98577914D03*
D33*
X195580000Y-99060000D03*
X76200000Y-144780000D03*
X93980000Y-67310000D03*
X59690000Y-144780000D03*
X226060000Y-64770000D03*
X72390000Y-113030000D03*
X77142054Y-104922500D03*
X115570000Y-142240000D03*
%TO.N,RGB_DATA_TRIANGLE*%
X154940000Y-71120000D03*
X175260000Y-59690000D03*
%TO.N,RGB_DATA_R2*%
X203200000Y-91440000D03*
X228600000Y-90170000D03*
%TO.N,RGB_DATA_DOWN*%
X62230000Y-71120000D03*
X86360000Y-71120000D03*
%TO.N,RGB_DATA_R1*%
X203200000Y-59690000D03*
X179070000Y-59690000D03*
%TO.N,RGB_DATA_CIRCLE*%
X172720000Y-90170000D03*
X198120000Y-90170000D03*
%TO.N,RGB_DATA_RIGHT*%
X90170000Y-71120000D03*
X113030000Y-82550000D03*
%TO.N,RGB_DATA_L1*%
X208280000Y-59690000D03*
X232410000Y-59690000D03*
%TO.N,RGB_DATA_CROSS*%
X168910000Y-90170000D03*
X148590000Y-99060000D03*
%TO.N,RGB_DATA_SQUARE*%
X116840000Y-82550000D03*
X147320000Y-71120000D03*
%TO.N,RGB_DATA_L2*%
X232410000Y-90170000D03*
X236220000Y-59690000D03*
%TO.N,RGB_DATA_UP*%
X143510000Y-101600000D03*
X135890000Y-134620000D03*
%TO.N,OPT6*%
X68580000Y-105860000D03*
X80210637Y-105890500D03*
%TO.N,LEFT*%
X61834671Y-109830000D03*
%TO.N,DOWN*%
X62238970Y-110855139D03*
%TO.N,RIGHT*%
X62244466Y-111760000D03*
%TO.N,SQUARE*%
X138430000Y-72390000D03*
X107679500Y-111069081D03*
X140970000Y-81280000D03*
%TO.N,TRIANGLE*%
X102870000Y-93980000D03*
X165100000Y-44450000D03*
X106680000Y-105410000D03*
%TO.N,R1*%
X102870000Y-105410000D03*
X101600000Y-93980000D03*
X195580000Y-40640000D03*
%TO.N,L1*%
X100330000Y-93980000D03*
X223520000Y-38100000D03*
X102870000Y-103379531D03*
%TO.N,CROSS*%
X107550000Y-110090000D03*
%TO.N,CIRCLE*%
X106680000Y-107950000D03*
X139700000Y-115570000D03*
X160020000Y-77470000D03*
%TO.N,R2*%
X104140000Y-106680000D03*
X113030000Y-106680000D03*
X187960000Y-77470000D03*
%TO.N,L2*%
X219710000Y-73660000D03*
X112459500Y-104140000D03*
X109220000Y-104140000D03*
%TO.N,UP*%
X92710000Y-114300000D03*
%TO.N,SCL*%
X102870000Y-83820000D03*
X119439500Y-46319500D03*
X111060500Y-102870000D03*
%TO.N,SDA*%
X110260997Y-102870000D03*
X101729500Y-83820000D03*
X120768411Y-45849500D03*
%TO.N,RGB_DATA_P1*%
X130810000Y-134620000D03*
X63500000Y-143510000D03*
%TO.N,RGB_DATA_P2*%
X71120000Y-144780000D03*
X59690000Y-143510000D03*
%TO.N,RGB_DATA_P3*%
X67310000Y-142240000D03*
X81280000Y-143510000D03*
%TO.N,RGB_DATA_P4*%
X88900000Y-144780000D03*
X76200000Y-143510000D03*
%TO.N,Net-(R1-Pad2)*%
X76870000Y-113630000D03*
X72390000Y-105260500D03*
%TD*%
D35*
%TO.N,+5V*%
X116840000Y-88900000D02*
X115315014Y-87375014D01*
X140455534Y-29940534D02*
X140455534Y-32919500D01*
X88436602Y-141509534D02*
X87763534Y-140836466D01*
X70491534Y-143091534D02*
X70491534Y-140328466D01*
X123190000Y-100330000D02*
X127000000Y-104140000D01*
X115789534Y-139505534D02*
X115789534Y-138649534D01*
X137160000Y-133154896D02*
X135370000Y-131364896D01*
X218440000Y-55880000D02*
X218440000Y-41910000D01*
X237490000Y-92710000D02*
X233680000Y-96520000D01*
X199319278Y-64699278D02*
X193040000Y-58420000D01*
X79127534Y-143091534D02*
X79127534Y-140582466D01*
X177429563Y-86730437D02*
X179070000Y-85090000D01*
X63500000Y-76200000D02*
X67310000Y-72390000D01*
X203061394Y-64699278D02*
X205810000Y-61950672D01*
X123190000Y-87630000D02*
X123190000Y-100330000D01*
X201860000Y-86749741D02*
X206620259Y-86749741D01*
X71672602Y-141509534D02*
X70491534Y-140328466D01*
X205742537Y-96517463D02*
X195517534Y-96517463D01*
X230859950Y-62230000D02*
X226060000Y-62230000D01*
X206620259Y-86749741D02*
X208280000Y-85090000D01*
X123190000Y-87630000D02*
X123190000Y-52070000D01*
X226060000Y-62230000D02*
X227095675Y-62230000D01*
X106680000Y-139700000D02*
X110490000Y-135890000D01*
X179070000Y-85090000D02*
X179070000Y-71120000D01*
X154940000Y-72390000D02*
X165100000Y-62230000D01*
X137160000Y-135890000D02*
X137160000Y-133154896D01*
X84761498Y-74930000D02*
X84761498Y-75871498D01*
X229045534Y-64179859D02*
X229045534Y-64293534D01*
X193040000Y-41910000D02*
X190500000Y-39370000D01*
X73117534Y-141509534D02*
X71672602Y-141509534D01*
X205810000Y-61950672D02*
X205810000Y-56456638D01*
X84761498Y-74930000D02*
X84761498Y-77033570D01*
X62644000Y-139700000D02*
X71120000Y-139700000D01*
X111760000Y-88900000D02*
X116840000Y-88900000D01*
X154940000Y-72390000D02*
X153528466Y-72390000D01*
X147320000Y-75977534D02*
X151352466Y-75977534D01*
X59869740Y-69498756D02*
X59869740Y-67842899D01*
X135370000Y-131364896D02*
X134620000Y-131364896D01*
X62421534Y-139477534D02*
X62644000Y-139700000D01*
X140145534Y-108009534D02*
X140145534Y-104140000D01*
X57150000Y-76200000D02*
X63500000Y-76200000D01*
X176600000Y-65160000D02*
X176749534Y-65309534D01*
X102260000Y-100990000D02*
X102870000Y-100990000D01*
X201859278Y-64699278D02*
X199319278Y-64699278D01*
X115315014Y-87375014D02*
X115315014Y-79259701D01*
X111760000Y-88900000D02*
X110490000Y-90170000D01*
X96990000Y-99060000D02*
X100330000Y-99060000D01*
X206459278Y-64699278D02*
X206530000Y-64770000D01*
X88768173Y-69851827D02*
X88768173Y-67810023D01*
X62421534Y-139477534D02*
X62421534Y-142525534D01*
X232236000Y-67484000D02*
X229045534Y-64293534D01*
X176600000Y-56580877D02*
X176600000Y-65160000D01*
X237490000Y-83820000D02*
X237490000Y-92710000D01*
X208280000Y-71120000D02*
X203200000Y-66040000D01*
X235020000Y-58069950D02*
X230859950Y-62230000D01*
X102870000Y-100990000D02*
X109830000Y-100990000D01*
X235020000Y-56671975D02*
X235020000Y-58069950D01*
X123190000Y-52070000D02*
X124460000Y-50800000D01*
X173259534Y-65309534D02*
X171450000Y-65309534D01*
X171450000Y-65309534D02*
X168179534Y-65309534D01*
X227095675Y-62230000D02*
X229045534Y-64179859D01*
X87763534Y-143091534D02*
X87763534Y-140836466D01*
X224790000Y-62230000D02*
X226060000Y-62230000D01*
X147320000Y-104140000D02*
X149860000Y-101600000D01*
X165100000Y-62230000D02*
X153670000Y-50800000D01*
X233680000Y-96520000D02*
X224981534Y-96520000D01*
X79127534Y-140582466D02*
X80010000Y-139700000D01*
X62421534Y-142525534D02*
X61855534Y-143091534D01*
X55708496Y-73660000D02*
X55708496Y-76622572D01*
X179070000Y-95250000D02*
X177800000Y-96520000D01*
X201859278Y-64699278D02*
X203061394Y-64699278D01*
X166370000Y-63500000D02*
X165100000Y-62230000D01*
X88900000Y-139700000D02*
X101600000Y-139700000D01*
X149860000Y-99340050D02*
X148309950Y-97790000D01*
X71120000Y-139700000D02*
X80010000Y-139700000D01*
X121920000Y-88900000D02*
X123190000Y-87630000D01*
D36*
X97020000Y-100990000D02*
X96990000Y-100960000D01*
D35*
X234569168Y-86740832D02*
X231140000Y-86740832D01*
X151352466Y-75977534D02*
X154940000Y-72390000D01*
X115789534Y-138649534D02*
X115570000Y-138430000D01*
X98290000Y-100990000D02*
X102870000Y-100990000D01*
X168179534Y-65309534D02*
X166370000Y-63500000D01*
X109830000Y-100990000D02*
X110490000Y-100330000D01*
X110490000Y-100330000D02*
X111760000Y-101600000D01*
X84761498Y-74930000D02*
X84761498Y-73858502D01*
X148309950Y-97790000D02*
X146050000Y-97790000D01*
X111029534Y-88169534D02*
X108621534Y-88169534D01*
X70491534Y-140328466D02*
X71120000Y-139700000D01*
X87763534Y-140836466D02*
X88900000Y-139700000D01*
X145355534Y-33595534D02*
X145355534Y-29940534D01*
X55708496Y-76622572D02*
X55309534Y-77021534D01*
X149930000Y-68791534D02*
X149930000Y-67991534D01*
X93980000Y-77470000D02*
X96520000Y-74930000D01*
X127000000Y-104140000D02*
X140145534Y-104140000D01*
X84761498Y-75871498D02*
X86360000Y-77470000D01*
X208280000Y-85090000D02*
X208280000Y-93980000D01*
X110490000Y-90170000D02*
X110490000Y-100330000D01*
X153528466Y-72390000D02*
X149930000Y-68791534D01*
X55708496Y-74758496D02*
X57150000Y-76200000D01*
X208280000Y-93980000D02*
X205742537Y-96517463D01*
X67310000Y-72390000D02*
X67310000Y-49530000D01*
X96520000Y-74930000D02*
X96520000Y-50800000D01*
X100330000Y-99060000D02*
X102260000Y-100990000D01*
X218440000Y-41910000D02*
X215900000Y-39370000D01*
X149860000Y-101600000D02*
X149860000Y-99340050D01*
X106680000Y-139700000D02*
X101600000Y-139700000D01*
X110490000Y-135890000D02*
X113030000Y-138430000D01*
X208280000Y-85090000D02*
X208280000Y-71120000D01*
X193040000Y-58420000D02*
X193040000Y-41910000D01*
X179070000Y-71120000D02*
X173259534Y-65309534D01*
X140455534Y-32919500D02*
X140556034Y-33020000D01*
X134620000Y-138430000D02*
X137160000Y-135890000D01*
X237490000Y-83820000D02*
X234569168Y-86740832D01*
X55708496Y-73660000D02*
X59869740Y-69498756D01*
X111760000Y-101600000D02*
X111760000Y-134620000D01*
X177800000Y-96520000D02*
X167069534Y-96520000D01*
X172720000Y-86730437D02*
X177429563Y-86730437D01*
X80054602Y-141509534D02*
X79127534Y-140582466D01*
X179070000Y-95250000D02*
X179070000Y-85090000D01*
X116840000Y-88900000D02*
X121920000Y-88900000D01*
X84761498Y-73858502D02*
X88768173Y-69851827D01*
X113030000Y-138430000D02*
X115570000Y-138430000D01*
X55708496Y-73660000D02*
X55708496Y-74758496D01*
D36*
X98260000Y-100960000D02*
X98290000Y-100990000D01*
D35*
X80010000Y-139700000D02*
X88900000Y-139700000D01*
X146050000Y-34290000D02*
X145355534Y-33595534D01*
X237490000Y-83820000D02*
X237490000Y-72738000D01*
D36*
X96990000Y-100960000D02*
X98260000Y-100960000D01*
D35*
X203061394Y-64699278D02*
X206459278Y-64699278D01*
X111029534Y-88169534D02*
X111760000Y-88900000D01*
X81753534Y-141509534D02*
X80054602Y-141509534D01*
X90389534Y-141509534D02*
X88436602Y-141509534D01*
X237490000Y-72738000D02*
X232236000Y-67484000D01*
X224790000Y-62230000D02*
X218440000Y-55880000D01*
X143673534Y-75977534D02*
X147320000Y-75977534D01*
X115570000Y-138430000D02*
X134620000Y-138430000D01*
X203200000Y-66040000D02*
X201859278Y-64699278D01*
X67310000Y-49530000D02*
X68580000Y-48260000D01*
X140145534Y-104140000D02*
X147320000Y-104140000D01*
X84761498Y-77033570D02*
X84265534Y-77529534D01*
X176749534Y-65309534D02*
X171450000Y-65309534D01*
X111760000Y-134620000D02*
X110490000Y-135890000D01*
X86360000Y-77470000D02*
X93980000Y-77470000D01*
D37*
%TO.N,XIN*%
X84458856Y-114365458D02*
X83490000Y-115334314D01*
X83485636Y-117944364D02*
X83485636Y-116874364D01*
X84458856Y-111327500D02*
X84458856Y-114365458D01*
X83010000Y-118420000D02*
X83485636Y-117944364D01*
X83485636Y-116874364D02*
X83490000Y-116870000D01*
X83490000Y-115334314D02*
X83490000Y-116870000D01*
%TO.N,Net-(C3-Pad1)*%
X84510000Y-116930000D02*
X85120000Y-116930000D01*
X85120000Y-116930000D02*
X86210000Y-118020000D01*
X86210000Y-119040000D02*
X84710000Y-120540000D01*
X86210000Y-118020000D02*
X86210000Y-119040000D01*
X84710000Y-120540000D02*
X84710000Y-120620000D01*
%TO.N,+1V1*%
X84858856Y-101831144D02*
X84450000Y-101422288D01*
X88708132Y-101484485D02*
X88700000Y-101476353D01*
X85658856Y-112328856D02*
X85658856Y-111327500D01*
X86360000Y-113030000D02*
X85658856Y-112328856D01*
X88700000Y-101476353D02*
X88700000Y-100810000D01*
X84858856Y-101831144D02*
X85090000Y-101600000D01*
X86858856Y-104452500D02*
X86858856Y-105245621D01*
X86858856Y-105245621D02*
X86782896Y-105321581D01*
X86560000Y-113230000D02*
X86360000Y-113030000D01*
X86560000Y-115090000D02*
X86560000Y-113230000D01*
X84450000Y-101422288D02*
X84450000Y-100210000D01*
X86858856Y-104452500D02*
X86858856Y-103333761D01*
X86858856Y-103333761D02*
X88708132Y-101484485D01*
X84858856Y-104452500D02*
X84858856Y-101831144D01*
%TO.N,GND*%
X81881273Y-117518727D02*
X81881273Y-119491273D01*
X229870000Y-90170000D02*
X229940000Y-90100000D01*
X60955534Y-143991534D02*
X60478466Y-143991534D01*
X115789534Y-142020466D02*
X115570000Y-142240000D01*
X133420000Y-134550000D02*
X133350000Y-134620000D01*
X91979534Y-141509534D02*
X92710000Y-142240000D01*
X84450000Y-99250000D02*
X84450000Y-98296642D01*
X167069534Y-98360466D02*
X166370000Y-99060000D01*
X72680000Y-115570000D02*
X72680000Y-123570000D01*
X177709534Y-65309534D02*
X178339534Y-65309534D01*
X89750000Y-99243722D02*
X89749603Y-99243325D01*
D35*
X82077500Y-95722500D02*
X82550000Y-95250000D01*
D37*
X209580932Y-64770000D02*
X209612466Y-64738466D01*
X140145534Y-108969534D02*
X140145534Y-110044466D01*
X139680534Y-34155000D02*
X139545534Y-34290000D01*
D36*
X93490000Y-100030000D02*
X93490000Y-99147941D01*
D37*
X64770000Y-67310000D02*
X64002899Y-66542899D01*
X107661534Y-88169534D02*
X106140466Y-88169534D01*
X86210000Y-120000000D02*
X86210000Y-121770000D01*
X171450000Y-90170000D02*
X171520000Y-90100000D01*
X74390466Y-141509534D02*
X74930000Y-140970000D01*
X83010000Y-120420000D02*
X84710000Y-118720000D01*
X92003788Y-103576212D02*
X92710000Y-102870000D01*
X154321534Y-66691534D02*
X154940000Y-67310000D01*
X139680534Y-29940534D02*
X139680534Y-34155000D01*
X85530000Y-116292368D02*
X86526853Y-117289221D01*
X224981534Y-97480000D02*
X224981534Y-98868466D01*
X82530000Y-116870000D02*
X81881273Y-117518727D01*
X55309534Y-77981534D02*
X55309534Y-79439534D01*
X146310534Y-29940534D02*
X147225534Y-29025534D01*
X88700000Y-99850000D02*
X88700000Y-98698408D01*
X144850000Y-99090000D02*
X144850000Y-101530000D01*
D35*
X81340000Y-95722500D02*
X82077500Y-95722500D01*
D37*
X85500000Y-98401003D02*
X85504830Y-98396173D01*
X85530000Y-116050000D02*
X85530000Y-116292368D01*
X119869701Y-77959701D02*
X116515014Y-77959701D01*
X86560653Y-116050653D02*
X87674922Y-116050653D01*
X84050371Y-113030000D02*
X83319438Y-113760933D01*
X72680000Y-115570000D02*
X72680000Y-113320000D01*
X84058856Y-111327500D02*
X84058856Y-113030000D01*
X83408627Y-121912754D02*
X83010000Y-121514127D01*
X84265534Y-78489534D02*
X84265534Y-79564466D01*
X65530000Y-115570000D02*
X65530000Y-113540000D01*
X74077534Y-141509534D02*
X74390466Y-141509534D01*
X84058856Y-113030000D02*
X84050371Y-113030000D01*
X181010877Y-55280877D02*
X181610000Y-55880000D01*
X229940000Y-90100000D02*
X229940000Y-88040832D01*
X71910000Y-109220000D02*
X69850000Y-109220000D01*
X65530000Y-123570000D02*
X65530000Y-115570000D01*
X78227534Y-143991534D02*
X76988466Y-143991534D01*
X93980000Y-108289500D02*
X93941526Y-108327974D01*
X85500000Y-99850000D02*
X85500000Y-98401003D01*
X62421534Y-138517534D02*
X62421534Y-137351534D01*
X139500534Y-29940534D02*
X138585534Y-29025534D01*
X77142054Y-104922500D02*
X78106250Y-104922500D01*
X84058856Y-114199772D02*
X82530000Y-115728628D01*
X227609068Y-64770000D02*
X226060000Y-64770000D01*
X82713534Y-141509534D02*
X83089534Y-141509534D01*
D36*
X96990000Y-100010000D02*
X93510000Y-100010000D01*
D37*
X207490000Y-64770000D02*
X209580932Y-64770000D01*
X240030000Y-55880000D02*
X239521975Y-55371975D01*
X64002899Y-66542899D02*
X61069740Y-66542899D01*
X83010000Y-121514127D02*
X83010000Y-120620000D01*
X146155534Y-29940534D02*
X146155534Y-31493886D01*
X140145534Y-110044466D02*
X139700000Y-110490000D01*
X73560000Y-101127500D02*
X75169837Y-101127500D01*
X106140466Y-88169534D02*
X105410000Y-88900000D01*
X133420000Y-132664896D02*
X133420000Y-134550000D01*
X76988466Y-143991534D02*
X76200000Y-144780000D01*
X151130000Y-66691534D02*
X154321534Y-66691534D01*
X200660000Y-90170000D02*
X200660000Y-88049741D01*
X178339534Y-65309534D02*
X179070000Y-66040000D01*
X86560000Y-116050000D02*
X86560653Y-116050653D01*
X144850000Y-101530000D02*
X144780000Y-101600000D01*
X167069534Y-97765534D02*
X167069534Y-98360466D01*
X89750000Y-100850000D02*
X89750000Y-99243722D01*
X81881273Y-119491273D02*
X83010000Y-120620000D01*
X55309534Y-79439534D02*
X55880000Y-80010000D01*
X142713534Y-75977534D02*
X141192466Y-75977534D01*
D36*
X144455534Y-34081965D02*
X144463023Y-34089454D01*
D37*
X86067246Y-121912754D02*
X83408627Y-121912754D01*
X93180023Y-66510023D02*
X89968173Y-66510023D01*
D36*
X98290000Y-100030000D02*
X97010000Y-100030000D01*
D37*
X239521975Y-55371975D02*
X236220000Y-55371975D01*
X195517534Y-97477463D02*
X195517534Y-98997534D01*
X228085534Y-64293534D02*
X227609068Y-64770000D01*
X210096638Y-55156638D02*
X207010000Y-55156638D01*
X92263039Y-104586961D02*
X92710000Y-104140000D01*
X224981534Y-98868466D02*
X224790000Y-99060000D01*
X72680000Y-113320000D02*
X72390000Y-113030000D01*
X69591534Y-143991534D02*
X67791534Y-143991534D01*
X120650000Y-78740000D02*
X119869701Y-77959701D01*
D36*
X93490000Y-99147941D02*
X92919973Y-98577914D01*
X144455534Y-32755534D02*
X144455534Y-34081965D01*
D37*
X93941526Y-108327974D02*
X91896950Y-108327974D01*
X146155534Y-31493886D02*
X146158298Y-31496650D01*
X146130534Y-29940534D02*
X146310534Y-29940534D01*
X177800000Y-55280877D02*
X181010877Y-55280877D01*
X195517534Y-98997534D02*
X195580000Y-99060000D01*
X84710000Y-118720000D02*
X84710000Y-118420000D01*
X82530000Y-115728628D02*
X82530000Y-116870000D01*
X171520000Y-90100000D02*
X171520000Y-88030437D01*
X83089534Y-141509534D02*
X83820000Y-142240000D01*
X84265534Y-79564466D02*
X83820000Y-80010000D01*
X91270232Y-104586961D02*
X92263039Y-104586961D01*
X62421534Y-137351534D02*
X62230000Y-137160000D01*
X88700000Y-98698408D02*
X88695169Y-98693577D01*
X210820000Y-55880000D02*
X210096638Y-55156638D01*
X139680534Y-29940534D02*
X139500534Y-29940534D01*
X84450000Y-98296642D02*
X84441384Y-98288026D01*
X85571534Y-143991534D02*
X85090000Y-143510000D01*
X84058856Y-113030000D02*
X84058856Y-114199772D01*
X115789534Y-140465534D02*
X115789534Y-142020466D01*
X75169837Y-101127500D02*
X75170654Y-101128317D01*
X60478466Y-143991534D02*
X59690000Y-144780000D01*
X91270232Y-103576212D02*
X92003788Y-103576212D01*
D36*
X97010000Y-100030000D02*
X96990000Y-100010000D01*
D37*
X83010000Y-120620000D02*
X83010000Y-120420000D01*
X141192466Y-75977534D02*
X140970000Y-76200000D01*
X67791534Y-143991534D02*
X67310000Y-143510000D01*
X86863534Y-143991534D02*
X85571534Y-143991534D01*
X86210000Y-121770000D02*
X86067246Y-121912754D01*
D36*
X93510000Y-100010000D02*
X93490000Y-100030000D01*
D37*
X65530000Y-113540000D02*
X66040000Y-113030000D01*
X91349534Y-141509534D02*
X91979534Y-141509534D01*
X93980000Y-67310000D02*
X93180023Y-66510023D01*
%TO.N,+3V3*%
X85661981Y-105220032D02*
X85659129Y-105220032D01*
X88496356Y-105290000D02*
X87658856Y-105290000D01*
D35*
X89750000Y-101810000D02*
X92670000Y-101810000D01*
D37*
X87258856Y-103428735D02*
X88877591Y-101810000D01*
X88193788Y-103576212D02*
X87658856Y-104111144D01*
X87258856Y-104452500D02*
X87258856Y-105381120D01*
X71267177Y-95722500D02*
X71263737Y-95719060D01*
D35*
X70400000Y-105960000D02*
X69850000Y-105410000D01*
D37*
X87658856Y-105290000D02*
X87658856Y-104452500D01*
X85258856Y-110794106D02*
X85115669Y-110650919D01*
X85532148Y-115087852D02*
X85532148Y-112979966D01*
X87745116Y-108890000D02*
X87605398Y-108750282D01*
X73200000Y-108890000D02*
X72870000Y-109220000D01*
X85658856Y-104452500D02*
X85658856Y-105219759D01*
X82315919Y-108890000D02*
X82386113Y-108819806D01*
X85640000Y-102870000D02*
X85640000Y-100950000D01*
X85640000Y-104433644D02*
X85640000Y-102870000D01*
X88496356Y-108890000D02*
X87745116Y-108890000D01*
X80190000Y-104922500D02*
X79066250Y-104922500D01*
D38*
X93520000Y-100960000D02*
X93490000Y-100990000D01*
D37*
X81621356Y-105290000D02*
X80557500Y-105290000D01*
X85658856Y-104452500D02*
X85640000Y-104433644D01*
D35*
X69850000Y-98072500D02*
X70600000Y-97322500D01*
X69850000Y-105410000D02*
X69850000Y-98072500D01*
D37*
X87258856Y-105381120D02*
X87377580Y-105499844D01*
X85258856Y-105171920D02*
X85174795Y-105255981D01*
D35*
X70400000Y-105960000D02*
X78829916Y-105960000D01*
D37*
X85640000Y-100950000D02*
X85500000Y-100810000D01*
X85532148Y-112979966D02*
X85258856Y-112706674D01*
D35*
X72200000Y-95722500D02*
X80380000Y-95722500D01*
X78829916Y-105960000D02*
X79066250Y-105723666D01*
D37*
X89461217Y-104586961D02*
X90310232Y-104586961D01*
X85658856Y-105219759D02*
X85659129Y-105220032D01*
D35*
X71263737Y-95719060D02*
X70600000Y-96382797D01*
D37*
X85258856Y-104452500D02*
X85258856Y-105171920D01*
X85258856Y-104452500D02*
X85258856Y-103251144D01*
X88758178Y-105290000D02*
X89461217Y-104586961D01*
X85258856Y-112706674D02*
X85258856Y-111327500D01*
X81621356Y-108890000D02*
X73200000Y-108890000D01*
D35*
X80380000Y-96937500D02*
X80760000Y-97317500D01*
D37*
X88496356Y-108890000D02*
X90374924Y-108890000D01*
X85258856Y-103251144D02*
X85640000Y-102870000D01*
D35*
X72200000Y-95722500D02*
X71267177Y-95722500D01*
D37*
X87658856Y-104111144D02*
X87658856Y-104452500D01*
X90310232Y-103576212D02*
X88193788Y-103576212D01*
D38*
X94790000Y-100960000D02*
X93520000Y-100960000D01*
D35*
X79066250Y-105723666D02*
X79066250Y-104922500D01*
X70600000Y-96382797D02*
X70600000Y-97322500D01*
X92670000Y-101810000D02*
X93490000Y-100990000D01*
D37*
X81621356Y-108890000D02*
X82315919Y-108890000D01*
X87258856Y-104452500D02*
X87258856Y-103428735D01*
X88496356Y-105290000D02*
X88758178Y-105290000D01*
X90374924Y-108890000D02*
X90936950Y-108327974D01*
X80557500Y-105290000D02*
X80190000Y-104922500D01*
D35*
X80380000Y-95722500D02*
X80380000Y-96937500D01*
D37*
X85258856Y-111327500D02*
X85258856Y-110794106D01*
X81621356Y-105290000D02*
X82304618Y-105290000D01*
X88877591Y-101810000D02*
X89750000Y-101810000D01*
X82304618Y-105290000D02*
X82390391Y-105375773D01*
X85530000Y-115090000D02*
X85532148Y-115087852D01*
%TO.N,QSPI_SS*%
X73555000Y-97322500D02*
X73560000Y-97317500D01*
X82458856Y-104452500D02*
X82018856Y-104012500D01*
D38*
X70377000Y-98565500D02*
X70377000Y-102870000D01*
D37*
X71620000Y-97322500D02*
X73555000Y-97322500D01*
D38*
X71620000Y-97322500D02*
X70377000Y-98565500D01*
X70377000Y-102870000D02*
X71519500Y-104012500D01*
D37*
X82018856Y-104012500D02*
X74760000Y-104012500D01*
D38*
X71519500Y-104012500D02*
X74760000Y-104012500D01*
D37*
%TO.N,USB_D+*%
X142155534Y-29940534D02*
X142155534Y-28965534D01*
X142155534Y-31120966D02*
X142784568Y-31750000D01*
X142155534Y-29940534D02*
X142155534Y-31120966D01*
X142301068Y-28820000D02*
X143010000Y-28820000D01*
X98660000Y-84924315D02*
X86550000Y-97034315D01*
X98660000Y-55010001D02*
X98660000Y-84924315D01*
X140404314Y-43180000D02*
X110490001Y-43180000D01*
X143010000Y-28820000D02*
X143155534Y-28965534D01*
X142784568Y-40799746D02*
X140404314Y-43180000D01*
X142155534Y-28965534D02*
X142301068Y-28820000D01*
X142784568Y-31750000D02*
X142784568Y-40799746D01*
X86550000Y-97034315D02*
X86550000Y-99820000D01*
X143155534Y-28965534D02*
X143155534Y-29940534D01*
X110490001Y-43180000D02*
X98660000Y-55010001D01*
%TO.N,USB_D-*%
X143655534Y-30915534D02*
X143184568Y-31386500D01*
X99060000Y-85090000D02*
X87630000Y-96520000D01*
X99060000Y-55175686D02*
X99060000Y-85090000D01*
X143184568Y-31386500D02*
X143183572Y-31386500D01*
X143655534Y-29940534D02*
X143655534Y-30915534D01*
X87630000Y-96520000D02*
X87630000Y-99820000D01*
X140569999Y-43580000D02*
X110655686Y-43580000D01*
X110655686Y-43580000D02*
X99060000Y-55175686D01*
X143184568Y-31386500D02*
X143184568Y-40965432D01*
X142655534Y-30858462D02*
X143183572Y-31386500D01*
X143184568Y-40965432D02*
X140569999Y-43580000D01*
X142655534Y-29940534D02*
X142655534Y-30858462D01*
%TO.N,XOUT*%
X84858856Y-114531144D02*
X84858856Y-111327500D01*
X84510000Y-114880000D02*
X84858856Y-114531144D01*
X84510000Y-115910000D02*
X84510000Y-114880000D01*
%TO.N,RGB_DATA_LEFT*%
X64230000Y-108490000D02*
X63500000Y-109220000D01*
X53455034Y-74814966D02*
X59219740Y-69050260D01*
X81621356Y-108490000D02*
X64230000Y-108490000D01*
X53455034Y-100445034D02*
X53455034Y-74814966D01*
X59219740Y-69050260D02*
X59219740Y-67192899D01*
X62230000Y-109220000D02*
X53455034Y-100445034D01*
X59219740Y-67192899D02*
X59869740Y-66542899D01*
X63500000Y-109220000D02*
X62230000Y-109220000D01*
%TO.N,RGB_DATA_TRIANGLE*%
X154940000Y-71120000D02*
X152965572Y-71120000D01*
X176600000Y-55280877D02*
X175260000Y-56620877D01*
X151130000Y-69284428D02*
X151130000Y-67991534D01*
X152965572Y-71120000D02*
X151130000Y-69284428D01*
X175260000Y-56620877D02*
X175260000Y-59690000D01*
%TO.N,RGB_DATA_R2*%
X201860000Y-90100000D02*
X201860000Y-88049741D01*
X203200000Y-91440000D02*
X201860000Y-90100000D01*
X229940000Y-86740832D02*
X228600000Y-88080832D01*
X228600000Y-88080832D02*
X228600000Y-90170000D01*
%TO.N,RGB_DATA_DOWN*%
X62230000Y-71120000D02*
X61069740Y-69959740D01*
X86360000Y-71120000D02*
X87630000Y-69850000D01*
X87630000Y-69850000D02*
X87630000Y-67648196D01*
X61069740Y-69959740D02*
X61069740Y-67842899D01*
X87630000Y-67648196D02*
X88768173Y-66510023D01*
%TO.N,RGB_DATA_R1*%
X205160000Y-57730000D02*
X203200000Y-59690000D01*
X177800000Y-56580877D02*
X177800000Y-58420000D01*
X177800000Y-58420000D02*
X179070000Y-59690000D01*
X205160000Y-55806638D02*
X205160000Y-57730000D01*
X205810000Y-55156638D02*
X205160000Y-55806638D01*
%TO.N,RGB_DATA_CIRCLE*%
X172720000Y-90170000D02*
X172720000Y-88030437D01*
X198120000Y-89289741D02*
X198120000Y-90170000D01*
X200660000Y-86749741D02*
X198120000Y-89289741D01*
%TO.N,RGB_DATA_RIGHT*%
X89968173Y-67810023D02*
X89968173Y-70918173D01*
X114665014Y-80914986D02*
X114665014Y-78609701D01*
X89968173Y-70918173D02*
X90170000Y-71120000D01*
X113030000Y-82550000D02*
X114665014Y-80914986D01*
X114665014Y-78609701D02*
X115315014Y-77959701D01*
%TO.N,RGB_DATA_L1*%
X235020000Y-55371975D02*
X234370000Y-56021975D01*
X234370000Y-57730000D02*
X232410000Y-59690000D01*
X234370000Y-56021975D02*
X234370000Y-57730000D01*
X207010000Y-58420000D02*
X207010000Y-56456638D01*
X208280000Y-59690000D02*
X207010000Y-58420000D01*
%TO.N,RGB_DATA_CROSS*%
X170870000Y-88210000D02*
X170870000Y-87380437D01*
X168910000Y-90170000D02*
X170870000Y-88210000D01*
X146050000Y-99090000D02*
X148560000Y-99090000D01*
X170870000Y-87380437D02*
X171520000Y-86730437D01*
X148560000Y-99090000D02*
X148590000Y-99060000D01*
%TO.N,RGB_DATA_SQUARE*%
X148590000Y-69850000D02*
X148590000Y-68031534D01*
X148590000Y-68031534D02*
X149930000Y-66691534D01*
X116515014Y-82225014D02*
X116840000Y-82550000D01*
X116515014Y-79259701D02*
X116515014Y-82225014D01*
X147320000Y-71120000D02*
X148590000Y-69850000D01*
%TO.N,RGB_DATA_L2*%
X231140000Y-88040832D02*
X231140000Y-88900000D01*
X236220000Y-59690000D02*
X236220000Y-56671975D01*
X231140000Y-88900000D02*
X232410000Y-90170000D01*
%TO.N,RGB_DATA_UP*%
X144850000Y-97790000D02*
X143510000Y-99130000D01*
X143510000Y-99130000D02*
X143510000Y-101600000D01*
X134620000Y-133350000D02*
X134620000Y-132664896D01*
X135890000Y-134620000D02*
X134620000Y-133350000D01*
%TO.N,OPT1*%
X55500000Y-45100000D02*
X53700000Y-43300000D01*
X73660000Y-108090000D02*
X73653597Y-108083597D01*
X62929283Y-108083597D02*
X62230000Y-107384314D01*
X69850000Y-72390000D02*
X69850000Y-46990000D01*
X53700000Y-40745534D02*
X53700000Y-34245534D01*
X69850000Y-46990000D02*
X67960000Y-45100000D01*
X81621356Y-108090000D02*
X73660000Y-108090000D01*
X67960000Y-45100000D02*
X55500000Y-45100000D01*
X53700000Y-43300000D02*
X53700000Y-40745534D01*
X62230000Y-80010000D02*
X69850000Y-72390000D01*
X62230000Y-107384314D02*
X62230000Y-80010000D01*
X73653597Y-108083597D02*
X62929283Y-108083597D01*
%TO.N,OPT2*%
X62630000Y-80175686D02*
X70250000Y-72555685D01*
X81621356Y-107690000D02*
X73825686Y-107690000D01*
X70250000Y-72555685D02*
X70250000Y-46824314D01*
X73819282Y-107683597D02*
X63094969Y-107683597D01*
X68125686Y-44700000D02*
X63100000Y-44700000D01*
X63094969Y-107683597D02*
X62630000Y-107218628D01*
X62400000Y-44000000D02*
X62400000Y-40750000D01*
X62630000Y-107218628D02*
X62630000Y-80175686D01*
X70250000Y-46824314D02*
X68125686Y-44700000D01*
X73825686Y-107690000D02*
X73819282Y-107683597D01*
X62400000Y-40750000D02*
X62400000Y-34250000D01*
X63100000Y-44700000D02*
X62400000Y-44000000D01*
%TO.N,OPT3*%
X70650000Y-46894314D02*
X71150000Y-46394314D01*
X73984967Y-107283597D02*
X63260655Y-107283597D01*
X70650000Y-72721370D02*
X70650000Y-46894314D01*
X63030000Y-107052942D02*
X63030000Y-80341372D01*
X71150000Y-46394314D02*
X71150000Y-40750000D01*
X73991372Y-107290000D02*
X73984967Y-107283597D01*
X63260655Y-107283597D02*
X63030000Y-107052942D01*
X81621356Y-107290000D02*
X73991372Y-107290000D01*
X71150000Y-40750000D02*
X71150000Y-34250000D01*
X63030000Y-80341372D02*
X70650000Y-72721370D01*
%TO.N,OPT4*%
X72390000Y-45720000D02*
X79880000Y-45720000D01*
X81050000Y-44550000D02*
X81050000Y-40750000D01*
X79880000Y-45720000D02*
X81050000Y-44550000D01*
X71050000Y-47060000D02*
X72390000Y-45720000D01*
X71050000Y-72887055D02*
X71050000Y-47060000D01*
X63430000Y-106610000D02*
X63430000Y-80507058D01*
X81050000Y-40750000D02*
X81050000Y-34250000D01*
X74150655Y-106883597D02*
X63703597Y-106883597D01*
X81621356Y-106890000D02*
X74157058Y-106890000D01*
X63430000Y-80507058D02*
X71050000Y-72887055D01*
X74157058Y-106890000D02*
X74150655Y-106883597D01*
X63703597Y-106883597D02*
X63430000Y-106610000D01*
%TO.N,OPT5*%
X74322744Y-106490000D02*
X74316340Y-106483597D01*
X88380000Y-46120000D02*
X89750000Y-44750000D01*
X89750000Y-44750000D02*
X89750000Y-40750000D01*
X72650000Y-46120000D02*
X88380000Y-46120000D01*
X71450000Y-73052744D02*
X71450000Y-47320000D01*
X81621356Y-106490000D02*
X74322744Y-106490000D01*
X63830000Y-105740000D02*
X63830000Y-80672744D01*
X63830000Y-80672744D02*
X71450000Y-73052744D01*
X71450000Y-47320000D02*
X72650000Y-46120000D01*
X74316340Y-106483597D02*
X64573597Y-106483597D01*
X64573597Y-106483597D02*
X63830000Y-105740000D01*
X89750000Y-40750000D02*
X89750000Y-34250000D01*
%TO.N,OPT6*%
X72815686Y-46520000D02*
X92680000Y-46520000D01*
X71850000Y-47485686D02*
X72815686Y-46520000D01*
X64230000Y-80838430D02*
X71850000Y-73218429D01*
X68580000Y-105860000D02*
X64515686Y-105860000D01*
X71850000Y-73218429D02*
X71850000Y-47485686D01*
X98450000Y-40750000D02*
X98450000Y-34250000D01*
X64230000Y-105574314D02*
X64230000Y-80838430D01*
X92680000Y-46520000D02*
X98450000Y-40750000D01*
X81621356Y-106090000D02*
X80410137Y-106090000D01*
X64515686Y-105860000D02*
X64230000Y-105574314D01*
X80410137Y-106090000D02*
X80210637Y-105890500D01*
%TO.N,LEFT*%
X79470000Y-109830000D02*
X79610000Y-109690000D01*
X79610000Y-109690000D02*
X81621356Y-109690000D01*
X61834671Y-109830000D02*
X79470000Y-109830000D01*
%TO.N,DOWN*%
X62238970Y-110855139D02*
X62864109Y-110230000D01*
X62864109Y-110230000D02*
X80933856Y-110230000D01*
X81073856Y-110090000D02*
X81621356Y-110090000D01*
X80933856Y-110230000D02*
X81073856Y-110090000D01*
%TO.N,RIGHT*%
X64630000Y-110630000D02*
X63500000Y-111760000D01*
X63500000Y-111760000D02*
X62244466Y-111760000D01*
X64630000Y-110630000D02*
X81481356Y-110630000D01*
X81481356Y-110630000D02*
X81621356Y-110490000D01*
%TO.N,SQUARE*%
X138430000Y-77470000D02*
X138430000Y-72390000D01*
X140970000Y-81280000D02*
X140970000Y-80010000D01*
X107679500Y-111069081D02*
X107100419Y-110490000D01*
X140970000Y-80010000D02*
X138430000Y-77470000D01*
X107100419Y-110490000D02*
X88496356Y-110490000D01*
%TO.N,TRIANGLE*%
X163830000Y-43180000D02*
X165100000Y-44450000D01*
X88496356Y-107290000D02*
X104800000Y-107290000D01*
X101130000Y-56211372D02*
X112091372Y-45250000D01*
X112091372Y-45250000D02*
X156541372Y-45250000D01*
X101130000Y-92240000D02*
X101130000Y-56211372D01*
X102870000Y-93980000D02*
X101130000Y-92240000D01*
X158611372Y-43180000D02*
X163830000Y-43180000D01*
X104800000Y-107290000D02*
X106680000Y-105410000D01*
X156541372Y-45250000D02*
X158611372Y-43180000D01*
%TO.N,R1*%
X121920000Y-44850000D02*
X156375686Y-44850000D01*
X100730000Y-93110000D02*
X100730000Y-86360000D01*
X111925686Y-44850000D02*
X121920000Y-44850000D01*
X102870000Y-105410000D02*
X102165686Y-105410000D01*
X165265686Y-35960000D02*
X193040000Y-35960000D01*
X193040000Y-35960000D02*
X195580000Y-38500000D01*
X101085686Y-106490000D02*
X88496356Y-106490000D01*
X102165686Y-105410000D02*
X101085686Y-106490000D01*
X101600000Y-93980000D02*
X100730000Y-93110000D01*
X156375686Y-44850000D02*
X157762843Y-43462843D01*
X100730000Y-56045686D02*
X110772843Y-46002843D01*
X195580000Y-38500000D02*
X195580000Y-40640000D01*
X100730000Y-86360000D02*
X100730000Y-56045686D01*
X110772843Y-46002843D02*
X111925686Y-44850000D01*
X157762843Y-43462843D02*
X165265686Y-35960000D01*
%TO.N,L1*%
X100330000Y-93980000D02*
X100330000Y-55880000D01*
X96105785Y-105680000D02*
X96095785Y-105690000D01*
X102870000Y-103505000D02*
X100695000Y-105680000D01*
X102870000Y-103379531D02*
X102870000Y-103505000D01*
X111760000Y-44450000D02*
X156210000Y-44450000D01*
X165100000Y-35560000D02*
X220980000Y-35560000D01*
X100330000Y-55880000D02*
X111760000Y-44450000D01*
X100695000Y-105680000D02*
X96105785Y-105680000D01*
X96095785Y-105690000D02*
X88496356Y-105690000D01*
X156210000Y-44450000D02*
X165100000Y-35560000D01*
X220980000Y-35560000D02*
X223520000Y-38100000D01*
%TO.N,CROSS*%
X107550000Y-110090000D02*
X88496356Y-110090000D01*
%TO.N,CIRCLE*%
X158280000Y-116040000D02*
X160020000Y-114300000D01*
X140170000Y-116040000D02*
X158280000Y-116040000D01*
X106680000Y-107950000D02*
X106420000Y-107690000D01*
X139700000Y-115570000D02*
X140170000Y-116040000D01*
X160020000Y-114300000D02*
X160020000Y-77470000D01*
X106420000Y-107690000D02*
X88496356Y-107690000D01*
%TO.N,R2*%
X103930000Y-106890000D02*
X88496356Y-106890000D01*
X180340000Y-77470000D02*
X187960000Y-77470000D01*
X179570000Y-78240000D02*
X180340000Y-77470000D01*
X113030000Y-106680000D02*
X112660000Y-107050000D01*
X112660000Y-107050000D02*
X112660000Y-113530000D01*
X104140000Y-106680000D02*
X103930000Y-106890000D01*
X158587106Y-116440000D02*
X179570000Y-95457106D01*
X179570000Y-95457106D02*
X179570000Y-78240000D01*
X112660000Y-113530000D02*
X115570000Y-116440000D01*
X115570000Y-116440000D02*
X158587106Y-116440000D01*
%TO.N,L2*%
X112260000Y-104339500D02*
X112260000Y-113695686D01*
X96261471Y-106090000D02*
X88496356Y-106090000D01*
X112260000Y-113695686D02*
X115404315Y-116840000D01*
X158752792Y-116840000D02*
X175262792Y-100330000D01*
X102870000Y-104140000D02*
X100930000Y-106080000D01*
X208780000Y-74430000D02*
X209550000Y-73660000D01*
X109220000Y-104140000D02*
X102870000Y-104140000D01*
X202637106Y-100330000D02*
X208780000Y-94187106D01*
X115404315Y-116840000D02*
X158752792Y-116840000D01*
X100930000Y-106080000D02*
X96271471Y-106080000D01*
X209550000Y-73660000D02*
X219710000Y-73660000D01*
X112459500Y-104140000D02*
X112260000Y-104339500D01*
X96271471Y-106080000D02*
X96261471Y-106090000D01*
X208780000Y-94187106D02*
X208780000Y-74430000D01*
X175262792Y-100330000D02*
X202637106Y-100330000D01*
%TO.N,UP*%
X87258856Y-111327500D02*
X87258856Y-111859975D01*
X87258856Y-111859975D02*
X88028881Y-112630000D01*
X91040000Y-112630000D02*
X92710000Y-114300000D01*
X88028881Y-112630000D02*
X91040000Y-112630000D01*
%TO.N,QSPI_SD1*%
X70804000Y-99060000D02*
X71276500Y-98587500D01*
X82145747Y-103206916D02*
X71456916Y-103206916D01*
X82858856Y-103920025D02*
X82145747Y-103206916D01*
X70804000Y-102554000D02*
X70804000Y-99060000D01*
X82858856Y-104452500D02*
X82858856Y-103920025D01*
X71456916Y-103206916D02*
X70804000Y-102554000D01*
X71276500Y-98587500D02*
X73560000Y-98587500D01*
%TO.N,QSPI_SD2*%
X82311432Y-102806916D02*
X71622602Y-102806916D01*
X71676500Y-99857500D02*
X73560000Y-99857500D01*
X71622602Y-102806916D02*
X71204000Y-102388314D01*
X83258856Y-103754339D02*
X82311432Y-102806916D01*
X71204000Y-100330000D02*
X71676500Y-99857500D01*
X71204000Y-102388314D02*
X71204000Y-100330000D01*
X83258856Y-104452500D02*
X83258856Y-103754339D01*
%TO.N,QSPI_SD0*%
X82550000Y-101463267D02*
X82214233Y-101127500D01*
X83658856Y-103588653D02*
X82550000Y-102479797D01*
X83658856Y-104452500D02*
X83658856Y-103588653D01*
X82214233Y-101127500D02*
X80760000Y-101127500D01*
X82550000Y-102479797D02*
X82550000Y-101463267D01*
%TO.N,QSPI_SCLK*%
X84058856Y-103422967D02*
X83027944Y-102392055D01*
X82150000Y-99930000D02*
X82077500Y-99857500D01*
X83027944Y-101254734D02*
X82150000Y-100376789D01*
X82150000Y-100376789D02*
X82150000Y-99930000D01*
X83027944Y-102392055D02*
X83027944Y-101254734D01*
X82077500Y-99857500D02*
X80760000Y-99857500D01*
X84058856Y-104452500D02*
X84058856Y-103422967D01*
%TO.N,QSPI_SD3*%
X82550000Y-100211104D02*
X82550000Y-99060000D01*
X83427944Y-102226369D02*
X83427944Y-101089048D01*
X84458856Y-104452500D02*
X84458856Y-103257281D01*
X82550000Y-99060000D02*
X82077500Y-98587500D01*
X83427944Y-101089048D02*
X82550000Y-100211104D01*
X84458856Y-103257281D02*
X83427944Y-102226369D01*
X82077500Y-98587500D02*
X80760000Y-98587500D01*
%TO.N,SCL*%
X110490000Y-109220000D02*
X111260000Y-108450000D01*
X101930000Y-56542744D02*
X101930000Y-82880000D01*
X112352744Y-46120000D02*
X101930000Y-56542744D01*
X107101471Y-109690000D02*
X107571471Y-109220000D01*
X119439500Y-46319500D02*
X119240000Y-46120000D01*
X111260000Y-103069500D02*
X111060500Y-102870000D01*
X119240000Y-46120000D02*
X112352744Y-46120000D01*
X101930000Y-82880000D02*
X102870000Y-83820000D01*
X107571471Y-109220000D02*
X110490000Y-109220000D01*
X111260000Y-108450000D02*
X111260000Y-103069500D01*
X88496356Y-109690000D02*
X107101471Y-109690000D01*
%TO.N,SDA*%
X110860000Y-108284314D02*
X110860000Y-103518029D01*
X120638911Y-45720000D02*
X112187058Y-45720000D01*
X110860000Y-103518029D02*
X110260997Y-102919026D01*
X110260997Y-102919026D02*
X110260997Y-102870000D01*
X110324314Y-108820000D02*
X110860000Y-108284314D01*
X101530000Y-83620500D02*
X101729500Y-83820000D01*
X106935785Y-109290000D02*
X107405786Y-108820000D01*
X112187058Y-45720000D02*
X101530000Y-56377058D01*
X120768411Y-45849500D02*
X120638911Y-45720000D01*
X88496356Y-109290000D02*
X106935785Y-109290000D01*
X101530000Y-56377058D02*
X101530000Y-83620500D01*
X107405786Y-108820000D02*
X110324314Y-108820000D01*
%TO.N,RGB_DATA_P1*%
X63500000Y-143510000D02*
X63018466Y-143991534D01*
X130810000Y-134620000D02*
X130810000Y-133974896D01*
X130810000Y-133974896D02*
X133420000Y-131364896D01*
X63018466Y-143991534D02*
X61855534Y-143991534D01*
%TO.N,RGB_DATA_P2*%
X60955534Y-143091534D02*
X60108466Y-143091534D01*
X60108466Y-143091534D02*
X59690000Y-143510000D01*
X71120000Y-144780000D02*
X71120000Y-144620000D01*
X71120000Y-144620000D02*
X70491534Y-143991534D01*
%TO.N,RGB_DATA_P3*%
X69591534Y-143091534D02*
X68161534Y-143091534D01*
X68161534Y-143091534D02*
X67310000Y-142240000D01*
X81280000Y-143510000D02*
X80798466Y-143991534D01*
X80798466Y-143991534D02*
X79127534Y-143991534D01*
D38*
%TO.N,Net-(USB1-CC1)*%
X144155534Y-31435534D02*
X144455534Y-31735534D01*
X144155534Y-29940534D02*
X144155534Y-31435534D01*
D37*
%TO.N,RGB_DATA_P4*%
X76618466Y-143091534D02*
X76200000Y-143510000D01*
X88577076Y-143991534D02*
X87763534Y-143991534D01*
X78227534Y-143091534D02*
X76618466Y-143091534D01*
X88900000Y-144780000D02*
X88900000Y-144321428D01*
X88900000Y-144321428D02*
X88903485Y-144317943D01*
X88903485Y-144317943D02*
X88577076Y-143991534D01*
%TO.N,Net-(R1-Pad2)*%
X76870000Y-113630000D02*
X77180000Y-113940000D01*
X74532000Y-105260500D02*
X74760000Y-105032500D01*
X77180000Y-123570000D02*
X77180000Y-115570000D01*
X77180000Y-113940000D02*
X77180000Y-115570000D01*
X72390000Y-105260500D02*
X74532000Y-105260500D01*
%TO.N,Net-(U3-USB_DP)*%
X86058856Y-104452500D02*
X86058856Y-101331144D01*
X86058856Y-101331144D02*
X86550000Y-100840000D01*
%TO.N,Net-(U3-USB_DM)*%
X86458856Y-102011144D02*
X87630000Y-100840000D01*
X86458856Y-104452500D02*
X86458856Y-102011144D01*
%TO.N,Net-(USB1-CC2)*%
X141155534Y-33700000D02*
X141155534Y-31205534D01*
D38*
X141155534Y-29940534D02*
X141155534Y-31205534D01*
D37*
X140565534Y-34290000D02*
X141155534Y-33700000D01*
%TO.N,Net-(U3-RUN)*%
X86858856Y-111327500D02*
X86858856Y-112258856D01*
X90170000Y-113030000D02*
X91440000Y-114300000D01*
X70524345Y-125730000D02*
X70030000Y-125235655D01*
X70030000Y-123570000D02*
X70030000Y-115570000D01*
X86858856Y-112258856D02*
X87630000Y-113030000D01*
X87630000Y-113030000D02*
X90170000Y-113030000D01*
X91440000Y-114300000D02*
X91440000Y-123190000D01*
X91440000Y-123190000D02*
X88900000Y-125730000D01*
X70030000Y-125235655D02*
X70030000Y-123570000D01*
X88900000Y-125730000D02*
X70524345Y-125730000D01*
%TD*%
%TA.AperFunction,Conductor*%
%TO.N,+3V3*%
G36*
X92812635Y-97813455D02*
G01*
X92849047Y-97862627D01*
X92849602Y-97923810D01*
X92814090Y-97973634D01*
X92768104Y-97992225D01*
X92763217Y-97992868D01*
X92763206Y-97992871D01*
X92617134Y-98053376D01*
X92617133Y-98053376D01*
X92491696Y-98149627D01*
X92491686Y-98149637D01*
X92395435Y-98275074D01*
X92395435Y-98275075D01*
X92334930Y-98421147D01*
X92334928Y-98421155D01*
X92314291Y-98577913D01*
X92314291Y-98577914D01*
X92334928Y-98734672D01*
X92334930Y-98734680D01*
X92395435Y-98880752D01*
X92395435Y-98880753D01*
X92491686Y-99006190D01*
X92491691Y-99006196D01*
X92617132Y-99102450D01*
X92763211Y-99162958D01*
X92880782Y-99178436D01*
X92919972Y-99183596D01*
X92926462Y-99183596D01*
X92926462Y-99185376D01*
X92978303Y-99194975D01*
X93001085Y-99211983D01*
X93070004Y-99280902D01*
X93097781Y-99335419D01*
X93099000Y-99350906D01*
X93099000Y-99588452D01*
X93080093Y-99646643D01*
X93070004Y-99658455D01*
X93036776Y-99691683D01*
X93036774Y-99691686D01*
X92986029Y-99800510D01*
X92986028Y-99800511D01*
X92979500Y-99850100D01*
X92979500Y-100209895D01*
X92979501Y-100209907D01*
X92986027Y-100259486D01*
X92986027Y-100259488D01*
X93036774Y-100368313D01*
X93036775Y-100368314D01*
X93036776Y-100368316D01*
X93038201Y-100369741D01*
X93039342Y-100371981D01*
X93041744Y-100375411D01*
X93041261Y-100375748D01*
X93065977Y-100424256D01*
X93056406Y-100484688D01*
X93026986Y-100519397D01*
X93005362Y-100535356D01*
X93005358Y-100535360D01*
X92926595Y-100642077D01*
X92892332Y-100740000D01*
X93919999Y-100740000D01*
X93921003Y-100738996D01*
X93975520Y-100711219D01*
X93991007Y-100710000D01*
X94941000Y-100710000D01*
X94999191Y-100728907D01*
X95035155Y-100778407D01*
X95040000Y-100809000D01*
X95040000Y-101584998D01*
X95040001Y-101584999D01*
X95364787Y-101584999D01*
X95385874Y-101582553D01*
X95445856Y-101594630D01*
X95487283Y-101639656D01*
X95496279Y-101680231D01*
X95516575Y-104710130D01*
X95498058Y-104768446D01*
X95448800Y-104804741D01*
X95418514Y-104809789D01*
X92810799Y-104834482D01*
X92752432Y-104816126D01*
X92716001Y-104766969D01*
X92715422Y-104705786D01*
X92750915Y-104655948D01*
X92781965Y-104640498D01*
X92920053Y-104599953D01*
X93041128Y-104522143D01*
X93135377Y-104413373D01*
X93195165Y-104282457D01*
X93213981Y-104151590D01*
X93215647Y-104140002D01*
X93215647Y-104139997D01*
X93195165Y-103997543D01*
X93179732Y-103963749D01*
X93135377Y-103866627D01*
X93041128Y-103757857D01*
X93041127Y-103757856D01*
X93041126Y-103757855D01*
X92920057Y-103680049D01*
X92920054Y-103680047D01*
X92920053Y-103680047D01*
X92920050Y-103680046D01*
X92781964Y-103639500D01*
X92781961Y-103639500D01*
X92638039Y-103639500D01*
X92638035Y-103639500D01*
X92624332Y-103643524D01*
X92563172Y-103641774D01*
X92514720Y-103604410D01*
X92497484Y-103545703D01*
X92518048Y-103488076D01*
X92526435Y-103478535D01*
X92605474Y-103399496D01*
X92659992Y-103371719D01*
X92675478Y-103370500D01*
X92781959Y-103370500D01*
X92781961Y-103370500D01*
X92920053Y-103329953D01*
X93041128Y-103252143D01*
X93135377Y-103143373D01*
X93195165Y-103012457D01*
X93215647Y-102870000D01*
X93215646Y-102869996D01*
X93195165Y-102727543D01*
X93135377Y-102596628D01*
X93135377Y-102596627D01*
X93041128Y-102487857D01*
X93041127Y-102487856D01*
X93041126Y-102487855D01*
X92920057Y-102410049D01*
X92920054Y-102410047D01*
X92920053Y-102410047D01*
X92890393Y-102401338D01*
X92781964Y-102369500D01*
X92781961Y-102369500D01*
X92638039Y-102369500D01*
X92638035Y-102369500D01*
X92499949Y-102410046D01*
X92499942Y-102410049D01*
X92378873Y-102487855D01*
X92284622Y-102596628D01*
X92224834Y-102727543D01*
X92204353Y-102869996D01*
X92204353Y-102869997D01*
X92204353Y-102870000D01*
X92207442Y-102891483D01*
X92197007Y-102951772D01*
X92179453Y-102975574D01*
X91908314Y-103246715D01*
X91853797Y-103274493D01*
X91838310Y-103275712D01*
X91788149Y-103275712D01*
X91729958Y-103256805D01*
X91698424Y-103218551D01*
X91693456Y-103207896D01*
X91608548Y-103122988D01*
X91608546Y-103122987D01*
X91608545Y-103122986D01*
X91499721Y-103072241D01*
X91499720Y-103072240D01*
X91483190Y-103070064D01*
X91450133Y-103065712D01*
X91450131Y-103065712D01*
X91090336Y-103065712D01*
X91090324Y-103065713D01*
X91040745Y-103072239D01*
X91040743Y-103072239D01*
X90931918Y-103122986D01*
X90931913Y-103122989D01*
X90930487Y-103124416D01*
X90928246Y-103125557D01*
X90924821Y-103127956D01*
X90924483Y-103127474D01*
X90875969Y-103152190D01*
X90815537Y-103142615D01*
X90780833Y-103113196D01*
X90764876Y-103091575D01*
X90764868Y-103091567D01*
X90658151Y-103012806D01*
X90560232Y-102978541D01*
X90560232Y-104737961D01*
X90541325Y-104796152D01*
X90491825Y-104832116D01*
X90461232Y-104836961D01*
X89728523Y-104836961D01*
X89684175Y-104862228D01*
X89665084Y-104864271D01*
X88596356Y-104874392D01*
X88596355Y-104874392D01*
X88396356Y-104876286D01*
X88396356Y-104876285D01*
X88396355Y-104876285D01*
X88158793Y-104878535D01*
X88100426Y-104860179D01*
X88063995Y-104811022D01*
X88058856Y-104779539D01*
X88058856Y-104552501D01*
X88058855Y-104552500D01*
X87258356Y-104552500D01*
X87200165Y-104533593D01*
X87164201Y-104484093D01*
X87159356Y-104453500D01*
X87159356Y-103717443D01*
X87358856Y-103717443D01*
X87358856Y-104352499D01*
X87358857Y-104352500D01*
X87558855Y-104352500D01*
X87558856Y-104352499D01*
X87558856Y-103717445D01*
X87507602Y-103724913D01*
X87502331Y-103727490D01*
X87441748Y-103736058D01*
X87415378Y-103727489D01*
X87410107Y-103724912D01*
X87410101Y-103724910D01*
X87358856Y-103717443D01*
X87758856Y-103717443D01*
X87758856Y-104352499D01*
X87758857Y-104352500D01*
X88058854Y-104352500D01*
X88058855Y-104352498D01*
X88058855Y-104336960D01*
X89732762Y-104336960D01*
X89732763Y-104336961D01*
X90060231Y-104336961D01*
X90060232Y-104336960D01*
X90060232Y-103826213D01*
X90060231Y-103826212D01*
X89732763Y-103826212D01*
X89733018Y-103828936D01*
X89776826Y-103954132D01*
X89827504Y-104022797D01*
X89846846Y-104080845D01*
X89828375Y-104139176D01*
X89827504Y-104140374D01*
X89776827Y-104209038D01*
X89733020Y-104334228D01*
X89733018Y-104334238D01*
X89732762Y-104336960D01*
X88058855Y-104336960D01*
X88058855Y-104031786D01*
X88058854Y-104031783D01*
X88048943Y-103963749D01*
X87997641Y-103858811D01*
X87915043Y-103776213D01*
X87810102Y-103724911D01*
X87758856Y-103717443D01*
X87358856Y-103717443D01*
X87159356Y-103717443D01*
X87159356Y-103499239D01*
X87178263Y-103441048D01*
X87188346Y-103429241D01*
X87291376Y-103326211D01*
X89732762Y-103326211D01*
X89732763Y-103326212D01*
X90060231Y-103326212D01*
X90060232Y-103326211D01*
X90060232Y-102978542D01*
X90060231Y-102978541D01*
X89962312Y-103012806D01*
X89855595Y-103091567D01*
X89855590Y-103091572D01*
X89776826Y-103198291D01*
X89733020Y-103323479D01*
X89733018Y-103323489D01*
X89732762Y-103326211D01*
X87291376Y-103326211D01*
X88557586Y-102060000D01*
X89152332Y-102060000D01*
X89186595Y-102157922D01*
X89265358Y-102264639D01*
X89265360Y-102264641D01*
X89372079Y-102343405D01*
X89497275Y-102387213D01*
X89500000Y-102387468D01*
X89500000Y-102387467D01*
X90000000Y-102387467D01*
X90002724Y-102387213D01*
X90127920Y-102343405D01*
X90234639Y-102264641D01*
X90234641Y-102264639D01*
X90313404Y-102157922D01*
X90347668Y-102060000D01*
X90000001Y-102060000D01*
X90000000Y-102060001D01*
X90000000Y-102387467D01*
X89500000Y-102387467D01*
X89500000Y-102060001D01*
X89499999Y-102060000D01*
X89152332Y-102060000D01*
X88557586Y-102060000D01*
X88881217Y-101736369D01*
X88903048Y-101719886D01*
X88903430Y-101719674D01*
X88928973Y-101688913D01*
X88932059Y-101685528D01*
X88940306Y-101677282D01*
X88946906Y-101667644D01*
X88949654Y-101664007D01*
X88951815Y-101661403D01*
X88975202Y-101633242D01*
X88975341Y-101632826D01*
X88987538Y-101608330D01*
X88987788Y-101607966D01*
X88987788Y-101607962D01*
X88987790Y-101607961D01*
X88991493Y-101599575D01*
X88993546Y-101600481D01*
X89018736Y-101558938D01*
X89075152Y-101535256D01*
X89134714Y-101549258D01*
X89146259Y-101560000D01*
X90347668Y-101560000D01*
X90313404Y-101462077D01*
X90234641Y-101355360D01*
X90234639Y-101355358D01*
X90213014Y-101339398D01*
X90177422Y-101289630D01*
X90177794Y-101240000D01*
X92892332Y-101240000D01*
X92926595Y-101337922D01*
X93005358Y-101444639D01*
X93005360Y-101444641D01*
X93112079Y-101523405D01*
X93237275Y-101567213D01*
X93240000Y-101567468D01*
X93740000Y-101567468D01*
X93742724Y-101567213D01*
X93867920Y-101523405D01*
X93918020Y-101486428D01*
X93976067Y-101467085D01*
X94034398Y-101485555D01*
X94046814Y-101496078D01*
X94087522Y-101536786D01*
X94190127Y-101582090D01*
X94215203Y-101584999D01*
X94539998Y-101584999D01*
X94540000Y-101584997D01*
X94540000Y-101210001D01*
X94539999Y-101210000D01*
X94140001Y-101210000D01*
X94138997Y-101211004D01*
X94084480Y-101238781D01*
X94068993Y-101240000D01*
X93740001Y-101240000D01*
X93740000Y-101240001D01*
X93740000Y-101567468D01*
X93240000Y-101567468D01*
X93240000Y-101240001D01*
X93239999Y-101240000D01*
X92892332Y-101240000D01*
X90177794Y-101240000D01*
X90177880Y-101228446D01*
X90198284Y-101195430D01*
X90198256Y-101195411D01*
X90198597Y-101194922D01*
X90201802Y-101189737D01*
X90203224Y-101188316D01*
X90253972Y-101079487D01*
X90260500Y-101029901D01*
X90260499Y-100670100D01*
X90253972Y-100620513D01*
X90253972Y-100620511D01*
X90203225Y-100511686D01*
X90203224Y-100511685D01*
X90203224Y-100511684D01*
X90118316Y-100426776D01*
X90118314Y-100426775D01*
X90118313Y-100426774D01*
X90107659Y-100421806D01*
X90062912Y-100380076D01*
X90050500Y-100332082D01*
X90050500Y-99696874D01*
X90069407Y-99638683D01*
X90076390Y-99631075D01*
X90076094Y-99630819D01*
X90085024Y-99620513D01*
X90174980Y-99516698D01*
X90234768Y-99385782D01*
X90255250Y-99243325D01*
X90248298Y-99194975D01*
X90234768Y-99100868D01*
X90230854Y-99092298D01*
X90174980Y-98969952D01*
X90080731Y-98861182D01*
X90080730Y-98861181D01*
X90080729Y-98861180D01*
X89959660Y-98783374D01*
X89959657Y-98783372D01*
X89959656Y-98783372D01*
X89959653Y-98783371D01*
X89821567Y-98742825D01*
X89821564Y-98742825D01*
X89677642Y-98742825D01*
X89677638Y-98742825D01*
X89539552Y-98783371D01*
X89539545Y-98783374D01*
X89418475Y-98861181D01*
X89418473Y-98861182D01*
X89390827Y-98893089D01*
X89338432Y-98924685D01*
X89277471Y-98919449D01*
X89231230Y-98879382D01*
X89217008Y-98828258D01*
X89217008Y-97925299D01*
X89235915Y-97867108D01*
X89285415Y-97831144D01*
X89315107Y-97826303D01*
X92754277Y-97795077D01*
X92812635Y-97813455D01*
G37*
%TD.AperFunction*%
%TD*%
%TA.AperFunction,Conductor*%
%TO.N,+5V*%
G36*
X104041139Y-97789862D02*
G01*
X104099302Y-97808850D01*
X104135197Y-97858400D01*
X104140000Y-97888862D01*
X104140000Y-102770862D01*
X104121093Y-102829053D01*
X104071593Y-102865017D01*
X104040863Y-102869862D01*
X96358300Y-102859199D01*
X96300135Y-102840211D01*
X96264240Y-102790661D01*
X96259437Y-102760199D01*
X96259437Y-101878793D01*
X96278344Y-101820602D01*
X96327844Y-101784638D01*
X96369020Y-101780360D01*
X96412177Y-101785000D01*
X96739999Y-101785000D01*
X96740000Y-101784999D01*
X97240000Y-101784999D01*
X97240001Y-101785000D01*
X97567824Y-101785000D01*
X97627370Y-101778598D01*
X97627378Y-101778596D01*
X97762091Y-101728351D01*
X97768307Y-101724958D01*
X97769509Y-101727159D01*
X97816716Y-101711060D01*
X97857110Y-101721809D01*
X97858085Y-101719557D01*
X97863802Y-101722030D01*
X98019079Y-101767143D01*
X98019087Y-101767144D01*
X98040000Y-101768789D01*
X98040000Y-101240001D01*
X98039999Y-101240000D01*
X98540000Y-101240000D01*
X98540000Y-101768789D01*
X98560912Y-101767144D01*
X98560920Y-101767143D01*
X98716197Y-101722030D01*
X98716198Y-101722030D01*
X98855374Y-101639721D01*
X98969721Y-101525374D01*
X99052030Y-101386198D01*
X99052030Y-101386197D01*
X99094504Y-101240000D01*
X98540000Y-101240000D01*
X98039999Y-101240000D01*
X97511007Y-101240000D01*
X97452816Y-101221093D01*
X97441003Y-101211004D01*
X97439999Y-101210000D01*
X97240001Y-101210000D01*
X97240000Y-101210001D01*
X97240000Y-101784999D01*
X96740000Y-101784999D01*
X96740000Y-100809000D01*
X96758907Y-100750809D01*
X96808407Y-100714845D01*
X96839000Y-100710000D01*
X97988993Y-100710000D01*
X98047184Y-100728907D01*
X98058997Y-100738996D01*
X98060001Y-100740000D01*
X99094504Y-100740000D01*
X99094504Y-100739999D01*
X99052030Y-100593802D01*
X99052030Y-100593801D01*
X98969721Y-100454625D01*
X98855374Y-100340278D01*
X98844834Y-100334045D01*
X98804371Y-100288150D01*
X98797075Y-100235911D01*
X98800500Y-100209901D01*
X98800499Y-99850100D01*
X98793972Y-99800513D01*
X98793972Y-99800511D01*
X98743225Y-99691686D01*
X98743224Y-99691685D01*
X98743224Y-99691684D01*
X98658316Y-99606776D01*
X98658314Y-99606775D01*
X98658313Y-99606774D01*
X98549489Y-99556029D01*
X98549488Y-99556028D01*
X98524694Y-99552764D01*
X98499901Y-99549500D01*
X98499900Y-99549500D01*
X98117670Y-99549500D01*
X98059479Y-99530593D01*
X98023515Y-99481093D01*
X98019238Y-99439914D01*
X98019999Y-99432832D01*
X98020000Y-99432824D01*
X98020000Y-99310001D01*
X98019999Y-99310000D01*
X96839000Y-99310000D01*
X96780809Y-99291093D01*
X96744845Y-99241593D01*
X96740000Y-99211000D01*
X96740000Y-98809999D01*
X97240000Y-98809999D01*
X97240001Y-98810000D01*
X98019999Y-98810000D01*
X98020000Y-98809998D01*
X98020000Y-98687175D01*
X98013598Y-98627629D01*
X98013596Y-98627618D01*
X97963353Y-98492911D01*
X97963352Y-98492909D01*
X97877192Y-98377815D01*
X97877184Y-98377807D01*
X97762090Y-98291647D01*
X97762088Y-98291646D01*
X97627381Y-98241403D01*
X97627370Y-98241401D01*
X97567824Y-98235000D01*
X97240001Y-98235000D01*
X97240000Y-98235001D01*
X97240000Y-98809999D01*
X96740000Y-98809999D01*
X96740000Y-98235001D01*
X96739999Y-98235000D01*
X96412173Y-98235000D01*
X96369018Y-98239639D01*
X96309140Y-98227059D01*
X96268091Y-98181686D01*
X96259437Y-98141206D01*
X96259437Y-97878199D01*
X96278344Y-97820008D01*
X96327844Y-97784044D01*
X96358570Y-97779199D01*
X104041139Y-97789862D01*
G37*
%TD.AperFunction*%
%TD*%
%TA.AperFunction,Conductor*%
%TO.N,+1V1*%
G36*
X86970575Y-105116423D02*
G01*
X86995885Y-105160260D01*
X86997003Y-105172134D01*
X87007886Y-105997265D01*
X86991202Y-106045056D01*
X86947702Y-106070941D01*
X86933948Y-106072241D01*
X83246822Y-106075036D01*
X83246822Y-106075037D01*
X83244488Y-109694943D01*
X83244489Y-109694943D01*
X83244489Y-109694944D01*
X85919029Y-109696588D01*
X85966584Y-109713930D01*
X85991867Y-109757783D01*
X85992983Y-109770346D01*
X85994018Y-110087086D01*
X85994597Y-110264446D01*
X85994676Y-110288359D01*
X85977518Y-110335982D01*
X85933764Y-110361434D01*
X85920676Y-110362601D01*
X85404600Y-110362601D01*
X85357034Y-110345288D01*
X85331724Y-110301451D01*
X85330648Y-110291253D01*
X85329584Y-110261594D01*
X82853800Y-110264363D01*
X82806214Y-110247103D01*
X82780856Y-110203294D01*
X82779717Y-110190363D01*
X82779717Y-105672245D01*
X82797030Y-105624679D01*
X82840867Y-105599369D01*
X82853717Y-105598245D01*
X85380923Y-105598245D01*
X85380924Y-105598245D01*
X85382168Y-105542251D01*
X85400534Y-105495082D01*
X85444923Y-105470753D01*
X85456150Y-105469896D01*
X85623970Y-105469896D01*
X85638405Y-105471317D01*
X85659129Y-105475440D01*
X85679246Y-105471438D01*
X85682822Y-105470908D01*
X85686648Y-105470532D01*
X85686655Y-105470532D01*
X85686662Y-105470530D01*
X85691308Y-105470074D01*
X85694932Y-105469896D01*
X86581701Y-105469896D01*
X86583988Y-105172540D01*
X86601666Y-105125109D01*
X86645697Y-105100138D01*
X86657986Y-105099110D01*
X86923009Y-105099110D01*
X86970575Y-105116423D01*
G37*
%TD.AperFunction*%
%TD*%
%TA.AperFunction,Conductor*%
%TO.N,+5V*%
G36*
X147072400Y-30569553D02*
G01*
X147072675Y-30569514D01*
X147073218Y-30569594D01*
X147073242Y-30569595D01*
X147073249Y-30569597D01*
X147202281Y-30576140D01*
X147268237Y-30599195D01*
X147311259Y-30654248D01*
X147320000Y-30699981D01*
X147320000Y-35436000D01*
X147300315Y-35503039D01*
X147247511Y-35548794D01*
X147196000Y-35560000D01*
X144904000Y-35560000D01*
X144836961Y-35540315D01*
X144791206Y-35487511D01*
X144780000Y-35436000D01*
X144780000Y-35014572D01*
X144799685Y-34947533D01*
X144852489Y-34901778D01*
X144853375Y-34901377D01*
X144915753Y-34873605D01*
X145068894Y-34762342D01*
X145195556Y-34621670D01*
X145290202Y-34457738D01*
X145348697Y-34277710D01*
X145368483Y-34089454D01*
X145348697Y-33901198D01*
X145290202Y-33721170D01*
X145195556Y-33557238D01*
X145178383Y-33538165D01*
X145148154Y-33475173D01*
X145146534Y-33455194D01*
X145146534Y-33317282D01*
X145163802Y-33254161D01*
X145228403Y-33144927D01*
X145273199Y-32990738D01*
X145276034Y-32954715D01*
X145276033Y-32556354D01*
X145273199Y-32520330D01*
X145228403Y-32366141D01*
X145194404Y-32308652D01*
X145177222Y-32240930D01*
X145194404Y-32182414D01*
X145228403Y-32124927D01*
X145271237Y-31977489D01*
X145308843Y-31918606D01*
X145372315Y-31889399D01*
X145441502Y-31899145D01*
X145494436Y-31944748D01*
X145495292Y-31946090D01*
X145528482Y-31998912D01*
X145656036Y-32126466D01*
X145808776Y-32222439D01*
X145874775Y-32245533D01*
X145979043Y-32282018D01*
X145979048Y-32282019D01*
X146158294Y-32302215D01*
X146158298Y-32302215D01*
X146158302Y-32302215D01*
X146337547Y-32282019D01*
X146337550Y-32282018D01*
X146337553Y-32282018D01*
X146507820Y-32222439D01*
X146660560Y-32126466D01*
X146788114Y-31998912D01*
X146884087Y-31846172D01*
X146943666Y-31675905D01*
X146956367Y-31563183D01*
X146963863Y-31496653D01*
X146963863Y-31496646D01*
X146943667Y-31317400D01*
X146943666Y-31317395D01*
X146884087Y-31147128D01*
X146860283Y-31109245D01*
X146843207Y-31082068D01*
X146824207Y-31014835D01*
X146844574Y-30948000D01*
X146848908Y-30941823D01*
X146874330Y-30907865D01*
X146924625Y-30773017D01*
X146931034Y-30713407D01*
X146931033Y-30692254D01*
X146950715Y-30625218D01*
X147003517Y-30579461D01*
X147066914Y-30570342D01*
X147066968Y-30569278D01*
X147072400Y-30569553D01*
G37*
%TD.AperFunction*%
%TD*%
%TA.AperFunction,Conductor*%
%TO.N,+3V3*%
G36*
X87828864Y-105106600D02*
G01*
X87854218Y-105150412D01*
X87855355Y-105163250D01*
X87858615Y-108010829D01*
X87858438Y-108014493D01*
X87858356Y-108015326D01*
X87858356Y-108164682D01*
X87858620Y-108167369D01*
X87858798Y-108170949D01*
X87859067Y-108406227D01*
X87858890Y-108409889D01*
X87858356Y-108415319D01*
X87858356Y-108564670D01*
X87858712Y-108568285D01*
X87858459Y-108568309D01*
X87859262Y-108576429D01*
X87859976Y-109199803D01*
X87858557Y-109214312D01*
X87858356Y-109215323D01*
X87858356Y-109364677D01*
X87858762Y-109366718D01*
X87860183Y-109381063D01*
X87860431Y-109597515D01*
X87859011Y-109612025D01*
X87858356Y-109615318D01*
X87858356Y-109764676D01*
X87859223Y-109769036D01*
X87860644Y-109783384D01*
X87860886Y-109995228D01*
X87859466Y-110009740D01*
X87858356Y-110015323D01*
X87858356Y-110015325D01*
X87858356Y-110015326D01*
X87858356Y-110164674D01*
X87859282Y-110169330D01*
X87859684Y-110171349D01*
X87861105Y-110185698D01*
X87861342Y-110392938D01*
X87859921Y-110407454D01*
X87858356Y-110415325D01*
X87858356Y-110564675D01*
X87860144Y-110573666D01*
X87861565Y-110588016D01*
X87861598Y-110616968D01*
X87844339Y-110664554D01*
X87800531Y-110689913D01*
X87787571Y-110691052D01*
X87748527Y-110691038D01*
X87734122Y-110689617D01*
X87733534Y-110689500D01*
X87733530Y-110689500D01*
X87584182Y-110689500D01*
X87584178Y-110689500D01*
X87583904Y-110689555D01*
X87569459Y-110690973D01*
X87347798Y-110690893D01*
X87337154Y-110689842D01*
X87337153Y-110689856D01*
X87333535Y-110689500D01*
X87333530Y-110689500D01*
X87184182Y-110689500D01*
X87184180Y-110689500D01*
X87180564Y-110689856D01*
X87180559Y-110689810D01*
X87170183Y-110690829D01*
X86947071Y-110690748D01*
X86937161Y-110689771D01*
X86937153Y-110689856D01*
X86933535Y-110689500D01*
X86933530Y-110689500D01*
X86784182Y-110689500D01*
X86784178Y-110689500D01*
X86780571Y-110689856D01*
X86780559Y-110689737D01*
X86770915Y-110690684D01*
X86546341Y-110690603D01*
X86537166Y-110689699D01*
X86537151Y-110689856D01*
X86533534Y-110689500D01*
X86533530Y-110689500D01*
X86384182Y-110689500D01*
X86380566Y-110689856D01*
X86380547Y-110689665D01*
X86371637Y-110690540D01*
X86145612Y-110690458D01*
X86137173Y-110689627D01*
X86137151Y-110689856D01*
X86133534Y-110689500D01*
X86133530Y-110689500D01*
X85984182Y-110689500D01*
X85984180Y-110689500D01*
X85980564Y-110689856D01*
X85980538Y-110689594D01*
X85972366Y-110690395D01*
X84940645Y-110690022D01*
X84937034Y-110689844D01*
X84933537Y-110689500D01*
X84933530Y-110689500D01*
X84784182Y-110689500D01*
X84784176Y-110689500D01*
X84781265Y-110689786D01*
X84777635Y-110689963D01*
X84539169Y-110689877D01*
X84535555Y-110689699D01*
X84533533Y-110689500D01*
X84533530Y-110689500D01*
X84384182Y-110689500D01*
X84384180Y-110689500D01*
X84382735Y-110689642D01*
X84379107Y-110689819D01*
X83736221Y-110689586D01*
X83734463Y-110689500D01*
X83733530Y-110689500D01*
X83584182Y-110689500D01*
X83582696Y-110689500D01*
X83582049Y-110689530D01*
X82329534Y-110689077D01*
X82281974Y-110671747D01*
X82256681Y-110627901D01*
X82255561Y-110614835D01*
X82255643Y-110590373D01*
X82257064Y-110576194D01*
X82259356Y-110564674D01*
X82259356Y-110415326D01*
X82257727Y-110407137D01*
X82256306Y-110392470D01*
X82257006Y-110183515D01*
X82258428Y-110169338D01*
X82259356Y-110164674D01*
X82259356Y-110015326D01*
X82259044Y-110013760D01*
X82257623Y-109999091D01*
X82258368Y-109776675D01*
X82259207Y-109768318D01*
X82258999Y-109768298D01*
X82259356Y-109764675D01*
X82259356Y-109615333D01*
X82259356Y-109615326D01*
X82259354Y-109615319D01*
X82259109Y-109612833D01*
X82258930Y-109609091D01*
X82273803Y-105168565D01*
X82291275Y-105121058D01*
X82335197Y-105095896D01*
X82347719Y-105094814D01*
X86354712Y-105090774D01*
X86402293Y-105108038D01*
X86427647Y-105151850D01*
X86428301Y-105168111D01*
X86428518Y-105168113D01*
X86427958Y-105240965D01*
X86410280Y-105288397D01*
X86366249Y-105313368D01*
X86353960Y-105314396D01*
X85692966Y-105314396D01*
X85689239Y-105314489D01*
X85689228Y-105314489D01*
X85689209Y-105314490D01*
X85681781Y-105314854D01*
X85681776Y-105314854D01*
X85681763Y-105314855D01*
X85677969Y-105315135D01*
X85677964Y-105315136D01*
X85665773Y-105316334D01*
X85651288Y-105316333D01*
X85635399Y-105314769D01*
X85627796Y-105314396D01*
X85627785Y-105314396D01*
X85453188Y-105314396D01*
X85447268Y-105314622D01*
X85437139Y-105315394D01*
X85433086Y-105315704D01*
X85370189Y-105334389D01*
X85325798Y-105358719D01*
X85325796Y-105358720D01*
X85303253Y-105373769D01*
X85274810Y-105412527D01*
X85232710Y-105440632D01*
X85215152Y-105442745D01*
X82850325Y-105442745D01*
X82850314Y-105442745D01*
X82850289Y-105442746D01*
X82843558Y-105443040D01*
X82843541Y-105443041D01*
X82827320Y-105444459D01*
X82827314Y-105444460D01*
X82763113Y-105464703D01*
X82763111Y-105464704D01*
X82719281Y-105490010D01*
X82719267Y-105490019D01*
X82697077Y-105505557D01*
X82697076Y-105505558D01*
X82650910Y-105571490D01*
X82650906Y-105571497D01*
X82633594Y-105619060D01*
X82624217Y-105672241D01*
X82624217Y-110193770D01*
X82624516Y-110200594D01*
X82624517Y-110200608D01*
X82625956Y-110216939D01*
X82646271Y-110281184D01*
X82646276Y-110281195D01*
X82671635Y-110325006D01*
X82687204Y-110347188D01*
X82687205Y-110347189D01*
X82753192Y-110393284D01*
X82800778Y-110410544D01*
X82853974Y-110419863D01*
X82853977Y-110419862D01*
X82853978Y-110419863D01*
X82864795Y-110419850D01*
X85179718Y-110417260D01*
X85227302Y-110434520D01*
X85233126Y-110440871D01*
X85233335Y-110440663D01*
X85237913Y-110445241D01*
X85303849Y-110491410D01*
X85351415Y-110508723D01*
X85404600Y-110518101D01*
X85404604Y-110518101D01*
X85924135Y-110518101D01*
X85924423Y-110518088D01*
X85931042Y-110517794D01*
X85931065Y-110517791D01*
X85931082Y-110517791D01*
X85947574Y-110516320D01*
X86011953Y-110495847D01*
X86055707Y-110470395D01*
X86077859Y-110454776D01*
X86123813Y-110388690D01*
X86140971Y-110341067D01*
X86150175Y-110287851D01*
X86148471Y-109766520D01*
X86148167Y-109759892D01*
X86146757Y-109744024D01*
X86146756Y-109744021D01*
X86146756Y-109744019D01*
X86144470Y-109736776D01*
X86146660Y-109686205D01*
X86180845Y-109648873D01*
X86215037Y-109640500D01*
X86558824Y-109640500D01*
X86583450Y-109637643D01*
X86684171Y-109593170D01*
X86762026Y-109515315D01*
X86806499Y-109414594D01*
X86809356Y-109389968D01*
X86809356Y-106390032D01*
X86806499Y-106365406D01*
X86791611Y-106331688D01*
X86788234Y-106281182D01*
X86818113Y-106240322D01*
X86859247Y-106227797D01*
X86937701Y-106227738D01*
X86944962Y-106227393D01*
X86962334Y-106225751D01*
X87027220Y-106204572D01*
X87070720Y-106178687D01*
X87092718Y-106162847D01*
X87138013Y-106096308D01*
X87154697Y-106048517D01*
X87163372Y-105995214D01*
X87152448Y-105166946D01*
X87152446Y-105166922D01*
X87152429Y-105166398D01*
X87152440Y-105166363D01*
X87152438Y-105166199D01*
X87152494Y-105166198D01*
X87168123Y-105118273D01*
X87211078Y-105091495D01*
X87226300Y-105089895D01*
X87781281Y-105089335D01*
X87828864Y-105106600D01*
G37*
%TD.AperFunction*%
%TD*%
%TA.AperFunction,Conductor*%
%TO.N,GND*%
G36*
X83442755Y-114319685D02*
G01*
X83488510Y-114372489D01*
X83498454Y-114441647D01*
X83469429Y-114505203D01*
X83463397Y-114511681D01*
X83096096Y-114878982D01*
X83089994Y-114884333D01*
X83061716Y-114906032D01*
X83011759Y-114971140D01*
X82965463Y-115031473D01*
X82904956Y-115177551D01*
X82904955Y-115177553D01*
X82884318Y-115334312D01*
X82884318Y-115334313D01*
X82888969Y-115369640D01*
X82889500Y-115377742D01*
X82889500Y-115932153D01*
X82869815Y-115999192D01*
X82817011Y-116044947D01*
X82805082Y-116046662D01*
X82780000Y-116065494D01*
X82780000Y-116371645D01*
X82762734Y-116434763D01*
X82757507Y-116443600D01*
X82757504Y-116443608D01*
X82712357Y-116599002D01*
X82712356Y-116599008D01*
X82709500Y-116635302D01*
X82709500Y-116996000D01*
X82689815Y-117063039D01*
X82637011Y-117108794D01*
X82585500Y-117120000D01*
X81751210Y-117120000D01*
X81752854Y-117140910D01*
X81797968Y-117296195D01*
X81880278Y-117435374D01*
X81880285Y-117435383D01*
X81898001Y-117453099D01*
X81931486Y-117514422D01*
X81926503Y-117584111D01*
X81915908Y-117612517D01*
X81909501Y-117672116D01*
X81909500Y-117672135D01*
X81909500Y-119167870D01*
X81909501Y-119167876D01*
X81915908Y-119227483D01*
X81966202Y-119362328D01*
X81966204Y-119362331D01*
X82021648Y-119436395D01*
X82028917Y-119446104D01*
X82053335Y-119511569D01*
X82038484Y-119579842D01*
X82028918Y-119594727D01*
X81966647Y-119677910D01*
X81966645Y-119677913D01*
X81916403Y-119812620D01*
X81916401Y-119812627D01*
X81910000Y-119872155D01*
X81910000Y-120370000D01*
X83136000Y-120370000D01*
X83203039Y-120389685D01*
X83248794Y-120442489D01*
X83260000Y-120494000D01*
X83260000Y-121820000D01*
X83657828Y-121820000D01*
X83657844Y-121819999D01*
X83717372Y-121813598D01*
X83717376Y-121813597D01*
X83815951Y-121776831D01*
X83885643Y-121771847D01*
X83902618Y-121776831D01*
X84002517Y-121814091D01*
X84002516Y-121814091D01*
X84009444Y-121814835D01*
X84062127Y-121820500D01*
X85357872Y-121820499D01*
X85417483Y-121814091D01*
X85552331Y-121763796D01*
X85667546Y-121677546D01*
X85753796Y-121562331D01*
X85804091Y-121427483D01*
X85810500Y-121367873D01*
X85810499Y-120901164D01*
X85830183Y-120834127D01*
X85882987Y-120788372D01*
X85944224Y-120777548D01*
X85959999Y-120778789D01*
X85959999Y-120250000D01*
X86460000Y-120250000D01*
X86460000Y-120778789D01*
X86480910Y-120777145D01*
X86636195Y-120732031D01*
X86775374Y-120649721D01*
X86775383Y-120649714D01*
X86889714Y-120535383D01*
X86889721Y-120535374D01*
X86972031Y-120396195D01*
X87014504Y-120250000D01*
X86460000Y-120250000D01*
X85959999Y-120250000D01*
X85959999Y-120190597D01*
X85979683Y-120123558D01*
X85996312Y-120102922D01*
X86242416Y-119856818D01*
X86303740Y-119823334D01*
X86330098Y-119820500D01*
X86444682Y-119820500D01*
X86444690Y-119820500D01*
X86480993Y-119817643D01*
X86480995Y-119817642D01*
X86480997Y-119817642D01*
X86636389Y-119772496D01*
X86636389Y-119772495D01*
X86636395Y-119772494D01*
X86645233Y-119767267D01*
X86708352Y-119750000D01*
X87014504Y-119750000D01*
X86972031Y-119603803D01*
X86960090Y-119583613D01*
X86942906Y-119515889D01*
X86960089Y-119457369D01*
X86972494Y-119436395D01*
X87017643Y-119280993D01*
X87020500Y-119244690D01*
X87020500Y-118835310D01*
X87017643Y-118799007D01*
X86972494Y-118643605D01*
X86890117Y-118504313D01*
X86890110Y-118504306D01*
X86846817Y-118461011D01*
X86813333Y-118399688D01*
X86810500Y-118373332D01*
X86810500Y-118063428D01*
X86811031Y-118055326D01*
X86815682Y-118019999D01*
X86815682Y-118019998D01*
X86795044Y-117863239D01*
X86795044Y-117863238D01*
X86734536Y-117717159D01*
X86734535Y-117717158D01*
X86734535Y-117717157D01*
X86719578Y-117697665D01*
X86638282Y-117591718D01*
X86610005Y-117570020D01*
X86603904Y-117564669D01*
X86034779Y-116995544D01*
X86001294Y-116934221D01*
X86006278Y-116864529D01*
X86048150Y-116808596D01*
X86113614Y-116784179D01*
X86157054Y-116788786D01*
X86289089Y-116827145D01*
X86310000Y-116828789D01*
X86310000Y-116300000D01*
X86810000Y-116300000D01*
X86810000Y-116828789D01*
X86830910Y-116827145D01*
X86986195Y-116782031D01*
X87125374Y-116699721D01*
X87125383Y-116699714D01*
X87239714Y-116585383D01*
X87239721Y-116585374D01*
X87322031Y-116446195D01*
X87364504Y-116300000D01*
X86810000Y-116300000D01*
X86310000Y-116300000D01*
X85447845Y-116300000D01*
X85380806Y-116280315D01*
X85335051Y-116227511D01*
X85325107Y-116158353D01*
X85326599Y-116151447D01*
X85326527Y-116151434D01*
X85327665Y-116145202D01*
X85330499Y-116109188D01*
X85330500Y-116109181D01*
X85330500Y-115994500D01*
X85350185Y-115927461D01*
X85402989Y-115881706D01*
X85454500Y-115870500D01*
X85764682Y-115870500D01*
X85764690Y-115870500D01*
X85800993Y-115867643D01*
X85800995Y-115867642D01*
X85800997Y-115867642D01*
X85956389Y-115822496D01*
X85956389Y-115822495D01*
X85956395Y-115822494D01*
X85965233Y-115817267D01*
X86028352Y-115800000D01*
X86061648Y-115800000D01*
X86124766Y-115817267D01*
X86133605Y-115822494D01*
X86133608Y-115822494D01*
X86133610Y-115822496D01*
X86289002Y-115867642D01*
X86289005Y-115867642D01*
X86289007Y-115867643D01*
X86325310Y-115870500D01*
X86325318Y-115870500D01*
X86794682Y-115870500D01*
X86794690Y-115870500D01*
X86830993Y-115867643D01*
X86830995Y-115867642D01*
X86830997Y-115867642D01*
X86986389Y-115822496D01*
X86986389Y-115822495D01*
X86986395Y-115822494D01*
X86995233Y-115817267D01*
X87058352Y-115800000D01*
X87364504Y-115800000D01*
X87322031Y-115653803D01*
X87310090Y-115633613D01*
X87292906Y-115565889D01*
X87310089Y-115507369D01*
X87322494Y-115486395D01*
X87366678Y-115334314D01*
X87367642Y-115330997D01*
X87367643Y-115330991D01*
X87370499Y-115294697D01*
X87370500Y-115294690D01*
X87370500Y-114885310D01*
X87367643Y-114849007D01*
X87360533Y-114824536D01*
X87322495Y-114693609D01*
X87322494Y-114693606D01*
X87322494Y-114693605D01*
X87240117Y-114554313D01*
X87240115Y-114554311D01*
X87240112Y-114554307D01*
X87197486Y-114511682D01*
X87164000Y-114450359D01*
X87168984Y-114380668D01*
X87210855Y-114324734D01*
X87276319Y-114300316D01*
X87285166Y-114300000D01*
X90046000Y-114300000D01*
X90113039Y-114319685D01*
X90158794Y-114372489D01*
X90170000Y-114424000D01*
X90170000Y-123138638D01*
X90150315Y-123205677D01*
X90133681Y-123226319D01*
X88936319Y-124423681D01*
X88874996Y-124457166D01*
X88848638Y-124460000D01*
X80134000Y-124460000D01*
X80066961Y-124440315D01*
X80021206Y-124387511D01*
X80010000Y-124336000D01*
X80010000Y-120870000D01*
X81910000Y-120870000D01*
X81910000Y-121367844D01*
X81916401Y-121427372D01*
X81916403Y-121427379D01*
X81966645Y-121562086D01*
X81966649Y-121562093D01*
X82052809Y-121677187D01*
X82052812Y-121677190D01*
X82167906Y-121763350D01*
X82167913Y-121763354D01*
X82302620Y-121813596D01*
X82302627Y-121813598D01*
X82362155Y-121819999D01*
X82362172Y-121820000D01*
X82760000Y-121820000D01*
X82760000Y-120870000D01*
X81910000Y-120870000D01*
X80010000Y-120870000D01*
X80010000Y-116619999D01*
X81751209Y-116619999D01*
X81751210Y-116620000D01*
X82280000Y-116620000D01*
X82279999Y-116065494D01*
X82279998Y-116065493D01*
X82133809Y-116107965D01*
X82133806Y-116107967D01*
X81994625Y-116190278D01*
X81994616Y-116190285D01*
X81880285Y-116304616D01*
X81880278Y-116304625D01*
X81797968Y-116443804D01*
X81797966Y-116443809D01*
X81752855Y-116599081D01*
X81752854Y-116599087D01*
X81751209Y-116619999D01*
X80010000Y-116619999D01*
X80010000Y-114424000D01*
X80029685Y-114356961D01*
X80082489Y-114311206D01*
X80134000Y-114300000D01*
X83375716Y-114300000D01*
X83442755Y-114319685D01*
G37*
%TD.AperFunction*%
%TD*%
M02*
