%TF.GenerationSoftware,KiCad,Pcbnew,7.0.5*%
%TF.CreationDate,2023-10-21T15:45:59-07:00*%
%TF.ProjectId,VBox,56426f78-2e6b-4696-9361-645f70636258,rev?*%
%TF.SameCoordinates,Original*%
%TF.FileFunction,Soldermask,Top*%
%TF.FilePolarity,Negative*%
%FSLAX46Y46*%
G04 Gerber Fmt 4.6, Leading zero omitted, Abs format (unit mm)*
G04 Created by KiCad (PCBNEW 7.0.5) date 2023-10-21 15:45:59*
%MOMM*%
%LPD*%
G01*
G04 APERTURE LIST*
G04 Aperture macros list*
%AMRoundRect*
0 Rectangle with rounded corners*
0 $1 Rounding radius*
0 $2 $3 $4 $5 $6 $7 $8 $9 X,Y pos of 4 corners*
0 Add a 4 corners polygon primitive as box body*
4,1,4,$2,$3,$4,$5,$6,$7,$8,$9,$2,$3,0*
0 Add four circle primitives for the rounded corners*
1,1,$1+$1,$2,$3*
1,1,$1+$1,$4,$5*
1,1,$1+$1,$6,$7*
1,1,$1+$1,$8,$9*
0 Add four rect primitives between the rounded corners*
20,1,$1+$1,$2,$3,$4,$5,0*
20,1,$1+$1,$4,$5,$6,$7,0*
20,1,$1+$1,$6,$7,$8,$9,0*
20,1,$1+$1,$8,$9,$2,$3,0*%
G04 Aperture macros list end*
%ADD10R,0.700000X0.800000*%
%ADD11RoundRect,0.135000X0.135000X0.185000X-0.135000X0.185000X-0.135000X-0.185000X0.135000X-0.185000X0*%
%ADD12RoundRect,0.140000X-0.170000X0.140000X-0.170000X-0.140000X0.170000X-0.140000X0.170000X0.140000X0*%
%ADD13RoundRect,0.135000X0.185000X-0.135000X0.185000X0.135000X-0.185000X0.135000X-0.185000X-0.135000X0*%
%ADD14C,2.000000*%
%ADD15C,1.701800*%
%ADD16C,3.000000*%
%ADD17C,3.429000*%
%ADD18C,2.032000*%
%ADD19C,0.650000*%
%ADD20R,0.600000X1.450000*%
%ADD21R,0.300000X1.450000*%
%ADD22O,1.000000X2.100000*%
%ADD23O,1.000000X1.600000*%
%ADD24RoundRect,0.140000X0.140000X0.170000X-0.140000X0.170000X-0.140000X-0.170000X0.140000X-0.170000X0*%
%ADD25RoundRect,0.140000X-0.140000X-0.170000X0.140000X-0.170000X0.140000X0.170000X-0.140000X0.170000X0*%
%ADD26RoundRect,0.135000X-0.185000X0.135000X-0.185000X-0.135000X0.185000X-0.135000X0.185000X0.135000X0*%
%ADD27C,6.400000*%
%ADD28O,1.600000X2.000000*%
%ADD29RoundRect,0.140000X0.170000X-0.140000X0.170000X0.140000X-0.170000X0.140000X-0.170000X-0.140000X0*%
%ADD30RoundRect,0.150000X-0.650000X-0.150000X0.650000X-0.150000X0.650000X0.150000X-0.650000X0.150000X0*%
%ADD31R,1.200000X1.400000*%
%ADD32R,1.400000X1.600000*%
%ADD33RoundRect,0.050000X-0.387500X-0.050000X0.387500X-0.050000X0.387500X0.050000X-0.387500X0.050000X0*%
%ADD34RoundRect,0.050000X-0.050000X-0.387500X0.050000X-0.387500X0.050000X0.387500X-0.050000X0.387500X0*%
%ADD35RoundRect,0.144000X-1.456000X-1.456000X1.456000X-1.456000X1.456000X1.456000X-1.456000X1.456000X0*%
%ADD36R,1.060000X0.650000*%
G04 APERTURE END LIST*
D10*
%TO.C,D9*%
X201860000Y-86749741D03*
X200660000Y-86749741D03*
X200660000Y-88049741D03*
X201860000Y-88049741D03*
%TD*%
D11*
%TO.C,R2*%
X71620000Y-97322500D03*
X70600000Y-97322500D03*
%TD*%
D12*
%TO.C,C21*%
X84265534Y-77529534D03*
X84265534Y-78489534D03*
%TD*%
D13*
%TO.C,R4*%
X87630000Y-100840000D03*
X87630000Y-99820000D03*
%TD*%
D11*
%TO.C,R6*%
X140565534Y-34290000D03*
X139545534Y-34290000D03*
%TD*%
D14*
%TO.C,SW5*%
X89750000Y-40750000D03*
X89750000Y-34250000D03*
X94250000Y-40750000D03*
X94250000Y-34250000D03*
%TD*%
D15*
%TO.C,SW10*%
X141265534Y-62855534D03*
D16*
X146765534Y-56905534D03*
D17*
X146765534Y-62855534D03*
D16*
X151765534Y-59105534D03*
D15*
X152265534Y-62855534D03*
D18*
X146765534Y-68755534D03*
X141765534Y-66655534D03*
%TD*%
D19*
%TO.C,USB1*%
X145795534Y-28495534D03*
X140015534Y-28495534D03*
D20*
X146130534Y-29940534D03*
X145355534Y-29940534D03*
D21*
X144655534Y-29940534D03*
X144155534Y-29940534D03*
X143655534Y-29940534D03*
X143155534Y-29940534D03*
X142655534Y-29940534D03*
X142155534Y-29940534D03*
X141655534Y-29940534D03*
X141155534Y-29940534D03*
D20*
X140455534Y-29940534D03*
X139680534Y-29940534D03*
D22*
X147225534Y-29025534D03*
D23*
X147225534Y-24845534D03*
D22*
X138585534Y-29025534D03*
D23*
X138585534Y-24845534D03*
%TD*%
D10*
%TO.C,D14*%
X70641534Y-142891534D03*
X69441534Y-142891534D03*
X69441534Y-144191534D03*
X70641534Y-144191534D03*
%TD*%
D12*
%TO.C,C22*%
X140145534Y-108009534D03*
X140145534Y-108969534D03*
%TD*%
D13*
%TO.C,R3*%
X86550000Y-100840000D03*
X86550000Y-99820000D03*
%TD*%
D12*
%TO.C,C17*%
X115789534Y-139505534D03*
X115789534Y-140465534D03*
%TD*%
D24*
%TO.C,C20*%
X229045534Y-64293534D03*
X228085534Y-64293534D03*
%TD*%
D14*
%TO.C,SW4*%
X81050000Y-40750000D03*
X81050000Y-34250000D03*
X85550000Y-40750000D03*
X85550000Y-34250000D03*
%TD*%
D25*
%TO.C,C12*%
X90936950Y-108327974D03*
X91896950Y-108327974D03*
%TD*%
D15*
%TO.C,SW15*%
X162265534Y-82785534D03*
D16*
X167765534Y-76835534D03*
D17*
X167765534Y-82785534D03*
D16*
X172765534Y-79035534D03*
D15*
X173265534Y-82785534D03*
D18*
X167765534Y-88685534D03*
X162765534Y-86585534D03*
%TD*%
D26*
%TO.C,R1*%
X74760000Y-104012500D03*
X74760000Y-105032500D03*
%TD*%
D25*
%TO.C,C15*%
X90310232Y-104586961D03*
X91270232Y-104586961D03*
%TD*%
D27*
%TO.C,H3*%
X240905534Y-34745534D03*
%TD*%
D25*
%TO.C,C30*%
X73117534Y-141509534D03*
X74077534Y-141509534D03*
%TD*%
D14*
%TO.C,SW6*%
X98450000Y-40750000D03*
X98450000Y-34250000D03*
X102950000Y-40750000D03*
X102950000Y-34250000D03*
%TD*%
D12*
%TO.C,C26*%
X195517534Y-96517463D03*
X195517534Y-97477463D03*
%TD*%
D10*
%TO.C,D11*%
X146050000Y-97790000D03*
X144850000Y-97790000D03*
X144850000Y-99090000D03*
X146050000Y-99090000D03*
%TD*%
D14*
%TO.C,SW3*%
X71150000Y-40750000D03*
X71150000Y-34250000D03*
X75650000Y-40750000D03*
X75650000Y-34250000D03*
%TD*%
D15*
%TO.C,SW12*%
X196795534Y-51205534D03*
D16*
X202295534Y-45255534D03*
D17*
X202295534Y-51205534D03*
D16*
X207295534Y-47455534D03*
D15*
X207795534Y-51205534D03*
D18*
X202295534Y-57105534D03*
X197295534Y-55005534D03*
%TD*%
D10*
%TO.C,D5*%
X176600000Y-56580877D03*
X177800000Y-56580877D03*
X177800000Y-55280877D03*
X176600000Y-55280877D03*
%TD*%
%TO.C,D8*%
X231140000Y-86740832D03*
X229940000Y-86740832D03*
X229940000Y-88040832D03*
X231140000Y-88040832D03*
%TD*%
D26*
%TO.C,R7*%
X144455534Y-31735534D03*
X144455534Y-32755534D03*
%TD*%
D15*
%TO.C,SW8*%
X79725534Y-62915534D03*
D16*
X85225534Y-56965534D03*
D17*
X85225534Y-62915534D03*
D16*
X90225534Y-59165534D03*
D15*
X90725534Y-62915534D03*
D18*
X85225534Y-68815534D03*
X80225534Y-66715534D03*
%TD*%
D25*
%TO.C,C18*%
X206530000Y-64770000D03*
X207490000Y-64770000D03*
%TD*%
D28*
%TO.C,OLED1*%
X116200000Y-31200000D03*
X118740000Y-31200000D03*
X121280000Y-31200000D03*
X123820000Y-31200000D03*
%TD*%
D10*
%TO.C,D15*%
X79277534Y-142891534D03*
X78077534Y-142891534D03*
X78077534Y-144191534D03*
X79277534Y-144191534D03*
%TD*%
%TO.C,D3*%
X115315014Y-79259701D03*
X116515014Y-79259701D03*
X116515014Y-77959701D03*
X115315014Y-77959701D03*
%TD*%
D15*
%TO.C,SW18*%
X123825534Y-127365534D03*
D16*
X129325534Y-121415534D03*
D17*
X129325534Y-127365534D03*
D16*
X134325534Y-123615534D03*
D15*
X134825534Y-127365534D03*
D18*
X129325534Y-133265534D03*
X124325534Y-131165534D03*
%TD*%
D27*
%TO.C,H6*%
X147905534Y-140745534D03*
%TD*%
D10*
%TO.C,D16*%
X87913534Y-142891534D03*
X86713534Y-142891534D03*
X86713534Y-144191534D03*
X87913534Y-144191534D03*
%TD*%
D29*
%TO.C,C4*%
X93490000Y-100990000D03*
X93490000Y-100030000D03*
%TD*%
D10*
%TO.C,D10*%
X172720000Y-86730437D03*
X171520000Y-86730437D03*
X171520000Y-88030437D03*
X172720000Y-88030437D03*
%TD*%
D25*
%TO.C,C32*%
X90389534Y-141509534D03*
X91349534Y-141509534D03*
%TD*%
D30*
%TO.C,U2*%
X73560000Y-97317500D03*
X73560000Y-98587500D03*
X73560000Y-99857500D03*
X73560000Y-101127500D03*
X80760000Y-101127500D03*
X80760000Y-99857500D03*
X80760000Y-98587500D03*
X80760000Y-97317500D03*
%TD*%
D12*
%TO.C,C24*%
X55309534Y-77021534D03*
X55309534Y-77981534D03*
%TD*%
D25*
%TO.C,C31*%
X81753534Y-141509534D03*
X82713534Y-141509534D03*
%TD*%
D14*
%TO.C,SW1*%
X53700000Y-40745534D03*
X53700000Y-34245534D03*
X58200000Y-40745534D03*
X58200000Y-34245534D03*
%TD*%
D10*
%TO.C,D12*%
X134620000Y-131364896D03*
X133420000Y-131364896D03*
X133420000Y-132664896D03*
X134620000Y-132664896D03*
%TD*%
D29*
%TO.C,C1*%
X98290000Y-100990000D03*
X98290000Y-100030000D03*
%TD*%
D12*
%TO.C,C28*%
X167069534Y-96520000D03*
X167069534Y-97480000D03*
%TD*%
D15*
%TO.C,SW17*%
X220325534Y-82785534D03*
D16*
X225825534Y-76835534D03*
D17*
X225825534Y-82785534D03*
D16*
X230825534Y-79035534D03*
D15*
X231325534Y-82785534D03*
D18*
X225825534Y-88685534D03*
X220825534Y-86585534D03*
%TD*%
D12*
%TO.C,C25*%
X224981534Y-96520000D03*
X224981534Y-97480000D03*
%TD*%
D29*
%TO.C,C6*%
X84450000Y-100210000D03*
X84450000Y-99250000D03*
%TD*%
D27*
%TO.C,H2*%
X154505534Y-34745534D03*
%TD*%
D12*
%TO.C,C7*%
X86560000Y-115090000D03*
X86560000Y-116050000D03*
%TD*%
D15*
%TO.C,SW16*%
X191115534Y-82785534D03*
D16*
X196615534Y-76835534D03*
D17*
X196615534Y-82785534D03*
D16*
X201615534Y-79035534D03*
D15*
X202115534Y-82785534D03*
D18*
X196615534Y-88685534D03*
X191615534Y-86585534D03*
%TD*%
D31*
%TO.C,Y1*%
X83010000Y-118420000D03*
X83010000Y-120620000D03*
X84710000Y-120620000D03*
X84710000Y-118420000D03*
%TD*%
D12*
%TO.C,C3*%
X86210000Y-119040000D03*
X86210000Y-120000000D03*
%TD*%
D10*
%TO.C,D1*%
X59869740Y-67842899D03*
X61069740Y-67842899D03*
X61069740Y-66542899D03*
X59869740Y-66542899D03*
%TD*%
D27*
%TO.C,H4*%
X131405534Y-75745534D03*
%TD*%
%TO.C,H5*%
X44905534Y-140745534D03*
%TD*%
D10*
%TO.C,D2*%
X88768173Y-67810023D03*
X89968173Y-67810023D03*
X89968173Y-66510023D03*
X88768173Y-66510023D03*
%TD*%
D27*
%TO.C,H7*%
X240905534Y-140745534D03*
%TD*%
D15*
%TO.C,SW9*%
X106325534Y-74265534D03*
D16*
X111825534Y-68315534D03*
D17*
X111825534Y-74265534D03*
D16*
X116825534Y-70515534D03*
D15*
X117325534Y-74265534D03*
D18*
X111825534Y-80165534D03*
X106825534Y-78065534D03*
%TD*%
D25*
%TO.C,C5*%
X80380000Y-95722500D03*
X81340000Y-95722500D03*
%TD*%
D24*
%TO.C,C11*%
X79066250Y-104922500D03*
X78106250Y-104922500D03*
%TD*%
D32*
%TO.C,SW20*%
X65530000Y-115570000D03*
X65530000Y-123570000D03*
X70030000Y-115570000D03*
X70030000Y-123570000D03*
%TD*%
D29*
%TO.C,C8*%
X88700000Y-100810000D03*
X88700000Y-99850000D03*
%TD*%
D14*
%TO.C,SW2*%
X62400000Y-40750000D03*
X62400000Y-34250000D03*
X66900000Y-40750000D03*
X66900000Y-34250000D03*
%TD*%
D10*
%TO.C,D13*%
X62005534Y-142891534D03*
X60805534Y-142891534D03*
X60805534Y-144191534D03*
X62005534Y-144191534D03*
%TD*%
D25*
%TO.C,C16*%
X90310232Y-103576212D03*
X91270232Y-103576212D03*
%TD*%
D33*
%TO.C,U3*%
X81621356Y-105290000D03*
X81621356Y-105690000D03*
X81621356Y-106090000D03*
X81621356Y-106490000D03*
X81621356Y-106890000D03*
X81621356Y-107290000D03*
X81621356Y-107690000D03*
X81621356Y-108090000D03*
X81621356Y-108490000D03*
X81621356Y-108890000D03*
X81621356Y-109290000D03*
X81621356Y-109690000D03*
X81621356Y-110090000D03*
X81621356Y-110490000D03*
D34*
X82458856Y-111327500D03*
X82858856Y-111327500D03*
X83258856Y-111327500D03*
X83658856Y-111327500D03*
X84058856Y-111327500D03*
X84458856Y-111327500D03*
X84858856Y-111327500D03*
X85258856Y-111327500D03*
X85658856Y-111327500D03*
X86058856Y-111327500D03*
X86458856Y-111327500D03*
X86858856Y-111327500D03*
X87258856Y-111327500D03*
X87658856Y-111327500D03*
D33*
X88496356Y-110490000D03*
X88496356Y-110090000D03*
X88496356Y-109690000D03*
X88496356Y-109290000D03*
X88496356Y-108890000D03*
X88496356Y-108490000D03*
X88496356Y-108090000D03*
X88496356Y-107690000D03*
X88496356Y-107290000D03*
X88496356Y-106890000D03*
X88496356Y-106490000D03*
X88496356Y-106090000D03*
X88496356Y-105690000D03*
X88496356Y-105290000D03*
D34*
X87658856Y-104452500D03*
X87258856Y-104452500D03*
X86858856Y-104452500D03*
X86458856Y-104452500D03*
X86058856Y-104452500D03*
X85658856Y-104452500D03*
X85258856Y-104452500D03*
X84858856Y-104452500D03*
X84458856Y-104452500D03*
X84058856Y-104452500D03*
X83658856Y-104452500D03*
X83258856Y-104452500D03*
X82858856Y-104452500D03*
X82458856Y-104452500D03*
D35*
X85058856Y-107890000D03*
%TD*%
D10*
%TO.C,D6*%
X205810000Y-56456638D03*
X207010000Y-56456638D03*
X207010000Y-55156638D03*
X205810000Y-55156638D03*
%TD*%
D25*
%TO.C,C19*%
X176749534Y-65309534D03*
X177709534Y-65309534D03*
%TD*%
D26*
%TO.C,R5*%
X84510000Y-115910000D03*
X84510000Y-116930000D03*
%TD*%
D29*
%TO.C,C29*%
X62421534Y-139477534D03*
X62421534Y-138517534D03*
%TD*%
D24*
%TO.C,C27*%
X108621534Y-88169534D03*
X107661534Y-88169534D03*
%TD*%
%TO.C,C13*%
X72870000Y-109220000D03*
X71910000Y-109220000D03*
%TD*%
%TO.C,C2*%
X83490000Y-116870000D03*
X82530000Y-116870000D03*
%TD*%
D29*
%TO.C,C9*%
X85500000Y-100810000D03*
X85500000Y-99850000D03*
%TD*%
%TO.C,C10*%
X89750000Y-101810000D03*
X89750000Y-100850000D03*
%TD*%
D15*
%TO.C,SW11*%
X167825534Y-51325534D03*
D16*
X173325534Y-45375534D03*
D17*
X173325534Y-51325534D03*
D16*
X178325534Y-47575534D03*
D15*
X178825534Y-51325534D03*
D18*
X173325534Y-57225534D03*
X168325534Y-55125534D03*
%TD*%
D10*
%TO.C,D7*%
X235020000Y-56671975D03*
X236220000Y-56671975D03*
X236220000Y-55371975D03*
X235020000Y-55371975D03*
%TD*%
D36*
%TO.C,U1*%
X96990000Y-100960000D03*
X96990000Y-100010000D03*
X96990000Y-99060000D03*
X94790000Y-99060000D03*
X94790000Y-100960000D03*
%TD*%
D10*
%TO.C,D4*%
X149930000Y-67991534D03*
X151130000Y-67991534D03*
X151130000Y-66691534D03*
X149930000Y-66691534D03*
%TD*%
D15*
%TO.C,SW7*%
X50630534Y-62795534D03*
D16*
X56130534Y-56845534D03*
D17*
X56130534Y-62795534D03*
D16*
X61130534Y-59045534D03*
D15*
X61630534Y-62795534D03*
D18*
X56130534Y-68695534D03*
X51130534Y-66595534D03*
%TD*%
D15*
%TO.C,SW14*%
X135655534Y-93895534D03*
D16*
X141155534Y-87945534D03*
D17*
X141155534Y-93895534D03*
D16*
X146155534Y-90145534D03*
D15*
X146655534Y-93895534D03*
D18*
X141155534Y-99795534D03*
X136155534Y-97695534D03*
%TD*%
D12*
%TO.C,C14*%
X85530000Y-115090000D03*
X85530000Y-116050000D03*
%TD*%
D27*
%TO.C,H1*%
X44905534Y-34745534D03*
%TD*%
D24*
%TO.C,C23*%
X143673534Y-75977534D03*
X142713534Y-75977534D03*
%TD*%
D15*
%TO.C,SW13*%
X225765534Y-51445534D03*
D16*
X231265534Y-45495534D03*
D17*
X231265534Y-51445534D03*
D16*
X236265534Y-47695534D03*
D15*
X236765534Y-51445534D03*
D18*
X231265534Y-57345534D03*
X226265534Y-55245534D03*
%TD*%
D32*
%TO.C,SW19*%
X77180000Y-123570000D03*
X77180000Y-115570000D03*
X72680000Y-123570000D03*
X72680000Y-115570000D03*
%TD*%
M02*
