%TF.GenerationSoftware,KiCad,Pcbnew,7.0.5*%
%TF.CreationDate,2023-10-21T15:45:58-07:00*%
%TF.ProjectId,VBox,56426f78-2e6b-4696-9361-645f70636258,rev?*%
%TF.SameCoordinates,Original*%
%TF.FileFunction,Legend,Top*%
%TF.FilePolarity,Positive*%
%FSLAX46Y46*%
G04 Gerber Fmt 4.6, Leading zero omitted, Abs format (unit mm)*
G04 Created by KiCad (PCBNEW 7.0.5) date 2023-10-21 15:45:58*
%MOMM*%
%LPD*%
G01*
G04 APERTURE LIST*
%ADD10C,0.120000*%
%ADD11C,0.254000*%
%ADD12C,0.150000*%
%ADD13C,0.100000*%
G04 APERTURE END LIST*
D10*
X155765531Y-82809928D02*
G75*
G03*
X167771376Y-70785507I11999999J24398D01*
G01*
X129155531Y-93919928D02*
G75*
G03*
X141161376Y-81895507I11999999J24398D01*
G01*
X184615531Y-82809928D02*
G75*
G03*
X196621376Y-70785507I11999999J24398D01*
G01*
X219265531Y-51469928D02*
G75*
G03*
X231271376Y-39445507I11999999J24398D01*
G01*
X111831376Y-62265509D02*
G75*
G03*
X99825533Y-74289928I-5846J-12000021D01*
G01*
X134765531Y-62879928D02*
G75*
G03*
X146771376Y-50855507I11999999J24398D01*
G01*
X99825531Y-74289928D02*
G75*
G03*
X111831376Y-62265507I11999999J24398D01*
G01*
X231271376Y-39445509D02*
G75*
G03*
X219265533Y-51469928I-5846J-12000021D01*
G01*
X213825531Y-82809928D02*
G75*
G03*
X225831376Y-70785507I11999999J24398D01*
G01*
X173331376Y-39325509D02*
G75*
G03*
X161325533Y-51349928I-5846J-12000021D01*
G01*
X225831376Y-70785509D02*
G75*
G03*
X213825533Y-82809928I-5846J-12000021D01*
G01*
X196621376Y-70785509D02*
G75*
G03*
X184615533Y-82809928I-5846J-12000021D01*
G01*
X141161376Y-81895509D02*
G75*
G03*
X129155533Y-93919928I-5846J-12000021D01*
G01*
X56136376Y-50795509D02*
G75*
G03*
X44130533Y-62819928I-5846J-12000021D01*
G01*
X129330000Y-112370001D02*
G75*
G03*
X114330000Y-127365501I-4470J-14995529D01*
G01*
X190295531Y-51229928D02*
G75*
G03*
X202301376Y-39205507I11999999J24398D01*
G01*
X44130531Y-62819928D02*
G75*
G03*
X56136376Y-50795507I12000003J24394D01*
G01*
X114329992Y-127365501D02*
G75*
G03*
X144321068Y-127365750I14995538J-29D01*
G01*
X144321059Y-127365750D02*
G75*
G03*
X129330000Y-112370002I-14995529J220D01*
G01*
X146771376Y-50855509D02*
G75*
G03*
X134765533Y-62879928I-5846J-12000021D01*
G01*
X73225531Y-62939928D02*
G75*
G03*
X85231376Y-50915507I11999999J24398D01*
G01*
X85231376Y-50915509D02*
G75*
G03*
X73225533Y-62939928I-5846J-12000021D01*
G01*
X161325531Y-51349928D02*
G75*
G03*
X173331376Y-39325507I11999999J24398D01*
G01*
X202301376Y-39205509D02*
G75*
G03*
X190295533Y-51229928I-5846J-12000021D01*
G01*
X167771376Y-70785509D02*
G75*
G03*
X155765533Y-82809928I-5846J-12000021D01*
G01*
X144590491Y-127261605D02*
X144590491Y-126461605D01*
X144590491Y-126461605D02*
X144780967Y-126461605D01*
X144780967Y-126461605D02*
X144895253Y-126499700D01*
X144895253Y-126499700D02*
X144971443Y-126575890D01*
X144971443Y-126575890D02*
X145009538Y-126652081D01*
X145009538Y-126652081D02*
X145047634Y-126804462D01*
X145047634Y-126804462D02*
X145047634Y-126918748D01*
X145047634Y-126918748D02*
X145009538Y-127071129D01*
X145009538Y-127071129D02*
X144971443Y-127147319D01*
X144971443Y-127147319D02*
X144895253Y-127223510D01*
X144895253Y-127223510D02*
X144780967Y-127261605D01*
X144780967Y-127261605D02*
X144590491Y-127261605D01*
X145390491Y-127185414D02*
X145428586Y-127223510D01*
X145428586Y-127223510D02*
X145390491Y-127261605D01*
X145390491Y-127261605D02*
X145352395Y-127223510D01*
X145352395Y-127223510D02*
X145390491Y-127185414D01*
X145390491Y-127185414D02*
X145390491Y-127261605D01*
X145390491Y-126766367D02*
X145428586Y-126804462D01*
X145428586Y-126804462D02*
X145390491Y-126842557D01*
X145390491Y-126842557D02*
X145352395Y-126804462D01*
X145352395Y-126804462D02*
X145390491Y-126766367D01*
X145390491Y-126766367D02*
X145390491Y-126842557D01*
X145695252Y-126461605D02*
X146190490Y-126461605D01*
X146190490Y-126461605D02*
X145923824Y-126766367D01*
X145923824Y-126766367D02*
X146038109Y-126766367D01*
X146038109Y-126766367D02*
X146114300Y-126804462D01*
X146114300Y-126804462D02*
X146152395Y-126842557D01*
X146152395Y-126842557D02*
X146190490Y-126918748D01*
X146190490Y-126918748D02*
X146190490Y-127109224D01*
X146190490Y-127109224D02*
X146152395Y-127185414D01*
X146152395Y-127185414D02*
X146114300Y-127223510D01*
X146114300Y-127223510D02*
X146038109Y-127261605D01*
X146038109Y-127261605D02*
X145809538Y-127261605D01*
X145809538Y-127261605D02*
X145733347Y-127223510D01*
X145733347Y-127223510D02*
X145695252Y-127185414D01*
X146685729Y-126461605D02*
X146761919Y-126461605D01*
X146761919Y-126461605D02*
X146838110Y-126499700D01*
X146838110Y-126499700D02*
X146876205Y-126537795D01*
X146876205Y-126537795D02*
X146914300Y-126613986D01*
X146914300Y-126613986D02*
X146952395Y-126766367D01*
X146952395Y-126766367D02*
X146952395Y-126956843D01*
X146952395Y-126956843D02*
X146914300Y-127109224D01*
X146914300Y-127109224D02*
X146876205Y-127185414D01*
X146876205Y-127185414D02*
X146838110Y-127223510D01*
X146838110Y-127223510D02*
X146761919Y-127261605D01*
X146761919Y-127261605D02*
X146685729Y-127261605D01*
X146685729Y-127261605D02*
X146609538Y-127223510D01*
X146609538Y-127223510D02*
X146571443Y-127185414D01*
X146571443Y-127185414D02*
X146533348Y-127109224D01*
X146533348Y-127109224D02*
X146495252Y-126956843D01*
X146495252Y-126956843D02*
X146495252Y-126766367D01*
X146495252Y-126766367D02*
X146533348Y-126613986D01*
X146533348Y-126613986D02*
X146571443Y-126537795D01*
X146571443Y-126537795D02*
X146609538Y-126499700D01*
X146609538Y-126499700D02*
X146685729Y-126461605D01*
X147295253Y-127261605D02*
X147295253Y-126728271D01*
X147295253Y-126804462D02*
X147333348Y-126766367D01*
X147333348Y-126766367D02*
X147409538Y-126728271D01*
X147409538Y-126728271D02*
X147523824Y-126728271D01*
X147523824Y-126728271D02*
X147600015Y-126766367D01*
X147600015Y-126766367D02*
X147638110Y-126842557D01*
X147638110Y-126842557D02*
X147638110Y-127261605D01*
X147638110Y-126842557D02*
X147676205Y-126766367D01*
X147676205Y-126766367D02*
X147752396Y-126728271D01*
X147752396Y-126728271D02*
X147866681Y-126728271D01*
X147866681Y-126728271D02*
X147942872Y-126766367D01*
X147942872Y-126766367D02*
X147980967Y-126842557D01*
X147980967Y-126842557D02*
X147980967Y-127261605D01*
X148361920Y-127261605D02*
X148361920Y-126728271D01*
X148361920Y-126804462D02*
X148400015Y-126766367D01*
X148400015Y-126766367D02*
X148476205Y-126728271D01*
X148476205Y-126728271D02*
X148590491Y-126728271D01*
X148590491Y-126728271D02*
X148666682Y-126766367D01*
X148666682Y-126766367D02*
X148704777Y-126842557D01*
X148704777Y-126842557D02*
X148704777Y-127261605D01*
X148704777Y-126842557D02*
X148742872Y-126766367D01*
X148742872Y-126766367D02*
X148819063Y-126728271D01*
X148819063Y-126728271D02*
X148933348Y-126728271D01*
X148933348Y-126728271D02*
X149009539Y-126766367D01*
X149009539Y-126766367D02*
X149047634Y-126842557D01*
X149047634Y-126842557D02*
X149047634Y-127261605D01*
X153430056Y-93731506D02*
X153430056Y-92931506D01*
X153430056Y-92931506D02*
X153620532Y-92931506D01*
X153620532Y-92931506D02*
X153734818Y-92969601D01*
X153734818Y-92969601D02*
X153811008Y-93045791D01*
X153811008Y-93045791D02*
X153849103Y-93121982D01*
X153849103Y-93121982D02*
X153887199Y-93274363D01*
X153887199Y-93274363D02*
X153887199Y-93388649D01*
X153887199Y-93388649D02*
X153849103Y-93541030D01*
X153849103Y-93541030D02*
X153811008Y-93617220D01*
X153811008Y-93617220D02*
X153734818Y-93693411D01*
X153734818Y-93693411D02*
X153620532Y-93731506D01*
X153620532Y-93731506D02*
X153430056Y-93731506D01*
X154230056Y-93655315D02*
X154268151Y-93693411D01*
X154268151Y-93693411D02*
X154230056Y-93731506D01*
X154230056Y-93731506D02*
X154191960Y-93693411D01*
X154191960Y-93693411D02*
X154230056Y-93655315D01*
X154230056Y-93655315D02*
X154230056Y-93731506D01*
X154230056Y-93236268D02*
X154268151Y-93274363D01*
X154268151Y-93274363D02*
X154230056Y-93312458D01*
X154230056Y-93312458D02*
X154191960Y-93274363D01*
X154191960Y-93274363D02*
X154230056Y-93236268D01*
X154230056Y-93236268D02*
X154230056Y-93312458D01*
X154572912Y-93007696D02*
X154611008Y-92969601D01*
X154611008Y-92969601D02*
X154687198Y-92931506D01*
X154687198Y-92931506D02*
X154877674Y-92931506D01*
X154877674Y-92931506D02*
X154953865Y-92969601D01*
X154953865Y-92969601D02*
X154991960Y-93007696D01*
X154991960Y-93007696D02*
X155030055Y-93083887D01*
X155030055Y-93083887D02*
X155030055Y-93160077D01*
X155030055Y-93160077D02*
X154991960Y-93274363D01*
X154991960Y-93274363D02*
X154534817Y-93731506D01*
X154534817Y-93731506D02*
X155030055Y-93731506D01*
X155715770Y-93198172D02*
X155715770Y-93731506D01*
X155525294Y-92893411D02*
X155334817Y-93464839D01*
X155334817Y-93464839D02*
X155830056Y-93464839D01*
X156134818Y-93731506D02*
X156134818Y-93198172D01*
X156134818Y-93274363D02*
X156172913Y-93236268D01*
X156172913Y-93236268D02*
X156249103Y-93198172D01*
X156249103Y-93198172D02*
X156363389Y-93198172D01*
X156363389Y-93198172D02*
X156439580Y-93236268D01*
X156439580Y-93236268D02*
X156477675Y-93312458D01*
X156477675Y-93312458D02*
X156477675Y-93731506D01*
X156477675Y-93312458D02*
X156515770Y-93236268D01*
X156515770Y-93236268D02*
X156591961Y-93198172D01*
X156591961Y-93198172D02*
X156706246Y-93198172D01*
X156706246Y-93198172D02*
X156782437Y-93236268D01*
X156782437Y-93236268D02*
X156820532Y-93312458D01*
X156820532Y-93312458D02*
X156820532Y-93731506D01*
X157201485Y-93731506D02*
X157201485Y-93198172D01*
X157201485Y-93274363D02*
X157239580Y-93236268D01*
X157239580Y-93236268D02*
X157315770Y-93198172D01*
X157315770Y-93198172D02*
X157430056Y-93198172D01*
X157430056Y-93198172D02*
X157506247Y-93236268D01*
X157506247Y-93236268D02*
X157544342Y-93312458D01*
X157544342Y-93312458D02*
X157544342Y-93731506D01*
X157544342Y-93312458D02*
X157582437Y-93236268D01*
X157582437Y-93236268D02*
X157658628Y-93198172D01*
X157658628Y-93198172D02*
X157772913Y-93198172D01*
X157772913Y-93198172D02*
X157849104Y-93236268D01*
X157849104Y-93236268D02*
X157887199Y-93312458D01*
X157887199Y-93312458D02*
X157887199Y-93731506D01*
D11*
X175527392Y-54365407D02*
X175527392Y-53095407D01*
X175527392Y-53095407D02*
X175829773Y-53095407D01*
X175829773Y-53095407D02*
X176011202Y-53155883D01*
X176011202Y-53155883D02*
X176132154Y-53276835D01*
X176132154Y-53276835D02*
X176192631Y-53397788D01*
X176192631Y-53397788D02*
X176253107Y-53639692D01*
X176253107Y-53639692D02*
X176253107Y-53821121D01*
X176253107Y-53821121D02*
X176192631Y-54063026D01*
X176192631Y-54063026D02*
X176132154Y-54183978D01*
X176132154Y-54183978D02*
X176011202Y-54304931D01*
X176011202Y-54304931D02*
X175829773Y-54365407D01*
X175829773Y-54365407D02*
X175527392Y-54365407D01*
X177402154Y-53095407D02*
X176797392Y-53095407D01*
X176797392Y-53095407D02*
X176736916Y-53700169D01*
X176736916Y-53700169D02*
X176797392Y-53639692D01*
X176797392Y-53639692D02*
X176918345Y-53579216D01*
X176918345Y-53579216D02*
X177220726Y-53579216D01*
X177220726Y-53579216D02*
X177341678Y-53639692D01*
X177341678Y-53639692D02*
X177402154Y-53700169D01*
X177402154Y-53700169D02*
X177462631Y-53821121D01*
X177462631Y-53821121D02*
X177462631Y-54123502D01*
X177462631Y-54123502D02*
X177402154Y-54244454D01*
X177402154Y-54244454D02*
X177341678Y-54304931D01*
X177341678Y-54304931D02*
X177220726Y-54365407D01*
X177220726Y-54365407D02*
X176918345Y-54365407D01*
X176918345Y-54365407D02*
X176797392Y-54304931D01*
X176797392Y-54304931D02*
X176736916Y-54244454D01*
X169148156Y-85861863D02*
X169148156Y-84591863D01*
X169148156Y-84591863D02*
X169450537Y-84591863D01*
X169450537Y-84591863D02*
X169631966Y-84652339D01*
X169631966Y-84652339D02*
X169752918Y-84773291D01*
X169752918Y-84773291D02*
X169813395Y-84894244D01*
X169813395Y-84894244D02*
X169873871Y-85136148D01*
X169873871Y-85136148D02*
X169873871Y-85317577D01*
X169873871Y-85317577D02*
X169813395Y-85559482D01*
X169813395Y-85559482D02*
X169752918Y-85680434D01*
X169752918Y-85680434D02*
X169631966Y-85801387D01*
X169631966Y-85801387D02*
X169450537Y-85861863D01*
X169450537Y-85861863D02*
X169148156Y-85861863D01*
X171083395Y-85861863D02*
X170357680Y-85861863D01*
X170720537Y-85861863D02*
X170720537Y-84591863D01*
X170720537Y-84591863D02*
X170599585Y-84773291D01*
X170599585Y-84773291D02*
X170478633Y-84894244D01*
X170478633Y-84894244D02*
X170357680Y-84954720D01*
X171869585Y-84591863D02*
X171990538Y-84591863D01*
X171990538Y-84591863D02*
X172111490Y-84652339D01*
X172111490Y-84652339D02*
X172171966Y-84712815D01*
X172171966Y-84712815D02*
X172232442Y-84833767D01*
X172232442Y-84833767D02*
X172292919Y-85075672D01*
X172292919Y-85075672D02*
X172292919Y-85378053D01*
X172292919Y-85378053D02*
X172232442Y-85619958D01*
X172232442Y-85619958D02*
X172171966Y-85740910D01*
X172171966Y-85740910D02*
X172111490Y-85801387D01*
X172111490Y-85801387D02*
X171990538Y-85861863D01*
X171990538Y-85861863D02*
X171869585Y-85861863D01*
X171869585Y-85861863D02*
X171748633Y-85801387D01*
X171748633Y-85801387D02*
X171688157Y-85740910D01*
X171688157Y-85740910D02*
X171627680Y-85619958D01*
X171627680Y-85619958D02*
X171567204Y-85378053D01*
X171567204Y-85378053D02*
X171567204Y-85075672D01*
X171567204Y-85075672D02*
X171627680Y-84833767D01*
X171627680Y-84833767D02*
X171688157Y-84712815D01*
X171688157Y-84712815D02*
X171748633Y-84652339D01*
X171748633Y-84652339D02*
X171869585Y-84591863D01*
X233641995Y-54324360D02*
X233641995Y-53054360D01*
X233641995Y-53054360D02*
X233944376Y-53054360D01*
X233944376Y-53054360D02*
X234125805Y-53114836D01*
X234125805Y-53114836D02*
X234246757Y-53235788D01*
X234246757Y-53235788D02*
X234307234Y-53356741D01*
X234307234Y-53356741D02*
X234367710Y-53598645D01*
X234367710Y-53598645D02*
X234367710Y-53780074D01*
X234367710Y-53780074D02*
X234307234Y-54021979D01*
X234307234Y-54021979D02*
X234246757Y-54142931D01*
X234246757Y-54142931D02*
X234125805Y-54263884D01*
X234125805Y-54263884D02*
X233944376Y-54324360D01*
X233944376Y-54324360D02*
X233641995Y-54324360D01*
X234791043Y-53054360D02*
X235637710Y-53054360D01*
X235637710Y-53054360D02*
X235093424Y-54324360D01*
X204574065Y-54070815D02*
X204574065Y-52800815D01*
X204574065Y-52800815D02*
X204876446Y-52800815D01*
X204876446Y-52800815D02*
X205057875Y-52861291D01*
X205057875Y-52861291D02*
X205178827Y-52982243D01*
X205178827Y-52982243D02*
X205239304Y-53103196D01*
X205239304Y-53103196D02*
X205299780Y-53345100D01*
X205299780Y-53345100D02*
X205299780Y-53526529D01*
X205299780Y-53526529D02*
X205239304Y-53768434D01*
X205239304Y-53768434D02*
X205178827Y-53889386D01*
X205178827Y-53889386D02*
X205057875Y-54010339D01*
X205057875Y-54010339D02*
X204876446Y-54070815D01*
X204876446Y-54070815D02*
X204574065Y-54070815D01*
X206388351Y-52800815D02*
X206146446Y-52800815D01*
X206146446Y-52800815D02*
X206025494Y-52861291D01*
X206025494Y-52861291D02*
X205965018Y-52921767D01*
X205965018Y-52921767D02*
X205844065Y-53103196D01*
X205844065Y-53103196D02*
X205783589Y-53345100D01*
X205783589Y-53345100D02*
X205783589Y-53828910D01*
X205783589Y-53828910D02*
X205844065Y-53949862D01*
X205844065Y-53949862D02*
X205904542Y-54010339D01*
X205904542Y-54010339D02*
X206025494Y-54070815D01*
X206025494Y-54070815D02*
X206267399Y-54070815D01*
X206267399Y-54070815D02*
X206388351Y-54010339D01*
X206388351Y-54010339D02*
X206448827Y-53949862D01*
X206448827Y-53949862D02*
X206509304Y-53828910D01*
X206509304Y-53828910D02*
X206509304Y-53526529D01*
X206509304Y-53526529D02*
X206448827Y-53405577D01*
X206448827Y-53405577D02*
X206388351Y-53345100D01*
X206388351Y-53345100D02*
X206267399Y-53284624D01*
X206267399Y-53284624D02*
X206025494Y-53284624D01*
X206025494Y-53284624D02*
X205904542Y-53345100D01*
X205904542Y-53345100D02*
X205844065Y-53405577D01*
X205844065Y-53405577D02*
X205783589Y-53526529D01*
X148812283Y-65479560D02*
X148812283Y-64209560D01*
X148812283Y-64209560D02*
X149114664Y-64209560D01*
X149114664Y-64209560D02*
X149296093Y-64270036D01*
X149296093Y-64270036D02*
X149417045Y-64390988D01*
X149417045Y-64390988D02*
X149477522Y-64511941D01*
X149477522Y-64511941D02*
X149537998Y-64753845D01*
X149537998Y-64753845D02*
X149537998Y-64935274D01*
X149537998Y-64935274D02*
X149477522Y-65177179D01*
X149477522Y-65177179D02*
X149417045Y-65298131D01*
X149417045Y-65298131D02*
X149296093Y-65419084D01*
X149296093Y-65419084D02*
X149114664Y-65479560D01*
X149114664Y-65479560D02*
X148812283Y-65479560D01*
X150626569Y-64632893D02*
X150626569Y-65479560D01*
X150324188Y-64149084D02*
X150021807Y-65056226D01*
X150021807Y-65056226D02*
X150807998Y-65056226D01*
X228456535Y-85754535D02*
X228456535Y-84484535D01*
X228456535Y-84484535D02*
X228758916Y-84484535D01*
X228758916Y-84484535D02*
X228940345Y-84545011D01*
X228940345Y-84545011D02*
X229061297Y-84665963D01*
X229061297Y-84665963D02*
X229121774Y-84786916D01*
X229121774Y-84786916D02*
X229182250Y-85028820D01*
X229182250Y-85028820D02*
X229182250Y-85210249D01*
X229182250Y-85210249D02*
X229121774Y-85452154D01*
X229121774Y-85452154D02*
X229061297Y-85573106D01*
X229061297Y-85573106D02*
X228940345Y-85694059D01*
X228940345Y-85694059D02*
X228758916Y-85754535D01*
X228758916Y-85754535D02*
X228456535Y-85754535D01*
X229907964Y-85028820D02*
X229787012Y-84968344D01*
X229787012Y-84968344D02*
X229726535Y-84907868D01*
X229726535Y-84907868D02*
X229666059Y-84786916D01*
X229666059Y-84786916D02*
X229666059Y-84726439D01*
X229666059Y-84726439D02*
X229726535Y-84605487D01*
X229726535Y-84605487D02*
X229787012Y-84545011D01*
X229787012Y-84545011D02*
X229907964Y-84484535D01*
X229907964Y-84484535D02*
X230149869Y-84484535D01*
X230149869Y-84484535D02*
X230270821Y-84545011D01*
X230270821Y-84545011D02*
X230331297Y-84605487D01*
X230331297Y-84605487D02*
X230391774Y-84726439D01*
X230391774Y-84726439D02*
X230391774Y-84786916D01*
X230391774Y-84786916D02*
X230331297Y-84907868D01*
X230331297Y-84907868D02*
X230270821Y-84968344D01*
X230270821Y-84968344D02*
X230149869Y-85028820D01*
X230149869Y-85028820D02*
X229907964Y-85028820D01*
X229907964Y-85028820D02*
X229787012Y-85089297D01*
X229787012Y-85089297D02*
X229726535Y-85149773D01*
X229726535Y-85149773D02*
X229666059Y-85270725D01*
X229666059Y-85270725D02*
X229666059Y-85512630D01*
X229666059Y-85512630D02*
X229726535Y-85633582D01*
X229726535Y-85633582D02*
X229787012Y-85694059D01*
X229787012Y-85694059D02*
X229907964Y-85754535D01*
X229907964Y-85754535D02*
X230149869Y-85754535D01*
X230149869Y-85754535D02*
X230270821Y-85694059D01*
X230270821Y-85694059D02*
X230331297Y-85633582D01*
X230331297Y-85633582D02*
X230391774Y-85512630D01*
X230391774Y-85512630D02*
X230391774Y-85270725D01*
X230391774Y-85270725D02*
X230331297Y-85149773D01*
X230331297Y-85149773D02*
X230270821Y-85089297D01*
X230270821Y-85089297D02*
X230149869Y-85028820D01*
%TO.C,D9*%
X199268186Y-85900084D02*
X199268186Y-84630084D01*
X199268186Y-84630084D02*
X199570567Y-84630084D01*
X199570567Y-84630084D02*
X199751996Y-84690560D01*
X199751996Y-84690560D02*
X199872948Y-84811512D01*
X199872948Y-84811512D02*
X199933425Y-84932465D01*
X199933425Y-84932465D02*
X199993901Y-85174369D01*
X199993901Y-85174369D02*
X199993901Y-85355798D01*
X199993901Y-85355798D02*
X199933425Y-85597703D01*
X199933425Y-85597703D02*
X199872948Y-85718655D01*
X199872948Y-85718655D02*
X199751996Y-85839608D01*
X199751996Y-85839608D02*
X199570567Y-85900084D01*
X199570567Y-85900084D02*
X199268186Y-85900084D01*
X200598663Y-85900084D02*
X200840567Y-85900084D01*
X200840567Y-85900084D02*
X200961520Y-85839608D01*
X200961520Y-85839608D02*
X201021996Y-85779131D01*
X201021996Y-85779131D02*
X201142948Y-85597703D01*
X201142948Y-85597703D02*
X201203425Y-85355798D01*
X201203425Y-85355798D02*
X201203425Y-84871988D01*
X201203425Y-84871988D02*
X201142948Y-84751036D01*
X201142948Y-84751036D02*
X201082472Y-84690560D01*
X201082472Y-84690560D02*
X200961520Y-84630084D01*
X200961520Y-84630084D02*
X200719615Y-84630084D01*
X200719615Y-84630084D02*
X200598663Y-84690560D01*
X200598663Y-84690560D02*
X200538186Y-84751036D01*
X200538186Y-84751036D02*
X200477710Y-84871988D01*
X200477710Y-84871988D02*
X200477710Y-85174369D01*
X200477710Y-85174369D02*
X200538186Y-85295322D01*
X200538186Y-85295322D02*
X200598663Y-85355798D01*
X200598663Y-85355798D02*
X200719615Y-85416274D01*
X200719615Y-85416274D02*
X200961520Y-85416274D01*
X200961520Y-85416274D02*
X201082472Y-85355798D01*
X201082472Y-85355798D02*
X201142948Y-85295322D01*
X201142948Y-85295322D02*
X201203425Y-85174369D01*
D12*
%TO.C,R2*%
X70986123Y-96666253D02*
X70719456Y-96285300D01*
X70528980Y-96666253D02*
X70528980Y-95866253D01*
X70528980Y-95866253D02*
X70833742Y-95866253D01*
X70833742Y-95866253D02*
X70909932Y-95904348D01*
X70909932Y-95904348D02*
X70948027Y-95942443D01*
X70948027Y-95942443D02*
X70986123Y-96018634D01*
X70986123Y-96018634D02*
X70986123Y-96132919D01*
X70986123Y-96132919D02*
X70948027Y-96209110D01*
X70948027Y-96209110D02*
X70909932Y-96247205D01*
X70909932Y-96247205D02*
X70833742Y-96285300D01*
X70833742Y-96285300D02*
X70528980Y-96285300D01*
X71290884Y-95942443D02*
X71328980Y-95904348D01*
X71328980Y-95904348D02*
X71405170Y-95866253D01*
X71405170Y-95866253D02*
X71595646Y-95866253D01*
X71595646Y-95866253D02*
X71671837Y-95904348D01*
X71671837Y-95904348D02*
X71709932Y-95942443D01*
X71709932Y-95942443D02*
X71748027Y-96018634D01*
X71748027Y-96018634D02*
X71748027Y-96094824D01*
X71748027Y-96094824D02*
X71709932Y-96209110D01*
X71709932Y-96209110D02*
X71252789Y-96666253D01*
X71252789Y-96666253D02*
X71748027Y-96666253D01*
%TO.C,C21*%
X83427426Y-78531595D02*
X83475046Y-78579214D01*
X83475046Y-78579214D02*
X83522665Y-78722071D01*
X83522665Y-78722071D02*
X83522665Y-78817309D01*
X83522665Y-78817309D02*
X83475046Y-78960166D01*
X83475046Y-78960166D02*
X83379807Y-79055404D01*
X83379807Y-79055404D02*
X83284569Y-79103023D01*
X83284569Y-79103023D02*
X83094093Y-79150642D01*
X83094093Y-79150642D02*
X82951236Y-79150642D01*
X82951236Y-79150642D02*
X82760760Y-79103023D01*
X82760760Y-79103023D02*
X82665522Y-79055404D01*
X82665522Y-79055404D02*
X82570284Y-78960166D01*
X82570284Y-78960166D02*
X82522665Y-78817309D01*
X82522665Y-78817309D02*
X82522665Y-78722071D01*
X82522665Y-78722071D02*
X82570284Y-78579214D01*
X82570284Y-78579214D02*
X82617903Y-78531595D01*
X82617903Y-78150642D02*
X82570284Y-78103023D01*
X82570284Y-78103023D02*
X82522665Y-78007785D01*
X82522665Y-78007785D02*
X82522665Y-77769690D01*
X82522665Y-77769690D02*
X82570284Y-77674452D01*
X82570284Y-77674452D02*
X82617903Y-77626833D01*
X82617903Y-77626833D02*
X82713141Y-77579214D01*
X82713141Y-77579214D02*
X82808379Y-77579214D01*
X82808379Y-77579214D02*
X82951236Y-77626833D01*
X82951236Y-77626833D02*
X83522665Y-78198261D01*
X83522665Y-78198261D02*
X83522665Y-77579214D01*
X83522665Y-76626833D02*
X83522665Y-77198261D01*
X83522665Y-76912547D02*
X82522665Y-76912547D01*
X82522665Y-76912547D02*
X82665522Y-77007785D01*
X82665522Y-77007785D02*
X82760760Y-77103023D01*
X82760760Y-77103023D02*
X82808379Y-77198261D01*
%TO.C,R4*%
X88042802Y-98645063D02*
X87661849Y-98911730D01*
X88042802Y-99102206D02*
X87242802Y-99102206D01*
X87242802Y-99102206D02*
X87242802Y-98797444D01*
X87242802Y-98797444D02*
X87280897Y-98721254D01*
X87280897Y-98721254D02*
X87318992Y-98683159D01*
X87318992Y-98683159D02*
X87395183Y-98645063D01*
X87395183Y-98645063D02*
X87509468Y-98645063D01*
X87509468Y-98645063D02*
X87585659Y-98683159D01*
X87585659Y-98683159D02*
X87623754Y-98721254D01*
X87623754Y-98721254D02*
X87661849Y-98797444D01*
X87661849Y-98797444D02*
X87661849Y-99102206D01*
X87509468Y-97959349D02*
X88042802Y-97959349D01*
X87204707Y-98149825D02*
X87776135Y-98340302D01*
X87776135Y-98340302D02*
X87776135Y-97845063D01*
%TO.C,R6*%
X139922201Y-35822295D02*
X139655534Y-35441342D01*
X139465058Y-35822295D02*
X139465058Y-35022295D01*
X139465058Y-35022295D02*
X139769820Y-35022295D01*
X139769820Y-35022295D02*
X139846010Y-35060390D01*
X139846010Y-35060390D02*
X139884105Y-35098485D01*
X139884105Y-35098485D02*
X139922201Y-35174676D01*
X139922201Y-35174676D02*
X139922201Y-35288961D01*
X139922201Y-35288961D02*
X139884105Y-35365152D01*
X139884105Y-35365152D02*
X139846010Y-35403247D01*
X139846010Y-35403247D02*
X139769820Y-35441342D01*
X139769820Y-35441342D02*
X139465058Y-35441342D01*
X140607915Y-35022295D02*
X140455534Y-35022295D01*
X140455534Y-35022295D02*
X140379343Y-35060390D01*
X140379343Y-35060390D02*
X140341248Y-35098485D01*
X140341248Y-35098485D02*
X140265058Y-35212771D01*
X140265058Y-35212771D02*
X140226962Y-35365152D01*
X140226962Y-35365152D02*
X140226962Y-35669914D01*
X140226962Y-35669914D02*
X140265058Y-35746104D01*
X140265058Y-35746104D02*
X140303153Y-35784200D01*
X140303153Y-35784200D02*
X140379343Y-35822295D01*
X140379343Y-35822295D02*
X140531724Y-35822295D01*
X140531724Y-35822295D02*
X140607915Y-35784200D01*
X140607915Y-35784200D02*
X140646010Y-35746104D01*
X140646010Y-35746104D02*
X140684105Y-35669914D01*
X140684105Y-35669914D02*
X140684105Y-35479438D01*
X140684105Y-35479438D02*
X140646010Y-35403247D01*
X140646010Y-35403247D02*
X140607915Y-35365152D01*
X140607915Y-35365152D02*
X140531724Y-35327057D01*
X140531724Y-35327057D02*
X140379343Y-35327057D01*
X140379343Y-35327057D02*
X140303153Y-35365152D01*
X140303153Y-35365152D02*
X140265058Y-35403247D01*
X140265058Y-35403247D02*
X140226962Y-35479438D01*
%TO.C,SW5*%
X88157200Y-38833332D02*
X88204819Y-38690475D01*
X88204819Y-38690475D02*
X88204819Y-38452380D01*
X88204819Y-38452380D02*
X88157200Y-38357142D01*
X88157200Y-38357142D02*
X88109580Y-38309523D01*
X88109580Y-38309523D02*
X88014342Y-38261904D01*
X88014342Y-38261904D02*
X87919104Y-38261904D01*
X87919104Y-38261904D02*
X87823866Y-38309523D01*
X87823866Y-38309523D02*
X87776247Y-38357142D01*
X87776247Y-38357142D02*
X87728628Y-38452380D01*
X87728628Y-38452380D02*
X87681009Y-38642856D01*
X87681009Y-38642856D02*
X87633390Y-38738094D01*
X87633390Y-38738094D02*
X87585771Y-38785713D01*
X87585771Y-38785713D02*
X87490533Y-38833332D01*
X87490533Y-38833332D02*
X87395295Y-38833332D01*
X87395295Y-38833332D02*
X87300057Y-38785713D01*
X87300057Y-38785713D02*
X87252438Y-38738094D01*
X87252438Y-38738094D02*
X87204819Y-38642856D01*
X87204819Y-38642856D02*
X87204819Y-38404761D01*
X87204819Y-38404761D02*
X87252438Y-38261904D01*
X87204819Y-37928570D02*
X88204819Y-37690475D01*
X88204819Y-37690475D02*
X87490533Y-37499999D01*
X87490533Y-37499999D02*
X88204819Y-37309523D01*
X88204819Y-37309523D02*
X87204819Y-37071428D01*
X87204819Y-36214285D02*
X87204819Y-36690475D01*
X87204819Y-36690475D02*
X87681009Y-36738094D01*
X87681009Y-36738094D02*
X87633390Y-36690475D01*
X87633390Y-36690475D02*
X87585771Y-36595237D01*
X87585771Y-36595237D02*
X87585771Y-36357142D01*
X87585771Y-36357142D02*
X87633390Y-36261904D01*
X87633390Y-36261904D02*
X87681009Y-36214285D01*
X87681009Y-36214285D02*
X87776247Y-36166666D01*
X87776247Y-36166666D02*
X88014342Y-36166666D01*
X88014342Y-36166666D02*
X88109580Y-36214285D01*
X88109580Y-36214285D02*
X88157200Y-36261904D01*
X88157200Y-36261904D02*
X88204819Y-36357142D01*
X88204819Y-36357142D02*
X88204819Y-36595237D01*
X88204819Y-36595237D02*
X88157200Y-36690475D01*
X88157200Y-36690475D02*
X88109580Y-36738094D01*
%TO.C,SW10*%
X144956010Y-55007734D02*
X145098867Y-55055353D01*
X145098867Y-55055353D02*
X145336962Y-55055353D01*
X145336962Y-55055353D02*
X145432200Y-55007734D01*
X145432200Y-55007734D02*
X145479819Y-54960114D01*
X145479819Y-54960114D02*
X145527438Y-54864876D01*
X145527438Y-54864876D02*
X145527438Y-54769638D01*
X145527438Y-54769638D02*
X145479819Y-54674400D01*
X145479819Y-54674400D02*
X145432200Y-54626781D01*
X145432200Y-54626781D02*
X145336962Y-54579162D01*
X145336962Y-54579162D02*
X145146486Y-54531543D01*
X145146486Y-54531543D02*
X145051248Y-54483924D01*
X145051248Y-54483924D02*
X145003629Y-54436305D01*
X145003629Y-54436305D02*
X144956010Y-54341067D01*
X144956010Y-54341067D02*
X144956010Y-54245829D01*
X144956010Y-54245829D02*
X145003629Y-54150591D01*
X145003629Y-54150591D02*
X145051248Y-54102972D01*
X145051248Y-54102972D02*
X145146486Y-54055353D01*
X145146486Y-54055353D02*
X145384581Y-54055353D01*
X145384581Y-54055353D02*
X145527438Y-54102972D01*
X145860772Y-54055353D02*
X146098867Y-55055353D01*
X146098867Y-55055353D02*
X146289343Y-54341067D01*
X146289343Y-54341067D02*
X146479819Y-55055353D01*
X146479819Y-55055353D02*
X146717915Y-54055353D01*
X147622676Y-55055353D02*
X147051248Y-55055353D01*
X147336962Y-55055353D02*
X147336962Y-54055353D01*
X147336962Y-54055353D02*
X147241724Y-54198210D01*
X147241724Y-54198210D02*
X147146486Y-54293448D01*
X147146486Y-54293448D02*
X147051248Y-54341067D01*
X148241724Y-54055353D02*
X148336962Y-54055353D01*
X148336962Y-54055353D02*
X148432200Y-54102972D01*
X148432200Y-54102972D02*
X148479819Y-54150591D01*
X148479819Y-54150591D02*
X148527438Y-54245829D01*
X148527438Y-54245829D02*
X148575057Y-54436305D01*
X148575057Y-54436305D02*
X148575057Y-54674400D01*
X148575057Y-54674400D02*
X148527438Y-54864876D01*
X148527438Y-54864876D02*
X148479819Y-54960114D01*
X148479819Y-54960114D02*
X148432200Y-55007734D01*
X148432200Y-55007734D02*
X148336962Y-55055353D01*
X148336962Y-55055353D02*
X148241724Y-55055353D01*
X148241724Y-55055353D02*
X148146486Y-55007734D01*
X148146486Y-55007734D02*
X148098867Y-54960114D01*
X148098867Y-54960114D02*
X148051248Y-54864876D01*
X148051248Y-54864876D02*
X148003629Y-54674400D01*
X148003629Y-54674400D02*
X148003629Y-54436305D01*
X148003629Y-54436305D02*
X148051248Y-54245829D01*
X148051248Y-54245829D02*
X148098867Y-54150591D01*
X148098867Y-54150591D02*
X148146486Y-54102972D01*
X148146486Y-54102972D02*
X148241724Y-54055353D01*
%TO.C,USB1*%
X141167439Y-30950353D02*
X141167439Y-31759876D01*
X141167439Y-31759876D02*
X141215058Y-31855114D01*
X141215058Y-31855114D02*
X141262677Y-31902734D01*
X141262677Y-31902734D02*
X141357915Y-31950353D01*
X141357915Y-31950353D02*
X141548391Y-31950353D01*
X141548391Y-31950353D02*
X141643629Y-31902734D01*
X141643629Y-31902734D02*
X141691248Y-31855114D01*
X141691248Y-31855114D02*
X141738867Y-31759876D01*
X141738867Y-31759876D02*
X141738867Y-30950353D01*
X142167439Y-31902734D02*
X142310296Y-31950353D01*
X142310296Y-31950353D02*
X142548391Y-31950353D01*
X142548391Y-31950353D02*
X142643629Y-31902734D01*
X142643629Y-31902734D02*
X142691248Y-31855114D01*
X142691248Y-31855114D02*
X142738867Y-31759876D01*
X142738867Y-31759876D02*
X142738867Y-31664638D01*
X142738867Y-31664638D02*
X142691248Y-31569400D01*
X142691248Y-31569400D02*
X142643629Y-31521781D01*
X142643629Y-31521781D02*
X142548391Y-31474162D01*
X142548391Y-31474162D02*
X142357915Y-31426543D01*
X142357915Y-31426543D02*
X142262677Y-31378924D01*
X142262677Y-31378924D02*
X142215058Y-31331305D01*
X142215058Y-31331305D02*
X142167439Y-31236067D01*
X142167439Y-31236067D02*
X142167439Y-31140829D01*
X142167439Y-31140829D02*
X142215058Y-31045591D01*
X142215058Y-31045591D02*
X142262677Y-30997972D01*
X142262677Y-30997972D02*
X142357915Y-30950353D01*
X142357915Y-30950353D02*
X142596010Y-30950353D01*
X142596010Y-30950353D02*
X142738867Y-30997972D01*
X143500772Y-31426543D02*
X143643629Y-31474162D01*
X143643629Y-31474162D02*
X143691248Y-31521781D01*
X143691248Y-31521781D02*
X143738867Y-31617019D01*
X143738867Y-31617019D02*
X143738867Y-31759876D01*
X143738867Y-31759876D02*
X143691248Y-31855114D01*
X143691248Y-31855114D02*
X143643629Y-31902734D01*
X143643629Y-31902734D02*
X143548391Y-31950353D01*
X143548391Y-31950353D02*
X143167439Y-31950353D01*
X143167439Y-31950353D02*
X143167439Y-30950353D01*
X143167439Y-30950353D02*
X143500772Y-30950353D01*
X143500772Y-30950353D02*
X143596010Y-30997972D01*
X143596010Y-30997972D02*
X143643629Y-31045591D01*
X143643629Y-31045591D02*
X143691248Y-31140829D01*
X143691248Y-31140829D02*
X143691248Y-31236067D01*
X143691248Y-31236067D02*
X143643629Y-31331305D01*
X143643629Y-31331305D02*
X143596010Y-31378924D01*
X143596010Y-31378924D02*
X143500772Y-31426543D01*
X143500772Y-31426543D02*
X143167439Y-31426543D01*
X144691248Y-31950353D02*
X144119820Y-31950353D01*
X144405534Y-31950353D02*
X144405534Y-30950353D01*
X144405534Y-30950353D02*
X144310296Y-31093210D01*
X144310296Y-31093210D02*
X144215058Y-31188448D01*
X144215058Y-31188448D02*
X144119820Y-31236067D01*
D11*
%TO.C,D14*%
X66614318Y-145052143D02*
X65344318Y-145052143D01*
X65344318Y-145052143D02*
X65344318Y-144749762D01*
X65344318Y-144749762D02*
X65404794Y-144568333D01*
X65404794Y-144568333D02*
X65525746Y-144447381D01*
X65525746Y-144447381D02*
X65646699Y-144386904D01*
X65646699Y-144386904D02*
X65888603Y-144326428D01*
X65888603Y-144326428D02*
X66070032Y-144326428D01*
X66070032Y-144326428D02*
X66311937Y-144386904D01*
X66311937Y-144386904D02*
X66432889Y-144447381D01*
X66432889Y-144447381D02*
X66553842Y-144568333D01*
X66553842Y-144568333D02*
X66614318Y-144749762D01*
X66614318Y-144749762D02*
X66614318Y-145052143D01*
X66614318Y-143116904D02*
X66614318Y-143842619D01*
X66614318Y-143479762D02*
X65344318Y-143479762D01*
X65344318Y-143479762D02*
X65525746Y-143600714D01*
X65525746Y-143600714D02*
X65646699Y-143721666D01*
X65646699Y-143721666D02*
X65707175Y-143842619D01*
X65767651Y-142028333D02*
X66614318Y-142028333D01*
X65283842Y-142330714D02*
X66190984Y-142633095D01*
X66190984Y-142633095D02*
X66190984Y-141846904D01*
D12*
%TO.C,C22*%
X142022664Y-109140238D02*
X142070284Y-109187857D01*
X142070284Y-109187857D02*
X142117903Y-109330714D01*
X142117903Y-109330714D02*
X142117903Y-109425952D01*
X142117903Y-109425952D02*
X142070284Y-109568809D01*
X142070284Y-109568809D02*
X141975045Y-109664047D01*
X141975045Y-109664047D02*
X141879807Y-109711666D01*
X141879807Y-109711666D02*
X141689331Y-109759285D01*
X141689331Y-109759285D02*
X141546474Y-109759285D01*
X141546474Y-109759285D02*
X141355998Y-109711666D01*
X141355998Y-109711666D02*
X141260760Y-109664047D01*
X141260760Y-109664047D02*
X141165522Y-109568809D01*
X141165522Y-109568809D02*
X141117903Y-109425952D01*
X141117903Y-109425952D02*
X141117903Y-109330714D01*
X141117903Y-109330714D02*
X141165522Y-109187857D01*
X141165522Y-109187857D02*
X141213141Y-109140238D01*
X141213141Y-108759285D02*
X141165522Y-108711666D01*
X141165522Y-108711666D02*
X141117903Y-108616428D01*
X141117903Y-108616428D02*
X141117903Y-108378333D01*
X141117903Y-108378333D02*
X141165522Y-108283095D01*
X141165522Y-108283095D02*
X141213141Y-108235476D01*
X141213141Y-108235476D02*
X141308379Y-108187857D01*
X141308379Y-108187857D02*
X141403617Y-108187857D01*
X141403617Y-108187857D02*
X141546474Y-108235476D01*
X141546474Y-108235476D02*
X142117903Y-108806904D01*
X142117903Y-108806904D02*
X142117903Y-108187857D01*
X141213141Y-107806904D02*
X141165522Y-107759285D01*
X141165522Y-107759285D02*
X141117903Y-107664047D01*
X141117903Y-107664047D02*
X141117903Y-107425952D01*
X141117903Y-107425952D02*
X141165522Y-107330714D01*
X141165522Y-107330714D02*
X141213141Y-107283095D01*
X141213141Y-107283095D02*
X141308379Y-107235476D01*
X141308379Y-107235476D02*
X141403617Y-107235476D01*
X141403617Y-107235476D02*
X141546474Y-107283095D01*
X141546474Y-107283095D02*
X142117903Y-107854523D01*
X142117903Y-107854523D02*
X142117903Y-107235476D01*
%TO.C,R3*%
X87010187Y-98645063D02*
X86629234Y-98911730D01*
X87010187Y-99102206D02*
X86210187Y-99102206D01*
X86210187Y-99102206D02*
X86210187Y-98797444D01*
X86210187Y-98797444D02*
X86248282Y-98721254D01*
X86248282Y-98721254D02*
X86286377Y-98683159D01*
X86286377Y-98683159D02*
X86362568Y-98645063D01*
X86362568Y-98645063D02*
X86476853Y-98645063D01*
X86476853Y-98645063D02*
X86553044Y-98683159D01*
X86553044Y-98683159D02*
X86591139Y-98721254D01*
X86591139Y-98721254D02*
X86629234Y-98797444D01*
X86629234Y-98797444D02*
X86629234Y-99102206D01*
X86210187Y-98378397D02*
X86210187Y-97883159D01*
X86210187Y-97883159D02*
X86514949Y-98149825D01*
X86514949Y-98149825D02*
X86514949Y-98035540D01*
X86514949Y-98035540D02*
X86553044Y-97959349D01*
X86553044Y-97959349D02*
X86591139Y-97921254D01*
X86591139Y-97921254D02*
X86667330Y-97883159D01*
X86667330Y-97883159D02*
X86857806Y-97883159D01*
X86857806Y-97883159D02*
X86933996Y-97921254D01*
X86933996Y-97921254D02*
X86972092Y-97959349D01*
X86972092Y-97959349D02*
X87010187Y-98035540D01*
X87010187Y-98035540D02*
X87010187Y-98264111D01*
X87010187Y-98264111D02*
X86972092Y-98340302D01*
X86972092Y-98340302D02*
X86933996Y-98378397D01*
%TO.C,C17*%
X118138771Y-141160974D02*
X118186391Y-141208593D01*
X118186391Y-141208593D02*
X118234010Y-141351450D01*
X118234010Y-141351450D02*
X118234010Y-141446688D01*
X118234010Y-141446688D02*
X118186391Y-141589545D01*
X118186391Y-141589545D02*
X118091152Y-141684783D01*
X118091152Y-141684783D02*
X117995914Y-141732402D01*
X117995914Y-141732402D02*
X117805438Y-141780021D01*
X117805438Y-141780021D02*
X117662581Y-141780021D01*
X117662581Y-141780021D02*
X117472105Y-141732402D01*
X117472105Y-141732402D02*
X117376867Y-141684783D01*
X117376867Y-141684783D02*
X117281629Y-141589545D01*
X117281629Y-141589545D02*
X117234010Y-141446688D01*
X117234010Y-141446688D02*
X117234010Y-141351450D01*
X117234010Y-141351450D02*
X117281629Y-141208593D01*
X117281629Y-141208593D02*
X117329248Y-141160974D01*
X118234010Y-140208593D02*
X118234010Y-140780021D01*
X118234010Y-140494307D02*
X117234010Y-140494307D01*
X117234010Y-140494307D02*
X117376867Y-140589545D01*
X117376867Y-140589545D02*
X117472105Y-140684783D01*
X117472105Y-140684783D02*
X117519724Y-140780021D01*
X117234010Y-139875259D02*
X117234010Y-139208593D01*
X117234010Y-139208593D02*
X118234010Y-139637164D01*
%TO.C,C20*%
X227514337Y-66015188D02*
X227466718Y-66062808D01*
X227466718Y-66062808D02*
X227323861Y-66110427D01*
X227323861Y-66110427D02*
X227228623Y-66110427D01*
X227228623Y-66110427D02*
X227085766Y-66062808D01*
X227085766Y-66062808D02*
X226990528Y-65967569D01*
X226990528Y-65967569D02*
X226942909Y-65872331D01*
X226942909Y-65872331D02*
X226895290Y-65681855D01*
X226895290Y-65681855D02*
X226895290Y-65538998D01*
X226895290Y-65538998D02*
X226942909Y-65348522D01*
X226942909Y-65348522D02*
X226990528Y-65253284D01*
X226990528Y-65253284D02*
X227085766Y-65158046D01*
X227085766Y-65158046D02*
X227228623Y-65110427D01*
X227228623Y-65110427D02*
X227323861Y-65110427D01*
X227323861Y-65110427D02*
X227466718Y-65158046D01*
X227466718Y-65158046D02*
X227514337Y-65205665D01*
X227895290Y-65205665D02*
X227942909Y-65158046D01*
X227942909Y-65158046D02*
X228038147Y-65110427D01*
X228038147Y-65110427D02*
X228276242Y-65110427D01*
X228276242Y-65110427D02*
X228371480Y-65158046D01*
X228371480Y-65158046D02*
X228419099Y-65205665D01*
X228419099Y-65205665D02*
X228466718Y-65300903D01*
X228466718Y-65300903D02*
X228466718Y-65396141D01*
X228466718Y-65396141D02*
X228419099Y-65538998D01*
X228419099Y-65538998D02*
X227847671Y-66110427D01*
X227847671Y-66110427D02*
X228466718Y-66110427D01*
X229085766Y-65110427D02*
X229181004Y-65110427D01*
X229181004Y-65110427D02*
X229276242Y-65158046D01*
X229276242Y-65158046D02*
X229323861Y-65205665D01*
X229323861Y-65205665D02*
X229371480Y-65300903D01*
X229371480Y-65300903D02*
X229419099Y-65491379D01*
X229419099Y-65491379D02*
X229419099Y-65729474D01*
X229419099Y-65729474D02*
X229371480Y-65919950D01*
X229371480Y-65919950D02*
X229323861Y-66015188D01*
X229323861Y-66015188D02*
X229276242Y-66062808D01*
X229276242Y-66062808D02*
X229181004Y-66110427D01*
X229181004Y-66110427D02*
X229085766Y-66110427D01*
X229085766Y-66110427D02*
X228990528Y-66062808D01*
X228990528Y-66062808D02*
X228942909Y-66015188D01*
X228942909Y-66015188D02*
X228895290Y-65919950D01*
X228895290Y-65919950D02*
X228847671Y-65729474D01*
X228847671Y-65729474D02*
X228847671Y-65491379D01*
X228847671Y-65491379D02*
X228895290Y-65300903D01*
X228895290Y-65300903D02*
X228942909Y-65205665D01*
X228942909Y-65205665D02*
X228990528Y-65158046D01*
X228990528Y-65158046D02*
X229085766Y-65110427D01*
%TO.C,SW4*%
X79457200Y-38833332D02*
X79504819Y-38690475D01*
X79504819Y-38690475D02*
X79504819Y-38452380D01*
X79504819Y-38452380D02*
X79457200Y-38357142D01*
X79457200Y-38357142D02*
X79409580Y-38309523D01*
X79409580Y-38309523D02*
X79314342Y-38261904D01*
X79314342Y-38261904D02*
X79219104Y-38261904D01*
X79219104Y-38261904D02*
X79123866Y-38309523D01*
X79123866Y-38309523D02*
X79076247Y-38357142D01*
X79076247Y-38357142D02*
X79028628Y-38452380D01*
X79028628Y-38452380D02*
X78981009Y-38642856D01*
X78981009Y-38642856D02*
X78933390Y-38738094D01*
X78933390Y-38738094D02*
X78885771Y-38785713D01*
X78885771Y-38785713D02*
X78790533Y-38833332D01*
X78790533Y-38833332D02*
X78695295Y-38833332D01*
X78695295Y-38833332D02*
X78600057Y-38785713D01*
X78600057Y-38785713D02*
X78552438Y-38738094D01*
X78552438Y-38738094D02*
X78504819Y-38642856D01*
X78504819Y-38642856D02*
X78504819Y-38404761D01*
X78504819Y-38404761D02*
X78552438Y-38261904D01*
X78504819Y-37928570D02*
X79504819Y-37690475D01*
X79504819Y-37690475D02*
X78790533Y-37499999D01*
X78790533Y-37499999D02*
X79504819Y-37309523D01*
X79504819Y-37309523D02*
X78504819Y-37071428D01*
X78838152Y-36261904D02*
X79504819Y-36261904D01*
X78457200Y-36499999D02*
X79171485Y-36738094D01*
X79171485Y-36738094D02*
X79171485Y-36119047D01*
%TO.C,C12*%
X95555250Y-109198721D02*
X95517154Y-109236817D01*
X95517154Y-109236817D02*
X95402869Y-109274912D01*
X95402869Y-109274912D02*
X95326678Y-109274912D01*
X95326678Y-109274912D02*
X95212392Y-109236817D01*
X95212392Y-109236817D02*
X95136202Y-109160626D01*
X95136202Y-109160626D02*
X95098107Y-109084436D01*
X95098107Y-109084436D02*
X95060011Y-108932055D01*
X95060011Y-108932055D02*
X95060011Y-108817769D01*
X95060011Y-108817769D02*
X95098107Y-108665388D01*
X95098107Y-108665388D02*
X95136202Y-108589197D01*
X95136202Y-108589197D02*
X95212392Y-108513007D01*
X95212392Y-108513007D02*
X95326678Y-108474912D01*
X95326678Y-108474912D02*
X95402869Y-108474912D01*
X95402869Y-108474912D02*
X95517154Y-108513007D01*
X95517154Y-108513007D02*
X95555250Y-108551102D01*
X96317154Y-109274912D02*
X95860011Y-109274912D01*
X96088583Y-109274912D02*
X96088583Y-108474912D01*
X96088583Y-108474912D02*
X96012392Y-108589197D01*
X96012392Y-108589197D02*
X95936202Y-108665388D01*
X95936202Y-108665388D02*
X95860011Y-108703483D01*
X96621916Y-108551102D02*
X96660012Y-108513007D01*
X96660012Y-108513007D02*
X96736202Y-108474912D01*
X96736202Y-108474912D02*
X96926678Y-108474912D01*
X96926678Y-108474912D02*
X97002869Y-108513007D01*
X97002869Y-108513007D02*
X97040964Y-108551102D01*
X97040964Y-108551102D02*
X97079059Y-108627293D01*
X97079059Y-108627293D02*
X97079059Y-108703483D01*
X97079059Y-108703483D02*
X97040964Y-108817769D01*
X97040964Y-108817769D02*
X96583821Y-109274912D01*
X96583821Y-109274912D02*
X97079059Y-109274912D01*
%TO.C,SW15*%
X165956010Y-74937734D02*
X166098867Y-74985353D01*
X166098867Y-74985353D02*
X166336962Y-74985353D01*
X166336962Y-74985353D02*
X166432200Y-74937734D01*
X166432200Y-74937734D02*
X166479819Y-74890114D01*
X166479819Y-74890114D02*
X166527438Y-74794876D01*
X166527438Y-74794876D02*
X166527438Y-74699638D01*
X166527438Y-74699638D02*
X166479819Y-74604400D01*
X166479819Y-74604400D02*
X166432200Y-74556781D01*
X166432200Y-74556781D02*
X166336962Y-74509162D01*
X166336962Y-74509162D02*
X166146486Y-74461543D01*
X166146486Y-74461543D02*
X166051248Y-74413924D01*
X166051248Y-74413924D02*
X166003629Y-74366305D01*
X166003629Y-74366305D02*
X165956010Y-74271067D01*
X165956010Y-74271067D02*
X165956010Y-74175829D01*
X165956010Y-74175829D02*
X166003629Y-74080591D01*
X166003629Y-74080591D02*
X166051248Y-74032972D01*
X166051248Y-74032972D02*
X166146486Y-73985353D01*
X166146486Y-73985353D02*
X166384581Y-73985353D01*
X166384581Y-73985353D02*
X166527438Y-74032972D01*
X166860772Y-73985353D02*
X167098867Y-74985353D01*
X167098867Y-74985353D02*
X167289343Y-74271067D01*
X167289343Y-74271067D02*
X167479819Y-74985353D01*
X167479819Y-74985353D02*
X167717915Y-73985353D01*
X168622676Y-74985353D02*
X168051248Y-74985353D01*
X168336962Y-74985353D02*
X168336962Y-73985353D01*
X168336962Y-73985353D02*
X168241724Y-74128210D01*
X168241724Y-74128210D02*
X168146486Y-74223448D01*
X168146486Y-74223448D02*
X168051248Y-74271067D01*
X169527438Y-73985353D02*
X169051248Y-73985353D01*
X169051248Y-73985353D02*
X169003629Y-74461543D01*
X169003629Y-74461543D02*
X169051248Y-74413924D01*
X169051248Y-74413924D02*
X169146486Y-74366305D01*
X169146486Y-74366305D02*
X169384581Y-74366305D01*
X169384581Y-74366305D02*
X169479819Y-74413924D01*
X169479819Y-74413924D02*
X169527438Y-74461543D01*
X169527438Y-74461543D02*
X169575057Y-74556781D01*
X169575057Y-74556781D02*
X169575057Y-74794876D01*
X169575057Y-74794876D02*
X169527438Y-74890114D01*
X169527438Y-74890114D02*
X169479819Y-74937734D01*
X169479819Y-74937734D02*
X169384581Y-74985353D01*
X169384581Y-74985353D02*
X169146486Y-74985353D01*
X169146486Y-74985353D02*
X169051248Y-74937734D01*
X169051248Y-74937734D02*
X169003629Y-74890114D01*
%TO.C,R1*%
X73163013Y-104396229D02*
X72896346Y-104015276D01*
X72705870Y-104396229D02*
X72705870Y-103596229D01*
X72705870Y-103596229D02*
X73010632Y-103596229D01*
X73010632Y-103596229D02*
X73086822Y-103634324D01*
X73086822Y-103634324D02*
X73124917Y-103672419D01*
X73124917Y-103672419D02*
X73163013Y-103748610D01*
X73163013Y-103748610D02*
X73163013Y-103862895D01*
X73163013Y-103862895D02*
X73124917Y-103939086D01*
X73124917Y-103939086D02*
X73086822Y-103977181D01*
X73086822Y-103977181D02*
X73010632Y-104015276D01*
X73010632Y-104015276D02*
X72705870Y-104015276D01*
X73924917Y-104396229D02*
X73467774Y-104396229D01*
X73696346Y-104396229D02*
X73696346Y-103596229D01*
X73696346Y-103596229D02*
X73620155Y-103710514D01*
X73620155Y-103710514D02*
X73543965Y-103786705D01*
X73543965Y-103786705D02*
X73467774Y-103824800D01*
%TO.C,C15*%
X94014406Y-104773302D02*
X93976310Y-104811398D01*
X93976310Y-104811398D02*
X93862025Y-104849493D01*
X93862025Y-104849493D02*
X93785834Y-104849493D01*
X93785834Y-104849493D02*
X93671548Y-104811398D01*
X93671548Y-104811398D02*
X93595358Y-104735207D01*
X93595358Y-104735207D02*
X93557263Y-104659017D01*
X93557263Y-104659017D02*
X93519167Y-104506636D01*
X93519167Y-104506636D02*
X93519167Y-104392350D01*
X93519167Y-104392350D02*
X93557263Y-104239969D01*
X93557263Y-104239969D02*
X93595358Y-104163778D01*
X93595358Y-104163778D02*
X93671548Y-104087588D01*
X93671548Y-104087588D02*
X93785834Y-104049493D01*
X93785834Y-104049493D02*
X93862025Y-104049493D01*
X93862025Y-104049493D02*
X93976310Y-104087588D01*
X93976310Y-104087588D02*
X94014406Y-104125683D01*
X94776310Y-104849493D02*
X94319167Y-104849493D01*
X94547739Y-104849493D02*
X94547739Y-104049493D01*
X94547739Y-104049493D02*
X94471548Y-104163778D01*
X94471548Y-104163778D02*
X94395358Y-104239969D01*
X94395358Y-104239969D02*
X94319167Y-104278064D01*
X95500120Y-104049493D02*
X95119168Y-104049493D01*
X95119168Y-104049493D02*
X95081072Y-104430445D01*
X95081072Y-104430445D02*
X95119168Y-104392350D01*
X95119168Y-104392350D02*
X95195358Y-104354255D01*
X95195358Y-104354255D02*
X95385834Y-104354255D01*
X95385834Y-104354255D02*
X95462025Y-104392350D01*
X95462025Y-104392350D02*
X95500120Y-104430445D01*
X95500120Y-104430445D02*
X95538215Y-104506636D01*
X95538215Y-104506636D02*
X95538215Y-104697112D01*
X95538215Y-104697112D02*
X95500120Y-104773302D01*
X95500120Y-104773302D02*
X95462025Y-104811398D01*
X95462025Y-104811398D02*
X95385834Y-104849493D01*
X95385834Y-104849493D02*
X95195358Y-104849493D01*
X95195358Y-104849493D02*
X95119168Y-104811398D01*
X95119168Y-104811398D02*
X95081072Y-104773302D01*
%TO.C,C30*%
X73017142Y-138789580D02*
X72969523Y-138837200D01*
X72969523Y-138837200D02*
X72826666Y-138884819D01*
X72826666Y-138884819D02*
X72731428Y-138884819D01*
X72731428Y-138884819D02*
X72588571Y-138837200D01*
X72588571Y-138837200D02*
X72493333Y-138741961D01*
X72493333Y-138741961D02*
X72445714Y-138646723D01*
X72445714Y-138646723D02*
X72398095Y-138456247D01*
X72398095Y-138456247D02*
X72398095Y-138313390D01*
X72398095Y-138313390D02*
X72445714Y-138122914D01*
X72445714Y-138122914D02*
X72493333Y-138027676D01*
X72493333Y-138027676D02*
X72588571Y-137932438D01*
X72588571Y-137932438D02*
X72731428Y-137884819D01*
X72731428Y-137884819D02*
X72826666Y-137884819D01*
X72826666Y-137884819D02*
X72969523Y-137932438D01*
X72969523Y-137932438D02*
X73017142Y-137980057D01*
X73350476Y-137884819D02*
X73969523Y-137884819D01*
X73969523Y-137884819D02*
X73636190Y-138265771D01*
X73636190Y-138265771D02*
X73779047Y-138265771D01*
X73779047Y-138265771D02*
X73874285Y-138313390D01*
X73874285Y-138313390D02*
X73921904Y-138361009D01*
X73921904Y-138361009D02*
X73969523Y-138456247D01*
X73969523Y-138456247D02*
X73969523Y-138694342D01*
X73969523Y-138694342D02*
X73921904Y-138789580D01*
X73921904Y-138789580D02*
X73874285Y-138837200D01*
X73874285Y-138837200D02*
X73779047Y-138884819D01*
X73779047Y-138884819D02*
X73493333Y-138884819D01*
X73493333Y-138884819D02*
X73398095Y-138837200D01*
X73398095Y-138837200D02*
X73350476Y-138789580D01*
X74588571Y-137884819D02*
X74683809Y-137884819D01*
X74683809Y-137884819D02*
X74779047Y-137932438D01*
X74779047Y-137932438D02*
X74826666Y-137980057D01*
X74826666Y-137980057D02*
X74874285Y-138075295D01*
X74874285Y-138075295D02*
X74921904Y-138265771D01*
X74921904Y-138265771D02*
X74921904Y-138503866D01*
X74921904Y-138503866D02*
X74874285Y-138694342D01*
X74874285Y-138694342D02*
X74826666Y-138789580D01*
X74826666Y-138789580D02*
X74779047Y-138837200D01*
X74779047Y-138837200D02*
X74683809Y-138884819D01*
X74683809Y-138884819D02*
X74588571Y-138884819D01*
X74588571Y-138884819D02*
X74493333Y-138837200D01*
X74493333Y-138837200D02*
X74445714Y-138789580D01*
X74445714Y-138789580D02*
X74398095Y-138694342D01*
X74398095Y-138694342D02*
X74350476Y-138503866D01*
X74350476Y-138503866D02*
X74350476Y-138265771D01*
X74350476Y-138265771D02*
X74398095Y-138075295D01*
X74398095Y-138075295D02*
X74445714Y-137980057D01*
X74445714Y-137980057D02*
X74493333Y-137932438D01*
X74493333Y-137932438D02*
X74588571Y-137884819D01*
%TO.C,SW6*%
X96857200Y-38833332D02*
X96904819Y-38690475D01*
X96904819Y-38690475D02*
X96904819Y-38452380D01*
X96904819Y-38452380D02*
X96857200Y-38357142D01*
X96857200Y-38357142D02*
X96809580Y-38309523D01*
X96809580Y-38309523D02*
X96714342Y-38261904D01*
X96714342Y-38261904D02*
X96619104Y-38261904D01*
X96619104Y-38261904D02*
X96523866Y-38309523D01*
X96523866Y-38309523D02*
X96476247Y-38357142D01*
X96476247Y-38357142D02*
X96428628Y-38452380D01*
X96428628Y-38452380D02*
X96381009Y-38642856D01*
X96381009Y-38642856D02*
X96333390Y-38738094D01*
X96333390Y-38738094D02*
X96285771Y-38785713D01*
X96285771Y-38785713D02*
X96190533Y-38833332D01*
X96190533Y-38833332D02*
X96095295Y-38833332D01*
X96095295Y-38833332D02*
X96000057Y-38785713D01*
X96000057Y-38785713D02*
X95952438Y-38738094D01*
X95952438Y-38738094D02*
X95904819Y-38642856D01*
X95904819Y-38642856D02*
X95904819Y-38404761D01*
X95904819Y-38404761D02*
X95952438Y-38261904D01*
X95904819Y-37928570D02*
X96904819Y-37690475D01*
X96904819Y-37690475D02*
X96190533Y-37499999D01*
X96190533Y-37499999D02*
X96904819Y-37309523D01*
X96904819Y-37309523D02*
X95904819Y-37071428D01*
X95904819Y-36261904D02*
X95904819Y-36452380D01*
X95904819Y-36452380D02*
X95952438Y-36547618D01*
X95952438Y-36547618D02*
X96000057Y-36595237D01*
X96000057Y-36595237D02*
X96142914Y-36690475D01*
X96142914Y-36690475D02*
X96333390Y-36738094D01*
X96333390Y-36738094D02*
X96714342Y-36738094D01*
X96714342Y-36738094D02*
X96809580Y-36690475D01*
X96809580Y-36690475D02*
X96857200Y-36642856D01*
X96857200Y-36642856D02*
X96904819Y-36547618D01*
X96904819Y-36547618D02*
X96904819Y-36357142D01*
X96904819Y-36357142D02*
X96857200Y-36261904D01*
X96857200Y-36261904D02*
X96809580Y-36214285D01*
X96809580Y-36214285D02*
X96714342Y-36166666D01*
X96714342Y-36166666D02*
X96476247Y-36166666D01*
X96476247Y-36166666D02*
X96381009Y-36214285D01*
X96381009Y-36214285D02*
X96333390Y-36261904D01*
X96333390Y-36261904D02*
X96285771Y-36357142D01*
X96285771Y-36357142D02*
X96285771Y-36547618D01*
X96285771Y-36547618D02*
X96333390Y-36642856D01*
X96333390Y-36642856D02*
X96381009Y-36690475D01*
X96381009Y-36690475D02*
X96476247Y-36738094D01*
%TO.C,C26*%
X197037114Y-97640320D02*
X197084734Y-97687939D01*
X197084734Y-97687939D02*
X197132353Y-97830796D01*
X197132353Y-97830796D02*
X197132353Y-97926034D01*
X197132353Y-97926034D02*
X197084734Y-98068891D01*
X197084734Y-98068891D02*
X196989495Y-98164129D01*
X196989495Y-98164129D02*
X196894257Y-98211748D01*
X196894257Y-98211748D02*
X196703781Y-98259367D01*
X196703781Y-98259367D02*
X196560924Y-98259367D01*
X196560924Y-98259367D02*
X196370448Y-98211748D01*
X196370448Y-98211748D02*
X196275210Y-98164129D01*
X196275210Y-98164129D02*
X196179972Y-98068891D01*
X196179972Y-98068891D02*
X196132353Y-97926034D01*
X196132353Y-97926034D02*
X196132353Y-97830796D01*
X196132353Y-97830796D02*
X196179972Y-97687939D01*
X196179972Y-97687939D02*
X196227591Y-97640320D01*
X196227591Y-97259367D02*
X196179972Y-97211748D01*
X196179972Y-97211748D02*
X196132353Y-97116510D01*
X196132353Y-97116510D02*
X196132353Y-96878415D01*
X196132353Y-96878415D02*
X196179972Y-96783177D01*
X196179972Y-96783177D02*
X196227591Y-96735558D01*
X196227591Y-96735558D02*
X196322829Y-96687939D01*
X196322829Y-96687939D02*
X196418067Y-96687939D01*
X196418067Y-96687939D02*
X196560924Y-96735558D01*
X196560924Y-96735558D02*
X197132353Y-97306986D01*
X197132353Y-97306986D02*
X197132353Y-96687939D01*
X196132353Y-95830796D02*
X196132353Y-96021272D01*
X196132353Y-96021272D02*
X196179972Y-96116510D01*
X196179972Y-96116510D02*
X196227591Y-96164129D01*
X196227591Y-96164129D02*
X196370448Y-96259367D01*
X196370448Y-96259367D02*
X196560924Y-96306986D01*
X196560924Y-96306986D02*
X196941876Y-96306986D01*
X196941876Y-96306986D02*
X197037114Y-96259367D01*
X197037114Y-96259367D02*
X197084734Y-96211748D01*
X197084734Y-96211748D02*
X197132353Y-96116510D01*
X197132353Y-96116510D02*
X197132353Y-95926034D01*
X197132353Y-95926034D02*
X197084734Y-95830796D01*
X197084734Y-95830796D02*
X197037114Y-95783177D01*
X197037114Y-95783177D02*
X196941876Y-95735558D01*
X196941876Y-95735558D02*
X196703781Y-95735558D01*
X196703781Y-95735558D02*
X196608543Y-95783177D01*
X196608543Y-95783177D02*
X196560924Y-95830796D01*
X196560924Y-95830796D02*
X196513305Y-95926034D01*
X196513305Y-95926034D02*
X196513305Y-96116510D01*
X196513305Y-96116510D02*
X196560924Y-96211748D01*
X196560924Y-96211748D02*
X196608543Y-96259367D01*
X196608543Y-96259367D02*
X196703781Y-96306986D01*
D11*
%TO.C,D11*%
X142967202Y-96812569D02*
X142967202Y-95542569D01*
X142967202Y-95542569D02*
X143269583Y-95542569D01*
X143269583Y-95542569D02*
X143451012Y-95603045D01*
X143451012Y-95603045D02*
X143571964Y-95723997D01*
X143571964Y-95723997D02*
X143632441Y-95844950D01*
X143632441Y-95844950D02*
X143692917Y-96086854D01*
X143692917Y-96086854D02*
X143692917Y-96268283D01*
X143692917Y-96268283D02*
X143632441Y-96510188D01*
X143632441Y-96510188D02*
X143571964Y-96631140D01*
X143571964Y-96631140D02*
X143451012Y-96752093D01*
X143451012Y-96752093D02*
X143269583Y-96812569D01*
X143269583Y-96812569D02*
X142967202Y-96812569D01*
X144902441Y-96812569D02*
X144176726Y-96812569D01*
X144539583Y-96812569D02*
X144539583Y-95542569D01*
X144539583Y-95542569D02*
X144418631Y-95723997D01*
X144418631Y-95723997D02*
X144297679Y-95844950D01*
X144297679Y-95844950D02*
X144176726Y-95905426D01*
X146111965Y-96812569D02*
X145386250Y-96812569D01*
X145749107Y-96812569D02*
X145749107Y-95542569D01*
X145749107Y-95542569D02*
X145628155Y-95723997D01*
X145628155Y-95723997D02*
X145507203Y-95844950D01*
X145507203Y-95844950D02*
X145386250Y-95905426D01*
D12*
%TO.C,SW3*%
X69557200Y-38833332D02*
X69604819Y-38690475D01*
X69604819Y-38690475D02*
X69604819Y-38452380D01*
X69604819Y-38452380D02*
X69557200Y-38357142D01*
X69557200Y-38357142D02*
X69509580Y-38309523D01*
X69509580Y-38309523D02*
X69414342Y-38261904D01*
X69414342Y-38261904D02*
X69319104Y-38261904D01*
X69319104Y-38261904D02*
X69223866Y-38309523D01*
X69223866Y-38309523D02*
X69176247Y-38357142D01*
X69176247Y-38357142D02*
X69128628Y-38452380D01*
X69128628Y-38452380D02*
X69081009Y-38642856D01*
X69081009Y-38642856D02*
X69033390Y-38738094D01*
X69033390Y-38738094D02*
X68985771Y-38785713D01*
X68985771Y-38785713D02*
X68890533Y-38833332D01*
X68890533Y-38833332D02*
X68795295Y-38833332D01*
X68795295Y-38833332D02*
X68700057Y-38785713D01*
X68700057Y-38785713D02*
X68652438Y-38738094D01*
X68652438Y-38738094D02*
X68604819Y-38642856D01*
X68604819Y-38642856D02*
X68604819Y-38404761D01*
X68604819Y-38404761D02*
X68652438Y-38261904D01*
X68604819Y-37928570D02*
X69604819Y-37690475D01*
X69604819Y-37690475D02*
X68890533Y-37499999D01*
X68890533Y-37499999D02*
X69604819Y-37309523D01*
X69604819Y-37309523D02*
X68604819Y-37071428D01*
X68604819Y-36785713D02*
X68604819Y-36166666D01*
X68604819Y-36166666D02*
X68985771Y-36499999D01*
X68985771Y-36499999D02*
X68985771Y-36357142D01*
X68985771Y-36357142D02*
X69033390Y-36261904D01*
X69033390Y-36261904D02*
X69081009Y-36214285D01*
X69081009Y-36214285D02*
X69176247Y-36166666D01*
X69176247Y-36166666D02*
X69414342Y-36166666D01*
X69414342Y-36166666D02*
X69509580Y-36214285D01*
X69509580Y-36214285D02*
X69557200Y-36261904D01*
X69557200Y-36261904D02*
X69604819Y-36357142D01*
X69604819Y-36357142D02*
X69604819Y-36642856D01*
X69604819Y-36642856D02*
X69557200Y-36738094D01*
X69557200Y-36738094D02*
X69509580Y-36785713D01*
%TO.C,SW12*%
X200486010Y-43357734D02*
X200628867Y-43405353D01*
X200628867Y-43405353D02*
X200866962Y-43405353D01*
X200866962Y-43405353D02*
X200962200Y-43357734D01*
X200962200Y-43357734D02*
X201009819Y-43310114D01*
X201009819Y-43310114D02*
X201057438Y-43214876D01*
X201057438Y-43214876D02*
X201057438Y-43119638D01*
X201057438Y-43119638D02*
X201009819Y-43024400D01*
X201009819Y-43024400D02*
X200962200Y-42976781D01*
X200962200Y-42976781D02*
X200866962Y-42929162D01*
X200866962Y-42929162D02*
X200676486Y-42881543D01*
X200676486Y-42881543D02*
X200581248Y-42833924D01*
X200581248Y-42833924D02*
X200533629Y-42786305D01*
X200533629Y-42786305D02*
X200486010Y-42691067D01*
X200486010Y-42691067D02*
X200486010Y-42595829D01*
X200486010Y-42595829D02*
X200533629Y-42500591D01*
X200533629Y-42500591D02*
X200581248Y-42452972D01*
X200581248Y-42452972D02*
X200676486Y-42405353D01*
X200676486Y-42405353D02*
X200914581Y-42405353D01*
X200914581Y-42405353D02*
X201057438Y-42452972D01*
X201390772Y-42405353D02*
X201628867Y-43405353D01*
X201628867Y-43405353D02*
X201819343Y-42691067D01*
X201819343Y-42691067D02*
X202009819Y-43405353D01*
X202009819Y-43405353D02*
X202247915Y-42405353D01*
X203152676Y-43405353D02*
X202581248Y-43405353D01*
X202866962Y-43405353D02*
X202866962Y-42405353D01*
X202866962Y-42405353D02*
X202771724Y-42548210D01*
X202771724Y-42548210D02*
X202676486Y-42643448D01*
X202676486Y-42643448D02*
X202581248Y-42691067D01*
X203533629Y-42500591D02*
X203581248Y-42452972D01*
X203581248Y-42452972D02*
X203676486Y-42405353D01*
X203676486Y-42405353D02*
X203914581Y-42405353D01*
X203914581Y-42405353D02*
X204009819Y-42452972D01*
X204009819Y-42452972D02*
X204057438Y-42500591D01*
X204057438Y-42500591D02*
X204105057Y-42595829D01*
X204105057Y-42595829D02*
X204105057Y-42691067D01*
X204105057Y-42691067D02*
X204057438Y-42833924D01*
X204057438Y-42833924D02*
X203486010Y-43405353D01*
X203486010Y-43405353D02*
X204105057Y-43405353D01*
%TO.C,R7*%
X146244612Y-32872763D02*
X145977945Y-32491810D01*
X145787469Y-32872763D02*
X145787469Y-32072763D01*
X145787469Y-32072763D02*
X146092231Y-32072763D01*
X146092231Y-32072763D02*
X146168421Y-32110858D01*
X146168421Y-32110858D02*
X146206516Y-32148953D01*
X146206516Y-32148953D02*
X146244612Y-32225144D01*
X146244612Y-32225144D02*
X146244612Y-32339429D01*
X146244612Y-32339429D02*
X146206516Y-32415620D01*
X146206516Y-32415620D02*
X146168421Y-32453715D01*
X146168421Y-32453715D02*
X146092231Y-32491810D01*
X146092231Y-32491810D02*
X145787469Y-32491810D01*
X146511278Y-32072763D02*
X147044612Y-32072763D01*
X147044612Y-32072763D02*
X146701754Y-32872763D01*
%TO.C,SW8*%
X83892201Y-55067734D02*
X84035058Y-55115353D01*
X84035058Y-55115353D02*
X84273153Y-55115353D01*
X84273153Y-55115353D02*
X84368391Y-55067734D01*
X84368391Y-55067734D02*
X84416010Y-55020114D01*
X84416010Y-55020114D02*
X84463629Y-54924876D01*
X84463629Y-54924876D02*
X84463629Y-54829638D01*
X84463629Y-54829638D02*
X84416010Y-54734400D01*
X84416010Y-54734400D02*
X84368391Y-54686781D01*
X84368391Y-54686781D02*
X84273153Y-54639162D01*
X84273153Y-54639162D02*
X84082677Y-54591543D01*
X84082677Y-54591543D02*
X83987439Y-54543924D01*
X83987439Y-54543924D02*
X83939820Y-54496305D01*
X83939820Y-54496305D02*
X83892201Y-54401067D01*
X83892201Y-54401067D02*
X83892201Y-54305829D01*
X83892201Y-54305829D02*
X83939820Y-54210591D01*
X83939820Y-54210591D02*
X83987439Y-54162972D01*
X83987439Y-54162972D02*
X84082677Y-54115353D01*
X84082677Y-54115353D02*
X84320772Y-54115353D01*
X84320772Y-54115353D02*
X84463629Y-54162972D01*
X84796963Y-54115353D02*
X85035058Y-55115353D01*
X85035058Y-55115353D02*
X85225534Y-54401067D01*
X85225534Y-54401067D02*
X85416010Y-55115353D01*
X85416010Y-55115353D02*
X85654106Y-54115353D01*
X86177915Y-54543924D02*
X86082677Y-54496305D01*
X86082677Y-54496305D02*
X86035058Y-54448686D01*
X86035058Y-54448686D02*
X85987439Y-54353448D01*
X85987439Y-54353448D02*
X85987439Y-54305829D01*
X85987439Y-54305829D02*
X86035058Y-54210591D01*
X86035058Y-54210591D02*
X86082677Y-54162972D01*
X86082677Y-54162972D02*
X86177915Y-54115353D01*
X86177915Y-54115353D02*
X86368391Y-54115353D01*
X86368391Y-54115353D02*
X86463629Y-54162972D01*
X86463629Y-54162972D02*
X86511248Y-54210591D01*
X86511248Y-54210591D02*
X86558867Y-54305829D01*
X86558867Y-54305829D02*
X86558867Y-54353448D01*
X86558867Y-54353448D02*
X86511248Y-54448686D01*
X86511248Y-54448686D02*
X86463629Y-54496305D01*
X86463629Y-54496305D02*
X86368391Y-54543924D01*
X86368391Y-54543924D02*
X86177915Y-54543924D01*
X86177915Y-54543924D02*
X86082677Y-54591543D01*
X86082677Y-54591543D02*
X86035058Y-54639162D01*
X86035058Y-54639162D02*
X85987439Y-54734400D01*
X85987439Y-54734400D02*
X85987439Y-54924876D01*
X85987439Y-54924876D02*
X86035058Y-55020114D01*
X86035058Y-55020114D02*
X86082677Y-55067734D01*
X86082677Y-55067734D02*
X86177915Y-55115353D01*
X86177915Y-55115353D02*
X86368391Y-55115353D01*
X86368391Y-55115353D02*
X86463629Y-55067734D01*
X86463629Y-55067734D02*
X86511248Y-55020114D01*
X86511248Y-55020114D02*
X86558867Y-54924876D01*
X86558867Y-54924876D02*
X86558867Y-54734400D01*
X86558867Y-54734400D02*
X86511248Y-54639162D01*
X86511248Y-54639162D02*
X86463629Y-54591543D01*
X86463629Y-54591543D02*
X86368391Y-54543924D01*
%TO.C,C18*%
X206875142Y-63969580D02*
X206827523Y-64017200D01*
X206827523Y-64017200D02*
X206684666Y-64064819D01*
X206684666Y-64064819D02*
X206589428Y-64064819D01*
X206589428Y-64064819D02*
X206446571Y-64017200D01*
X206446571Y-64017200D02*
X206351333Y-63921961D01*
X206351333Y-63921961D02*
X206303714Y-63826723D01*
X206303714Y-63826723D02*
X206256095Y-63636247D01*
X206256095Y-63636247D02*
X206256095Y-63493390D01*
X206256095Y-63493390D02*
X206303714Y-63302914D01*
X206303714Y-63302914D02*
X206351333Y-63207676D01*
X206351333Y-63207676D02*
X206446571Y-63112438D01*
X206446571Y-63112438D02*
X206589428Y-63064819D01*
X206589428Y-63064819D02*
X206684666Y-63064819D01*
X206684666Y-63064819D02*
X206827523Y-63112438D01*
X206827523Y-63112438D02*
X206875142Y-63160057D01*
X207827523Y-64064819D02*
X207256095Y-64064819D01*
X207541809Y-64064819D02*
X207541809Y-63064819D01*
X207541809Y-63064819D02*
X207446571Y-63207676D01*
X207446571Y-63207676D02*
X207351333Y-63302914D01*
X207351333Y-63302914D02*
X207256095Y-63350533D01*
X208398952Y-63493390D02*
X208303714Y-63445771D01*
X208303714Y-63445771D02*
X208256095Y-63398152D01*
X208256095Y-63398152D02*
X208208476Y-63302914D01*
X208208476Y-63302914D02*
X208208476Y-63255295D01*
X208208476Y-63255295D02*
X208256095Y-63160057D01*
X208256095Y-63160057D02*
X208303714Y-63112438D01*
X208303714Y-63112438D02*
X208398952Y-63064819D01*
X208398952Y-63064819D02*
X208589428Y-63064819D01*
X208589428Y-63064819D02*
X208684666Y-63112438D01*
X208684666Y-63112438D02*
X208732285Y-63160057D01*
X208732285Y-63160057D02*
X208779904Y-63255295D01*
X208779904Y-63255295D02*
X208779904Y-63302914D01*
X208779904Y-63302914D02*
X208732285Y-63398152D01*
X208732285Y-63398152D02*
X208684666Y-63445771D01*
X208684666Y-63445771D02*
X208589428Y-63493390D01*
X208589428Y-63493390D02*
X208398952Y-63493390D01*
X208398952Y-63493390D02*
X208303714Y-63541009D01*
X208303714Y-63541009D02*
X208256095Y-63588628D01*
X208256095Y-63588628D02*
X208208476Y-63683866D01*
X208208476Y-63683866D02*
X208208476Y-63874342D01*
X208208476Y-63874342D02*
X208256095Y-63969580D01*
X208256095Y-63969580D02*
X208303714Y-64017200D01*
X208303714Y-64017200D02*
X208398952Y-64064819D01*
X208398952Y-64064819D02*
X208589428Y-64064819D01*
X208589428Y-64064819D02*
X208684666Y-64017200D01*
X208684666Y-64017200D02*
X208732285Y-63969580D01*
X208732285Y-63969580D02*
X208779904Y-63874342D01*
X208779904Y-63874342D02*
X208779904Y-63683866D01*
X208779904Y-63683866D02*
X208732285Y-63588628D01*
X208732285Y-63588628D02*
X208684666Y-63541009D01*
X208684666Y-63541009D02*
X208589428Y-63493390D01*
%TO.C,OLED1*%
X117891428Y-41508819D02*
X118081904Y-41508819D01*
X118081904Y-41508819D02*
X118177142Y-41556438D01*
X118177142Y-41556438D02*
X118272380Y-41651676D01*
X118272380Y-41651676D02*
X118319999Y-41842152D01*
X118319999Y-41842152D02*
X118319999Y-42175485D01*
X118319999Y-42175485D02*
X118272380Y-42365961D01*
X118272380Y-42365961D02*
X118177142Y-42461200D01*
X118177142Y-42461200D02*
X118081904Y-42508819D01*
X118081904Y-42508819D02*
X117891428Y-42508819D01*
X117891428Y-42508819D02*
X117796190Y-42461200D01*
X117796190Y-42461200D02*
X117700952Y-42365961D01*
X117700952Y-42365961D02*
X117653333Y-42175485D01*
X117653333Y-42175485D02*
X117653333Y-41842152D01*
X117653333Y-41842152D02*
X117700952Y-41651676D01*
X117700952Y-41651676D02*
X117796190Y-41556438D01*
X117796190Y-41556438D02*
X117891428Y-41508819D01*
X119224761Y-42508819D02*
X118748571Y-42508819D01*
X118748571Y-42508819D02*
X118748571Y-41508819D01*
X119558095Y-41985009D02*
X119891428Y-41985009D01*
X120034285Y-42508819D02*
X119558095Y-42508819D01*
X119558095Y-42508819D02*
X119558095Y-41508819D01*
X119558095Y-41508819D02*
X120034285Y-41508819D01*
X120462857Y-42508819D02*
X120462857Y-41508819D01*
X120462857Y-41508819D02*
X120700952Y-41508819D01*
X120700952Y-41508819D02*
X120843809Y-41556438D01*
X120843809Y-41556438D02*
X120939047Y-41651676D01*
X120939047Y-41651676D02*
X120986666Y-41746914D01*
X120986666Y-41746914D02*
X121034285Y-41937390D01*
X121034285Y-41937390D02*
X121034285Y-42080247D01*
X121034285Y-42080247D02*
X120986666Y-42270723D01*
X120986666Y-42270723D02*
X120939047Y-42365961D01*
X120939047Y-42365961D02*
X120843809Y-42461200D01*
X120843809Y-42461200D02*
X120700952Y-42508819D01*
X120700952Y-42508819D02*
X120462857Y-42508819D01*
X121986666Y-42508819D02*
X121415238Y-42508819D01*
X121700952Y-42508819D02*
X121700952Y-41508819D01*
X121700952Y-41508819D02*
X121605714Y-41651676D01*
X121605714Y-41651676D02*
X121510476Y-41746914D01*
X121510476Y-41746914D02*
X121415238Y-41794533D01*
D11*
%TO.C,D15*%
X75504318Y-145052143D02*
X74234318Y-145052143D01*
X74234318Y-145052143D02*
X74234318Y-144749762D01*
X74234318Y-144749762D02*
X74294794Y-144568333D01*
X74294794Y-144568333D02*
X74415746Y-144447381D01*
X74415746Y-144447381D02*
X74536699Y-144386904D01*
X74536699Y-144386904D02*
X74778603Y-144326428D01*
X74778603Y-144326428D02*
X74960032Y-144326428D01*
X74960032Y-144326428D02*
X75201937Y-144386904D01*
X75201937Y-144386904D02*
X75322889Y-144447381D01*
X75322889Y-144447381D02*
X75443842Y-144568333D01*
X75443842Y-144568333D02*
X75504318Y-144749762D01*
X75504318Y-144749762D02*
X75504318Y-145052143D01*
X75504318Y-143116904D02*
X75504318Y-143842619D01*
X75504318Y-143479762D02*
X74234318Y-143479762D01*
X74234318Y-143479762D02*
X74415746Y-143600714D01*
X74415746Y-143600714D02*
X74536699Y-143721666D01*
X74536699Y-143721666D02*
X74597175Y-143842619D01*
X74234318Y-141967857D02*
X74234318Y-142572619D01*
X74234318Y-142572619D02*
X74839080Y-142633095D01*
X74839080Y-142633095D02*
X74778603Y-142572619D01*
X74778603Y-142572619D02*
X74718127Y-142451666D01*
X74718127Y-142451666D02*
X74718127Y-142149285D01*
X74718127Y-142149285D02*
X74778603Y-142028333D01*
X74778603Y-142028333D02*
X74839080Y-141967857D01*
X74839080Y-141967857D02*
X74960032Y-141907380D01*
X74960032Y-141907380D02*
X75262413Y-141907380D01*
X75262413Y-141907380D02*
X75383365Y-141967857D01*
X75383365Y-141967857D02*
X75443842Y-142028333D01*
X75443842Y-142028333D02*
X75504318Y-142149285D01*
X75504318Y-142149285D02*
X75504318Y-142451666D01*
X75504318Y-142451666D02*
X75443842Y-142572619D01*
X75443842Y-142572619D02*
X75383365Y-142633095D01*
%TO.C,D3*%
X114206520Y-77016767D02*
X114206520Y-75746767D01*
X114206520Y-75746767D02*
X114508901Y-75746767D01*
X114508901Y-75746767D02*
X114690330Y-75807243D01*
X114690330Y-75807243D02*
X114811282Y-75928195D01*
X114811282Y-75928195D02*
X114871759Y-76049148D01*
X114871759Y-76049148D02*
X114932235Y-76291052D01*
X114932235Y-76291052D02*
X114932235Y-76472481D01*
X114932235Y-76472481D02*
X114871759Y-76714386D01*
X114871759Y-76714386D02*
X114811282Y-76835338D01*
X114811282Y-76835338D02*
X114690330Y-76956291D01*
X114690330Y-76956291D02*
X114508901Y-77016767D01*
X114508901Y-77016767D02*
X114206520Y-77016767D01*
X115355568Y-75746767D02*
X116141759Y-75746767D01*
X116141759Y-75746767D02*
X115718425Y-76230576D01*
X115718425Y-76230576D02*
X115899854Y-76230576D01*
X115899854Y-76230576D02*
X116020806Y-76291052D01*
X116020806Y-76291052D02*
X116081282Y-76351529D01*
X116081282Y-76351529D02*
X116141759Y-76472481D01*
X116141759Y-76472481D02*
X116141759Y-76774862D01*
X116141759Y-76774862D02*
X116081282Y-76895814D01*
X116081282Y-76895814D02*
X116020806Y-76956291D01*
X116020806Y-76956291D02*
X115899854Y-77016767D01*
X115899854Y-77016767D02*
X115536997Y-77016767D01*
X115536997Y-77016767D02*
X115416044Y-76956291D01*
X115416044Y-76956291D02*
X115355568Y-76895814D01*
D12*
%TO.C,SW18*%
X127516010Y-119517734D02*
X127658867Y-119565353D01*
X127658867Y-119565353D02*
X127896962Y-119565353D01*
X127896962Y-119565353D02*
X127992200Y-119517734D01*
X127992200Y-119517734D02*
X128039819Y-119470114D01*
X128039819Y-119470114D02*
X128087438Y-119374876D01*
X128087438Y-119374876D02*
X128087438Y-119279638D01*
X128087438Y-119279638D02*
X128039819Y-119184400D01*
X128039819Y-119184400D02*
X127992200Y-119136781D01*
X127992200Y-119136781D02*
X127896962Y-119089162D01*
X127896962Y-119089162D02*
X127706486Y-119041543D01*
X127706486Y-119041543D02*
X127611248Y-118993924D01*
X127611248Y-118993924D02*
X127563629Y-118946305D01*
X127563629Y-118946305D02*
X127516010Y-118851067D01*
X127516010Y-118851067D02*
X127516010Y-118755829D01*
X127516010Y-118755829D02*
X127563629Y-118660591D01*
X127563629Y-118660591D02*
X127611248Y-118612972D01*
X127611248Y-118612972D02*
X127706486Y-118565353D01*
X127706486Y-118565353D02*
X127944581Y-118565353D01*
X127944581Y-118565353D02*
X128087438Y-118612972D01*
X128420772Y-118565353D02*
X128658867Y-119565353D01*
X128658867Y-119565353D02*
X128849343Y-118851067D01*
X128849343Y-118851067D02*
X129039819Y-119565353D01*
X129039819Y-119565353D02*
X129277915Y-118565353D01*
X130182676Y-119565353D02*
X129611248Y-119565353D01*
X129896962Y-119565353D02*
X129896962Y-118565353D01*
X129896962Y-118565353D02*
X129801724Y-118708210D01*
X129801724Y-118708210D02*
X129706486Y-118803448D01*
X129706486Y-118803448D02*
X129611248Y-118851067D01*
X130754105Y-118993924D02*
X130658867Y-118946305D01*
X130658867Y-118946305D02*
X130611248Y-118898686D01*
X130611248Y-118898686D02*
X130563629Y-118803448D01*
X130563629Y-118803448D02*
X130563629Y-118755829D01*
X130563629Y-118755829D02*
X130611248Y-118660591D01*
X130611248Y-118660591D02*
X130658867Y-118612972D01*
X130658867Y-118612972D02*
X130754105Y-118565353D01*
X130754105Y-118565353D02*
X130944581Y-118565353D01*
X130944581Y-118565353D02*
X131039819Y-118612972D01*
X131039819Y-118612972D02*
X131087438Y-118660591D01*
X131087438Y-118660591D02*
X131135057Y-118755829D01*
X131135057Y-118755829D02*
X131135057Y-118803448D01*
X131135057Y-118803448D02*
X131087438Y-118898686D01*
X131087438Y-118898686D02*
X131039819Y-118946305D01*
X131039819Y-118946305D02*
X130944581Y-118993924D01*
X130944581Y-118993924D02*
X130754105Y-118993924D01*
X130754105Y-118993924D02*
X130658867Y-119041543D01*
X130658867Y-119041543D02*
X130611248Y-119089162D01*
X130611248Y-119089162D02*
X130563629Y-119184400D01*
X130563629Y-119184400D02*
X130563629Y-119374876D01*
X130563629Y-119374876D02*
X130611248Y-119470114D01*
X130611248Y-119470114D02*
X130658867Y-119517734D01*
X130658867Y-119517734D02*
X130754105Y-119565353D01*
X130754105Y-119565353D02*
X130944581Y-119565353D01*
X130944581Y-119565353D02*
X131039819Y-119517734D01*
X131039819Y-119517734D02*
X131087438Y-119470114D01*
X131087438Y-119470114D02*
X131135057Y-119374876D01*
X131135057Y-119374876D02*
X131135057Y-119184400D01*
X131135057Y-119184400D02*
X131087438Y-119089162D01*
X131087438Y-119089162D02*
X131039819Y-119041543D01*
X131039819Y-119041543D02*
X130944581Y-118993924D01*
D11*
%TO.C,D16*%
X84394318Y-145052143D02*
X83124318Y-145052143D01*
X83124318Y-145052143D02*
X83124318Y-144749762D01*
X83124318Y-144749762D02*
X83184794Y-144568333D01*
X83184794Y-144568333D02*
X83305746Y-144447381D01*
X83305746Y-144447381D02*
X83426699Y-144386904D01*
X83426699Y-144386904D02*
X83668603Y-144326428D01*
X83668603Y-144326428D02*
X83850032Y-144326428D01*
X83850032Y-144326428D02*
X84091937Y-144386904D01*
X84091937Y-144386904D02*
X84212889Y-144447381D01*
X84212889Y-144447381D02*
X84333842Y-144568333D01*
X84333842Y-144568333D02*
X84394318Y-144749762D01*
X84394318Y-144749762D02*
X84394318Y-145052143D01*
X84394318Y-143116904D02*
X84394318Y-143842619D01*
X84394318Y-143479762D02*
X83124318Y-143479762D01*
X83124318Y-143479762D02*
X83305746Y-143600714D01*
X83305746Y-143600714D02*
X83426699Y-143721666D01*
X83426699Y-143721666D02*
X83487175Y-143842619D01*
X83124318Y-142028333D02*
X83124318Y-142270238D01*
X83124318Y-142270238D02*
X83184794Y-142391190D01*
X83184794Y-142391190D02*
X83245270Y-142451666D01*
X83245270Y-142451666D02*
X83426699Y-142572619D01*
X83426699Y-142572619D02*
X83668603Y-142633095D01*
X83668603Y-142633095D02*
X84152413Y-142633095D01*
X84152413Y-142633095D02*
X84273365Y-142572619D01*
X84273365Y-142572619D02*
X84333842Y-142512142D01*
X84333842Y-142512142D02*
X84394318Y-142391190D01*
X84394318Y-142391190D02*
X84394318Y-142149285D01*
X84394318Y-142149285D02*
X84333842Y-142028333D01*
X84333842Y-142028333D02*
X84273365Y-141967857D01*
X84273365Y-141967857D02*
X84152413Y-141907380D01*
X84152413Y-141907380D02*
X83850032Y-141907380D01*
X83850032Y-141907380D02*
X83729080Y-141967857D01*
X83729080Y-141967857D02*
X83668603Y-142028333D01*
X83668603Y-142028333D02*
X83608127Y-142149285D01*
X83608127Y-142149285D02*
X83608127Y-142391190D01*
X83608127Y-142391190D02*
X83668603Y-142512142D01*
X83668603Y-142512142D02*
X83729080Y-142572619D01*
X83729080Y-142572619D02*
X83850032Y-142633095D01*
D12*
%TO.C,C4*%
X92008066Y-100816287D02*
X91969970Y-100854383D01*
X91969970Y-100854383D02*
X91855685Y-100892478D01*
X91855685Y-100892478D02*
X91779494Y-100892478D01*
X91779494Y-100892478D02*
X91665208Y-100854383D01*
X91665208Y-100854383D02*
X91589018Y-100778192D01*
X91589018Y-100778192D02*
X91550923Y-100702002D01*
X91550923Y-100702002D02*
X91512827Y-100549621D01*
X91512827Y-100549621D02*
X91512827Y-100435335D01*
X91512827Y-100435335D02*
X91550923Y-100282954D01*
X91550923Y-100282954D02*
X91589018Y-100206763D01*
X91589018Y-100206763D02*
X91665208Y-100130573D01*
X91665208Y-100130573D02*
X91779494Y-100092478D01*
X91779494Y-100092478D02*
X91855685Y-100092478D01*
X91855685Y-100092478D02*
X91969970Y-100130573D01*
X91969970Y-100130573D02*
X92008066Y-100168668D01*
X92693780Y-100359144D02*
X92693780Y-100892478D01*
X92503304Y-100054383D02*
X92312827Y-100625811D01*
X92312827Y-100625811D02*
X92808066Y-100625811D01*
%TO.C,C32*%
X89527142Y-138789580D02*
X89479523Y-138837200D01*
X89479523Y-138837200D02*
X89336666Y-138884819D01*
X89336666Y-138884819D02*
X89241428Y-138884819D01*
X89241428Y-138884819D02*
X89098571Y-138837200D01*
X89098571Y-138837200D02*
X89003333Y-138741961D01*
X89003333Y-138741961D02*
X88955714Y-138646723D01*
X88955714Y-138646723D02*
X88908095Y-138456247D01*
X88908095Y-138456247D02*
X88908095Y-138313390D01*
X88908095Y-138313390D02*
X88955714Y-138122914D01*
X88955714Y-138122914D02*
X89003333Y-138027676D01*
X89003333Y-138027676D02*
X89098571Y-137932438D01*
X89098571Y-137932438D02*
X89241428Y-137884819D01*
X89241428Y-137884819D02*
X89336666Y-137884819D01*
X89336666Y-137884819D02*
X89479523Y-137932438D01*
X89479523Y-137932438D02*
X89527142Y-137980057D01*
X89860476Y-137884819D02*
X90479523Y-137884819D01*
X90479523Y-137884819D02*
X90146190Y-138265771D01*
X90146190Y-138265771D02*
X90289047Y-138265771D01*
X90289047Y-138265771D02*
X90384285Y-138313390D01*
X90384285Y-138313390D02*
X90431904Y-138361009D01*
X90431904Y-138361009D02*
X90479523Y-138456247D01*
X90479523Y-138456247D02*
X90479523Y-138694342D01*
X90479523Y-138694342D02*
X90431904Y-138789580D01*
X90431904Y-138789580D02*
X90384285Y-138837200D01*
X90384285Y-138837200D02*
X90289047Y-138884819D01*
X90289047Y-138884819D02*
X90003333Y-138884819D01*
X90003333Y-138884819D02*
X89908095Y-138837200D01*
X89908095Y-138837200D02*
X89860476Y-138789580D01*
X90860476Y-137980057D02*
X90908095Y-137932438D01*
X90908095Y-137932438D02*
X91003333Y-137884819D01*
X91003333Y-137884819D02*
X91241428Y-137884819D01*
X91241428Y-137884819D02*
X91336666Y-137932438D01*
X91336666Y-137932438D02*
X91384285Y-137980057D01*
X91384285Y-137980057D02*
X91431904Y-138075295D01*
X91431904Y-138075295D02*
X91431904Y-138170533D01*
X91431904Y-138170533D02*
X91384285Y-138313390D01*
X91384285Y-138313390D02*
X90812857Y-138884819D01*
X90812857Y-138884819D02*
X91431904Y-138884819D01*
%TO.C,U2*%
X76394364Y-94367902D02*
X76394364Y-95177425D01*
X76394364Y-95177425D02*
X76441983Y-95272663D01*
X76441983Y-95272663D02*
X76489602Y-95320283D01*
X76489602Y-95320283D02*
X76584840Y-95367902D01*
X76584840Y-95367902D02*
X76775316Y-95367902D01*
X76775316Y-95367902D02*
X76870554Y-95320283D01*
X76870554Y-95320283D02*
X76918173Y-95272663D01*
X76918173Y-95272663D02*
X76965792Y-95177425D01*
X76965792Y-95177425D02*
X76965792Y-94367902D01*
X77394364Y-94463140D02*
X77441983Y-94415521D01*
X77441983Y-94415521D02*
X77537221Y-94367902D01*
X77537221Y-94367902D02*
X77775316Y-94367902D01*
X77775316Y-94367902D02*
X77870554Y-94415521D01*
X77870554Y-94415521D02*
X77918173Y-94463140D01*
X77918173Y-94463140D02*
X77965792Y-94558378D01*
X77965792Y-94558378D02*
X77965792Y-94653616D01*
X77965792Y-94653616D02*
X77918173Y-94796473D01*
X77918173Y-94796473D02*
X77346745Y-95367902D01*
X77346745Y-95367902D02*
X77965792Y-95367902D01*
%TO.C,C24*%
X56691350Y-77811638D02*
X56643731Y-77859258D01*
X56643731Y-77859258D02*
X56500874Y-77906877D01*
X56500874Y-77906877D02*
X56405636Y-77906877D01*
X56405636Y-77906877D02*
X56262779Y-77859258D01*
X56262779Y-77859258D02*
X56167541Y-77764019D01*
X56167541Y-77764019D02*
X56119922Y-77668781D01*
X56119922Y-77668781D02*
X56072303Y-77478305D01*
X56072303Y-77478305D02*
X56072303Y-77335448D01*
X56072303Y-77335448D02*
X56119922Y-77144972D01*
X56119922Y-77144972D02*
X56167541Y-77049734D01*
X56167541Y-77049734D02*
X56262779Y-76954496D01*
X56262779Y-76954496D02*
X56405636Y-76906877D01*
X56405636Y-76906877D02*
X56500874Y-76906877D01*
X56500874Y-76906877D02*
X56643731Y-76954496D01*
X56643731Y-76954496D02*
X56691350Y-77002115D01*
X57072303Y-77002115D02*
X57119922Y-76954496D01*
X57119922Y-76954496D02*
X57215160Y-76906877D01*
X57215160Y-76906877D02*
X57453255Y-76906877D01*
X57453255Y-76906877D02*
X57548493Y-76954496D01*
X57548493Y-76954496D02*
X57596112Y-77002115D01*
X57596112Y-77002115D02*
X57643731Y-77097353D01*
X57643731Y-77097353D02*
X57643731Y-77192591D01*
X57643731Y-77192591D02*
X57596112Y-77335448D01*
X57596112Y-77335448D02*
X57024684Y-77906877D01*
X57024684Y-77906877D02*
X57643731Y-77906877D01*
X58500874Y-77240210D02*
X58500874Y-77906877D01*
X58262779Y-76859258D02*
X58024684Y-77573543D01*
X58024684Y-77573543D02*
X58643731Y-77573543D01*
%TO.C,C31*%
X81907142Y-138789580D02*
X81859523Y-138837200D01*
X81859523Y-138837200D02*
X81716666Y-138884819D01*
X81716666Y-138884819D02*
X81621428Y-138884819D01*
X81621428Y-138884819D02*
X81478571Y-138837200D01*
X81478571Y-138837200D02*
X81383333Y-138741961D01*
X81383333Y-138741961D02*
X81335714Y-138646723D01*
X81335714Y-138646723D02*
X81288095Y-138456247D01*
X81288095Y-138456247D02*
X81288095Y-138313390D01*
X81288095Y-138313390D02*
X81335714Y-138122914D01*
X81335714Y-138122914D02*
X81383333Y-138027676D01*
X81383333Y-138027676D02*
X81478571Y-137932438D01*
X81478571Y-137932438D02*
X81621428Y-137884819D01*
X81621428Y-137884819D02*
X81716666Y-137884819D01*
X81716666Y-137884819D02*
X81859523Y-137932438D01*
X81859523Y-137932438D02*
X81907142Y-137980057D01*
X82240476Y-137884819D02*
X82859523Y-137884819D01*
X82859523Y-137884819D02*
X82526190Y-138265771D01*
X82526190Y-138265771D02*
X82669047Y-138265771D01*
X82669047Y-138265771D02*
X82764285Y-138313390D01*
X82764285Y-138313390D02*
X82811904Y-138361009D01*
X82811904Y-138361009D02*
X82859523Y-138456247D01*
X82859523Y-138456247D02*
X82859523Y-138694342D01*
X82859523Y-138694342D02*
X82811904Y-138789580D01*
X82811904Y-138789580D02*
X82764285Y-138837200D01*
X82764285Y-138837200D02*
X82669047Y-138884819D01*
X82669047Y-138884819D02*
X82383333Y-138884819D01*
X82383333Y-138884819D02*
X82288095Y-138837200D01*
X82288095Y-138837200D02*
X82240476Y-138789580D01*
X83811904Y-138884819D02*
X83240476Y-138884819D01*
X83526190Y-138884819D02*
X83526190Y-137884819D01*
X83526190Y-137884819D02*
X83430952Y-138027676D01*
X83430952Y-138027676D02*
X83335714Y-138122914D01*
X83335714Y-138122914D02*
X83240476Y-138170533D01*
%TO.C,SW1*%
X52107200Y-38828866D02*
X52154819Y-38686009D01*
X52154819Y-38686009D02*
X52154819Y-38447914D01*
X52154819Y-38447914D02*
X52107200Y-38352676D01*
X52107200Y-38352676D02*
X52059580Y-38305057D01*
X52059580Y-38305057D02*
X51964342Y-38257438D01*
X51964342Y-38257438D02*
X51869104Y-38257438D01*
X51869104Y-38257438D02*
X51773866Y-38305057D01*
X51773866Y-38305057D02*
X51726247Y-38352676D01*
X51726247Y-38352676D02*
X51678628Y-38447914D01*
X51678628Y-38447914D02*
X51631009Y-38638390D01*
X51631009Y-38638390D02*
X51583390Y-38733628D01*
X51583390Y-38733628D02*
X51535771Y-38781247D01*
X51535771Y-38781247D02*
X51440533Y-38828866D01*
X51440533Y-38828866D02*
X51345295Y-38828866D01*
X51345295Y-38828866D02*
X51250057Y-38781247D01*
X51250057Y-38781247D02*
X51202438Y-38733628D01*
X51202438Y-38733628D02*
X51154819Y-38638390D01*
X51154819Y-38638390D02*
X51154819Y-38400295D01*
X51154819Y-38400295D02*
X51202438Y-38257438D01*
X51154819Y-37924104D02*
X52154819Y-37686009D01*
X52154819Y-37686009D02*
X51440533Y-37495533D01*
X51440533Y-37495533D02*
X52154819Y-37305057D01*
X52154819Y-37305057D02*
X51154819Y-37066962D01*
X52154819Y-36162200D02*
X52154819Y-36733628D01*
X52154819Y-36447914D02*
X51154819Y-36447914D01*
X51154819Y-36447914D02*
X51297676Y-36543152D01*
X51297676Y-36543152D02*
X51392914Y-36638390D01*
X51392914Y-36638390D02*
X51440533Y-36733628D01*
D11*
%TO.C,D12*%
X131446984Y-130147193D02*
X131446984Y-128877193D01*
X131446984Y-128877193D02*
X131749365Y-128877193D01*
X131749365Y-128877193D02*
X131930794Y-128937669D01*
X131930794Y-128937669D02*
X132051746Y-129058621D01*
X132051746Y-129058621D02*
X132112223Y-129179574D01*
X132112223Y-129179574D02*
X132172699Y-129421478D01*
X132172699Y-129421478D02*
X132172699Y-129602907D01*
X132172699Y-129602907D02*
X132112223Y-129844812D01*
X132112223Y-129844812D02*
X132051746Y-129965764D01*
X132051746Y-129965764D02*
X131930794Y-130086717D01*
X131930794Y-130086717D02*
X131749365Y-130147193D01*
X131749365Y-130147193D02*
X131446984Y-130147193D01*
X133382223Y-130147193D02*
X132656508Y-130147193D01*
X133019365Y-130147193D02*
X133019365Y-128877193D01*
X133019365Y-128877193D02*
X132898413Y-129058621D01*
X132898413Y-129058621D02*
X132777461Y-129179574D01*
X132777461Y-129179574D02*
X132656508Y-129240050D01*
X133866032Y-128998145D02*
X133926508Y-128937669D01*
X133926508Y-128937669D02*
X134047461Y-128877193D01*
X134047461Y-128877193D02*
X134349842Y-128877193D01*
X134349842Y-128877193D02*
X134470794Y-128937669D01*
X134470794Y-128937669D02*
X134531270Y-128998145D01*
X134531270Y-128998145D02*
X134591747Y-129119097D01*
X134591747Y-129119097D02*
X134591747Y-129240050D01*
X134591747Y-129240050D02*
X134531270Y-129421478D01*
X134531270Y-129421478D02*
X133805556Y-130147193D01*
X133805556Y-130147193D02*
X134591747Y-130147193D01*
D12*
%TO.C,C1*%
X99485640Y-100441521D02*
X99447544Y-100479617D01*
X99447544Y-100479617D02*
X99333259Y-100517712D01*
X99333259Y-100517712D02*
X99257068Y-100517712D01*
X99257068Y-100517712D02*
X99142782Y-100479617D01*
X99142782Y-100479617D02*
X99066592Y-100403426D01*
X99066592Y-100403426D02*
X99028497Y-100327236D01*
X99028497Y-100327236D02*
X98990401Y-100174855D01*
X98990401Y-100174855D02*
X98990401Y-100060569D01*
X98990401Y-100060569D02*
X99028497Y-99908188D01*
X99028497Y-99908188D02*
X99066592Y-99831997D01*
X99066592Y-99831997D02*
X99142782Y-99755807D01*
X99142782Y-99755807D02*
X99257068Y-99717712D01*
X99257068Y-99717712D02*
X99333259Y-99717712D01*
X99333259Y-99717712D02*
X99447544Y-99755807D01*
X99447544Y-99755807D02*
X99485640Y-99793902D01*
X100247544Y-100517712D02*
X99790401Y-100517712D01*
X100018973Y-100517712D02*
X100018973Y-99717712D01*
X100018973Y-99717712D02*
X99942782Y-99831997D01*
X99942782Y-99831997D02*
X99866592Y-99908188D01*
X99866592Y-99908188D02*
X99790401Y-99946283D01*
%TO.C,C28*%
X169053646Y-98799056D02*
X169101266Y-98846675D01*
X169101266Y-98846675D02*
X169148885Y-98989532D01*
X169148885Y-98989532D02*
X169148885Y-99084770D01*
X169148885Y-99084770D02*
X169101266Y-99227627D01*
X169101266Y-99227627D02*
X169006027Y-99322865D01*
X169006027Y-99322865D02*
X168910789Y-99370484D01*
X168910789Y-99370484D02*
X168720313Y-99418103D01*
X168720313Y-99418103D02*
X168577456Y-99418103D01*
X168577456Y-99418103D02*
X168386980Y-99370484D01*
X168386980Y-99370484D02*
X168291742Y-99322865D01*
X168291742Y-99322865D02*
X168196504Y-99227627D01*
X168196504Y-99227627D02*
X168148885Y-99084770D01*
X168148885Y-99084770D02*
X168148885Y-98989532D01*
X168148885Y-98989532D02*
X168196504Y-98846675D01*
X168196504Y-98846675D02*
X168244123Y-98799056D01*
X168244123Y-98418103D02*
X168196504Y-98370484D01*
X168196504Y-98370484D02*
X168148885Y-98275246D01*
X168148885Y-98275246D02*
X168148885Y-98037151D01*
X168148885Y-98037151D02*
X168196504Y-97941913D01*
X168196504Y-97941913D02*
X168244123Y-97894294D01*
X168244123Y-97894294D02*
X168339361Y-97846675D01*
X168339361Y-97846675D02*
X168434599Y-97846675D01*
X168434599Y-97846675D02*
X168577456Y-97894294D01*
X168577456Y-97894294D02*
X169148885Y-98465722D01*
X169148885Y-98465722D02*
X169148885Y-97846675D01*
X168577456Y-97275246D02*
X168529837Y-97370484D01*
X168529837Y-97370484D02*
X168482218Y-97418103D01*
X168482218Y-97418103D02*
X168386980Y-97465722D01*
X168386980Y-97465722D02*
X168339361Y-97465722D01*
X168339361Y-97465722D02*
X168244123Y-97418103D01*
X168244123Y-97418103D02*
X168196504Y-97370484D01*
X168196504Y-97370484D02*
X168148885Y-97275246D01*
X168148885Y-97275246D02*
X168148885Y-97084770D01*
X168148885Y-97084770D02*
X168196504Y-96989532D01*
X168196504Y-96989532D02*
X168244123Y-96941913D01*
X168244123Y-96941913D02*
X168339361Y-96894294D01*
X168339361Y-96894294D02*
X168386980Y-96894294D01*
X168386980Y-96894294D02*
X168482218Y-96941913D01*
X168482218Y-96941913D02*
X168529837Y-96989532D01*
X168529837Y-96989532D02*
X168577456Y-97084770D01*
X168577456Y-97084770D02*
X168577456Y-97275246D01*
X168577456Y-97275246D02*
X168625075Y-97370484D01*
X168625075Y-97370484D02*
X168672694Y-97418103D01*
X168672694Y-97418103D02*
X168767932Y-97465722D01*
X168767932Y-97465722D02*
X168958408Y-97465722D01*
X168958408Y-97465722D02*
X169053646Y-97418103D01*
X169053646Y-97418103D02*
X169101266Y-97370484D01*
X169101266Y-97370484D02*
X169148885Y-97275246D01*
X169148885Y-97275246D02*
X169148885Y-97084770D01*
X169148885Y-97084770D02*
X169101266Y-96989532D01*
X169101266Y-96989532D02*
X169053646Y-96941913D01*
X169053646Y-96941913D02*
X168958408Y-96894294D01*
X168958408Y-96894294D02*
X168767932Y-96894294D01*
X168767932Y-96894294D02*
X168672694Y-96941913D01*
X168672694Y-96941913D02*
X168625075Y-96989532D01*
X168625075Y-96989532D02*
X168577456Y-97084770D01*
%TO.C,SW17*%
X224016010Y-74937734D02*
X224158867Y-74985353D01*
X224158867Y-74985353D02*
X224396962Y-74985353D01*
X224396962Y-74985353D02*
X224492200Y-74937734D01*
X224492200Y-74937734D02*
X224539819Y-74890114D01*
X224539819Y-74890114D02*
X224587438Y-74794876D01*
X224587438Y-74794876D02*
X224587438Y-74699638D01*
X224587438Y-74699638D02*
X224539819Y-74604400D01*
X224539819Y-74604400D02*
X224492200Y-74556781D01*
X224492200Y-74556781D02*
X224396962Y-74509162D01*
X224396962Y-74509162D02*
X224206486Y-74461543D01*
X224206486Y-74461543D02*
X224111248Y-74413924D01*
X224111248Y-74413924D02*
X224063629Y-74366305D01*
X224063629Y-74366305D02*
X224016010Y-74271067D01*
X224016010Y-74271067D02*
X224016010Y-74175829D01*
X224016010Y-74175829D02*
X224063629Y-74080591D01*
X224063629Y-74080591D02*
X224111248Y-74032972D01*
X224111248Y-74032972D02*
X224206486Y-73985353D01*
X224206486Y-73985353D02*
X224444581Y-73985353D01*
X224444581Y-73985353D02*
X224587438Y-74032972D01*
X224920772Y-73985353D02*
X225158867Y-74985353D01*
X225158867Y-74985353D02*
X225349343Y-74271067D01*
X225349343Y-74271067D02*
X225539819Y-74985353D01*
X225539819Y-74985353D02*
X225777915Y-73985353D01*
X226682676Y-74985353D02*
X226111248Y-74985353D01*
X226396962Y-74985353D02*
X226396962Y-73985353D01*
X226396962Y-73985353D02*
X226301724Y-74128210D01*
X226301724Y-74128210D02*
X226206486Y-74223448D01*
X226206486Y-74223448D02*
X226111248Y-74271067D01*
X227016010Y-73985353D02*
X227682676Y-73985353D01*
X227682676Y-73985353D02*
X227254105Y-74985353D01*
%TO.C,C25*%
X226742463Y-97745208D02*
X226790083Y-97792827D01*
X226790083Y-97792827D02*
X226837702Y-97935684D01*
X226837702Y-97935684D02*
X226837702Y-98030922D01*
X226837702Y-98030922D02*
X226790083Y-98173779D01*
X226790083Y-98173779D02*
X226694844Y-98269017D01*
X226694844Y-98269017D02*
X226599606Y-98316636D01*
X226599606Y-98316636D02*
X226409130Y-98364255D01*
X226409130Y-98364255D02*
X226266273Y-98364255D01*
X226266273Y-98364255D02*
X226075797Y-98316636D01*
X226075797Y-98316636D02*
X225980559Y-98269017D01*
X225980559Y-98269017D02*
X225885321Y-98173779D01*
X225885321Y-98173779D02*
X225837702Y-98030922D01*
X225837702Y-98030922D02*
X225837702Y-97935684D01*
X225837702Y-97935684D02*
X225885321Y-97792827D01*
X225885321Y-97792827D02*
X225932940Y-97745208D01*
X225932940Y-97364255D02*
X225885321Y-97316636D01*
X225885321Y-97316636D02*
X225837702Y-97221398D01*
X225837702Y-97221398D02*
X225837702Y-96983303D01*
X225837702Y-96983303D02*
X225885321Y-96888065D01*
X225885321Y-96888065D02*
X225932940Y-96840446D01*
X225932940Y-96840446D02*
X226028178Y-96792827D01*
X226028178Y-96792827D02*
X226123416Y-96792827D01*
X226123416Y-96792827D02*
X226266273Y-96840446D01*
X226266273Y-96840446D02*
X226837702Y-97411874D01*
X226837702Y-97411874D02*
X226837702Y-96792827D01*
X225837702Y-95888065D02*
X225837702Y-96364255D01*
X225837702Y-96364255D02*
X226313892Y-96411874D01*
X226313892Y-96411874D02*
X226266273Y-96364255D01*
X226266273Y-96364255D02*
X226218654Y-96269017D01*
X226218654Y-96269017D02*
X226218654Y-96030922D01*
X226218654Y-96030922D02*
X226266273Y-95935684D01*
X226266273Y-95935684D02*
X226313892Y-95888065D01*
X226313892Y-95888065D02*
X226409130Y-95840446D01*
X226409130Y-95840446D02*
X226647225Y-95840446D01*
X226647225Y-95840446D02*
X226742463Y-95888065D01*
X226742463Y-95888065D02*
X226790083Y-95935684D01*
X226790083Y-95935684D02*
X226837702Y-96030922D01*
X226837702Y-96030922D02*
X226837702Y-96269017D01*
X226837702Y-96269017D02*
X226790083Y-96364255D01*
X226790083Y-96364255D02*
X226742463Y-96411874D01*
%TO.C,C6*%
X84736104Y-97113332D02*
X84774200Y-97151428D01*
X84774200Y-97151428D02*
X84812295Y-97265713D01*
X84812295Y-97265713D02*
X84812295Y-97341904D01*
X84812295Y-97341904D02*
X84774200Y-97456190D01*
X84774200Y-97456190D02*
X84698009Y-97532380D01*
X84698009Y-97532380D02*
X84621819Y-97570475D01*
X84621819Y-97570475D02*
X84469438Y-97608571D01*
X84469438Y-97608571D02*
X84355152Y-97608571D01*
X84355152Y-97608571D02*
X84202771Y-97570475D01*
X84202771Y-97570475D02*
X84126580Y-97532380D01*
X84126580Y-97532380D02*
X84050390Y-97456190D01*
X84050390Y-97456190D02*
X84012295Y-97341904D01*
X84012295Y-97341904D02*
X84012295Y-97265713D01*
X84012295Y-97265713D02*
X84050390Y-97151428D01*
X84050390Y-97151428D02*
X84088485Y-97113332D01*
X84012295Y-96427618D02*
X84012295Y-96579999D01*
X84012295Y-96579999D02*
X84050390Y-96656190D01*
X84050390Y-96656190D02*
X84088485Y-96694285D01*
X84088485Y-96694285D02*
X84202771Y-96770475D01*
X84202771Y-96770475D02*
X84355152Y-96808571D01*
X84355152Y-96808571D02*
X84659914Y-96808571D01*
X84659914Y-96808571D02*
X84736104Y-96770475D01*
X84736104Y-96770475D02*
X84774200Y-96732380D01*
X84774200Y-96732380D02*
X84812295Y-96656190D01*
X84812295Y-96656190D02*
X84812295Y-96503809D01*
X84812295Y-96503809D02*
X84774200Y-96427618D01*
X84774200Y-96427618D02*
X84736104Y-96389523D01*
X84736104Y-96389523D02*
X84659914Y-96351428D01*
X84659914Y-96351428D02*
X84469438Y-96351428D01*
X84469438Y-96351428D02*
X84393247Y-96389523D01*
X84393247Y-96389523D02*
X84355152Y-96427618D01*
X84355152Y-96427618D02*
X84317057Y-96503809D01*
X84317057Y-96503809D02*
X84317057Y-96656190D01*
X84317057Y-96656190D02*
X84355152Y-96732380D01*
X84355152Y-96732380D02*
X84393247Y-96770475D01*
X84393247Y-96770475D02*
X84469438Y-96808571D01*
%TO.C,C7*%
X87644268Y-115733516D02*
X87606172Y-115771612D01*
X87606172Y-115771612D02*
X87491887Y-115809707D01*
X87491887Y-115809707D02*
X87415696Y-115809707D01*
X87415696Y-115809707D02*
X87301410Y-115771612D01*
X87301410Y-115771612D02*
X87225220Y-115695421D01*
X87225220Y-115695421D02*
X87187125Y-115619231D01*
X87187125Y-115619231D02*
X87149029Y-115466850D01*
X87149029Y-115466850D02*
X87149029Y-115352564D01*
X87149029Y-115352564D02*
X87187125Y-115200183D01*
X87187125Y-115200183D02*
X87225220Y-115123992D01*
X87225220Y-115123992D02*
X87301410Y-115047802D01*
X87301410Y-115047802D02*
X87415696Y-115009707D01*
X87415696Y-115009707D02*
X87491887Y-115009707D01*
X87491887Y-115009707D02*
X87606172Y-115047802D01*
X87606172Y-115047802D02*
X87644268Y-115085897D01*
X87910934Y-115009707D02*
X88444268Y-115009707D01*
X88444268Y-115009707D02*
X88101410Y-115809707D01*
%TO.C,SW16*%
X194806010Y-74937734D02*
X194948867Y-74985353D01*
X194948867Y-74985353D02*
X195186962Y-74985353D01*
X195186962Y-74985353D02*
X195282200Y-74937734D01*
X195282200Y-74937734D02*
X195329819Y-74890114D01*
X195329819Y-74890114D02*
X195377438Y-74794876D01*
X195377438Y-74794876D02*
X195377438Y-74699638D01*
X195377438Y-74699638D02*
X195329819Y-74604400D01*
X195329819Y-74604400D02*
X195282200Y-74556781D01*
X195282200Y-74556781D02*
X195186962Y-74509162D01*
X195186962Y-74509162D02*
X194996486Y-74461543D01*
X194996486Y-74461543D02*
X194901248Y-74413924D01*
X194901248Y-74413924D02*
X194853629Y-74366305D01*
X194853629Y-74366305D02*
X194806010Y-74271067D01*
X194806010Y-74271067D02*
X194806010Y-74175829D01*
X194806010Y-74175829D02*
X194853629Y-74080591D01*
X194853629Y-74080591D02*
X194901248Y-74032972D01*
X194901248Y-74032972D02*
X194996486Y-73985353D01*
X194996486Y-73985353D02*
X195234581Y-73985353D01*
X195234581Y-73985353D02*
X195377438Y-74032972D01*
X195710772Y-73985353D02*
X195948867Y-74985353D01*
X195948867Y-74985353D02*
X196139343Y-74271067D01*
X196139343Y-74271067D02*
X196329819Y-74985353D01*
X196329819Y-74985353D02*
X196567915Y-73985353D01*
X197472676Y-74985353D02*
X196901248Y-74985353D01*
X197186962Y-74985353D02*
X197186962Y-73985353D01*
X197186962Y-73985353D02*
X197091724Y-74128210D01*
X197091724Y-74128210D02*
X196996486Y-74223448D01*
X196996486Y-74223448D02*
X196901248Y-74271067D01*
X198329819Y-73985353D02*
X198139343Y-73985353D01*
X198139343Y-73985353D02*
X198044105Y-74032972D01*
X198044105Y-74032972D02*
X197996486Y-74080591D01*
X197996486Y-74080591D02*
X197901248Y-74223448D01*
X197901248Y-74223448D02*
X197853629Y-74413924D01*
X197853629Y-74413924D02*
X197853629Y-74794876D01*
X197853629Y-74794876D02*
X197901248Y-74890114D01*
X197901248Y-74890114D02*
X197948867Y-74937734D01*
X197948867Y-74937734D02*
X198044105Y-74985353D01*
X198044105Y-74985353D02*
X198234581Y-74985353D01*
X198234581Y-74985353D02*
X198329819Y-74937734D01*
X198329819Y-74937734D02*
X198377438Y-74890114D01*
X198377438Y-74890114D02*
X198425057Y-74794876D01*
X198425057Y-74794876D02*
X198425057Y-74556781D01*
X198425057Y-74556781D02*
X198377438Y-74461543D01*
X198377438Y-74461543D02*
X198329819Y-74413924D01*
X198329819Y-74413924D02*
X198234581Y-74366305D01*
X198234581Y-74366305D02*
X198044105Y-74366305D01*
X198044105Y-74366305D02*
X197948867Y-74413924D01*
X197948867Y-74413924D02*
X197901248Y-74461543D01*
X197901248Y-74461543D02*
X197853629Y-74556781D01*
%TO.C,Y1*%
X80620256Y-120919380D02*
X80620256Y-121395571D01*
X80286923Y-120395571D02*
X80620256Y-120919380D01*
X80620256Y-120919380D02*
X80953589Y-120395571D01*
X81810732Y-121395571D02*
X81239304Y-121395571D01*
X81525018Y-121395571D02*
X81525018Y-120395571D01*
X81525018Y-120395571D02*
X81429780Y-120538428D01*
X81429780Y-120538428D02*
X81334542Y-120633666D01*
X81334542Y-120633666D02*
X81239304Y-120681285D01*
%TO.C,C3*%
X87526667Y-119806104D02*
X87488571Y-119844200D01*
X87488571Y-119844200D02*
X87374286Y-119882295D01*
X87374286Y-119882295D02*
X87298095Y-119882295D01*
X87298095Y-119882295D02*
X87183809Y-119844200D01*
X87183809Y-119844200D02*
X87107619Y-119768009D01*
X87107619Y-119768009D02*
X87069524Y-119691819D01*
X87069524Y-119691819D02*
X87031428Y-119539438D01*
X87031428Y-119539438D02*
X87031428Y-119425152D01*
X87031428Y-119425152D02*
X87069524Y-119272771D01*
X87069524Y-119272771D02*
X87107619Y-119196580D01*
X87107619Y-119196580D02*
X87183809Y-119120390D01*
X87183809Y-119120390D02*
X87298095Y-119082295D01*
X87298095Y-119082295D02*
X87374286Y-119082295D01*
X87374286Y-119082295D02*
X87488571Y-119120390D01*
X87488571Y-119120390D02*
X87526667Y-119158485D01*
X87793333Y-119082295D02*
X88288571Y-119082295D01*
X88288571Y-119082295D02*
X88021905Y-119387057D01*
X88021905Y-119387057D02*
X88136190Y-119387057D01*
X88136190Y-119387057D02*
X88212381Y-119425152D01*
X88212381Y-119425152D02*
X88250476Y-119463247D01*
X88250476Y-119463247D02*
X88288571Y-119539438D01*
X88288571Y-119539438D02*
X88288571Y-119729914D01*
X88288571Y-119729914D02*
X88250476Y-119806104D01*
X88250476Y-119806104D02*
X88212381Y-119844200D01*
X88212381Y-119844200D02*
X88136190Y-119882295D01*
X88136190Y-119882295D02*
X87907619Y-119882295D01*
X87907619Y-119882295D02*
X87831428Y-119844200D01*
X87831428Y-119844200D02*
X87793333Y-119806104D01*
D11*
%TO.C,D1*%
X58923963Y-65670970D02*
X58923963Y-64400970D01*
X58923963Y-64400970D02*
X59226344Y-64400970D01*
X59226344Y-64400970D02*
X59407773Y-64461446D01*
X59407773Y-64461446D02*
X59528725Y-64582398D01*
X59528725Y-64582398D02*
X59589202Y-64703351D01*
X59589202Y-64703351D02*
X59649678Y-64945255D01*
X59649678Y-64945255D02*
X59649678Y-65126684D01*
X59649678Y-65126684D02*
X59589202Y-65368589D01*
X59589202Y-65368589D02*
X59528725Y-65489541D01*
X59528725Y-65489541D02*
X59407773Y-65610494D01*
X59407773Y-65610494D02*
X59226344Y-65670970D01*
X59226344Y-65670970D02*
X58923963Y-65670970D01*
X60859202Y-65670970D02*
X60133487Y-65670970D01*
X60496344Y-65670970D02*
X60496344Y-64400970D01*
X60496344Y-64400970D02*
X60375392Y-64582398D01*
X60375392Y-64582398D02*
X60254440Y-64703351D01*
X60254440Y-64703351D02*
X60133487Y-64763827D01*
%TO.C,D2*%
X87697978Y-65619915D02*
X87697978Y-64349915D01*
X87697978Y-64349915D02*
X88000359Y-64349915D01*
X88000359Y-64349915D02*
X88181788Y-64410391D01*
X88181788Y-64410391D02*
X88302740Y-64531343D01*
X88302740Y-64531343D02*
X88363217Y-64652296D01*
X88363217Y-64652296D02*
X88423693Y-64894200D01*
X88423693Y-64894200D02*
X88423693Y-65075629D01*
X88423693Y-65075629D02*
X88363217Y-65317534D01*
X88363217Y-65317534D02*
X88302740Y-65438486D01*
X88302740Y-65438486D02*
X88181788Y-65559439D01*
X88181788Y-65559439D02*
X88000359Y-65619915D01*
X88000359Y-65619915D02*
X87697978Y-65619915D01*
X88907502Y-64470867D02*
X88967978Y-64410391D01*
X88967978Y-64410391D02*
X89088931Y-64349915D01*
X89088931Y-64349915D02*
X89391312Y-64349915D01*
X89391312Y-64349915D02*
X89512264Y-64410391D01*
X89512264Y-64410391D02*
X89572740Y-64470867D01*
X89572740Y-64470867D02*
X89633217Y-64591819D01*
X89633217Y-64591819D02*
X89633217Y-64712772D01*
X89633217Y-64712772D02*
X89572740Y-64894200D01*
X89572740Y-64894200D02*
X88847026Y-65619915D01*
X88847026Y-65619915D02*
X89633217Y-65619915D01*
D12*
%TO.C,SW9*%
X110492201Y-66417734D02*
X110635058Y-66465353D01*
X110635058Y-66465353D02*
X110873153Y-66465353D01*
X110873153Y-66465353D02*
X110968391Y-66417734D01*
X110968391Y-66417734D02*
X111016010Y-66370114D01*
X111016010Y-66370114D02*
X111063629Y-66274876D01*
X111063629Y-66274876D02*
X111063629Y-66179638D01*
X111063629Y-66179638D02*
X111016010Y-66084400D01*
X111016010Y-66084400D02*
X110968391Y-66036781D01*
X110968391Y-66036781D02*
X110873153Y-65989162D01*
X110873153Y-65989162D02*
X110682677Y-65941543D01*
X110682677Y-65941543D02*
X110587439Y-65893924D01*
X110587439Y-65893924D02*
X110539820Y-65846305D01*
X110539820Y-65846305D02*
X110492201Y-65751067D01*
X110492201Y-65751067D02*
X110492201Y-65655829D01*
X110492201Y-65655829D02*
X110539820Y-65560591D01*
X110539820Y-65560591D02*
X110587439Y-65512972D01*
X110587439Y-65512972D02*
X110682677Y-65465353D01*
X110682677Y-65465353D02*
X110920772Y-65465353D01*
X110920772Y-65465353D02*
X111063629Y-65512972D01*
X111396963Y-65465353D02*
X111635058Y-66465353D01*
X111635058Y-66465353D02*
X111825534Y-65751067D01*
X111825534Y-65751067D02*
X112016010Y-66465353D01*
X112016010Y-66465353D02*
X112254106Y-65465353D01*
X112682677Y-66465353D02*
X112873153Y-66465353D01*
X112873153Y-66465353D02*
X112968391Y-66417734D01*
X112968391Y-66417734D02*
X113016010Y-66370114D01*
X113016010Y-66370114D02*
X113111248Y-66227257D01*
X113111248Y-66227257D02*
X113158867Y-66036781D01*
X113158867Y-66036781D02*
X113158867Y-65655829D01*
X113158867Y-65655829D02*
X113111248Y-65560591D01*
X113111248Y-65560591D02*
X113063629Y-65512972D01*
X113063629Y-65512972D02*
X112968391Y-65465353D01*
X112968391Y-65465353D02*
X112777915Y-65465353D01*
X112777915Y-65465353D02*
X112682677Y-65512972D01*
X112682677Y-65512972D02*
X112635058Y-65560591D01*
X112635058Y-65560591D02*
X112587439Y-65655829D01*
X112587439Y-65655829D02*
X112587439Y-65893924D01*
X112587439Y-65893924D02*
X112635058Y-65989162D01*
X112635058Y-65989162D02*
X112682677Y-66036781D01*
X112682677Y-66036781D02*
X112777915Y-66084400D01*
X112777915Y-66084400D02*
X112968391Y-66084400D01*
X112968391Y-66084400D02*
X113063629Y-66036781D01*
X113063629Y-66036781D02*
X113111248Y-65989162D01*
X113111248Y-65989162D02*
X113158867Y-65893924D01*
%TO.C,C5*%
X80726667Y-94848604D02*
X80688571Y-94886700D01*
X80688571Y-94886700D02*
X80574286Y-94924795D01*
X80574286Y-94924795D02*
X80498095Y-94924795D01*
X80498095Y-94924795D02*
X80383809Y-94886700D01*
X80383809Y-94886700D02*
X80307619Y-94810509D01*
X80307619Y-94810509D02*
X80269524Y-94734319D01*
X80269524Y-94734319D02*
X80231428Y-94581938D01*
X80231428Y-94581938D02*
X80231428Y-94467652D01*
X80231428Y-94467652D02*
X80269524Y-94315271D01*
X80269524Y-94315271D02*
X80307619Y-94239080D01*
X80307619Y-94239080D02*
X80383809Y-94162890D01*
X80383809Y-94162890D02*
X80498095Y-94124795D01*
X80498095Y-94124795D02*
X80574286Y-94124795D01*
X80574286Y-94124795D02*
X80688571Y-94162890D01*
X80688571Y-94162890D02*
X80726667Y-94200985D01*
X81450476Y-94124795D02*
X81069524Y-94124795D01*
X81069524Y-94124795D02*
X81031428Y-94505747D01*
X81031428Y-94505747D02*
X81069524Y-94467652D01*
X81069524Y-94467652D02*
X81145714Y-94429557D01*
X81145714Y-94429557D02*
X81336190Y-94429557D01*
X81336190Y-94429557D02*
X81412381Y-94467652D01*
X81412381Y-94467652D02*
X81450476Y-94505747D01*
X81450476Y-94505747D02*
X81488571Y-94581938D01*
X81488571Y-94581938D02*
X81488571Y-94772414D01*
X81488571Y-94772414D02*
X81450476Y-94848604D01*
X81450476Y-94848604D02*
X81412381Y-94886700D01*
X81412381Y-94886700D02*
X81336190Y-94924795D01*
X81336190Y-94924795D02*
X81145714Y-94924795D01*
X81145714Y-94924795D02*
X81069524Y-94886700D01*
X81069524Y-94886700D02*
X81031428Y-94848604D01*
%TO.C,C11*%
X78039887Y-104168515D02*
X78001791Y-104206611D01*
X78001791Y-104206611D02*
X77887506Y-104244706D01*
X77887506Y-104244706D02*
X77811315Y-104244706D01*
X77811315Y-104244706D02*
X77697029Y-104206611D01*
X77697029Y-104206611D02*
X77620839Y-104130420D01*
X77620839Y-104130420D02*
X77582744Y-104054230D01*
X77582744Y-104054230D02*
X77544648Y-103901849D01*
X77544648Y-103901849D02*
X77544648Y-103787563D01*
X77544648Y-103787563D02*
X77582744Y-103635182D01*
X77582744Y-103635182D02*
X77620839Y-103558991D01*
X77620839Y-103558991D02*
X77697029Y-103482801D01*
X77697029Y-103482801D02*
X77811315Y-103444706D01*
X77811315Y-103444706D02*
X77887506Y-103444706D01*
X77887506Y-103444706D02*
X78001791Y-103482801D01*
X78001791Y-103482801D02*
X78039887Y-103520896D01*
X78801791Y-104244706D02*
X78344648Y-104244706D01*
X78573220Y-104244706D02*
X78573220Y-103444706D01*
X78573220Y-103444706D02*
X78497029Y-103558991D01*
X78497029Y-103558991D02*
X78420839Y-103635182D01*
X78420839Y-103635182D02*
X78344648Y-103673277D01*
X79563696Y-104244706D02*
X79106553Y-104244706D01*
X79335125Y-104244706D02*
X79335125Y-103444706D01*
X79335125Y-103444706D02*
X79258934Y-103558991D01*
X79258934Y-103558991D02*
X79182744Y-103635182D01*
X79182744Y-103635182D02*
X79106553Y-103673277D01*
%TO.C,C8*%
X88986104Y-97113332D02*
X89024200Y-97151428D01*
X89024200Y-97151428D02*
X89062295Y-97265713D01*
X89062295Y-97265713D02*
X89062295Y-97341904D01*
X89062295Y-97341904D02*
X89024200Y-97456190D01*
X89024200Y-97456190D02*
X88948009Y-97532380D01*
X88948009Y-97532380D02*
X88871819Y-97570475D01*
X88871819Y-97570475D02*
X88719438Y-97608571D01*
X88719438Y-97608571D02*
X88605152Y-97608571D01*
X88605152Y-97608571D02*
X88452771Y-97570475D01*
X88452771Y-97570475D02*
X88376580Y-97532380D01*
X88376580Y-97532380D02*
X88300390Y-97456190D01*
X88300390Y-97456190D02*
X88262295Y-97341904D01*
X88262295Y-97341904D02*
X88262295Y-97265713D01*
X88262295Y-97265713D02*
X88300390Y-97151428D01*
X88300390Y-97151428D02*
X88338485Y-97113332D01*
X88605152Y-96656190D02*
X88567057Y-96732380D01*
X88567057Y-96732380D02*
X88528961Y-96770475D01*
X88528961Y-96770475D02*
X88452771Y-96808571D01*
X88452771Y-96808571D02*
X88414676Y-96808571D01*
X88414676Y-96808571D02*
X88338485Y-96770475D01*
X88338485Y-96770475D02*
X88300390Y-96732380D01*
X88300390Y-96732380D02*
X88262295Y-96656190D01*
X88262295Y-96656190D02*
X88262295Y-96503809D01*
X88262295Y-96503809D02*
X88300390Y-96427618D01*
X88300390Y-96427618D02*
X88338485Y-96389523D01*
X88338485Y-96389523D02*
X88414676Y-96351428D01*
X88414676Y-96351428D02*
X88452771Y-96351428D01*
X88452771Y-96351428D02*
X88528961Y-96389523D01*
X88528961Y-96389523D02*
X88567057Y-96427618D01*
X88567057Y-96427618D02*
X88605152Y-96503809D01*
X88605152Y-96503809D02*
X88605152Y-96656190D01*
X88605152Y-96656190D02*
X88643247Y-96732380D01*
X88643247Y-96732380D02*
X88681342Y-96770475D01*
X88681342Y-96770475D02*
X88757533Y-96808571D01*
X88757533Y-96808571D02*
X88909914Y-96808571D01*
X88909914Y-96808571D02*
X88986104Y-96770475D01*
X88986104Y-96770475D02*
X89024200Y-96732380D01*
X89024200Y-96732380D02*
X89062295Y-96656190D01*
X89062295Y-96656190D02*
X89062295Y-96503809D01*
X89062295Y-96503809D02*
X89024200Y-96427618D01*
X89024200Y-96427618D02*
X88986104Y-96389523D01*
X88986104Y-96389523D02*
X88909914Y-96351428D01*
X88909914Y-96351428D02*
X88757533Y-96351428D01*
X88757533Y-96351428D02*
X88681342Y-96389523D01*
X88681342Y-96389523D02*
X88643247Y-96427618D01*
X88643247Y-96427618D02*
X88605152Y-96503809D01*
%TO.C,SW2*%
X60807200Y-38833332D02*
X60854819Y-38690475D01*
X60854819Y-38690475D02*
X60854819Y-38452380D01*
X60854819Y-38452380D02*
X60807200Y-38357142D01*
X60807200Y-38357142D02*
X60759580Y-38309523D01*
X60759580Y-38309523D02*
X60664342Y-38261904D01*
X60664342Y-38261904D02*
X60569104Y-38261904D01*
X60569104Y-38261904D02*
X60473866Y-38309523D01*
X60473866Y-38309523D02*
X60426247Y-38357142D01*
X60426247Y-38357142D02*
X60378628Y-38452380D01*
X60378628Y-38452380D02*
X60331009Y-38642856D01*
X60331009Y-38642856D02*
X60283390Y-38738094D01*
X60283390Y-38738094D02*
X60235771Y-38785713D01*
X60235771Y-38785713D02*
X60140533Y-38833332D01*
X60140533Y-38833332D02*
X60045295Y-38833332D01*
X60045295Y-38833332D02*
X59950057Y-38785713D01*
X59950057Y-38785713D02*
X59902438Y-38738094D01*
X59902438Y-38738094D02*
X59854819Y-38642856D01*
X59854819Y-38642856D02*
X59854819Y-38404761D01*
X59854819Y-38404761D02*
X59902438Y-38261904D01*
X59854819Y-37928570D02*
X60854819Y-37690475D01*
X60854819Y-37690475D02*
X60140533Y-37499999D01*
X60140533Y-37499999D02*
X60854819Y-37309523D01*
X60854819Y-37309523D02*
X59854819Y-37071428D01*
X59950057Y-36738094D02*
X59902438Y-36690475D01*
X59902438Y-36690475D02*
X59854819Y-36595237D01*
X59854819Y-36595237D02*
X59854819Y-36357142D01*
X59854819Y-36357142D02*
X59902438Y-36261904D01*
X59902438Y-36261904D02*
X59950057Y-36214285D01*
X59950057Y-36214285D02*
X60045295Y-36166666D01*
X60045295Y-36166666D02*
X60140533Y-36166666D01*
X60140533Y-36166666D02*
X60283390Y-36214285D01*
X60283390Y-36214285D02*
X60854819Y-36785713D01*
X60854819Y-36785713D02*
X60854819Y-36166666D01*
D11*
%TO.C,D13*%
X58994318Y-145052143D02*
X57724318Y-145052143D01*
X57724318Y-145052143D02*
X57724318Y-144749762D01*
X57724318Y-144749762D02*
X57784794Y-144568333D01*
X57784794Y-144568333D02*
X57905746Y-144447381D01*
X57905746Y-144447381D02*
X58026699Y-144386904D01*
X58026699Y-144386904D02*
X58268603Y-144326428D01*
X58268603Y-144326428D02*
X58450032Y-144326428D01*
X58450032Y-144326428D02*
X58691937Y-144386904D01*
X58691937Y-144386904D02*
X58812889Y-144447381D01*
X58812889Y-144447381D02*
X58933842Y-144568333D01*
X58933842Y-144568333D02*
X58994318Y-144749762D01*
X58994318Y-144749762D02*
X58994318Y-145052143D01*
X58994318Y-143116904D02*
X58994318Y-143842619D01*
X58994318Y-143479762D02*
X57724318Y-143479762D01*
X57724318Y-143479762D02*
X57905746Y-143600714D01*
X57905746Y-143600714D02*
X58026699Y-143721666D01*
X58026699Y-143721666D02*
X58087175Y-143842619D01*
X57724318Y-142693571D02*
X57724318Y-141907380D01*
X57724318Y-141907380D02*
X58208127Y-142330714D01*
X58208127Y-142330714D02*
X58208127Y-142149285D01*
X58208127Y-142149285D02*
X58268603Y-142028333D01*
X58268603Y-142028333D02*
X58329080Y-141967857D01*
X58329080Y-141967857D02*
X58450032Y-141907380D01*
X58450032Y-141907380D02*
X58752413Y-141907380D01*
X58752413Y-141907380D02*
X58873365Y-141967857D01*
X58873365Y-141967857D02*
X58933842Y-142028333D01*
X58933842Y-142028333D02*
X58994318Y-142149285D01*
X58994318Y-142149285D02*
X58994318Y-142512142D01*
X58994318Y-142512142D02*
X58933842Y-142633095D01*
X58933842Y-142633095D02*
X58873365Y-142693571D01*
D12*
%TO.C,C16*%
X93966275Y-103647039D02*
X93928179Y-103685135D01*
X93928179Y-103685135D02*
X93813894Y-103723230D01*
X93813894Y-103723230D02*
X93737703Y-103723230D01*
X93737703Y-103723230D02*
X93623417Y-103685135D01*
X93623417Y-103685135D02*
X93547227Y-103608944D01*
X93547227Y-103608944D02*
X93509132Y-103532754D01*
X93509132Y-103532754D02*
X93471036Y-103380373D01*
X93471036Y-103380373D02*
X93471036Y-103266087D01*
X93471036Y-103266087D02*
X93509132Y-103113706D01*
X93509132Y-103113706D02*
X93547227Y-103037515D01*
X93547227Y-103037515D02*
X93623417Y-102961325D01*
X93623417Y-102961325D02*
X93737703Y-102923230D01*
X93737703Y-102923230D02*
X93813894Y-102923230D01*
X93813894Y-102923230D02*
X93928179Y-102961325D01*
X93928179Y-102961325D02*
X93966275Y-102999420D01*
X94728179Y-103723230D02*
X94271036Y-103723230D01*
X94499608Y-103723230D02*
X94499608Y-102923230D01*
X94499608Y-102923230D02*
X94423417Y-103037515D01*
X94423417Y-103037515D02*
X94347227Y-103113706D01*
X94347227Y-103113706D02*
X94271036Y-103151801D01*
X95413894Y-102923230D02*
X95261513Y-102923230D01*
X95261513Y-102923230D02*
X95185322Y-102961325D01*
X95185322Y-102961325D02*
X95147227Y-102999420D01*
X95147227Y-102999420D02*
X95071037Y-103113706D01*
X95071037Y-103113706D02*
X95032941Y-103266087D01*
X95032941Y-103266087D02*
X95032941Y-103570849D01*
X95032941Y-103570849D02*
X95071037Y-103647039D01*
X95071037Y-103647039D02*
X95109132Y-103685135D01*
X95109132Y-103685135D02*
X95185322Y-103723230D01*
X95185322Y-103723230D02*
X95337703Y-103723230D01*
X95337703Y-103723230D02*
X95413894Y-103685135D01*
X95413894Y-103685135D02*
X95451989Y-103647039D01*
X95451989Y-103647039D02*
X95490084Y-103570849D01*
X95490084Y-103570849D02*
X95490084Y-103380373D01*
X95490084Y-103380373D02*
X95451989Y-103304182D01*
X95451989Y-103304182D02*
X95413894Y-103266087D01*
X95413894Y-103266087D02*
X95337703Y-103227992D01*
X95337703Y-103227992D02*
X95185322Y-103227992D01*
X95185322Y-103227992D02*
X95109132Y-103266087D01*
X95109132Y-103266087D02*
X95071037Y-103304182D01*
X95071037Y-103304182D02*
X95032941Y-103380373D01*
%TO.C,U3*%
X81000499Y-112179619D02*
X81000499Y-112989142D01*
X81000499Y-112989142D02*
X81048118Y-113084380D01*
X81048118Y-113084380D02*
X81095737Y-113132000D01*
X81095737Y-113132000D02*
X81190975Y-113179619D01*
X81190975Y-113179619D02*
X81381451Y-113179619D01*
X81381451Y-113179619D02*
X81476689Y-113132000D01*
X81476689Y-113132000D02*
X81524308Y-113084380D01*
X81524308Y-113084380D02*
X81571927Y-112989142D01*
X81571927Y-112989142D02*
X81571927Y-112179619D01*
X81952880Y-112179619D02*
X82571927Y-112179619D01*
X82571927Y-112179619D02*
X82238594Y-112560571D01*
X82238594Y-112560571D02*
X82381451Y-112560571D01*
X82381451Y-112560571D02*
X82476689Y-112608190D01*
X82476689Y-112608190D02*
X82524308Y-112655809D01*
X82524308Y-112655809D02*
X82571927Y-112751047D01*
X82571927Y-112751047D02*
X82571927Y-112989142D01*
X82571927Y-112989142D02*
X82524308Y-113084380D01*
X82524308Y-113084380D02*
X82476689Y-113132000D01*
X82476689Y-113132000D02*
X82381451Y-113179619D01*
X82381451Y-113179619D02*
X82095737Y-113179619D01*
X82095737Y-113179619D02*
X82000499Y-113132000D01*
X82000499Y-113132000D02*
X81952880Y-113084380D01*
%TO.C,C19*%
X176586676Y-64509114D02*
X176539057Y-64556734D01*
X176539057Y-64556734D02*
X176396200Y-64604353D01*
X176396200Y-64604353D02*
X176300962Y-64604353D01*
X176300962Y-64604353D02*
X176158105Y-64556734D01*
X176158105Y-64556734D02*
X176062867Y-64461495D01*
X176062867Y-64461495D02*
X176015248Y-64366257D01*
X176015248Y-64366257D02*
X175967629Y-64175781D01*
X175967629Y-64175781D02*
X175967629Y-64032924D01*
X175967629Y-64032924D02*
X176015248Y-63842448D01*
X176015248Y-63842448D02*
X176062867Y-63747210D01*
X176062867Y-63747210D02*
X176158105Y-63651972D01*
X176158105Y-63651972D02*
X176300962Y-63604353D01*
X176300962Y-63604353D02*
X176396200Y-63604353D01*
X176396200Y-63604353D02*
X176539057Y-63651972D01*
X176539057Y-63651972D02*
X176586676Y-63699591D01*
X177539057Y-64604353D02*
X176967629Y-64604353D01*
X177253343Y-64604353D02*
X177253343Y-63604353D01*
X177253343Y-63604353D02*
X177158105Y-63747210D01*
X177158105Y-63747210D02*
X177062867Y-63842448D01*
X177062867Y-63842448D02*
X176967629Y-63890067D01*
X178015248Y-64604353D02*
X178205724Y-64604353D01*
X178205724Y-64604353D02*
X178300962Y-64556734D01*
X178300962Y-64556734D02*
X178348581Y-64509114D01*
X178348581Y-64509114D02*
X178443819Y-64366257D01*
X178443819Y-64366257D02*
X178491438Y-64175781D01*
X178491438Y-64175781D02*
X178491438Y-63794829D01*
X178491438Y-63794829D02*
X178443819Y-63699591D01*
X178443819Y-63699591D02*
X178396200Y-63651972D01*
X178396200Y-63651972D02*
X178300962Y-63604353D01*
X178300962Y-63604353D02*
X178110486Y-63604353D01*
X178110486Y-63604353D02*
X178015248Y-63651972D01*
X178015248Y-63651972D02*
X177967629Y-63699591D01*
X177967629Y-63699591D02*
X177920010Y-63794829D01*
X177920010Y-63794829D02*
X177920010Y-64032924D01*
X177920010Y-64032924D02*
X177967629Y-64128162D01*
X177967629Y-64128162D02*
X178015248Y-64175781D01*
X178015248Y-64175781D02*
X178110486Y-64223400D01*
X178110486Y-64223400D02*
X178300962Y-64223400D01*
X178300962Y-64223400D02*
X178396200Y-64175781D01*
X178396200Y-64175781D02*
X178443819Y-64128162D01*
X178443819Y-64128162D02*
X178491438Y-64032924D01*
%TO.C,R5*%
X87460678Y-117424527D02*
X87194011Y-117043574D01*
X87003535Y-117424527D02*
X87003535Y-116624527D01*
X87003535Y-116624527D02*
X87308297Y-116624527D01*
X87308297Y-116624527D02*
X87384487Y-116662622D01*
X87384487Y-116662622D02*
X87422582Y-116700717D01*
X87422582Y-116700717D02*
X87460678Y-116776908D01*
X87460678Y-116776908D02*
X87460678Y-116891193D01*
X87460678Y-116891193D02*
X87422582Y-116967384D01*
X87422582Y-116967384D02*
X87384487Y-117005479D01*
X87384487Y-117005479D02*
X87308297Y-117043574D01*
X87308297Y-117043574D02*
X87003535Y-117043574D01*
X88184487Y-116624527D02*
X87803535Y-116624527D01*
X87803535Y-116624527D02*
X87765439Y-117005479D01*
X87765439Y-117005479D02*
X87803535Y-116967384D01*
X87803535Y-116967384D02*
X87879725Y-116929289D01*
X87879725Y-116929289D02*
X88070201Y-116929289D01*
X88070201Y-116929289D02*
X88146392Y-116967384D01*
X88146392Y-116967384D02*
X88184487Y-117005479D01*
X88184487Y-117005479D02*
X88222582Y-117081670D01*
X88222582Y-117081670D02*
X88222582Y-117272146D01*
X88222582Y-117272146D02*
X88184487Y-117348336D01*
X88184487Y-117348336D02*
X88146392Y-117386432D01*
X88146392Y-117386432D02*
X88070201Y-117424527D01*
X88070201Y-117424527D02*
X87879725Y-117424527D01*
X87879725Y-117424527D02*
X87803535Y-117386432D01*
X87803535Y-117386432D02*
X87765439Y-117348336D01*
%TO.C,C29*%
X61621114Y-139640391D02*
X61668734Y-139688010D01*
X61668734Y-139688010D02*
X61716353Y-139830867D01*
X61716353Y-139830867D02*
X61716353Y-139926105D01*
X61716353Y-139926105D02*
X61668734Y-140068962D01*
X61668734Y-140068962D02*
X61573495Y-140164200D01*
X61573495Y-140164200D02*
X61478257Y-140211819D01*
X61478257Y-140211819D02*
X61287781Y-140259438D01*
X61287781Y-140259438D02*
X61144924Y-140259438D01*
X61144924Y-140259438D02*
X60954448Y-140211819D01*
X60954448Y-140211819D02*
X60859210Y-140164200D01*
X60859210Y-140164200D02*
X60763972Y-140068962D01*
X60763972Y-140068962D02*
X60716353Y-139926105D01*
X60716353Y-139926105D02*
X60716353Y-139830867D01*
X60716353Y-139830867D02*
X60763972Y-139688010D01*
X60763972Y-139688010D02*
X60811591Y-139640391D01*
X60811591Y-139259438D02*
X60763972Y-139211819D01*
X60763972Y-139211819D02*
X60716353Y-139116581D01*
X60716353Y-139116581D02*
X60716353Y-138878486D01*
X60716353Y-138878486D02*
X60763972Y-138783248D01*
X60763972Y-138783248D02*
X60811591Y-138735629D01*
X60811591Y-138735629D02*
X60906829Y-138688010D01*
X60906829Y-138688010D02*
X61002067Y-138688010D01*
X61002067Y-138688010D02*
X61144924Y-138735629D01*
X61144924Y-138735629D02*
X61716353Y-139307057D01*
X61716353Y-139307057D02*
X61716353Y-138688010D01*
X61716353Y-138211819D02*
X61716353Y-138021343D01*
X61716353Y-138021343D02*
X61668734Y-137926105D01*
X61668734Y-137926105D02*
X61621114Y-137878486D01*
X61621114Y-137878486D02*
X61478257Y-137783248D01*
X61478257Y-137783248D02*
X61287781Y-137735629D01*
X61287781Y-137735629D02*
X60906829Y-137735629D01*
X60906829Y-137735629D02*
X60811591Y-137783248D01*
X60811591Y-137783248D02*
X60763972Y-137830867D01*
X60763972Y-137830867D02*
X60716353Y-137926105D01*
X60716353Y-137926105D02*
X60716353Y-138116581D01*
X60716353Y-138116581D02*
X60763972Y-138211819D01*
X60763972Y-138211819D02*
X60811591Y-138259438D01*
X60811591Y-138259438D02*
X60906829Y-138307057D01*
X60906829Y-138307057D02*
X61144924Y-138307057D01*
X61144924Y-138307057D02*
X61240162Y-138259438D01*
X61240162Y-138259438D02*
X61287781Y-138211819D01*
X61287781Y-138211819D02*
X61335400Y-138116581D01*
X61335400Y-138116581D02*
X61335400Y-137926105D01*
X61335400Y-137926105D02*
X61287781Y-137830867D01*
X61287781Y-137830867D02*
X61240162Y-137783248D01*
X61240162Y-137783248D02*
X61144924Y-137735629D01*
%TO.C,C27*%
X107498676Y-89689114D02*
X107451057Y-89736734D01*
X107451057Y-89736734D02*
X107308200Y-89784353D01*
X107308200Y-89784353D02*
X107212962Y-89784353D01*
X107212962Y-89784353D02*
X107070105Y-89736734D01*
X107070105Y-89736734D02*
X106974867Y-89641495D01*
X106974867Y-89641495D02*
X106927248Y-89546257D01*
X106927248Y-89546257D02*
X106879629Y-89355781D01*
X106879629Y-89355781D02*
X106879629Y-89212924D01*
X106879629Y-89212924D02*
X106927248Y-89022448D01*
X106927248Y-89022448D02*
X106974867Y-88927210D01*
X106974867Y-88927210D02*
X107070105Y-88831972D01*
X107070105Y-88831972D02*
X107212962Y-88784353D01*
X107212962Y-88784353D02*
X107308200Y-88784353D01*
X107308200Y-88784353D02*
X107451057Y-88831972D01*
X107451057Y-88831972D02*
X107498676Y-88879591D01*
X107879629Y-88879591D02*
X107927248Y-88831972D01*
X107927248Y-88831972D02*
X108022486Y-88784353D01*
X108022486Y-88784353D02*
X108260581Y-88784353D01*
X108260581Y-88784353D02*
X108355819Y-88831972D01*
X108355819Y-88831972D02*
X108403438Y-88879591D01*
X108403438Y-88879591D02*
X108451057Y-88974829D01*
X108451057Y-88974829D02*
X108451057Y-89070067D01*
X108451057Y-89070067D02*
X108403438Y-89212924D01*
X108403438Y-89212924D02*
X107832010Y-89784353D01*
X107832010Y-89784353D02*
X108451057Y-89784353D01*
X108784391Y-88784353D02*
X109451057Y-88784353D01*
X109451057Y-88784353D02*
X109022486Y-89784353D01*
%TO.C,C13*%
X67845847Y-109477225D02*
X67807751Y-109515321D01*
X67807751Y-109515321D02*
X67693466Y-109553416D01*
X67693466Y-109553416D02*
X67617275Y-109553416D01*
X67617275Y-109553416D02*
X67502989Y-109515321D01*
X67502989Y-109515321D02*
X67426799Y-109439130D01*
X67426799Y-109439130D02*
X67388704Y-109362940D01*
X67388704Y-109362940D02*
X67350608Y-109210559D01*
X67350608Y-109210559D02*
X67350608Y-109096273D01*
X67350608Y-109096273D02*
X67388704Y-108943892D01*
X67388704Y-108943892D02*
X67426799Y-108867701D01*
X67426799Y-108867701D02*
X67502989Y-108791511D01*
X67502989Y-108791511D02*
X67617275Y-108753416D01*
X67617275Y-108753416D02*
X67693466Y-108753416D01*
X67693466Y-108753416D02*
X67807751Y-108791511D01*
X67807751Y-108791511D02*
X67845847Y-108829606D01*
X68607751Y-109553416D02*
X68150608Y-109553416D01*
X68379180Y-109553416D02*
X68379180Y-108753416D01*
X68379180Y-108753416D02*
X68302989Y-108867701D01*
X68302989Y-108867701D02*
X68226799Y-108943892D01*
X68226799Y-108943892D02*
X68150608Y-108981987D01*
X68874418Y-108753416D02*
X69369656Y-108753416D01*
X69369656Y-108753416D02*
X69102990Y-109058178D01*
X69102990Y-109058178D02*
X69217275Y-109058178D01*
X69217275Y-109058178D02*
X69293466Y-109096273D01*
X69293466Y-109096273D02*
X69331561Y-109134368D01*
X69331561Y-109134368D02*
X69369656Y-109210559D01*
X69369656Y-109210559D02*
X69369656Y-109401035D01*
X69369656Y-109401035D02*
X69331561Y-109477225D01*
X69331561Y-109477225D02*
X69293466Y-109515321D01*
X69293466Y-109515321D02*
X69217275Y-109553416D01*
X69217275Y-109553416D02*
X68988704Y-109553416D01*
X68988704Y-109553416D02*
X68912513Y-109515321D01*
X68912513Y-109515321D02*
X68874418Y-109477225D01*
%TO.C,C2*%
X81146667Y-117126104D02*
X81108571Y-117164200D01*
X81108571Y-117164200D02*
X80994286Y-117202295D01*
X80994286Y-117202295D02*
X80918095Y-117202295D01*
X80918095Y-117202295D02*
X80803809Y-117164200D01*
X80803809Y-117164200D02*
X80727619Y-117088009D01*
X80727619Y-117088009D02*
X80689524Y-117011819D01*
X80689524Y-117011819D02*
X80651428Y-116859438D01*
X80651428Y-116859438D02*
X80651428Y-116745152D01*
X80651428Y-116745152D02*
X80689524Y-116592771D01*
X80689524Y-116592771D02*
X80727619Y-116516580D01*
X80727619Y-116516580D02*
X80803809Y-116440390D01*
X80803809Y-116440390D02*
X80918095Y-116402295D01*
X80918095Y-116402295D02*
X80994286Y-116402295D01*
X80994286Y-116402295D02*
X81108571Y-116440390D01*
X81108571Y-116440390D02*
X81146667Y-116478485D01*
X81451428Y-116478485D02*
X81489524Y-116440390D01*
X81489524Y-116440390D02*
X81565714Y-116402295D01*
X81565714Y-116402295D02*
X81756190Y-116402295D01*
X81756190Y-116402295D02*
X81832381Y-116440390D01*
X81832381Y-116440390D02*
X81870476Y-116478485D01*
X81870476Y-116478485D02*
X81908571Y-116554676D01*
X81908571Y-116554676D02*
X81908571Y-116630866D01*
X81908571Y-116630866D02*
X81870476Y-116745152D01*
X81870476Y-116745152D02*
X81413333Y-117202295D01*
X81413333Y-117202295D02*
X81908571Y-117202295D01*
%TO.C,C9*%
X85786104Y-97113332D02*
X85824200Y-97151428D01*
X85824200Y-97151428D02*
X85862295Y-97265713D01*
X85862295Y-97265713D02*
X85862295Y-97341904D01*
X85862295Y-97341904D02*
X85824200Y-97456190D01*
X85824200Y-97456190D02*
X85748009Y-97532380D01*
X85748009Y-97532380D02*
X85671819Y-97570475D01*
X85671819Y-97570475D02*
X85519438Y-97608571D01*
X85519438Y-97608571D02*
X85405152Y-97608571D01*
X85405152Y-97608571D02*
X85252771Y-97570475D01*
X85252771Y-97570475D02*
X85176580Y-97532380D01*
X85176580Y-97532380D02*
X85100390Y-97456190D01*
X85100390Y-97456190D02*
X85062295Y-97341904D01*
X85062295Y-97341904D02*
X85062295Y-97265713D01*
X85062295Y-97265713D02*
X85100390Y-97151428D01*
X85100390Y-97151428D02*
X85138485Y-97113332D01*
X85862295Y-96732380D02*
X85862295Y-96579999D01*
X85862295Y-96579999D02*
X85824200Y-96503809D01*
X85824200Y-96503809D02*
X85786104Y-96465713D01*
X85786104Y-96465713D02*
X85671819Y-96389523D01*
X85671819Y-96389523D02*
X85519438Y-96351428D01*
X85519438Y-96351428D02*
X85214676Y-96351428D01*
X85214676Y-96351428D02*
X85138485Y-96389523D01*
X85138485Y-96389523D02*
X85100390Y-96427618D01*
X85100390Y-96427618D02*
X85062295Y-96503809D01*
X85062295Y-96503809D02*
X85062295Y-96656190D01*
X85062295Y-96656190D02*
X85100390Y-96732380D01*
X85100390Y-96732380D02*
X85138485Y-96770475D01*
X85138485Y-96770475D02*
X85214676Y-96808571D01*
X85214676Y-96808571D02*
X85405152Y-96808571D01*
X85405152Y-96808571D02*
X85481342Y-96770475D01*
X85481342Y-96770475D02*
X85519438Y-96732380D01*
X85519438Y-96732380D02*
X85557533Y-96656190D01*
X85557533Y-96656190D02*
X85557533Y-96503809D01*
X85557533Y-96503809D02*
X85519438Y-96427618D01*
X85519438Y-96427618D02*
X85481342Y-96389523D01*
X85481342Y-96389523D02*
X85405152Y-96351428D01*
%TO.C,C10*%
X90036104Y-97094285D02*
X90074200Y-97132381D01*
X90074200Y-97132381D02*
X90112295Y-97246666D01*
X90112295Y-97246666D02*
X90112295Y-97322857D01*
X90112295Y-97322857D02*
X90074200Y-97437143D01*
X90074200Y-97437143D02*
X89998009Y-97513333D01*
X89998009Y-97513333D02*
X89921819Y-97551428D01*
X89921819Y-97551428D02*
X89769438Y-97589524D01*
X89769438Y-97589524D02*
X89655152Y-97589524D01*
X89655152Y-97589524D02*
X89502771Y-97551428D01*
X89502771Y-97551428D02*
X89426580Y-97513333D01*
X89426580Y-97513333D02*
X89350390Y-97437143D01*
X89350390Y-97437143D02*
X89312295Y-97322857D01*
X89312295Y-97322857D02*
X89312295Y-97246666D01*
X89312295Y-97246666D02*
X89350390Y-97132381D01*
X89350390Y-97132381D02*
X89388485Y-97094285D01*
X90112295Y-96332381D02*
X90112295Y-96789524D01*
X90112295Y-96560952D02*
X89312295Y-96560952D01*
X89312295Y-96560952D02*
X89426580Y-96637143D01*
X89426580Y-96637143D02*
X89502771Y-96713333D01*
X89502771Y-96713333D02*
X89540866Y-96789524D01*
X89312295Y-95837142D02*
X89312295Y-95760952D01*
X89312295Y-95760952D02*
X89350390Y-95684761D01*
X89350390Y-95684761D02*
X89388485Y-95646666D01*
X89388485Y-95646666D02*
X89464676Y-95608571D01*
X89464676Y-95608571D02*
X89617057Y-95570476D01*
X89617057Y-95570476D02*
X89807533Y-95570476D01*
X89807533Y-95570476D02*
X89959914Y-95608571D01*
X89959914Y-95608571D02*
X90036104Y-95646666D01*
X90036104Y-95646666D02*
X90074200Y-95684761D01*
X90074200Y-95684761D02*
X90112295Y-95760952D01*
X90112295Y-95760952D02*
X90112295Y-95837142D01*
X90112295Y-95837142D02*
X90074200Y-95913333D01*
X90074200Y-95913333D02*
X90036104Y-95951428D01*
X90036104Y-95951428D02*
X89959914Y-95989523D01*
X89959914Y-95989523D02*
X89807533Y-96027619D01*
X89807533Y-96027619D02*
X89617057Y-96027619D01*
X89617057Y-96027619D02*
X89464676Y-95989523D01*
X89464676Y-95989523D02*
X89388485Y-95951428D01*
X89388485Y-95951428D02*
X89350390Y-95913333D01*
X89350390Y-95913333D02*
X89312295Y-95837142D01*
%TO.C,SW11*%
X171516010Y-43477734D02*
X171658867Y-43525353D01*
X171658867Y-43525353D02*
X171896962Y-43525353D01*
X171896962Y-43525353D02*
X171992200Y-43477734D01*
X171992200Y-43477734D02*
X172039819Y-43430114D01*
X172039819Y-43430114D02*
X172087438Y-43334876D01*
X172087438Y-43334876D02*
X172087438Y-43239638D01*
X172087438Y-43239638D02*
X172039819Y-43144400D01*
X172039819Y-43144400D02*
X171992200Y-43096781D01*
X171992200Y-43096781D02*
X171896962Y-43049162D01*
X171896962Y-43049162D02*
X171706486Y-43001543D01*
X171706486Y-43001543D02*
X171611248Y-42953924D01*
X171611248Y-42953924D02*
X171563629Y-42906305D01*
X171563629Y-42906305D02*
X171516010Y-42811067D01*
X171516010Y-42811067D02*
X171516010Y-42715829D01*
X171516010Y-42715829D02*
X171563629Y-42620591D01*
X171563629Y-42620591D02*
X171611248Y-42572972D01*
X171611248Y-42572972D02*
X171706486Y-42525353D01*
X171706486Y-42525353D02*
X171944581Y-42525353D01*
X171944581Y-42525353D02*
X172087438Y-42572972D01*
X172420772Y-42525353D02*
X172658867Y-43525353D01*
X172658867Y-43525353D02*
X172849343Y-42811067D01*
X172849343Y-42811067D02*
X173039819Y-43525353D01*
X173039819Y-43525353D02*
X173277915Y-42525353D01*
X174182676Y-43525353D02*
X173611248Y-43525353D01*
X173896962Y-43525353D02*
X173896962Y-42525353D01*
X173896962Y-42525353D02*
X173801724Y-42668210D01*
X173801724Y-42668210D02*
X173706486Y-42763448D01*
X173706486Y-42763448D02*
X173611248Y-42811067D01*
X175135057Y-43525353D02*
X174563629Y-43525353D01*
X174849343Y-43525353D02*
X174849343Y-42525353D01*
X174849343Y-42525353D02*
X174754105Y-42668210D01*
X174754105Y-42668210D02*
X174658867Y-42763448D01*
X174658867Y-42763448D02*
X174563629Y-42811067D01*
%TO.C,U1*%
X95178095Y-96914819D02*
X95178095Y-97724342D01*
X95178095Y-97724342D02*
X95225714Y-97819580D01*
X95225714Y-97819580D02*
X95273333Y-97867200D01*
X95273333Y-97867200D02*
X95368571Y-97914819D01*
X95368571Y-97914819D02*
X95559047Y-97914819D01*
X95559047Y-97914819D02*
X95654285Y-97867200D01*
X95654285Y-97867200D02*
X95701904Y-97819580D01*
X95701904Y-97819580D02*
X95749523Y-97724342D01*
X95749523Y-97724342D02*
X95749523Y-96914819D01*
X96749523Y-97914819D02*
X96178095Y-97914819D01*
X96463809Y-97914819D02*
X96463809Y-96914819D01*
X96463809Y-96914819D02*
X96368571Y-97057676D01*
X96368571Y-97057676D02*
X96273333Y-97152914D01*
X96273333Y-97152914D02*
X96178095Y-97200533D01*
%TO.C,SW7*%
X54797201Y-54947734D02*
X54940058Y-54995353D01*
X54940058Y-54995353D02*
X55178153Y-54995353D01*
X55178153Y-54995353D02*
X55273391Y-54947734D01*
X55273391Y-54947734D02*
X55321010Y-54900114D01*
X55321010Y-54900114D02*
X55368629Y-54804876D01*
X55368629Y-54804876D02*
X55368629Y-54709638D01*
X55368629Y-54709638D02*
X55321010Y-54614400D01*
X55321010Y-54614400D02*
X55273391Y-54566781D01*
X55273391Y-54566781D02*
X55178153Y-54519162D01*
X55178153Y-54519162D02*
X54987677Y-54471543D01*
X54987677Y-54471543D02*
X54892439Y-54423924D01*
X54892439Y-54423924D02*
X54844820Y-54376305D01*
X54844820Y-54376305D02*
X54797201Y-54281067D01*
X54797201Y-54281067D02*
X54797201Y-54185829D01*
X54797201Y-54185829D02*
X54844820Y-54090591D01*
X54844820Y-54090591D02*
X54892439Y-54042972D01*
X54892439Y-54042972D02*
X54987677Y-53995353D01*
X54987677Y-53995353D02*
X55225772Y-53995353D01*
X55225772Y-53995353D02*
X55368629Y-54042972D01*
X55701963Y-53995353D02*
X55940058Y-54995353D01*
X55940058Y-54995353D02*
X56130534Y-54281067D01*
X56130534Y-54281067D02*
X56321010Y-54995353D01*
X56321010Y-54995353D02*
X56559106Y-53995353D01*
X56844820Y-53995353D02*
X57511486Y-53995353D01*
X57511486Y-53995353D02*
X57082915Y-54995353D01*
%TO.C,SW14*%
X139346010Y-86047734D02*
X139488867Y-86095353D01*
X139488867Y-86095353D02*
X139726962Y-86095353D01*
X139726962Y-86095353D02*
X139822200Y-86047734D01*
X139822200Y-86047734D02*
X139869819Y-86000114D01*
X139869819Y-86000114D02*
X139917438Y-85904876D01*
X139917438Y-85904876D02*
X139917438Y-85809638D01*
X139917438Y-85809638D02*
X139869819Y-85714400D01*
X139869819Y-85714400D02*
X139822200Y-85666781D01*
X139822200Y-85666781D02*
X139726962Y-85619162D01*
X139726962Y-85619162D02*
X139536486Y-85571543D01*
X139536486Y-85571543D02*
X139441248Y-85523924D01*
X139441248Y-85523924D02*
X139393629Y-85476305D01*
X139393629Y-85476305D02*
X139346010Y-85381067D01*
X139346010Y-85381067D02*
X139346010Y-85285829D01*
X139346010Y-85285829D02*
X139393629Y-85190591D01*
X139393629Y-85190591D02*
X139441248Y-85142972D01*
X139441248Y-85142972D02*
X139536486Y-85095353D01*
X139536486Y-85095353D02*
X139774581Y-85095353D01*
X139774581Y-85095353D02*
X139917438Y-85142972D01*
X140250772Y-85095353D02*
X140488867Y-86095353D01*
X140488867Y-86095353D02*
X140679343Y-85381067D01*
X140679343Y-85381067D02*
X140869819Y-86095353D01*
X140869819Y-86095353D02*
X141107915Y-85095353D01*
X142012676Y-86095353D02*
X141441248Y-86095353D01*
X141726962Y-86095353D02*
X141726962Y-85095353D01*
X141726962Y-85095353D02*
X141631724Y-85238210D01*
X141631724Y-85238210D02*
X141536486Y-85333448D01*
X141536486Y-85333448D02*
X141441248Y-85381067D01*
X142869819Y-85428686D02*
X142869819Y-86095353D01*
X142631724Y-85047734D02*
X142393629Y-85762019D01*
X142393629Y-85762019D02*
X143012676Y-85762019D01*
%TO.C,C14*%
X87256897Y-114270337D02*
X87218801Y-114308433D01*
X87218801Y-114308433D02*
X87104516Y-114346528D01*
X87104516Y-114346528D02*
X87028325Y-114346528D01*
X87028325Y-114346528D02*
X86914039Y-114308433D01*
X86914039Y-114308433D02*
X86837849Y-114232242D01*
X86837849Y-114232242D02*
X86799754Y-114156052D01*
X86799754Y-114156052D02*
X86761658Y-114003671D01*
X86761658Y-114003671D02*
X86761658Y-113889385D01*
X86761658Y-113889385D02*
X86799754Y-113737004D01*
X86799754Y-113737004D02*
X86837849Y-113660813D01*
X86837849Y-113660813D02*
X86914039Y-113584623D01*
X86914039Y-113584623D02*
X87028325Y-113546528D01*
X87028325Y-113546528D02*
X87104516Y-113546528D01*
X87104516Y-113546528D02*
X87218801Y-113584623D01*
X87218801Y-113584623D02*
X87256897Y-113622718D01*
X88018801Y-114346528D02*
X87561658Y-114346528D01*
X87790230Y-114346528D02*
X87790230Y-113546528D01*
X87790230Y-113546528D02*
X87714039Y-113660813D01*
X87714039Y-113660813D02*
X87637849Y-113737004D01*
X87637849Y-113737004D02*
X87561658Y-113775099D01*
X88704516Y-113813194D02*
X88704516Y-114346528D01*
X88514040Y-113508433D02*
X88323563Y-114079861D01*
X88323563Y-114079861D02*
X88818802Y-114079861D01*
%TO.C,C23*%
X142550676Y-77497114D02*
X142503057Y-77544734D01*
X142503057Y-77544734D02*
X142360200Y-77592353D01*
X142360200Y-77592353D02*
X142264962Y-77592353D01*
X142264962Y-77592353D02*
X142122105Y-77544734D01*
X142122105Y-77544734D02*
X142026867Y-77449495D01*
X142026867Y-77449495D02*
X141979248Y-77354257D01*
X141979248Y-77354257D02*
X141931629Y-77163781D01*
X141931629Y-77163781D02*
X141931629Y-77020924D01*
X141931629Y-77020924D02*
X141979248Y-76830448D01*
X141979248Y-76830448D02*
X142026867Y-76735210D01*
X142026867Y-76735210D02*
X142122105Y-76639972D01*
X142122105Y-76639972D02*
X142264962Y-76592353D01*
X142264962Y-76592353D02*
X142360200Y-76592353D01*
X142360200Y-76592353D02*
X142503057Y-76639972D01*
X142503057Y-76639972D02*
X142550676Y-76687591D01*
X142931629Y-76687591D02*
X142979248Y-76639972D01*
X142979248Y-76639972D02*
X143074486Y-76592353D01*
X143074486Y-76592353D02*
X143312581Y-76592353D01*
X143312581Y-76592353D02*
X143407819Y-76639972D01*
X143407819Y-76639972D02*
X143455438Y-76687591D01*
X143455438Y-76687591D02*
X143503057Y-76782829D01*
X143503057Y-76782829D02*
X143503057Y-76878067D01*
X143503057Y-76878067D02*
X143455438Y-77020924D01*
X143455438Y-77020924D02*
X142884010Y-77592353D01*
X142884010Y-77592353D02*
X143503057Y-77592353D01*
X143836391Y-76592353D02*
X144455438Y-76592353D01*
X144455438Y-76592353D02*
X144122105Y-76973305D01*
X144122105Y-76973305D02*
X144264962Y-76973305D01*
X144264962Y-76973305D02*
X144360200Y-77020924D01*
X144360200Y-77020924D02*
X144407819Y-77068543D01*
X144407819Y-77068543D02*
X144455438Y-77163781D01*
X144455438Y-77163781D02*
X144455438Y-77401876D01*
X144455438Y-77401876D02*
X144407819Y-77497114D01*
X144407819Y-77497114D02*
X144360200Y-77544734D01*
X144360200Y-77544734D02*
X144264962Y-77592353D01*
X144264962Y-77592353D02*
X143979248Y-77592353D01*
X143979248Y-77592353D02*
X143884010Y-77544734D01*
X143884010Y-77544734D02*
X143836391Y-77497114D01*
%TO.C,SW13*%
X229456010Y-43597734D02*
X229598867Y-43645353D01*
X229598867Y-43645353D02*
X229836962Y-43645353D01*
X229836962Y-43645353D02*
X229932200Y-43597734D01*
X229932200Y-43597734D02*
X229979819Y-43550114D01*
X229979819Y-43550114D02*
X230027438Y-43454876D01*
X230027438Y-43454876D02*
X230027438Y-43359638D01*
X230027438Y-43359638D02*
X229979819Y-43264400D01*
X229979819Y-43264400D02*
X229932200Y-43216781D01*
X229932200Y-43216781D02*
X229836962Y-43169162D01*
X229836962Y-43169162D02*
X229646486Y-43121543D01*
X229646486Y-43121543D02*
X229551248Y-43073924D01*
X229551248Y-43073924D02*
X229503629Y-43026305D01*
X229503629Y-43026305D02*
X229456010Y-42931067D01*
X229456010Y-42931067D02*
X229456010Y-42835829D01*
X229456010Y-42835829D02*
X229503629Y-42740591D01*
X229503629Y-42740591D02*
X229551248Y-42692972D01*
X229551248Y-42692972D02*
X229646486Y-42645353D01*
X229646486Y-42645353D02*
X229884581Y-42645353D01*
X229884581Y-42645353D02*
X230027438Y-42692972D01*
X230360772Y-42645353D02*
X230598867Y-43645353D01*
X230598867Y-43645353D02*
X230789343Y-42931067D01*
X230789343Y-42931067D02*
X230979819Y-43645353D01*
X230979819Y-43645353D02*
X231217915Y-42645353D01*
X232122676Y-43645353D02*
X231551248Y-43645353D01*
X231836962Y-43645353D02*
X231836962Y-42645353D01*
X231836962Y-42645353D02*
X231741724Y-42788210D01*
X231741724Y-42788210D02*
X231646486Y-42883448D01*
X231646486Y-42883448D02*
X231551248Y-42931067D01*
X232456010Y-42645353D02*
X233075057Y-42645353D01*
X233075057Y-42645353D02*
X232741724Y-43026305D01*
X232741724Y-43026305D02*
X232884581Y-43026305D01*
X232884581Y-43026305D02*
X232979819Y-43073924D01*
X232979819Y-43073924D02*
X233027438Y-43121543D01*
X233027438Y-43121543D02*
X233075057Y-43216781D01*
X233075057Y-43216781D02*
X233075057Y-43454876D01*
X233075057Y-43454876D02*
X233027438Y-43550114D01*
X233027438Y-43550114D02*
X232979819Y-43597734D01*
X232979819Y-43597734D02*
X232884581Y-43645353D01*
X232884581Y-43645353D02*
X232598867Y-43645353D01*
X232598867Y-43645353D02*
X232503629Y-43597734D01*
X232503629Y-43597734D02*
X232456010Y-43550114D01*
%TO.C,SW19*%
X71037200Y-121379523D02*
X71084819Y-121236666D01*
X71084819Y-121236666D02*
X71084819Y-120998571D01*
X71084819Y-120998571D02*
X71037200Y-120903333D01*
X71037200Y-120903333D02*
X70989580Y-120855714D01*
X70989580Y-120855714D02*
X70894342Y-120808095D01*
X70894342Y-120808095D02*
X70799104Y-120808095D01*
X70799104Y-120808095D02*
X70703866Y-120855714D01*
X70703866Y-120855714D02*
X70656247Y-120903333D01*
X70656247Y-120903333D02*
X70608628Y-120998571D01*
X70608628Y-120998571D02*
X70561009Y-121189047D01*
X70561009Y-121189047D02*
X70513390Y-121284285D01*
X70513390Y-121284285D02*
X70465771Y-121331904D01*
X70465771Y-121331904D02*
X70370533Y-121379523D01*
X70370533Y-121379523D02*
X70275295Y-121379523D01*
X70275295Y-121379523D02*
X70180057Y-121331904D01*
X70180057Y-121331904D02*
X70132438Y-121284285D01*
X70132438Y-121284285D02*
X70084819Y-121189047D01*
X70084819Y-121189047D02*
X70084819Y-120950952D01*
X70084819Y-120950952D02*
X70132438Y-120808095D01*
X70084819Y-120474761D02*
X71084819Y-120236666D01*
X71084819Y-120236666D02*
X70370533Y-120046190D01*
X70370533Y-120046190D02*
X71084819Y-119855714D01*
X71084819Y-119855714D02*
X70084819Y-119617619D01*
X71084819Y-118712857D02*
X71084819Y-119284285D01*
X71084819Y-118998571D02*
X70084819Y-118998571D01*
X70084819Y-118998571D02*
X70227676Y-119093809D01*
X70227676Y-119093809D02*
X70322914Y-119189047D01*
X70322914Y-119189047D02*
X70370533Y-119284285D01*
X71084819Y-118236666D02*
X71084819Y-118046190D01*
X71084819Y-118046190D02*
X71037200Y-117950952D01*
X71037200Y-117950952D02*
X70989580Y-117903333D01*
X70989580Y-117903333D02*
X70846723Y-117808095D01*
X70846723Y-117808095D02*
X70656247Y-117760476D01*
X70656247Y-117760476D02*
X70275295Y-117760476D01*
X70275295Y-117760476D02*
X70180057Y-117808095D01*
X70180057Y-117808095D02*
X70132438Y-117855714D01*
X70132438Y-117855714D02*
X70084819Y-117950952D01*
X70084819Y-117950952D02*
X70084819Y-118141428D01*
X70084819Y-118141428D02*
X70132438Y-118236666D01*
X70132438Y-118236666D02*
X70180057Y-118284285D01*
X70180057Y-118284285D02*
X70275295Y-118331904D01*
X70275295Y-118331904D02*
X70513390Y-118331904D01*
X70513390Y-118331904D02*
X70608628Y-118284285D01*
X70608628Y-118284285D02*
X70656247Y-118236666D01*
X70656247Y-118236666D02*
X70703866Y-118141428D01*
X70703866Y-118141428D02*
X70703866Y-117950952D01*
X70703866Y-117950952D02*
X70656247Y-117855714D01*
X70656247Y-117855714D02*
X70608628Y-117808095D01*
X70608628Y-117808095D02*
X70513390Y-117760476D01*
D13*
%TO.C,D9*%
X201860000Y-85899741D02*
X201860000Y-85899741D01*
X201860000Y-85799741D02*
X201860000Y-85799741D01*
X201860000Y-85799741D02*
G75*
G03*
X201860000Y-85899741I0J-50000D01*
G01*
X201860000Y-85899741D02*
G75*
G03*
X201860000Y-85799741I0J50000D01*
G01*
D10*
%TO.C,R2*%
X71263641Y-97702500D02*
X70956359Y-97702500D01*
X71263641Y-96942500D02*
X70956359Y-96942500D01*
%TO.C,C21*%
X84625534Y-77901698D02*
X84625534Y-78117370D01*
X83905534Y-77901698D02*
X83905534Y-78117370D01*
%TO.C,R4*%
X87250000Y-100483641D02*
X87250000Y-100176359D01*
X88010000Y-100483641D02*
X88010000Y-100176359D01*
%TO.C,R6*%
X140209175Y-34670000D02*
X139901893Y-34670000D01*
X140209175Y-33910000D02*
X139901893Y-33910000D01*
%TO.C,SW5*%
X91250000Y-41000000D02*
X92750000Y-41000000D01*
X95250000Y-39750000D02*
X95250000Y-35250000D01*
X88750000Y-35250000D02*
X88750000Y-39750000D01*
X92750000Y-34000000D02*
X91250000Y-34000000D01*
D12*
%TO.C,SW10*%
X139765534Y-56855534D02*
X139765534Y-55855534D01*
X139765534Y-69855534D02*
X139765534Y-68855534D01*
X139765534Y-69855534D02*
X140765534Y-69855534D01*
X140765534Y-55855534D02*
X139765534Y-55855534D01*
X152765534Y-69855534D02*
X153765534Y-69855534D01*
X153765534Y-55855534D02*
X152765534Y-55855534D01*
X153765534Y-55855534D02*
X153765534Y-56855534D01*
X153765534Y-68855534D02*
X153765534Y-69855534D01*
D13*
%TO.C,D14*%
X70641534Y-142041534D02*
X70641534Y-142041534D01*
X70641534Y-141941534D02*
X70641534Y-141941534D01*
X70641534Y-141941534D02*
G75*
G03*
X70641534Y-142041534I0J-50000D01*
G01*
X70641534Y-142041534D02*
G75*
G03*
X70641534Y-141941534I0J50000D01*
G01*
D10*
%TO.C,C22*%
X140505534Y-108381698D02*
X140505534Y-108597370D01*
X139785534Y-108381698D02*
X139785534Y-108597370D01*
%TO.C,R3*%
X86170000Y-100483641D02*
X86170000Y-100176359D01*
X86930000Y-100483641D02*
X86930000Y-100176359D01*
%TO.C,C17*%
X116149534Y-139877698D02*
X116149534Y-140093370D01*
X115429534Y-139877698D02*
X115429534Y-140093370D01*
%TO.C,C20*%
X228673370Y-64653534D02*
X228457698Y-64653534D01*
X228673370Y-63933534D02*
X228457698Y-63933534D01*
%TO.C,SW4*%
X82550000Y-41000000D02*
X84050000Y-41000000D01*
X86550000Y-39750000D02*
X86550000Y-35250000D01*
X80050000Y-35250000D02*
X80050000Y-39750000D01*
X84050000Y-34000000D02*
X82550000Y-34000000D01*
%TO.C,C12*%
X91309114Y-107967974D02*
X91524786Y-107967974D01*
X91309114Y-108687974D02*
X91524786Y-108687974D01*
D12*
%TO.C,SW15*%
X160765534Y-76785534D02*
X160765534Y-75785534D01*
X160765534Y-89785534D02*
X160765534Y-88785534D01*
X160765534Y-89785534D02*
X161765534Y-89785534D01*
X161765534Y-75785534D02*
X160765534Y-75785534D01*
X173765534Y-89785534D02*
X174765534Y-89785534D01*
X174765534Y-75785534D02*
X173765534Y-75785534D01*
X174765534Y-75785534D02*
X174765534Y-76785534D01*
X174765534Y-88785534D02*
X174765534Y-89785534D01*
D10*
%TO.C,R1*%
X75140000Y-104368859D02*
X75140000Y-104676141D01*
X74380000Y-104368859D02*
X74380000Y-104676141D01*
%TO.C,C15*%
X90682396Y-104226961D02*
X90898068Y-104226961D01*
X90682396Y-104946961D02*
X90898068Y-104946961D01*
%TO.C,C30*%
X73489698Y-141149534D02*
X73705370Y-141149534D01*
X73489698Y-141869534D02*
X73705370Y-141869534D01*
%TO.C,SW6*%
X99950000Y-41000000D02*
X101450000Y-41000000D01*
X103950000Y-39750000D02*
X103950000Y-35250000D01*
X97450000Y-35250000D02*
X97450000Y-39750000D01*
X101450000Y-34000000D02*
X99950000Y-34000000D01*
%TO.C,C26*%
X195877534Y-96889627D02*
X195877534Y-97105299D01*
X195157534Y-96889627D02*
X195157534Y-97105299D01*
D13*
%TO.C,D11*%
X146050000Y-96940000D02*
X146050000Y-96940000D01*
X146050000Y-96840000D02*
X146050000Y-96840000D01*
X146050000Y-96840000D02*
G75*
G03*
X146050000Y-96940000I0J-50000D01*
G01*
X146050000Y-96940000D02*
G75*
G03*
X146050000Y-96840000I0J50000D01*
G01*
D10*
%TO.C,SW3*%
X72650000Y-41000000D02*
X74150000Y-41000000D01*
X76650000Y-39750000D02*
X76650000Y-35250000D01*
X70150000Y-35250000D02*
X70150000Y-39750000D01*
X74150000Y-34000000D02*
X72650000Y-34000000D01*
D12*
%TO.C,SW12*%
X195295534Y-45205534D02*
X195295534Y-44205534D01*
X195295534Y-58205534D02*
X195295534Y-57205534D01*
X195295534Y-58205534D02*
X196295534Y-58205534D01*
X196295534Y-44205534D02*
X195295534Y-44205534D01*
X208295534Y-58205534D02*
X209295534Y-58205534D01*
X209295534Y-44205534D02*
X208295534Y-44205534D01*
X209295534Y-44205534D02*
X209295534Y-45205534D01*
X209295534Y-57205534D02*
X209295534Y-58205534D01*
D13*
%TO.C,D5*%
X176600000Y-57430877D02*
X176600000Y-57430877D01*
X176600000Y-57530877D02*
X176600000Y-57530877D01*
X176600000Y-57530877D02*
G75*
G03*
X176600000Y-57430877I0J50000D01*
G01*
X176600000Y-57430877D02*
G75*
G03*
X176600000Y-57530877I0J-50000D01*
G01*
%TO.C,D8*%
X231140000Y-85890832D02*
X231140000Y-85890832D01*
X231140000Y-85790832D02*
X231140000Y-85790832D01*
X231140000Y-85790832D02*
G75*
G03*
X231140000Y-85890832I0J-50000D01*
G01*
X231140000Y-85890832D02*
G75*
G03*
X231140000Y-85790832I0J50000D01*
G01*
D10*
%TO.C,R7*%
X144835534Y-32091893D02*
X144835534Y-32399175D01*
X144075534Y-32091893D02*
X144075534Y-32399175D01*
D12*
%TO.C,SW8*%
X78225534Y-56915534D02*
X78225534Y-55915534D01*
X78225534Y-69915534D02*
X78225534Y-68915534D01*
X78225534Y-69915534D02*
X79225534Y-69915534D01*
X79225534Y-55915534D02*
X78225534Y-55915534D01*
X91225534Y-69915534D02*
X92225534Y-69915534D01*
X92225534Y-55915534D02*
X91225534Y-55915534D01*
X92225534Y-55915534D02*
X92225534Y-56915534D01*
X92225534Y-68915534D02*
X92225534Y-69915534D01*
D10*
%TO.C,C18*%
X206902164Y-64410000D02*
X207117836Y-64410000D01*
X206902164Y-65130000D02*
X207117836Y-65130000D01*
%TO.C,OLED1*%
X106420000Y-29500000D02*
X133820000Y-29500000D01*
X106420000Y-56800000D02*
X106420000Y-29500000D01*
X106842000Y-32795000D02*
X129942000Y-32795000D01*
X106842000Y-49395000D02*
X106842000Y-32795000D01*
X115121000Y-29989000D02*
X115121000Y-32402000D01*
X115121000Y-29989000D02*
X124900000Y-29989000D01*
X124900000Y-29989000D02*
X124900000Y-32402000D01*
X124900000Y-32402000D02*
X115121000Y-32402000D01*
X129942000Y-32795000D02*
X133028000Y-32795000D01*
X129942000Y-49395000D02*
X106842000Y-49395000D01*
X129942000Y-49395000D02*
X133282000Y-49420000D01*
X133282000Y-32783000D02*
X133028000Y-32795000D01*
X133282000Y-49420000D02*
X133282000Y-32783000D01*
X133820000Y-29500000D02*
X133820000Y-56800000D01*
X133820000Y-56800000D02*
X106420000Y-56800000D01*
D13*
%TO.C,D15*%
X79277534Y-142041534D02*
X79277534Y-142041534D01*
X79277534Y-141941534D02*
X79277534Y-141941534D01*
X79277534Y-141941534D02*
G75*
G03*
X79277534Y-142041534I0J-50000D01*
G01*
X79277534Y-142041534D02*
G75*
G03*
X79277534Y-141941534I0J50000D01*
G01*
%TO.C,D3*%
X115315014Y-80109701D02*
X115315014Y-80109701D01*
X115315014Y-80209701D02*
X115315014Y-80209701D01*
X115315014Y-80209701D02*
G75*
G03*
X115315014Y-80109701I0J50000D01*
G01*
X115315014Y-80109701D02*
G75*
G03*
X115315014Y-80209701I0J-50000D01*
G01*
D12*
%TO.C,SW18*%
X122325534Y-121365534D02*
X122325534Y-120365534D01*
X122325534Y-134365534D02*
X122325534Y-133365534D01*
X122325534Y-134365534D02*
X123325534Y-134365534D01*
X123325534Y-120365534D02*
X122325534Y-120365534D01*
X135325534Y-134365534D02*
X136325534Y-134365534D01*
X136325534Y-120365534D02*
X135325534Y-120365534D01*
X136325534Y-120365534D02*
X136325534Y-121365534D01*
X136325534Y-133365534D02*
X136325534Y-134365534D01*
D13*
%TO.C,D16*%
X87913534Y-142041534D02*
X87913534Y-142041534D01*
X87913534Y-141941534D02*
X87913534Y-141941534D01*
X87913534Y-141941534D02*
G75*
G03*
X87913534Y-142041534I0J-50000D01*
G01*
X87913534Y-142041534D02*
G75*
G03*
X87913534Y-141941534I0J50000D01*
G01*
D10*
%TO.C,C4*%
X93130000Y-100617836D02*
X93130000Y-100402164D01*
X93850000Y-100617836D02*
X93850000Y-100402164D01*
D13*
%TO.C,D10*%
X172720000Y-85880437D02*
X172720000Y-85880437D01*
X172720000Y-85780437D02*
X172720000Y-85780437D01*
X172720000Y-85780437D02*
G75*
G03*
X172720000Y-85880437I0J-50000D01*
G01*
X172720000Y-85880437D02*
G75*
G03*
X172720000Y-85780437I0J50000D01*
G01*
D10*
%TO.C,C32*%
X90761698Y-141149534D02*
X90977370Y-141149534D01*
X90761698Y-141869534D02*
X90977370Y-141869534D01*
%TO.C,U2*%
X74435000Y-96497500D02*
X74435000Y-96757500D01*
X74435000Y-96757500D02*
X72760000Y-96757500D01*
X74435000Y-101947500D02*
X74435000Y-101687500D01*
X77160000Y-96497500D02*
X74435000Y-96497500D01*
X77160000Y-96497500D02*
X79885000Y-96497500D01*
X77160000Y-101947500D02*
X74435000Y-101947500D01*
X77160000Y-101947500D02*
X79885000Y-101947500D01*
X79885000Y-96497500D02*
X79885000Y-96757500D01*
X79885000Y-101947500D02*
X79885000Y-101687500D01*
%TO.C,C24*%
X55669534Y-77393698D02*
X55669534Y-77609370D01*
X54949534Y-77393698D02*
X54949534Y-77609370D01*
%TO.C,C31*%
X82125698Y-141149534D02*
X82341370Y-141149534D01*
X82125698Y-141869534D02*
X82341370Y-141869534D01*
%TO.C,SW1*%
X55200000Y-40995534D02*
X56700000Y-40995534D01*
X59200000Y-39745534D02*
X59200000Y-35245534D01*
X52700000Y-35245534D02*
X52700000Y-39745534D01*
X56700000Y-33995534D02*
X55200000Y-33995534D01*
D13*
%TO.C,D12*%
X134620000Y-130514896D02*
X134620000Y-130514896D01*
X134620000Y-130414896D02*
X134620000Y-130414896D01*
X134620000Y-130414896D02*
G75*
G03*
X134620000Y-130514896I0J-50000D01*
G01*
X134620000Y-130514896D02*
G75*
G03*
X134620000Y-130414896I0J50000D01*
G01*
D10*
%TO.C,C1*%
X97930000Y-100617836D02*
X97930000Y-100402164D01*
X98650000Y-100617836D02*
X98650000Y-100402164D01*
%TO.C,C28*%
X167429534Y-96892164D02*
X167429534Y-97107836D01*
X166709534Y-96892164D02*
X166709534Y-97107836D01*
D12*
%TO.C,SW17*%
X218825534Y-76785534D02*
X218825534Y-75785534D01*
X218825534Y-89785534D02*
X218825534Y-88785534D01*
X218825534Y-89785534D02*
X219825534Y-89785534D01*
X219825534Y-75785534D02*
X218825534Y-75785534D01*
X231825534Y-89785534D02*
X232825534Y-89785534D01*
X232825534Y-75785534D02*
X231825534Y-75785534D01*
X232825534Y-75785534D02*
X232825534Y-76785534D01*
X232825534Y-88785534D02*
X232825534Y-89785534D01*
D10*
%TO.C,C25*%
X225341534Y-96892164D02*
X225341534Y-97107836D01*
X224621534Y-96892164D02*
X224621534Y-97107836D01*
%TO.C,C6*%
X84090000Y-99837836D02*
X84090000Y-99622164D01*
X84810000Y-99837836D02*
X84810000Y-99622164D01*
%TO.C,C7*%
X86920000Y-115462164D02*
X86920000Y-115677836D01*
X86200000Y-115462164D02*
X86200000Y-115677836D01*
D12*
%TO.C,SW16*%
X189615534Y-76785534D02*
X189615534Y-75785534D01*
X189615534Y-89785534D02*
X189615534Y-88785534D01*
X189615534Y-89785534D02*
X190615534Y-89785534D01*
X190615534Y-75785534D02*
X189615534Y-75785534D01*
X202615534Y-89785534D02*
X203615534Y-89785534D01*
X203615534Y-75785534D02*
X202615534Y-75785534D01*
X203615534Y-75785534D02*
X203615534Y-76785534D01*
X203615534Y-88785534D02*
X203615534Y-89785534D01*
D10*
%TO.C,Y1*%
X85510000Y-117520000D02*
X82210000Y-117520000D01*
X82210000Y-117520000D02*
X82210000Y-121520000D01*
%TO.C,C3*%
X86570000Y-119412164D02*
X86570000Y-119627836D01*
X85850000Y-119412164D02*
X85850000Y-119627836D01*
D13*
%TO.C,D1*%
X59869740Y-68692899D02*
X59869740Y-68692899D01*
X59869740Y-68792899D02*
X59869740Y-68792899D01*
X59869740Y-68792899D02*
G75*
G03*
X59869740Y-68692899I0J50000D01*
G01*
X59869740Y-68692899D02*
G75*
G03*
X59869740Y-68792899I0J-50000D01*
G01*
%TO.C,D2*%
X88768173Y-68660023D02*
X88768173Y-68660023D01*
X88768173Y-68760023D02*
X88768173Y-68760023D01*
X88768173Y-68760023D02*
G75*
G03*
X88768173Y-68660023I0J50000D01*
G01*
X88768173Y-68660023D02*
G75*
G03*
X88768173Y-68760023I0J-50000D01*
G01*
D12*
%TO.C,SW9*%
X104825534Y-68265534D02*
X104825534Y-67265534D01*
X104825534Y-81265534D02*
X104825534Y-80265534D01*
X104825534Y-81265534D02*
X105825534Y-81265534D01*
X105825534Y-67265534D02*
X104825534Y-67265534D01*
X117825534Y-81265534D02*
X118825534Y-81265534D01*
X118825534Y-67265534D02*
X117825534Y-67265534D01*
X118825534Y-67265534D02*
X118825534Y-68265534D01*
X118825534Y-80265534D02*
X118825534Y-81265534D01*
D10*
%TO.C,C5*%
X80752164Y-95362500D02*
X80967836Y-95362500D01*
X80752164Y-96082500D02*
X80967836Y-96082500D01*
%TO.C,C11*%
X78694086Y-105282500D02*
X78478414Y-105282500D01*
X78694086Y-104562500D02*
X78478414Y-104562500D01*
%TO.C,SW20*%
X71080000Y-114470000D02*
X71080000Y-115470000D01*
X70080000Y-114470000D02*
X71080000Y-114470000D01*
X69080000Y-116470000D02*
X66480000Y-116470000D01*
X71030000Y-122470000D02*
X71030000Y-116670000D01*
X64530000Y-122570000D02*
X64530000Y-116570000D01*
X69080000Y-122670000D02*
X66480000Y-122670000D01*
%TO.C,C8*%
X88340000Y-100437836D02*
X88340000Y-100222164D01*
X89060000Y-100437836D02*
X89060000Y-100222164D01*
%TO.C,SW2*%
X63900000Y-41000000D02*
X65400000Y-41000000D01*
X67900000Y-39750000D02*
X67900000Y-35250000D01*
X61400000Y-35250000D02*
X61400000Y-39750000D01*
X65400000Y-34000000D02*
X63900000Y-34000000D01*
D13*
%TO.C,D13*%
X62005534Y-142041534D02*
X62005534Y-142041534D01*
X62005534Y-141941534D02*
X62005534Y-141941534D01*
X62005534Y-141941534D02*
G75*
G03*
X62005534Y-142041534I0J-50000D01*
G01*
X62005534Y-142041534D02*
G75*
G03*
X62005534Y-141941534I0J50000D01*
G01*
D10*
%TO.C,C16*%
X90682396Y-103216212D02*
X90898068Y-103216212D01*
X90682396Y-103936212D02*
X90898068Y-103936212D01*
%TO.C,U3*%
X81448856Y-111500000D02*
X81448856Y-110850000D01*
X82098856Y-104280000D02*
X81448856Y-104280000D01*
X82098856Y-111500000D02*
X81448856Y-111500000D01*
X88018856Y-104280000D02*
X88668856Y-104280000D01*
X88018856Y-111500000D02*
X88668856Y-111500000D01*
X88668856Y-104280000D02*
X88668856Y-104930000D01*
X88668856Y-111500000D02*
X88668856Y-110850000D01*
D13*
%TO.C,D6*%
X205810000Y-57306638D02*
X205810000Y-57306638D01*
X205810000Y-57406638D02*
X205810000Y-57406638D01*
X205810000Y-57406638D02*
G75*
G03*
X205810000Y-57306638I0J50000D01*
G01*
X205810000Y-57306638D02*
G75*
G03*
X205810000Y-57406638I0J-50000D01*
G01*
D10*
%TO.C,C19*%
X177121698Y-64949534D02*
X177337370Y-64949534D01*
X177121698Y-65669534D02*
X177337370Y-65669534D01*
%TO.C,R5*%
X84890000Y-116266359D02*
X84890000Y-116573641D01*
X84130000Y-116266359D02*
X84130000Y-116573641D01*
%TO.C,C29*%
X62061534Y-139105370D02*
X62061534Y-138889698D01*
X62781534Y-139105370D02*
X62781534Y-138889698D01*
%TO.C,C27*%
X108249370Y-88529534D02*
X108033698Y-88529534D01*
X108249370Y-87809534D02*
X108033698Y-87809534D01*
%TO.C,C13*%
X72497836Y-109580000D02*
X72282164Y-109580000D01*
X72497836Y-108860000D02*
X72282164Y-108860000D01*
%TO.C,C2*%
X83117836Y-117230000D02*
X82902164Y-117230000D01*
X83117836Y-116510000D02*
X82902164Y-116510000D01*
%TO.C,C9*%
X85140000Y-100437836D02*
X85140000Y-100222164D01*
X85860000Y-100437836D02*
X85860000Y-100222164D01*
%TO.C,C10*%
X89390000Y-101437836D02*
X89390000Y-101222164D01*
X90110000Y-101437836D02*
X90110000Y-101222164D01*
D12*
%TO.C,SW11*%
X166325534Y-45325534D02*
X166325534Y-44325534D01*
X166325534Y-58325534D02*
X166325534Y-57325534D01*
X166325534Y-58325534D02*
X167325534Y-58325534D01*
X167325534Y-44325534D02*
X166325534Y-44325534D01*
X179325534Y-58325534D02*
X180325534Y-58325534D01*
X180325534Y-44325534D02*
X179325534Y-44325534D01*
X180325534Y-44325534D02*
X180325534Y-45325534D01*
X180325534Y-57325534D02*
X180325534Y-58325534D01*
D13*
%TO.C,D7*%
X235020000Y-57521975D02*
X235020000Y-57521975D01*
X235020000Y-57621975D02*
X235020000Y-57621975D01*
X235020000Y-57621975D02*
G75*
G03*
X235020000Y-57521975I0J50000D01*
G01*
X235020000Y-57521975D02*
G75*
G03*
X235020000Y-57621975I0J-50000D01*
G01*
D10*
%TO.C,U1*%
X96790000Y-98400000D02*
X94990000Y-98400000D01*
X94990000Y-101620000D02*
X97440000Y-101620000D01*
D13*
%TO.C,D4*%
X149930000Y-68841534D02*
X149930000Y-68841534D01*
X149930000Y-68941534D02*
X149930000Y-68941534D01*
X149930000Y-68941534D02*
G75*
G03*
X149930000Y-68841534I0J50000D01*
G01*
X149930000Y-68841534D02*
G75*
G03*
X149930000Y-68941534I0J-50000D01*
G01*
D12*
%TO.C,SW7*%
X49130534Y-56795534D02*
X49130534Y-55795534D01*
X49130534Y-69795534D02*
X49130534Y-68795534D01*
X49130534Y-69795534D02*
X50130534Y-69795534D01*
X50130534Y-55795534D02*
X49130534Y-55795534D01*
X62130534Y-69795534D02*
X63130534Y-69795534D01*
X63130534Y-55795534D02*
X62130534Y-55795534D01*
X63130534Y-55795534D02*
X63130534Y-56795534D01*
X63130534Y-68795534D02*
X63130534Y-69795534D01*
%TO.C,SW14*%
X134155534Y-87895534D02*
X134155534Y-86895534D01*
X134155534Y-100895534D02*
X134155534Y-99895534D01*
X134155534Y-100895534D02*
X135155534Y-100895534D01*
X135155534Y-86895534D02*
X134155534Y-86895534D01*
X147155534Y-100895534D02*
X148155534Y-100895534D01*
X148155534Y-86895534D02*
X147155534Y-86895534D01*
X148155534Y-86895534D02*
X148155534Y-87895534D01*
X148155534Y-99895534D02*
X148155534Y-100895534D01*
D10*
%TO.C,C14*%
X85890000Y-115462164D02*
X85890000Y-115677836D01*
X85170000Y-115462164D02*
X85170000Y-115677836D01*
%TO.C,C23*%
X143301370Y-76337534D02*
X143085698Y-76337534D01*
X143301370Y-75617534D02*
X143085698Y-75617534D01*
D12*
%TO.C,SW13*%
X224265534Y-45445534D02*
X224265534Y-44445534D01*
X224265534Y-58445534D02*
X224265534Y-57445534D01*
X224265534Y-58445534D02*
X225265534Y-58445534D01*
X225265534Y-44445534D02*
X224265534Y-44445534D01*
X237265534Y-58445534D02*
X238265534Y-58445534D01*
X238265534Y-44445534D02*
X237265534Y-44445534D01*
X238265534Y-44445534D02*
X238265534Y-45445534D01*
X238265534Y-57445534D02*
X238265534Y-58445534D01*
D10*
%TO.C,SW19*%
X71630000Y-124670000D02*
X71630000Y-123670000D01*
X72630000Y-124670000D02*
X71630000Y-124670000D01*
X73630000Y-122670000D02*
X76230000Y-122670000D01*
X71680000Y-116670000D02*
X71680000Y-122470000D01*
X78180000Y-116570000D02*
X78180000Y-122570000D01*
X73630000Y-116470000D02*
X76230000Y-116470000D01*
%TD*%
M02*
