%TF.GenerationSoftware,KiCad,Pcbnew,7.0.5*%
%TF.CreationDate,2023-10-21T15:47:48-07:00*%
%TF.ProjectId,VBox,56426f78-2e6b-4696-9361-645f70636258,rev?*%
%TF.SameCoordinates,Original*%
%TF.FileFunction,Drillmap*%
%TF.FilePolarity,Positive*%
%FSLAX45Y45*%
G04 Gerber Fmt 4.5, Leading zero omitted, Abs format (unit mm)*
G04 Created by KiCad (PCBNEW 7.0.5) date 2023-10-21 15:47:48*
%MOMM*%
%LPD*%
G01*
G04 APERTURE LIST*
%ADD10C,0.050000*%
%ADD11C,0.200000*%
%ADD12C,0.035000*%
%ADD13C,0.040000*%
%ADD14C,0.060000*%
%ADD15C,0.100000*%
%ADD16C,0.110000*%
%ADD17C,0.127000*%
G04 APERTURE END LIST*
D10*
X24790557Y-3274553D02*
G75*
G03*
X24290553Y-2774553I-500007J-7D01*
G01*
X4290553Y-2774553D02*
X13640553Y-2774553D01*
X13740553Y-2324553D02*
X14840553Y-2324553D01*
X14840553Y-2324553D02*
X14840553Y-2674553D01*
X4290553Y-2774553D02*
G75*
G03*
X3790553Y-3274553I0J-500000D01*
G01*
X3790553Y-14274553D02*
G75*
G03*
X4290553Y-14774553I500000J0D01*
G01*
X14940553Y-2774553D02*
X24290553Y-2774553D01*
X24290553Y-14774553D02*
G75*
G03*
X24790553Y-14274553I-3J500003D01*
G01*
X13640553Y-2774553D02*
G75*
G03*
X13740553Y-2674553I-3J100003D01*
G01*
X24290553Y-14774553D02*
X4290553Y-14774553D01*
X13740553Y-2674553D02*
X13740553Y-2324553D01*
X14840557Y-2674553D02*
G75*
G03*
X14940553Y-2774553I99993J-7D01*
G01*
X24790553Y-3274553D02*
X24790553Y-14274553D01*
X3790553Y-14274553D02*
X3790553Y-3274553D01*
D11*
D12*
X5570500Y-7983500D02*
X5605500Y-8018500D01*
X5605500Y-7983500D02*
X5570500Y-8018500D01*
X5951500Y-14333500D02*
X5986500Y-14368500D01*
X5986500Y-14333500D02*
X5951500Y-14368500D01*
X5951500Y-14460500D02*
X5986500Y-14495500D01*
X5986500Y-14460500D02*
X5951500Y-14495500D01*
X6165967Y-10965500D02*
X6200967Y-11000500D01*
X6200967Y-10965500D02*
X6165967Y-11000500D01*
X6205500Y-7094500D02*
X6240500Y-7129500D01*
X6240500Y-7094500D02*
X6205500Y-7129500D01*
X6205500Y-13698500D02*
X6240500Y-13733500D01*
X6240500Y-13698500D02*
X6205500Y-13733500D01*
X6206397Y-11068014D02*
X6241397Y-11103014D01*
X6241397Y-11068014D02*
X6206397Y-11103014D01*
X6206947Y-11158500D02*
X6241947Y-11193500D01*
X6241947Y-11158500D02*
X6206947Y-11193500D01*
X6332500Y-14333500D02*
X6367500Y-14368500D01*
X6367500Y-14333500D02*
X6332500Y-14368500D01*
X6459500Y-6713500D02*
X6494500Y-6748500D01*
X6494500Y-6713500D02*
X6459500Y-6748500D01*
X6586500Y-11285500D02*
X6621500Y-11320500D01*
X6621500Y-11285500D02*
X6586500Y-11320500D01*
X6713500Y-14206500D02*
X6748500Y-14241500D01*
X6748500Y-14206500D02*
X6713500Y-14241500D01*
X6713500Y-14333500D02*
X6748500Y-14368500D01*
X6748500Y-14333500D02*
X6713500Y-14368500D01*
X6840500Y-4808500D02*
X6875500Y-4843500D01*
X6875500Y-4808500D02*
X6840500Y-4843500D01*
X6840500Y-10568500D02*
X6875500Y-10603500D01*
X6875500Y-10568500D02*
X6840500Y-10603500D01*
X6967500Y-10904500D02*
X7002500Y-10939500D01*
X7002500Y-10904500D02*
X6967500Y-10939500D01*
X7094500Y-14460500D02*
X7129500Y-14495500D01*
X7129500Y-14460500D02*
X7094500Y-14495500D01*
X7221500Y-10508550D02*
X7256500Y-10543550D01*
X7256500Y-10508550D02*
X7221500Y-10543550D01*
X7221500Y-11285500D02*
X7256500Y-11320500D01*
X7256500Y-11285500D02*
X7221500Y-11320500D01*
X7475500Y-14079500D02*
X7510500Y-14114500D01*
X7510500Y-14079500D02*
X7475500Y-14114500D01*
X7499565Y-10095332D02*
X7534565Y-10130332D01*
X7534565Y-10095332D02*
X7499565Y-10130332D01*
X7602500Y-14333500D02*
X7637500Y-14368500D01*
X7637500Y-14333500D02*
X7602500Y-14368500D01*
X7602500Y-14460500D02*
X7637500Y-14495500D01*
X7637500Y-14460500D02*
X7602500Y-14495500D01*
X7669500Y-11345500D02*
X7704500Y-11380500D01*
X7704500Y-11345500D02*
X7669500Y-11380500D01*
X7696705Y-10474750D02*
X7731705Y-10509750D01*
X7731705Y-10474750D02*
X7696705Y-10509750D01*
X8003564Y-10571550D02*
X8038564Y-10606550D01*
X8038564Y-10571550D02*
X8003564Y-10606550D01*
X8110500Y-14333500D02*
X8145500Y-14368500D01*
X8145500Y-14333500D02*
X8110500Y-14368500D01*
X8237500Y-9507500D02*
X8272500Y-9542500D01*
X8272500Y-9507500D02*
X8237500Y-9542500D01*
X8314444Y-11358593D02*
X8349444Y-11393593D01*
X8349444Y-11358593D02*
X8314444Y-11393593D01*
X8364500Y-7983500D02*
X8399500Y-8018500D01*
X8399500Y-7983500D02*
X8364500Y-8018500D01*
X8364500Y-14206500D02*
X8399500Y-14241500D01*
X8399500Y-14206500D02*
X8364500Y-14241500D01*
X8426638Y-9811303D02*
X8461638Y-9846303D01*
X8461638Y-9811303D02*
X8426638Y-9846303D01*
X8491500Y-10142500D02*
X8526500Y-10177500D01*
X8526500Y-10142500D02*
X8491500Y-10177500D01*
X8491500Y-14333500D02*
X8526500Y-14368500D01*
X8526500Y-14333500D02*
X8491500Y-14368500D01*
X8532983Y-9822117D02*
X8567983Y-9857117D01*
X8567983Y-9822117D02*
X8532983Y-9857117D01*
X8548906Y-10984344D02*
X8583906Y-11019344D01*
X8583906Y-10984344D02*
X8548906Y-11019344D01*
X8554457Y-10559503D02*
X8589457Y-10594503D01*
X8589457Y-10559503D02*
X8554457Y-10594503D01*
X8618500Y-7094500D02*
X8653500Y-7129500D01*
X8653500Y-7094500D02*
X8618500Y-7129500D01*
X8618500Y-11285500D02*
X8653500Y-11320500D01*
X8653500Y-11285500D02*
X8618500Y-11320500D01*
X8852017Y-9851858D02*
X8887017Y-9886858D01*
X8887017Y-9851858D02*
X8852017Y-9886858D01*
X8872500Y-14460500D02*
X8907500Y-14495500D01*
X8907500Y-14460500D02*
X8872500Y-14495500D01*
X8957460Y-9906833D02*
X8992460Y-9941833D01*
X8992460Y-9906833D02*
X8957460Y-9941833D01*
X8999500Y-7094500D02*
X9034500Y-7129500D01*
X9034500Y-7094500D02*
X8999500Y-7129500D01*
X9253500Y-10269500D02*
X9288500Y-10304500D01*
X9288500Y-10269500D02*
X9253500Y-10304500D01*
X9253500Y-10396500D02*
X9288500Y-10431500D01*
X9288500Y-10396500D02*
X9253500Y-10431500D01*
X9253500Y-11412500D02*
X9288500Y-11447500D01*
X9288500Y-11412500D02*
X9253500Y-11447500D01*
X9253500Y-14206500D02*
X9288500Y-14241500D01*
X9288500Y-14206500D02*
X9253500Y-14241500D01*
X9380500Y-6713500D02*
X9415500Y-6748500D01*
X9415500Y-6713500D02*
X9380500Y-6748500D01*
X9380500Y-10811450D02*
X9415500Y-10846450D01*
X9415500Y-10811450D02*
X9380500Y-10846450D01*
X9634500Y-5062500D02*
X9669500Y-5097500D01*
X9669500Y-5062500D02*
X9634500Y-5097500D01*
X10015500Y-9380500D02*
X10050500Y-9415500D01*
X10050500Y-9380500D02*
X10015500Y-9415500D01*
X10142500Y-9380500D02*
X10177500Y-9415500D01*
X10177500Y-9380500D02*
X10142500Y-9415500D01*
X10155450Y-8364500D02*
X10190450Y-8399500D01*
X10190450Y-8364500D02*
X10155450Y-8399500D01*
X10269500Y-8364500D02*
X10304500Y-8399500D01*
X10304500Y-8364500D02*
X10269500Y-8399500D01*
X10269500Y-9380500D02*
X10304500Y-9415500D01*
X10304500Y-9380500D02*
X10269500Y-9415500D01*
X10269500Y-10320453D02*
X10304500Y-10355453D01*
X10304500Y-10320453D02*
X10269500Y-10355453D01*
X10269500Y-10523500D02*
X10304500Y-10558500D01*
X10304500Y-10523500D02*
X10269500Y-10558500D01*
X10396500Y-10650500D02*
X10431500Y-10685500D01*
X10431500Y-10650500D02*
X10396500Y-10685500D01*
X10523500Y-8872500D02*
X10558500Y-8907500D01*
X10558500Y-8872500D02*
X10523500Y-8907500D01*
X10650500Y-10523500D02*
X10685500Y-10558500D01*
X10685500Y-10523500D02*
X10650500Y-10558500D01*
X10650500Y-10777500D02*
X10685500Y-10812500D01*
X10685500Y-10777500D02*
X10650500Y-10812500D01*
X10737500Y-10991500D02*
X10772500Y-11026500D01*
X10772500Y-10991500D02*
X10737500Y-11026500D01*
X10750450Y-11089408D02*
X10785450Y-11124408D01*
X10785450Y-11089408D02*
X10750450Y-11124408D01*
X10904500Y-10396500D02*
X10939500Y-10431500D01*
X10939500Y-10396500D02*
X10904500Y-10431500D01*
X11008600Y-10269500D02*
X11043600Y-10304500D01*
X11043600Y-10269500D02*
X11008600Y-10304500D01*
X11088550Y-10269500D02*
X11123550Y-10304500D01*
X11123550Y-10269500D02*
X11088550Y-10304500D01*
X11228450Y-10396500D02*
X11263450Y-10431500D01*
X11263450Y-10396500D02*
X11228450Y-10431500D01*
X11285500Y-8237500D02*
X11320500Y-8272500D01*
X11320500Y-8237500D02*
X11285500Y-8272500D01*
X11285500Y-10650500D02*
X11320500Y-10685500D01*
X11320500Y-10650500D02*
X11285500Y-10685500D01*
X11539500Y-14206500D02*
X11574500Y-14241500D01*
X11574500Y-14206500D02*
X11539500Y-14241500D01*
X11666500Y-8237500D02*
X11701500Y-8272500D01*
X11701500Y-8237500D02*
X11666500Y-8272500D01*
X11926450Y-4614450D02*
X11961450Y-4649450D01*
X11961450Y-4614450D02*
X11926450Y-4649450D01*
X12047500Y-7856500D02*
X12082500Y-7891500D01*
X12082500Y-7856500D02*
X12047500Y-7891500D01*
X12059341Y-4567450D02*
X12094341Y-4602450D01*
X12094341Y-4567450D02*
X12059341Y-4602450D01*
X12428500Y-5062500D02*
X12463500Y-5097500D01*
X12463500Y-5062500D02*
X12428500Y-5097500D01*
X13063500Y-13444500D02*
X13098500Y-13479500D01*
X13098500Y-13444500D02*
X13063500Y-13479500D01*
X13317500Y-13444500D02*
X13352500Y-13479500D01*
X13352500Y-13444500D02*
X13317500Y-13479500D01*
X13571500Y-13444500D02*
X13606500Y-13479500D01*
X13606500Y-13444500D02*
X13571500Y-13479500D01*
X13825500Y-7221500D02*
X13860500Y-7256500D01*
X13860500Y-7221500D02*
X13825500Y-7256500D01*
X13952500Y-11031500D02*
X13987500Y-11066500D01*
X13987500Y-11031500D02*
X13952500Y-11066500D01*
X13952500Y-11539500D02*
X13987500Y-11574500D01*
X13987500Y-11539500D02*
X13952500Y-11574500D01*
X14038103Y-3284500D02*
X14073103Y-3319500D01*
X14073103Y-3284500D02*
X14038103Y-3319500D01*
X14079500Y-7602500D02*
X14114500Y-7637500D01*
X14114500Y-7602500D02*
X14079500Y-7637500D01*
X14079500Y-8110500D02*
X14114500Y-8145500D01*
X14114500Y-8110500D02*
X14079500Y-8145500D01*
X14333500Y-10142500D02*
X14368500Y-10177500D01*
X14368500Y-10142500D02*
X14333500Y-10177500D01*
X14460500Y-10142500D02*
X14495500Y-10177500D01*
X14495500Y-10142500D02*
X14460500Y-10177500D01*
X14587500Y-3411500D02*
X14622500Y-3446500D01*
X14622500Y-3411500D02*
X14587500Y-3446500D01*
X14598330Y-3132165D02*
X14633330Y-3167165D01*
X14633330Y-3132165D02*
X14598330Y-3167165D01*
X14714500Y-7094500D02*
X14749500Y-7129500D01*
X14749500Y-7094500D02*
X14714500Y-7129500D01*
X14841500Y-9888500D02*
X14876500Y-9923500D01*
X14876500Y-9888500D02*
X14841500Y-9923500D01*
X15349500Y-5062500D02*
X15384500Y-5097500D01*
X15384500Y-5062500D02*
X15349500Y-5097500D01*
X15476500Y-6713500D02*
X15511500Y-6748500D01*
X15511500Y-6713500D02*
X15476500Y-6748500D01*
X15476500Y-7094500D02*
X15511500Y-7129500D01*
X15511500Y-7094500D02*
X15476500Y-7129500D01*
X15984500Y-7729500D02*
X16019500Y-7764500D01*
X16019500Y-7729500D02*
X15984500Y-7764500D01*
X16492500Y-4427500D02*
X16527500Y-4462500D01*
X16527500Y-4427500D02*
X16492500Y-4462500D01*
X16619500Y-9888500D02*
X16654500Y-9923500D01*
X16654500Y-9888500D02*
X16619500Y-9923500D01*
X16873500Y-8999500D02*
X16908500Y-9034500D01*
X16908500Y-8999500D02*
X16873500Y-9034500D01*
X17127500Y-8999500D02*
X17162500Y-9034500D01*
X17162500Y-8999500D02*
X17127500Y-9034500D01*
X17254500Y-8999500D02*
X17289500Y-9034500D01*
X17289500Y-8999500D02*
X17254500Y-9034500D01*
X17508500Y-5951500D02*
X17543500Y-5986500D01*
X17543500Y-5951500D02*
X17508500Y-5986500D01*
X17889500Y-5951500D02*
X17924500Y-5986500D01*
X17924500Y-5951500D02*
X17889500Y-5986500D01*
X17889500Y-6586500D02*
X17924500Y-6621500D01*
X17924500Y-6586500D02*
X17889500Y-6621500D01*
X18143500Y-5570500D02*
X18178500Y-5605500D01*
X18178500Y-5570500D02*
X18143500Y-5605500D01*
X18778500Y-7729500D02*
X18813500Y-7764500D01*
X18813500Y-7729500D02*
X18778500Y-7764500D01*
X19032500Y-3919500D02*
X19067500Y-3954500D01*
X19067500Y-3919500D02*
X19032500Y-3954500D01*
X19540500Y-4046500D02*
X19575500Y-4081500D01*
X19575500Y-4046500D02*
X19540500Y-4081500D01*
X19540500Y-9888500D02*
X19575500Y-9923500D01*
X19575500Y-9888500D02*
X19540500Y-9923500D01*
X19794500Y-8999500D02*
X19829500Y-9034500D01*
X19829500Y-8999500D02*
X19794500Y-9034500D01*
X20048500Y-8999500D02*
X20083500Y-9034500D01*
X20083500Y-8999500D02*
X20048500Y-9034500D01*
X20302500Y-5951500D02*
X20337500Y-5986500D01*
X20337500Y-5951500D02*
X20302500Y-5986500D01*
X20302500Y-9126500D02*
X20337500Y-9161500D01*
X20337500Y-9126500D02*
X20302500Y-9161500D01*
X20810500Y-5951500D02*
X20845500Y-5986500D01*
X20845500Y-5951500D02*
X20810500Y-5986500D01*
X20943747Y-6456347D02*
X20978747Y-6491347D01*
X20978747Y-6456347D02*
X20943747Y-6491347D01*
X21064500Y-5570500D02*
X21099500Y-5605500D01*
X21099500Y-5570500D02*
X21064500Y-5605500D01*
X21572500Y-3919500D02*
X21607500Y-3954500D01*
X21607500Y-3919500D02*
X21572500Y-3954500D01*
X21953500Y-7348500D02*
X21988500Y-7383500D01*
X21988500Y-7348500D02*
X21953500Y-7383500D01*
X22334500Y-3792500D02*
X22369500Y-3827500D01*
X22369500Y-3792500D02*
X22334500Y-3827500D01*
X22461500Y-9888500D02*
X22496500Y-9923500D01*
X22496500Y-9888500D02*
X22461500Y-9923500D01*
X22588500Y-6459500D02*
X22623500Y-6494500D01*
X22623500Y-6459500D02*
X22588500Y-6494500D01*
X22842500Y-8999500D02*
X22877500Y-9034500D01*
X22877500Y-8999500D02*
X22842500Y-9034500D01*
X22969500Y-8999500D02*
X23004500Y-9034500D01*
X23004500Y-8999500D02*
X22969500Y-9034500D01*
X23223500Y-5951500D02*
X23258500Y-5986500D01*
X23258500Y-5951500D02*
X23223500Y-5986500D01*
X23223500Y-8999500D02*
X23258500Y-9034500D01*
X23258500Y-8999500D02*
X23223500Y-9034500D01*
X23604500Y-5951500D02*
X23639500Y-5986500D01*
X23639500Y-5951500D02*
X23604500Y-5986500D01*
X23985500Y-5570500D02*
X24020500Y-5605500D01*
X24020500Y-5570500D02*
X23985500Y-5605500D01*
X8395886Y-10661500D02*
G75*
G03*
X8395886Y-10661500I-17500J0D01*
G01*
X8395886Y-10789000D02*
G75*
G03*
X8395886Y-10789000I-17500J0D01*
G01*
X8395886Y-10916500D02*
G75*
G03*
X8395886Y-10916500I-17500J0D01*
G01*
X8523386Y-10661500D02*
G75*
G03*
X8523386Y-10661500I-17500J0D01*
G01*
X8523386Y-10789000D02*
G75*
G03*
X8523386Y-10789000I-17500J0D01*
G01*
X8523386Y-10916500D02*
G75*
G03*
X8523386Y-10916500I-17500J0D01*
G01*
X8650886Y-10661500D02*
G75*
G03*
X8650886Y-10661500I-17500J0D01*
G01*
X8650886Y-10789000D02*
G75*
G03*
X8650886Y-10789000I-17500J0D01*
G01*
X8650886Y-10916500D02*
G75*
G03*
X8650886Y-10916500I-17500J0D01*
G01*
D13*
X9291997Y-9837791D02*
X9291997Y-9877791D01*
X9271997Y-9857791D02*
X9311997Y-9857791D01*
X14446302Y-3388945D02*
X14446302Y-3428945D01*
X14426302Y-3408945D02*
X14466302Y-3408945D01*
D14*
X13879767Y-2505767D02*
X13879767Y-2463340D01*
X13837340Y-2463340D01*
X13837340Y-2505767D01*
X13879767Y-2505767D01*
D11*
X13888553Y-2514553D02*
X13888553Y-2454553D01*
X13888553Y-2454553D02*
G75*
G03*
X13828553Y-2454553I-30000J0D01*
G01*
X13828553Y-2454553D02*
X13828553Y-2514553D01*
X13828553Y-2514553D02*
G75*
G03*
X13888553Y-2514553I30000J0D01*
G01*
D14*
X13879767Y-2923767D02*
X13879767Y-2881340D01*
X13837340Y-2881340D01*
X13837340Y-2923767D01*
X13879767Y-2923767D01*
D11*
X13888553Y-2957553D02*
X13888553Y-2847553D01*
X13888553Y-2847553D02*
G75*
G03*
X13828553Y-2847553I-30000J0D01*
G01*
X13828553Y-2847553D02*
X13828553Y-2957553D01*
X13828553Y-2957553D02*
G75*
G03*
X13888553Y-2957553I30000J0D01*
G01*
D14*
X14743767Y-2505767D02*
X14743767Y-2463340D01*
X14701340Y-2463340D01*
X14701340Y-2505767D01*
X14743767Y-2505767D01*
D11*
X14752553Y-2514553D02*
X14752553Y-2454553D01*
X14752553Y-2454553D02*
G75*
G03*
X14692553Y-2454553I-30000J0D01*
G01*
X14692553Y-2454553D02*
X14692553Y-2514553D01*
X14692553Y-2514553D02*
G75*
G03*
X14752553Y-2514553I30000J0D01*
G01*
D14*
X14743767Y-2923767D02*
X14743767Y-2881340D01*
X14701340Y-2881340D01*
X14701340Y-2923767D01*
X14743767Y-2923767D01*
D11*
X14752553Y-2957553D02*
X14752553Y-2847553D01*
X14752553Y-2847553D02*
G75*
G03*
X14692553Y-2847553I-30000J0D01*
G01*
X14692553Y-2847553D02*
X14692553Y-2957553D01*
X14692553Y-2957553D02*
G75*
G03*
X14752553Y-2957553I30000J0D01*
G01*
D15*
X11620000Y-3170000D02*
X11670000Y-3120000D01*
X11620000Y-3070000D01*
X11570000Y-3120000D01*
X11620000Y-3170000D01*
X11874000Y-3170000D02*
X11924000Y-3120000D01*
X11874000Y-3070000D01*
X11824000Y-3120000D01*
X11874000Y-3170000D01*
X12128000Y-3170000D02*
X12178000Y-3120000D01*
X12128000Y-3070000D01*
X12078000Y-3120000D01*
X12128000Y-3170000D01*
X12382000Y-3170000D02*
X12432000Y-3120000D01*
X12382000Y-3070000D01*
X12332000Y-3120000D01*
X12382000Y-3170000D01*
D16*
X5315000Y-3369553D02*
X5425000Y-3479553D01*
X5425000Y-3369553D02*
X5315000Y-3479553D01*
X5425000Y-3424553D02*
G75*
G03*
X5425000Y-3424553I-55000J0D01*
G01*
X5315000Y-4019553D02*
X5425000Y-4129553D01*
X5425000Y-4019553D02*
X5315000Y-4129553D01*
X5425000Y-4074553D02*
G75*
G03*
X5425000Y-4074553I-55000J0D01*
G01*
X5765000Y-3369553D02*
X5875000Y-3479553D01*
X5875000Y-3369553D02*
X5765000Y-3479553D01*
X5875000Y-3424553D02*
G75*
G03*
X5875000Y-3424553I-55000J0D01*
G01*
X5765000Y-4019553D02*
X5875000Y-4129553D01*
X5875000Y-4019553D02*
X5765000Y-4129553D01*
X5875000Y-4074553D02*
G75*
G03*
X5875000Y-4074553I-55000J0D01*
G01*
X6185000Y-3370000D02*
X6295000Y-3480000D01*
X6295000Y-3370000D02*
X6185000Y-3480000D01*
X6295000Y-3425000D02*
G75*
G03*
X6295000Y-3425000I-55000J0D01*
G01*
X6185000Y-4020000D02*
X6295000Y-4130000D01*
X6295000Y-4020000D02*
X6185000Y-4130000D01*
X6295000Y-4075000D02*
G75*
G03*
X6295000Y-4075000I-55000J0D01*
G01*
X6635000Y-3370000D02*
X6745000Y-3480000D01*
X6745000Y-3370000D02*
X6635000Y-3480000D01*
X6745000Y-3425000D02*
G75*
G03*
X6745000Y-3425000I-55000J0D01*
G01*
X6635000Y-4020000D02*
X6745000Y-4130000D01*
X6745000Y-4020000D02*
X6635000Y-4130000D01*
X6745000Y-4075000D02*
G75*
G03*
X6745000Y-4075000I-55000J0D01*
G01*
X7060000Y-3370000D02*
X7170000Y-3480000D01*
X7170000Y-3370000D02*
X7060000Y-3480000D01*
X7170000Y-3425000D02*
G75*
G03*
X7170000Y-3425000I-55000J0D01*
G01*
X7060000Y-4020000D02*
X7170000Y-4130000D01*
X7170000Y-4020000D02*
X7060000Y-4130000D01*
X7170000Y-4075000D02*
G75*
G03*
X7170000Y-4075000I-55000J0D01*
G01*
X7510000Y-3370000D02*
X7620000Y-3480000D01*
X7620000Y-3370000D02*
X7510000Y-3480000D01*
X7620000Y-3425000D02*
G75*
G03*
X7620000Y-3425000I-55000J0D01*
G01*
X7510000Y-4020000D02*
X7620000Y-4130000D01*
X7620000Y-4020000D02*
X7510000Y-4130000D01*
X7620000Y-4075000D02*
G75*
G03*
X7620000Y-4075000I-55000J0D01*
G01*
X8050000Y-3370000D02*
X8160000Y-3480000D01*
X8160000Y-3370000D02*
X8050000Y-3480000D01*
X8160000Y-3425000D02*
G75*
G03*
X8160000Y-3425000I-55000J0D01*
G01*
X8050000Y-4020000D02*
X8160000Y-4130000D01*
X8160000Y-4020000D02*
X8050000Y-4130000D01*
X8160000Y-4075000D02*
G75*
G03*
X8160000Y-4075000I-55000J0D01*
G01*
X8500000Y-3370000D02*
X8610000Y-3480000D01*
X8610000Y-3370000D02*
X8500000Y-3480000D01*
X8610000Y-3425000D02*
G75*
G03*
X8610000Y-3425000I-55000J0D01*
G01*
X8500000Y-4020000D02*
X8610000Y-4130000D01*
X8610000Y-4020000D02*
X8500000Y-4130000D01*
X8610000Y-4075000D02*
G75*
G03*
X8610000Y-4075000I-55000J0D01*
G01*
X8920000Y-3370000D02*
X9030000Y-3480000D01*
X9030000Y-3370000D02*
X8920000Y-3480000D01*
X9030000Y-3425000D02*
G75*
G03*
X9030000Y-3425000I-55000J0D01*
G01*
X8920000Y-4020000D02*
X9030000Y-4130000D01*
X9030000Y-4020000D02*
X8920000Y-4130000D01*
X9030000Y-4075000D02*
G75*
G03*
X9030000Y-4075000I-55000J0D01*
G01*
X9370000Y-3370000D02*
X9480000Y-3480000D01*
X9480000Y-3370000D02*
X9370000Y-3480000D01*
X9480000Y-3425000D02*
G75*
G03*
X9480000Y-3425000I-55000J0D01*
G01*
X9370000Y-4020000D02*
X9480000Y-4130000D01*
X9480000Y-4020000D02*
X9370000Y-4130000D01*
X9480000Y-4075000D02*
G75*
G03*
X9480000Y-4075000I-55000J0D01*
G01*
X9790000Y-3370000D02*
X9900000Y-3480000D01*
X9900000Y-3370000D02*
X9790000Y-3480000D01*
X9900000Y-3425000D02*
G75*
G03*
X9900000Y-3425000I-55000J0D01*
G01*
X9790000Y-4020000D02*
X9900000Y-4130000D01*
X9900000Y-4020000D02*
X9790000Y-4130000D01*
X9900000Y-4075000D02*
G75*
G03*
X9900000Y-4075000I-55000J0D01*
G01*
X10240000Y-3370000D02*
X10350000Y-3480000D01*
X10350000Y-3370000D02*
X10240000Y-3480000D01*
X10350000Y-3425000D02*
G75*
G03*
X10350000Y-3425000I-55000J0D01*
G01*
X10240000Y-4020000D02*
X10350000Y-4130000D01*
X10350000Y-4020000D02*
X10240000Y-4130000D01*
X10350000Y-4075000D02*
G75*
G03*
X10350000Y-4075000I-55000J0D01*
G01*
D17*
X5049553Y-6596053D02*
X5176553Y-6723053D01*
X5176553Y-6596053D02*
X5049553Y-6723053D01*
X5113053Y-6596053D02*
X5113053Y-6723053D01*
X5049553Y-6659553D02*
X5176553Y-6659553D01*
X5549553Y-6806053D02*
X5676553Y-6933053D01*
X5676553Y-6806053D02*
X5549553Y-6933053D01*
X5613053Y-6806053D02*
X5613053Y-6933053D01*
X5549553Y-6869553D02*
X5676553Y-6869553D01*
X7959053Y-6608053D02*
X8086053Y-6735053D01*
X8086053Y-6608053D02*
X7959053Y-6735053D01*
X8022553Y-6608053D02*
X8022553Y-6735053D01*
X7959053Y-6671553D02*
X8086053Y-6671553D01*
X8459053Y-6818053D02*
X8586053Y-6945053D01*
X8586053Y-6818053D02*
X8459053Y-6945053D01*
X8522553Y-6818053D02*
X8522553Y-6945053D01*
X8459053Y-6881553D02*
X8586053Y-6881553D01*
X10619053Y-7743053D02*
X10746053Y-7870053D01*
X10746053Y-7743053D02*
X10619053Y-7870053D01*
X10682553Y-7743053D02*
X10682553Y-7870053D01*
X10619053Y-7806553D02*
X10746053Y-7806553D01*
X11119053Y-7953053D02*
X11246053Y-8080053D01*
X11246053Y-7953053D02*
X11119053Y-8080053D01*
X11182553Y-7953053D02*
X11182553Y-8080053D01*
X11119053Y-8016553D02*
X11246053Y-8016553D01*
X12369053Y-13053053D02*
X12496053Y-13180053D01*
X12496053Y-13053053D02*
X12369053Y-13180053D01*
X12432553Y-13053053D02*
X12432553Y-13180053D01*
X12369053Y-13116553D02*
X12496053Y-13116553D01*
X12869053Y-13263053D02*
X12996053Y-13390053D01*
X12996053Y-13263053D02*
X12869053Y-13390053D01*
X12932553Y-13263053D02*
X12932553Y-13390053D01*
X12869053Y-13326553D02*
X12996053Y-13326553D01*
X13552053Y-9706053D02*
X13679053Y-9833053D01*
X13679053Y-9706053D02*
X13552053Y-9833053D01*
X13615553Y-9706053D02*
X13615553Y-9833053D01*
X13552053Y-9769553D02*
X13679053Y-9769553D01*
X14052053Y-9916053D02*
X14179053Y-10043053D01*
X14179053Y-9916053D02*
X14052053Y-10043053D01*
X14115553Y-9916053D02*
X14115553Y-10043053D01*
X14052053Y-9979553D02*
X14179053Y-9979553D01*
X14113053Y-6602053D02*
X14240053Y-6729053D01*
X14240053Y-6602053D02*
X14113053Y-6729053D01*
X14176553Y-6602053D02*
X14176553Y-6729053D01*
X14113053Y-6665553D02*
X14240053Y-6665553D01*
X14613053Y-6812053D02*
X14740053Y-6939053D01*
X14740053Y-6812053D02*
X14613053Y-6939053D01*
X14676553Y-6812053D02*
X14676553Y-6939053D01*
X14613053Y-6875553D02*
X14740053Y-6875553D01*
X16213053Y-8595053D02*
X16340053Y-8722053D01*
X16340053Y-8595053D02*
X16213053Y-8722053D01*
X16276553Y-8595053D02*
X16276553Y-8722053D01*
X16213053Y-8658553D02*
X16340053Y-8658553D01*
X16713053Y-8805053D02*
X16840053Y-8932053D01*
X16840053Y-8805053D02*
X16713053Y-8932053D01*
X16776553Y-8805053D02*
X16776553Y-8932053D01*
X16713053Y-8868553D02*
X16840053Y-8868553D01*
X16769053Y-5449053D02*
X16896053Y-5576053D01*
X16896053Y-5449053D02*
X16769053Y-5576053D01*
X16832553Y-5449053D02*
X16832553Y-5576053D01*
X16769053Y-5512553D02*
X16896053Y-5512553D01*
X17269053Y-5659053D02*
X17396053Y-5786053D01*
X17396053Y-5659053D02*
X17269053Y-5786053D01*
X17332553Y-5659053D02*
X17332553Y-5786053D01*
X17269053Y-5722553D02*
X17396053Y-5722553D01*
X19098053Y-8595053D02*
X19225053Y-8722053D01*
X19225053Y-8595053D02*
X19098053Y-8722053D01*
X19161553Y-8595053D02*
X19161553Y-8722053D01*
X19098053Y-8658553D02*
X19225053Y-8658553D01*
X19598053Y-8805053D02*
X19725053Y-8932053D01*
X19725053Y-8805053D02*
X19598053Y-8932053D01*
X19661553Y-8805053D02*
X19661553Y-8932053D01*
X19598053Y-8868553D02*
X19725053Y-8868553D01*
X19666053Y-5437053D02*
X19793053Y-5564053D01*
X19793053Y-5437053D02*
X19666053Y-5564053D01*
X19729553Y-5437053D02*
X19729553Y-5564053D01*
X19666053Y-5500553D02*
X19793053Y-5500553D01*
X20166053Y-5647053D02*
X20293053Y-5774053D01*
X20293053Y-5647053D02*
X20166053Y-5774053D01*
X20229553Y-5647053D02*
X20229553Y-5774053D01*
X20166053Y-5710553D02*
X20293053Y-5710553D01*
X22019053Y-8595053D02*
X22146053Y-8722053D01*
X22146053Y-8595053D02*
X22019053Y-8722053D01*
X22082553Y-8595053D02*
X22082553Y-8722053D01*
X22019053Y-8658553D02*
X22146053Y-8658553D01*
X22519053Y-8805053D02*
X22646053Y-8932053D01*
X22646053Y-8805053D02*
X22519053Y-8932053D01*
X22582553Y-8805053D02*
X22582553Y-8932053D01*
X22519053Y-8868553D02*
X22646053Y-8868553D01*
X22563053Y-5461053D02*
X22690053Y-5588053D01*
X22690053Y-5461053D02*
X22563053Y-5588053D01*
X22626553Y-5461053D02*
X22626553Y-5588053D01*
X22563053Y-5524553D02*
X22690053Y-5524553D01*
X23063053Y-5671053D02*
X23190053Y-5798053D01*
X23190053Y-5671053D02*
X23063053Y-5798053D01*
X23126553Y-5671053D02*
X23126553Y-5798053D01*
X23063053Y-5734553D02*
X23190053Y-5734553D01*
D11*
X4048830Y-15088537D02*
X4048830Y-14888537D01*
X4048830Y-14888537D02*
X4096449Y-14888537D01*
X4096449Y-14888537D02*
X4125021Y-14898061D01*
X4125021Y-14898061D02*
X4144068Y-14917109D01*
X4144068Y-14917109D02*
X4153592Y-14936156D01*
X4153592Y-14936156D02*
X4163116Y-14974251D01*
X4163116Y-14974251D02*
X4163116Y-15002823D01*
X4163116Y-15002823D02*
X4153592Y-15040918D01*
X4153592Y-15040918D02*
X4144068Y-15059966D01*
X4144068Y-15059966D02*
X4125021Y-15079013D01*
X4125021Y-15079013D02*
X4096449Y-15088537D01*
X4096449Y-15088537D02*
X4048830Y-15088537D01*
X4248830Y-15088537D02*
X4248830Y-14955204D01*
X4248830Y-14993299D02*
X4258354Y-14974251D01*
X4258354Y-14974251D02*
X4267878Y-14964728D01*
X4267878Y-14964728D02*
X4286925Y-14955204D01*
X4286925Y-14955204D02*
X4305973Y-14955204D01*
X4372640Y-15088537D02*
X4372640Y-14955204D01*
X4372640Y-14888537D02*
X4363116Y-14898061D01*
X4363116Y-14898061D02*
X4372640Y-14907585D01*
X4372640Y-14907585D02*
X4382164Y-14898061D01*
X4382164Y-14898061D02*
X4372640Y-14888537D01*
X4372640Y-14888537D02*
X4372640Y-14907585D01*
X4496449Y-15088537D02*
X4477402Y-15079013D01*
X4477402Y-15079013D02*
X4467878Y-15059966D01*
X4467878Y-15059966D02*
X4467878Y-14888537D01*
X4601211Y-15088537D02*
X4582164Y-15079013D01*
X4582164Y-15079013D02*
X4572640Y-15059966D01*
X4572640Y-15059966D02*
X4572640Y-14888537D01*
X4829783Y-15088537D02*
X4829783Y-14888537D01*
X4829783Y-14888537D02*
X4896449Y-15031394D01*
X4896449Y-15031394D02*
X4963116Y-14888537D01*
X4963116Y-14888537D02*
X4963116Y-15088537D01*
X5144068Y-15088537D02*
X5144068Y-14983775D01*
X5144068Y-14983775D02*
X5134545Y-14964728D01*
X5134545Y-14964728D02*
X5115497Y-14955204D01*
X5115497Y-14955204D02*
X5077402Y-14955204D01*
X5077402Y-14955204D02*
X5058354Y-14964728D01*
X5144068Y-15079013D02*
X5125021Y-15088537D01*
X5125021Y-15088537D02*
X5077402Y-15088537D01*
X5077402Y-15088537D02*
X5058354Y-15079013D01*
X5058354Y-15079013D02*
X5048830Y-15059966D01*
X5048830Y-15059966D02*
X5048830Y-15040918D01*
X5048830Y-15040918D02*
X5058354Y-15021870D01*
X5058354Y-15021870D02*
X5077402Y-15012347D01*
X5077402Y-15012347D02*
X5125021Y-15012347D01*
X5125021Y-15012347D02*
X5144068Y-15002823D01*
X5239306Y-14955204D02*
X5239306Y-15155204D01*
X5239306Y-14964728D02*
X5258354Y-14955204D01*
X5258354Y-14955204D02*
X5296449Y-14955204D01*
X5296449Y-14955204D02*
X5315497Y-14964728D01*
X5315497Y-14964728D02*
X5325021Y-14974251D01*
X5325021Y-14974251D02*
X5334545Y-14993299D01*
X5334545Y-14993299D02*
X5334545Y-15050442D01*
X5334545Y-15050442D02*
X5325021Y-15069489D01*
X5325021Y-15069489D02*
X5315497Y-15079013D01*
X5315497Y-15079013D02*
X5296449Y-15088537D01*
X5296449Y-15088537D02*
X5258354Y-15088537D01*
X5258354Y-15088537D02*
X5239306Y-15079013D01*
X5420259Y-15069489D02*
X5429783Y-15079013D01*
X5429783Y-15079013D02*
X5420259Y-15088537D01*
X5420259Y-15088537D02*
X5410735Y-15079013D01*
X5410735Y-15079013D02*
X5420259Y-15069489D01*
X5420259Y-15069489D02*
X5420259Y-15088537D01*
X5420259Y-14964728D02*
X5429783Y-14974251D01*
X5429783Y-14974251D02*
X5420259Y-14983775D01*
X5420259Y-14983775D02*
X5410735Y-14974251D01*
X5410735Y-14974251D02*
X5420259Y-14964728D01*
X5420259Y-14964728D02*
X5420259Y-14983775D01*
D12*
X3753053Y-15399553D02*
X3788053Y-15434553D01*
X3788053Y-15399553D02*
X3753053Y-15434553D01*
D11*
X4086925Y-15308537D02*
X4105973Y-15308537D01*
X4105973Y-15308537D02*
X4125021Y-15318061D01*
X4125021Y-15318061D02*
X4134544Y-15327585D01*
X4134544Y-15327585D02*
X4144068Y-15346632D01*
X4144068Y-15346632D02*
X4153592Y-15384728D01*
X4153592Y-15384728D02*
X4153592Y-15432347D01*
X4153592Y-15432347D02*
X4144068Y-15470442D01*
X4144068Y-15470442D02*
X4134544Y-15489489D01*
X4134544Y-15489489D02*
X4125021Y-15499013D01*
X4125021Y-15499013D02*
X4105973Y-15508537D01*
X4105973Y-15508537D02*
X4086925Y-15508537D01*
X4086925Y-15508537D02*
X4067878Y-15499013D01*
X4067878Y-15499013D02*
X4058354Y-15489489D01*
X4058354Y-15489489D02*
X4048830Y-15470442D01*
X4048830Y-15470442D02*
X4039306Y-15432347D01*
X4039306Y-15432347D02*
X4039306Y-15384728D01*
X4039306Y-15384728D02*
X4048830Y-15346632D01*
X4048830Y-15346632D02*
X4058354Y-15327585D01*
X4058354Y-15327585D02*
X4067878Y-15318061D01*
X4067878Y-15318061D02*
X4086925Y-15308537D01*
X4239306Y-15489489D02*
X4248830Y-15499013D01*
X4248830Y-15499013D02*
X4239306Y-15508537D01*
X4239306Y-15508537D02*
X4229783Y-15499013D01*
X4229783Y-15499013D02*
X4239306Y-15489489D01*
X4239306Y-15489489D02*
X4239306Y-15508537D01*
X4315497Y-15308537D02*
X4439306Y-15308537D01*
X4439306Y-15308537D02*
X4372640Y-15384728D01*
X4372640Y-15384728D02*
X4401211Y-15384728D01*
X4401211Y-15384728D02*
X4420259Y-15394251D01*
X4420259Y-15394251D02*
X4429783Y-15403775D01*
X4429783Y-15403775D02*
X4439306Y-15422823D01*
X4439306Y-15422823D02*
X4439306Y-15470442D01*
X4439306Y-15470442D02*
X4429783Y-15489489D01*
X4429783Y-15489489D02*
X4420259Y-15499013D01*
X4420259Y-15499013D02*
X4401211Y-15508537D01*
X4401211Y-15508537D02*
X4344068Y-15508537D01*
X4344068Y-15508537D02*
X4325021Y-15499013D01*
X4325021Y-15499013D02*
X4315497Y-15489489D01*
X4620259Y-15308537D02*
X4525021Y-15308537D01*
X4525021Y-15308537D02*
X4515497Y-15403775D01*
X4515497Y-15403775D02*
X4525021Y-15394251D01*
X4525021Y-15394251D02*
X4544068Y-15384728D01*
X4544068Y-15384728D02*
X4591687Y-15384728D01*
X4591687Y-15384728D02*
X4610735Y-15394251D01*
X4610735Y-15394251D02*
X4620259Y-15403775D01*
X4620259Y-15403775D02*
X4629783Y-15422823D01*
X4629783Y-15422823D02*
X4629783Y-15470442D01*
X4629783Y-15470442D02*
X4620259Y-15489489D01*
X4620259Y-15489489D02*
X4610735Y-15499013D01*
X4610735Y-15499013D02*
X4591687Y-15508537D01*
X4591687Y-15508537D02*
X4544068Y-15508537D01*
X4544068Y-15508537D02*
X4525021Y-15499013D01*
X4525021Y-15499013D02*
X4515497Y-15489489D01*
X4753592Y-15308537D02*
X4772640Y-15308537D01*
X4772640Y-15308537D02*
X4791687Y-15318061D01*
X4791687Y-15318061D02*
X4801211Y-15327585D01*
X4801211Y-15327585D02*
X4810735Y-15346632D01*
X4810735Y-15346632D02*
X4820259Y-15384728D01*
X4820259Y-15384728D02*
X4820259Y-15432347D01*
X4820259Y-15432347D02*
X4810735Y-15470442D01*
X4810735Y-15470442D02*
X4801211Y-15489489D01*
X4801211Y-15489489D02*
X4791687Y-15499013D01*
X4791687Y-15499013D02*
X4772640Y-15508537D01*
X4772640Y-15508537D02*
X4753592Y-15508537D01*
X4753592Y-15508537D02*
X4734545Y-15499013D01*
X4734545Y-15499013D02*
X4725021Y-15489489D01*
X4725021Y-15489489D02*
X4715497Y-15470442D01*
X4715497Y-15470442D02*
X4705973Y-15432347D01*
X4705973Y-15432347D02*
X4705973Y-15384728D01*
X4705973Y-15384728D02*
X4715497Y-15346632D01*
X4715497Y-15346632D02*
X4725021Y-15327585D01*
X4725021Y-15327585D02*
X4734545Y-15318061D01*
X4734545Y-15318061D02*
X4753592Y-15308537D01*
X4905973Y-15508537D02*
X4905973Y-15375204D01*
X4905973Y-15394251D02*
X4915497Y-15384728D01*
X4915497Y-15384728D02*
X4934545Y-15375204D01*
X4934545Y-15375204D02*
X4963116Y-15375204D01*
X4963116Y-15375204D02*
X4982164Y-15384728D01*
X4982164Y-15384728D02*
X4991687Y-15403775D01*
X4991687Y-15403775D02*
X4991687Y-15508537D01*
X4991687Y-15403775D02*
X5001211Y-15384728D01*
X5001211Y-15384728D02*
X5020259Y-15375204D01*
X5020259Y-15375204D02*
X5048830Y-15375204D01*
X5048830Y-15375204D02*
X5067878Y-15384728D01*
X5067878Y-15384728D02*
X5077402Y-15403775D01*
X5077402Y-15403775D02*
X5077402Y-15508537D01*
X5172640Y-15508537D02*
X5172640Y-15375204D01*
X5172640Y-15394251D02*
X5182164Y-15384728D01*
X5182164Y-15384728D02*
X5201211Y-15375204D01*
X5201211Y-15375204D02*
X5229783Y-15375204D01*
X5229783Y-15375204D02*
X5248830Y-15384728D01*
X5248830Y-15384728D02*
X5258354Y-15403775D01*
X5258354Y-15403775D02*
X5258354Y-15508537D01*
X5258354Y-15403775D02*
X5267878Y-15384728D01*
X5267878Y-15384728D02*
X5286926Y-15375204D01*
X5286926Y-15375204D02*
X5315497Y-15375204D01*
X5315497Y-15375204D02*
X5334545Y-15384728D01*
X5334545Y-15384728D02*
X5344068Y-15403775D01*
X5344068Y-15403775D02*
X5344068Y-15508537D01*
X5734545Y-15299013D02*
X5563116Y-15556156D01*
X5991687Y-15308537D02*
X6010735Y-15308537D01*
X6010735Y-15308537D02*
X6029783Y-15318061D01*
X6029783Y-15318061D02*
X6039307Y-15327585D01*
X6039307Y-15327585D02*
X6048830Y-15346632D01*
X6048830Y-15346632D02*
X6058354Y-15384728D01*
X6058354Y-15384728D02*
X6058354Y-15432347D01*
X6058354Y-15432347D02*
X6048830Y-15470442D01*
X6048830Y-15470442D02*
X6039307Y-15489489D01*
X6039307Y-15489489D02*
X6029783Y-15499013D01*
X6029783Y-15499013D02*
X6010735Y-15508537D01*
X6010735Y-15508537D02*
X5991687Y-15508537D01*
X5991687Y-15508537D02*
X5972640Y-15499013D01*
X5972640Y-15499013D02*
X5963116Y-15489489D01*
X5963116Y-15489489D02*
X5953592Y-15470442D01*
X5953592Y-15470442D02*
X5944068Y-15432347D01*
X5944068Y-15432347D02*
X5944068Y-15384728D01*
X5944068Y-15384728D02*
X5953592Y-15346632D01*
X5953592Y-15346632D02*
X5963116Y-15327585D01*
X5963116Y-15327585D02*
X5972640Y-15318061D01*
X5972640Y-15318061D02*
X5991687Y-15308537D01*
X6144068Y-15489489D02*
X6153592Y-15499013D01*
X6153592Y-15499013D02*
X6144068Y-15508537D01*
X6144068Y-15508537D02*
X6134545Y-15499013D01*
X6134545Y-15499013D02*
X6144068Y-15489489D01*
X6144068Y-15489489D02*
X6144068Y-15508537D01*
X6277402Y-15308537D02*
X6296449Y-15308537D01*
X6296449Y-15308537D02*
X6315497Y-15318061D01*
X6315497Y-15318061D02*
X6325021Y-15327585D01*
X6325021Y-15327585D02*
X6334545Y-15346632D01*
X6334545Y-15346632D02*
X6344068Y-15384728D01*
X6344068Y-15384728D02*
X6344068Y-15432347D01*
X6344068Y-15432347D02*
X6334545Y-15470442D01*
X6334545Y-15470442D02*
X6325021Y-15489489D01*
X6325021Y-15489489D02*
X6315497Y-15499013D01*
X6315497Y-15499013D02*
X6296449Y-15508537D01*
X6296449Y-15508537D02*
X6277402Y-15508537D01*
X6277402Y-15508537D02*
X6258354Y-15499013D01*
X6258354Y-15499013D02*
X6248830Y-15489489D01*
X6248830Y-15489489D02*
X6239307Y-15470442D01*
X6239307Y-15470442D02*
X6229783Y-15432347D01*
X6229783Y-15432347D02*
X6229783Y-15384728D01*
X6229783Y-15384728D02*
X6239307Y-15346632D01*
X6239307Y-15346632D02*
X6248830Y-15327585D01*
X6248830Y-15327585D02*
X6258354Y-15318061D01*
X6258354Y-15318061D02*
X6277402Y-15308537D01*
X6534545Y-15508537D02*
X6420259Y-15508537D01*
X6477402Y-15508537D02*
X6477402Y-15308537D01*
X6477402Y-15308537D02*
X6458354Y-15337109D01*
X6458354Y-15337109D02*
X6439307Y-15356156D01*
X6439307Y-15356156D02*
X6420259Y-15365680D01*
X6601211Y-15308537D02*
X6725021Y-15308537D01*
X6725021Y-15308537D02*
X6658354Y-15384728D01*
X6658354Y-15384728D02*
X6686926Y-15384728D01*
X6686926Y-15384728D02*
X6705973Y-15394251D01*
X6705973Y-15394251D02*
X6715497Y-15403775D01*
X6715497Y-15403775D02*
X6725021Y-15422823D01*
X6725021Y-15422823D02*
X6725021Y-15470442D01*
X6725021Y-15470442D02*
X6715497Y-15489489D01*
X6715497Y-15489489D02*
X6705973Y-15499013D01*
X6705973Y-15499013D02*
X6686926Y-15508537D01*
X6686926Y-15508537D02*
X6629783Y-15508537D01*
X6629783Y-15508537D02*
X6610735Y-15499013D01*
X6610735Y-15499013D02*
X6601211Y-15489489D01*
X6839307Y-15394251D02*
X6820259Y-15384728D01*
X6820259Y-15384728D02*
X6810735Y-15375204D01*
X6810735Y-15375204D02*
X6801211Y-15356156D01*
X6801211Y-15356156D02*
X6801211Y-15346632D01*
X6801211Y-15346632D02*
X6810735Y-15327585D01*
X6810735Y-15327585D02*
X6820259Y-15318061D01*
X6820259Y-15318061D02*
X6839307Y-15308537D01*
X6839307Y-15308537D02*
X6877402Y-15308537D01*
X6877402Y-15308537D02*
X6896449Y-15318061D01*
X6896449Y-15318061D02*
X6905973Y-15327585D01*
X6905973Y-15327585D02*
X6915497Y-15346632D01*
X6915497Y-15346632D02*
X6915497Y-15356156D01*
X6915497Y-15356156D02*
X6905973Y-15375204D01*
X6905973Y-15375204D02*
X6896449Y-15384728D01*
X6896449Y-15384728D02*
X6877402Y-15394251D01*
X6877402Y-15394251D02*
X6839307Y-15394251D01*
X6839307Y-15394251D02*
X6820259Y-15403775D01*
X6820259Y-15403775D02*
X6810735Y-15413299D01*
X6810735Y-15413299D02*
X6801211Y-15432347D01*
X6801211Y-15432347D02*
X6801211Y-15470442D01*
X6801211Y-15470442D02*
X6810735Y-15489489D01*
X6810735Y-15489489D02*
X6820259Y-15499013D01*
X6820259Y-15499013D02*
X6839307Y-15508537D01*
X6839307Y-15508537D02*
X6877402Y-15508537D01*
X6877402Y-15508537D02*
X6896449Y-15499013D01*
X6896449Y-15499013D02*
X6905973Y-15489489D01*
X6905973Y-15489489D02*
X6915497Y-15470442D01*
X6915497Y-15470442D02*
X6915497Y-15432347D01*
X6915497Y-15432347D02*
X6905973Y-15413299D01*
X6905973Y-15413299D02*
X6896449Y-15403775D01*
X6896449Y-15403775D02*
X6877402Y-15394251D01*
X6991688Y-15308537D02*
X6991688Y-15346632D01*
X7067878Y-15308537D02*
X7067878Y-15346632D01*
X7363116Y-15584728D02*
X7353592Y-15575204D01*
X7353592Y-15575204D02*
X7334545Y-15546632D01*
X7334545Y-15546632D02*
X7325021Y-15527585D01*
X7325021Y-15527585D02*
X7315497Y-15499013D01*
X7315497Y-15499013D02*
X7305973Y-15451394D01*
X7305973Y-15451394D02*
X7305973Y-15413299D01*
X7305973Y-15413299D02*
X7315497Y-15365680D01*
X7315497Y-15365680D02*
X7325021Y-15337109D01*
X7325021Y-15337109D02*
X7334545Y-15318061D01*
X7334545Y-15318061D02*
X7353592Y-15289489D01*
X7353592Y-15289489D02*
X7363116Y-15279966D01*
X7544069Y-15508537D02*
X7429783Y-15508537D01*
X7486926Y-15508537D02*
X7486926Y-15308537D01*
X7486926Y-15308537D02*
X7467878Y-15337109D01*
X7467878Y-15337109D02*
X7448830Y-15356156D01*
X7448830Y-15356156D02*
X7429783Y-15365680D01*
X7620259Y-15327585D02*
X7629783Y-15318061D01*
X7629783Y-15318061D02*
X7648830Y-15308537D01*
X7648830Y-15308537D02*
X7696450Y-15308537D01*
X7696450Y-15308537D02*
X7715497Y-15318061D01*
X7715497Y-15318061D02*
X7725021Y-15327585D01*
X7725021Y-15327585D02*
X7734545Y-15346632D01*
X7734545Y-15346632D02*
X7734545Y-15365680D01*
X7734545Y-15365680D02*
X7725021Y-15394251D01*
X7725021Y-15394251D02*
X7610735Y-15508537D01*
X7610735Y-15508537D02*
X7734545Y-15508537D01*
X7915497Y-15308537D02*
X7820259Y-15308537D01*
X7820259Y-15308537D02*
X7810735Y-15403775D01*
X7810735Y-15403775D02*
X7820259Y-15394251D01*
X7820259Y-15394251D02*
X7839307Y-15384728D01*
X7839307Y-15384728D02*
X7886926Y-15384728D01*
X7886926Y-15384728D02*
X7905973Y-15394251D01*
X7905973Y-15394251D02*
X7915497Y-15403775D01*
X7915497Y-15403775D02*
X7925021Y-15422823D01*
X7925021Y-15422823D02*
X7925021Y-15470442D01*
X7925021Y-15470442D02*
X7915497Y-15489489D01*
X7915497Y-15489489D02*
X7905973Y-15499013D01*
X7905973Y-15499013D02*
X7886926Y-15508537D01*
X7886926Y-15508537D02*
X7839307Y-15508537D01*
X7839307Y-15508537D02*
X7820259Y-15499013D01*
X7820259Y-15499013D02*
X7810735Y-15489489D01*
X8163116Y-15508537D02*
X8163116Y-15308537D01*
X8248831Y-15508537D02*
X8248831Y-15403775D01*
X8248831Y-15403775D02*
X8239307Y-15384728D01*
X8239307Y-15384728D02*
X8220259Y-15375204D01*
X8220259Y-15375204D02*
X8191688Y-15375204D01*
X8191688Y-15375204D02*
X8172640Y-15384728D01*
X8172640Y-15384728D02*
X8163116Y-15394251D01*
X8372640Y-15508537D02*
X8353592Y-15499013D01*
X8353592Y-15499013D02*
X8344069Y-15489489D01*
X8344069Y-15489489D02*
X8334545Y-15470442D01*
X8334545Y-15470442D02*
X8334545Y-15413299D01*
X8334545Y-15413299D02*
X8344069Y-15394251D01*
X8344069Y-15394251D02*
X8353592Y-15384728D01*
X8353592Y-15384728D02*
X8372640Y-15375204D01*
X8372640Y-15375204D02*
X8401212Y-15375204D01*
X8401212Y-15375204D02*
X8420259Y-15384728D01*
X8420259Y-15384728D02*
X8429783Y-15394251D01*
X8429783Y-15394251D02*
X8439307Y-15413299D01*
X8439307Y-15413299D02*
X8439307Y-15470442D01*
X8439307Y-15470442D02*
X8429783Y-15489489D01*
X8429783Y-15489489D02*
X8420259Y-15499013D01*
X8420259Y-15499013D02*
X8401212Y-15508537D01*
X8401212Y-15508537D02*
X8372640Y-15508537D01*
X8553593Y-15508537D02*
X8534545Y-15499013D01*
X8534545Y-15499013D02*
X8525021Y-15479966D01*
X8525021Y-15479966D02*
X8525021Y-15308537D01*
X8705974Y-15499013D02*
X8686926Y-15508537D01*
X8686926Y-15508537D02*
X8648831Y-15508537D01*
X8648831Y-15508537D02*
X8629783Y-15499013D01*
X8629783Y-15499013D02*
X8620259Y-15479966D01*
X8620259Y-15479966D02*
X8620259Y-15403775D01*
X8620259Y-15403775D02*
X8629783Y-15384728D01*
X8629783Y-15384728D02*
X8648831Y-15375204D01*
X8648831Y-15375204D02*
X8686926Y-15375204D01*
X8686926Y-15375204D02*
X8705974Y-15384728D01*
X8705974Y-15384728D02*
X8715497Y-15403775D01*
X8715497Y-15403775D02*
X8715497Y-15422823D01*
X8715497Y-15422823D02*
X8620259Y-15441870D01*
X8791688Y-15499013D02*
X8810735Y-15508537D01*
X8810735Y-15508537D02*
X8848831Y-15508537D01*
X8848831Y-15508537D02*
X8867878Y-15499013D01*
X8867878Y-15499013D02*
X8877402Y-15479966D01*
X8877402Y-15479966D02*
X8877402Y-15470442D01*
X8877402Y-15470442D02*
X8867878Y-15451394D01*
X8867878Y-15451394D02*
X8848831Y-15441870D01*
X8848831Y-15441870D02*
X8820259Y-15441870D01*
X8820259Y-15441870D02*
X8801212Y-15432347D01*
X8801212Y-15432347D02*
X8791688Y-15413299D01*
X8791688Y-15413299D02*
X8791688Y-15403775D01*
X8791688Y-15403775D02*
X8801212Y-15384728D01*
X8801212Y-15384728D02*
X8820259Y-15375204D01*
X8820259Y-15375204D02*
X8848831Y-15375204D01*
X8848831Y-15375204D02*
X8867878Y-15384728D01*
X8944069Y-15584728D02*
X8953593Y-15575204D01*
X8953593Y-15575204D02*
X8972640Y-15546632D01*
X8972640Y-15546632D02*
X8982164Y-15527585D01*
X8982164Y-15527585D02*
X8991688Y-15499013D01*
X8991688Y-15499013D02*
X9001212Y-15451394D01*
X9001212Y-15451394D02*
X9001212Y-15413299D01*
X9001212Y-15413299D02*
X8991688Y-15365680D01*
X8991688Y-15365680D02*
X8982164Y-15337109D01*
X8982164Y-15337109D02*
X8972640Y-15318061D01*
X8972640Y-15318061D02*
X8953593Y-15289489D01*
X8953593Y-15289489D02*
X8944069Y-15279966D01*
D12*
X3788053Y-15681053D02*
G75*
G03*
X3788053Y-15681053I-17500J0D01*
G01*
D11*
X4086925Y-15572537D02*
X4105973Y-15572537D01*
X4105973Y-15572537D02*
X4125021Y-15582061D01*
X4125021Y-15582061D02*
X4134544Y-15591585D01*
X4134544Y-15591585D02*
X4144068Y-15610632D01*
X4144068Y-15610632D02*
X4153592Y-15648728D01*
X4153592Y-15648728D02*
X4153592Y-15696347D01*
X4153592Y-15696347D02*
X4144068Y-15734442D01*
X4144068Y-15734442D02*
X4134544Y-15753489D01*
X4134544Y-15753489D02*
X4125021Y-15763013D01*
X4125021Y-15763013D02*
X4105973Y-15772537D01*
X4105973Y-15772537D02*
X4086925Y-15772537D01*
X4086925Y-15772537D02*
X4067878Y-15763013D01*
X4067878Y-15763013D02*
X4058354Y-15753489D01*
X4058354Y-15753489D02*
X4048830Y-15734442D01*
X4048830Y-15734442D02*
X4039306Y-15696347D01*
X4039306Y-15696347D02*
X4039306Y-15648728D01*
X4039306Y-15648728D02*
X4048830Y-15610632D01*
X4048830Y-15610632D02*
X4058354Y-15591585D01*
X4058354Y-15591585D02*
X4067878Y-15582061D01*
X4067878Y-15582061D02*
X4086925Y-15572537D01*
X4239306Y-15753489D02*
X4248830Y-15763013D01*
X4248830Y-15763013D02*
X4239306Y-15772537D01*
X4239306Y-15772537D02*
X4229783Y-15763013D01*
X4229783Y-15763013D02*
X4239306Y-15753489D01*
X4239306Y-15753489D02*
X4239306Y-15772537D01*
X4315497Y-15572537D02*
X4439306Y-15572537D01*
X4439306Y-15572537D02*
X4372640Y-15648728D01*
X4372640Y-15648728D02*
X4401211Y-15648728D01*
X4401211Y-15648728D02*
X4420259Y-15658251D01*
X4420259Y-15658251D02*
X4429783Y-15667775D01*
X4429783Y-15667775D02*
X4439306Y-15686823D01*
X4439306Y-15686823D02*
X4439306Y-15734442D01*
X4439306Y-15734442D02*
X4429783Y-15753489D01*
X4429783Y-15753489D02*
X4420259Y-15763013D01*
X4420259Y-15763013D02*
X4401211Y-15772537D01*
X4401211Y-15772537D02*
X4344068Y-15772537D01*
X4344068Y-15772537D02*
X4325021Y-15763013D01*
X4325021Y-15763013D02*
X4315497Y-15753489D01*
X4620259Y-15572537D02*
X4525021Y-15572537D01*
X4525021Y-15572537D02*
X4515497Y-15667775D01*
X4515497Y-15667775D02*
X4525021Y-15658251D01*
X4525021Y-15658251D02*
X4544068Y-15648728D01*
X4544068Y-15648728D02*
X4591687Y-15648728D01*
X4591687Y-15648728D02*
X4610735Y-15658251D01*
X4610735Y-15658251D02*
X4620259Y-15667775D01*
X4620259Y-15667775D02*
X4629783Y-15686823D01*
X4629783Y-15686823D02*
X4629783Y-15734442D01*
X4629783Y-15734442D02*
X4620259Y-15753489D01*
X4620259Y-15753489D02*
X4610735Y-15763013D01*
X4610735Y-15763013D02*
X4591687Y-15772537D01*
X4591687Y-15772537D02*
X4544068Y-15772537D01*
X4544068Y-15772537D02*
X4525021Y-15763013D01*
X4525021Y-15763013D02*
X4515497Y-15753489D01*
X4753592Y-15572537D02*
X4772640Y-15572537D01*
X4772640Y-15572537D02*
X4791687Y-15582061D01*
X4791687Y-15582061D02*
X4801211Y-15591585D01*
X4801211Y-15591585D02*
X4810735Y-15610632D01*
X4810735Y-15610632D02*
X4820259Y-15648728D01*
X4820259Y-15648728D02*
X4820259Y-15696347D01*
X4820259Y-15696347D02*
X4810735Y-15734442D01*
X4810735Y-15734442D02*
X4801211Y-15753489D01*
X4801211Y-15753489D02*
X4791687Y-15763013D01*
X4791687Y-15763013D02*
X4772640Y-15772537D01*
X4772640Y-15772537D02*
X4753592Y-15772537D01*
X4753592Y-15772537D02*
X4734545Y-15763013D01*
X4734545Y-15763013D02*
X4725021Y-15753489D01*
X4725021Y-15753489D02*
X4715497Y-15734442D01*
X4715497Y-15734442D02*
X4705973Y-15696347D01*
X4705973Y-15696347D02*
X4705973Y-15648728D01*
X4705973Y-15648728D02*
X4715497Y-15610632D01*
X4715497Y-15610632D02*
X4725021Y-15591585D01*
X4725021Y-15591585D02*
X4734545Y-15582061D01*
X4734545Y-15582061D02*
X4753592Y-15572537D01*
X4905973Y-15772537D02*
X4905973Y-15639204D01*
X4905973Y-15658251D02*
X4915497Y-15648728D01*
X4915497Y-15648728D02*
X4934545Y-15639204D01*
X4934545Y-15639204D02*
X4963116Y-15639204D01*
X4963116Y-15639204D02*
X4982164Y-15648728D01*
X4982164Y-15648728D02*
X4991687Y-15667775D01*
X4991687Y-15667775D02*
X4991687Y-15772537D01*
X4991687Y-15667775D02*
X5001211Y-15648728D01*
X5001211Y-15648728D02*
X5020259Y-15639204D01*
X5020259Y-15639204D02*
X5048830Y-15639204D01*
X5048830Y-15639204D02*
X5067878Y-15648728D01*
X5067878Y-15648728D02*
X5077402Y-15667775D01*
X5077402Y-15667775D02*
X5077402Y-15772537D01*
X5172640Y-15772537D02*
X5172640Y-15639204D01*
X5172640Y-15658251D02*
X5182164Y-15648728D01*
X5182164Y-15648728D02*
X5201211Y-15639204D01*
X5201211Y-15639204D02*
X5229783Y-15639204D01*
X5229783Y-15639204D02*
X5248830Y-15648728D01*
X5248830Y-15648728D02*
X5258354Y-15667775D01*
X5258354Y-15667775D02*
X5258354Y-15772537D01*
X5258354Y-15667775D02*
X5267878Y-15648728D01*
X5267878Y-15648728D02*
X5286926Y-15639204D01*
X5286926Y-15639204D02*
X5315497Y-15639204D01*
X5315497Y-15639204D02*
X5334545Y-15648728D01*
X5334545Y-15648728D02*
X5344068Y-15667775D01*
X5344068Y-15667775D02*
X5344068Y-15772537D01*
X5734545Y-15563013D02*
X5563116Y-15820156D01*
X5991687Y-15572537D02*
X6010735Y-15572537D01*
X6010735Y-15572537D02*
X6029783Y-15582061D01*
X6029783Y-15582061D02*
X6039307Y-15591585D01*
X6039307Y-15591585D02*
X6048830Y-15610632D01*
X6048830Y-15610632D02*
X6058354Y-15648728D01*
X6058354Y-15648728D02*
X6058354Y-15696347D01*
X6058354Y-15696347D02*
X6048830Y-15734442D01*
X6048830Y-15734442D02*
X6039307Y-15753489D01*
X6039307Y-15753489D02*
X6029783Y-15763013D01*
X6029783Y-15763013D02*
X6010735Y-15772537D01*
X6010735Y-15772537D02*
X5991687Y-15772537D01*
X5991687Y-15772537D02*
X5972640Y-15763013D01*
X5972640Y-15763013D02*
X5963116Y-15753489D01*
X5963116Y-15753489D02*
X5953592Y-15734442D01*
X5953592Y-15734442D02*
X5944068Y-15696347D01*
X5944068Y-15696347D02*
X5944068Y-15648728D01*
X5944068Y-15648728D02*
X5953592Y-15610632D01*
X5953592Y-15610632D02*
X5963116Y-15591585D01*
X5963116Y-15591585D02*
X5972640Y-15582061D01*
X5972640Y-15582061D02*
X5991687Y-15572537D01*
X6144068Y-15753489D02*
X6153592Y-15763013D01*
X6153592Y-15763013D02*
X6144068Y-15772537D01*
X6144068Y-15772537D02*
X6134545Y-15763013D01*
X6134545Y-15763013D02*
X6144068Y-15753489D01*
X6144068Y-15753489D02*
X6144068Y-15772537D01*
X6277402Y-15572537D02*
X6296449Y-15572537D01*
X6296449Y-15572537D02*
X6315497Y-15582061D01*
X6315497Y-15582061D02*
X6325021Y-15591585D01*
X6325021Y-15591585D02*
X6334545Y-15610632D01*
X6334545Y-15610632D02*
X6344068Y-15648728D01*
X6344068Y-15648728D02*
X6344068Y-15696347D01*
X6344068Y-15696347D02*
X6334545Y-15734442D01*
X6334545Y-15734442D02*
X6325021Y-15753489D01*
X6325021Y-15753489D02*
X6315497Y-15763013D01*
X6315497Y-15763013D02*
X6296449Y-15772537D01*
X6296449Y-15772537D02*
X6277402Y-15772537D01*
X6277402Y-15772537D02*
X6258354Y-15763013D01*
X6258354Y-15763013D02*
X6248830Y-15753489D01*
X6248830Y-15753489D02*
X6239307Y-15734442D01*
X6239307Y-15734442D02*
X6229783Y-15696347D01*
X6229783Y-15696347D02*
X6229783Y-15648728D01*
X6229783Y-15648728D02*
X6239307Y-15610632D01*
X6239307Y-15610632D02*
X6248830Y-15591585D01*
X6248830Y-15591585D02*
X6258354Y-15582061D01*
X6258354Y-15582061D02*
X6277402Y-15572537D01*
X6534545Y-15772537D02*
X6420259Y-15772537D01*
X6477402Y-15772537D02*
X6477402Y-15572537D01*
X6477402Y-15572537D02*
X6458354Y-15601109D01*
X6458354Y-15601109D02*
X6439307Y-15620156D01*
X6439307Y-15620156D02*
X6420259Y-15629680D01*
X6601211Y-15572537D02*
X6725021Y-15572537D01*
X6725021Y-15572537D02*
X6658354Y-15648728D01*
X6658354Y-15648728D02*
X6686926Y-15648728D01*
X6686926Y-15648728D02*
X6705973Y-15658251D01*
X6705973Y-15658251D02*
X6715497Y-15667775D01*
X6715497Y-15667775D02*
X6725021Y-15686823D01*
X6725021Y-15686823D02*
X6725021Y-15734442D01*
X6725021Y-15734442D02*
X6715497Y-15753489D01*
X6715497Y-15753489D02*
X6705973Y-15763013D01*
X6705973Y-15763013D02*
X6686926Y-15772537D01*
X6686926Y-15772537D02*
X6629783Y-15772537D01*
X6629783Y-15772537D02*
X6610735Y-15763013D01*
X6610735Y-15763013D02*
X6601211Y-15753489D01*
X6839307Y-15658251D02*
X6820259Y-15648728D01*
X6820259Y-15648728D02*
X6810735Y-15639204D01*
X6810735Y-15639204D02*
X6801211Y-15620156D01*
X6801211Y-15620156D02*
X6801211Y-15610632D01*
X6801211Y-15610632D02*
X6810735Y-15591585D01*
X6810735Y-15591585D02*
X6820259Y-15582061D01*
X6820259Y-15582061D02*
X6839307Y-15572537D01*
X6839307Y-15572537D02*
X6877402Y-15572537D01*
X6877402Y-15572537D02*
X6896449Y-15582061D01*
X6896449Y-15582061D02*
X6905973Y-15591585D01*
X6905973Y-15591585D02*
X6915497Y-15610632D01*
X6915497Y-15610632D02*
X6915497Y-15620156D01*
X6915497Y-15620156D02*
X6905973Y-15639204D01*
X6905973Y-15639204D02*
X6896449Y-15648728D01*
X6896449Y-15648728D02*
X6877402Y-15658251D01*
X6877402Y-15658251D02*
X6839307Y-15658251D01*
X6839307Y-15658251D02*
X6820259Y-15667775D01*
X6820259Y-15667775D02*
X6810735Y-15677299D01*
X6810735Y-15677299D02*
X6801211Y-15696347D01*
X6801211Y-15696347D02*
X6801211Y-15734442D01*
X6801211Y-15734442D02*
X6810735Y-15753489D01*
X6810735Y-15753489D02*
X6820259Y-15763013D01*
X6820259Y-15763013D02*
X6839307Y-15772537D01*
X6839307Y-15772537D02*
X6877402Y-15772537D01*
X6877402Y-15772537D02*
X6896449Y-15763013D01*
X6896449Y-15763013D02*
X6905973Y-15753489D01*
X6905973Y-15753489D02*
X6915497Y-15734442D01*
X6915497Y-15734442D02*
X6915497Y-15696347D01*
X6915497Y-15696347D02*
X6905973Y-15677299D01*
X6905973Y-15677299D02*
X6896449Y-15667775D01*
X6896449Y-15667775D02*
X6877402Y-15658251D01*
X6991688Y-15572537D02*
X6991688Y-15610632D01*
X7067878Y-15572537D02*
X7067878Y-15610632D01*
X7363116Y-15848728D02*
X7353592Y-15839204D01*
X7353592Y-15839204D02*
X7334545Y-15810632D01*
X7334545Y-15810632D02*
X7325021Y-15791585D01*
X7325021Y-15791585D02*
X7315497Y-15763013D01*
X7315497Y-15763013D02*
X7305973Y-15715394D01*
X7305973Y-15715394D02*
X7305973Y-15677299D01*
X7305973Y-15677299D02*
X7315497Y-15629680D01*
X7315497Y-15629680D02*
X7325021Y-15601109D01*
X7325021Y-15601109D02*
X7334545Y-15582061D01*
X7334545Y-15582061D02*
X7353592Y-15553489D01*
X7353592Y-15553489D02*
X7363116Y-15543966D01*
X7448830Y-15772537D02*
X7486926Y-15772537D01*
X7486926Y-15772537D02*
X7505973Y-15763013D01*
X7505973Y-15763013D02*
X7515497Y-15753489D01*
X7515497Y-15753489D02*
X7534545Y-15724918D01*
X7534545Y-15724918D02*
X7544069Y-15686823D01*
X7544069Y-15686823D02*
X7544069Y-15610632D01*
X7544069Y-15610632D02*
X7534545Y-15591585D01*
X7534545Y-15591585D02*
X7525021Y-15582061D01*
X7525021Y-15582061D02*
X7505973Y-15572537D01*
X7505973Y-15572537D02*
X7467878Y-15572537D01*
X7467878Y-15572537D02*
X7448830Y-15582061D01*
X7448830Y-15582061D02*
X7439307Y-15591585D01*
X7439307Y-15591585D02*
X7429783Y-15610632D01*
X7429783Y-15610632D02*
X7429783Y-15658251D01*
X7429783Y-15658251D02*
X7439307Y-15677299D01*
X7439307Y-15677299D02*
X7448830Y-15686823D01*
X7448830Y-15686823D02*
X7467878Y-15696347D01*
X7467878Y-15696347D02*
X7505973Y-15696347D01*
X7505973Y-15696347D02*
X7525021Y-15686823D01*
X7525021Y-15686823D02*
X7534545Y-15677299D01*
X7534545Y-15677299D02*
X7544069Y-15658251D01*
X7782164Y-15772537D02*
X7782164Y-15572537D01*
X7867878Y-15772537D02*
X7867878Y-15667775D01*
X7867878Y-15667775D02*
X7858354Y-15648728D01*
X7858354Y-15648728D02*
X7839307Y-15639204D01*
X7839307Y-15639204D02*
X7810735Y-15639204D01*
X7810735Y-15639204D02*
X7791688Y-15648728D01*
X7791688Y-15648728D02*
X7782164Y-15658251D01*
X7991688Y-15772537D02*
X7972640Y-15763013D01*
X7972640Y-15763013D02*
X7963116Y-15753489D01*
X7963116Y-15753489D02*
X7953592Y-15734442D01*
X7953592Y-15734442D02*
X7953592Y-15677299D01*
X7953592Y-15677299D02*
X7963116Y-15658251D01*
X7963116Y-15658251D02*
X7972640Y-15648728D01*
X7972640Y-15648728D02*
X7991688Y-15639204D01*
X7991688Y-15639204D02*
X8020259Y-15639204D01*
X8020259Y-15639204D02*
X8039307Y-15648728D01*
X8039307Y-15648728D02*
X8048831Y-15658251D01*
X8048831Y-15658251D02*
X8058354Y-15677299D01*
X8058354Y-15677299D02*
X8058354Y-15734442D01*
X8058354Y-15734442D02*
X8048831Y-15753489D01*
X8048831Y-15753489D02*
X8039307Y-15763013D01*
X8039307Y-15763013D02*
X8020259Y-15772537D01*
X8020259Y-15772537D02*
X7991688Y-15772537D01*
X8172640Y-15772537D02*
X8153592Y-15763013D01*
X8153592Y-15763013D02*
X8144069Y-15743966D01*
X8144069Y-15743966D02*
X8144069Y-15572537D01*
X8325021Y-15763013D02*
X8305973Y-15772537D01*
X8305973Y-15772537D02*
X8267878Y-15772537D01*
X8267878Y-15772537D02*
X8248831Y-15763013D01*
X8248831Y-15763013D02*
X8239307Y-15743966D01*
X8239307Y-15743966D02*
X8239307Y-15667775D01*
X8239307Y-15667775D02*
X8248831Y-15648728D01*
X8248831Y-15648728D02*
X8267878Y-15639204D01*
X8267878Y-15639204D02*
X8305973Y-15639204D01*
X8305973Y-15639204D02*
X8325021Y-15648728D01*
X8325021Y-15648728D02*
X8334545Y-15667775D01*
X8334545Y-15667775D02*
X8334545Y-15686823D01*
X8334545Y-15686823D02*
X8239307Y-15705870D01*
X8410735Y-15763013D02*
X8429783Y-15772537D01*
X8429783Y-15772537D02*
X8467878Y-15772537D01*
X8467878Y-15772537D02*
X8486926Y-15763013D01*
X8486926Y-15763013D02*
X8496450Y-15743966D01*
X8496450Y-15743966D02*
X8496450Y-15734442D01*
X8496450Y-15734442D02*
X8486926Y-15715394D01*
X8486926Y-15715394D02*
X8467878Y-15705870D01*
X8467878Y-15705870D02*
X8439307Y-15705870D01*
X8439307Y-15705870D02*
X8420259Y-15696347D01*
X8420259Y-15696347D02*
X8410735Y-15677299D01*
X8410735Y-15677299D02*
X8410735Y-15667775D01*
X8410735Y-15667775D02*
X8420259Y-15648728D01*
X8420259Y-15648728D02*
X8439307Y-15639204D01*
X8439307Y-15639204D02*
X8467878Y-15639204D01*
X8467878Y-15639204D02*
X8486926Y-15648728D01*
X8563116Y-15848728D02*
X8572640Y-15839204D01*
X8572640Y-15839204D02*
X8591688Y-15810632D01*
X8591688Y-15810632D02*
X8601212Y-15791585D01*
X8601212Y-15791585D02*
X8610735Y-15763013D01*
X8610735Y-15763013D02*
X8620259Y-15715394D01*
X8620259Y-15715394D02*
X8620259Y-15677299D01*
X8620259Y-15677299D02*
X8610735Y-15629680D01*
X8610735Y-15629680D02*
X8601212Y-15601109D01*
X8601212Y-15601109D02*
X8591688Y-15582061D01*
X8591688Y-15582061D02*
X8572640Y-15553489D01*
X8572640Y-15553489D02*
X8563116Y-15543966D01*
D13*
X3768053Y-15925053D02*
X3768053Y-15965053D01*
X3748053Y-15945053D02*
X3788053Y-15945053D01*
D11*
X4086925Y-15836537D02*
X4105973Y-15836537D01*
X4105973Y-15836537D02*
X4125021Y-15846061D01*
X4125021Y-15846061D02*
X4134544Y-15855585D01*
X4134544Y-15855585D02*
X4144068Y-15874632D01*
X4144068Y-15874632D02*
X4153592Y-15912728D01*
X4153592Y-15912728D02*
X4153592Y-15960347D01*
X4153592Y-15960347D02*
X4144068Y-15998442D01*
X4144068Y-15998442D02*
X4134544Y-16017489D01*
X4134544Y-16017489D02*
X4125021Y-16027013D01*
X4125021Y-16027013D02*
X4105973Y-16036537D01*
X4105973Y-16036537D02*
X4086925Y-16036537D01*
X4086925Y-16036537D02*
X4067878Y-16027013D01*
X4067878Y-16027013D02*
X4058354Y-16017489D01*
X4058354Y-16017489D02*
X4048830Y-15998442D01*
X4048830Y-15998442D02*
X4039306Y-15960347D01*
X4039306Y-15960347D02*
X4039306Y-15912728D01*
X4039306Y-15912728D02*
X4048830Y-15874632D01*
X4048830Y-15874632D02*
X4058354Y-15855585D01*
X4058354Y-15855585D02*
X4067878Y-15846061D01*
X4067878Y-15846061D02*
X4086925Y-15836537D01*
X4239306Y-16017489D02*
X4248830Y-16027013D01*
X4248830Y-16027013D02*
X4239306Y-16036537D01*
X4239306Y-16036537D02*
X4229783Y-16027013D01*
X4229783Y-16027013D02*
X4239306Y-16017489D01*
X4239306Y-16017489D02*
X4239306Y-16036537D01*
X4420259Y-15903204D02*
X4420259Y-16036537D01*
X4372640Y-15827013D02*
X4325021Y-15969870D01*
X4325021Y-15969870D02*
X4448830Y-15969870D01*
X4563116Y-15836537D02*
X4582164Y-15836537D01*
X4582164Y-15836537D02*
X4601211Y-15846061D01*
X4601211Y-15846061D02*
X4610735Y-15855585D01*
X4610735Y-15855585D02*
X4620259Y-15874632D01*
X4620259Y-15874632D02*
X4629783Y-15912728D01*
X4629783Y-15912728D02*
X4629783Y-15960347D01*
X4629783Y-15960347D02*
X4620259Y-15998442D01*
X4620259Y-15998442D02*
X4610735Y-16017489D01*
X4610735Y-16017489D02*
X4601211Y-16027013D01*
X4601211Y-16027013D02*
X4582164Y-16036537D01*
X4582164Y-16036537D02*
X4563116Y-16036537D01*
X4563116Y-16036537D02*
X4544068Y-16027013D01*
X4544068Y-16027013D02*
X4534545Y-16017489D01*
X4534545Y-16017489D02*
X4525021Y-15998442D01*
X4525021Y-15998442D02*
X4515497Y-15960347D01*
X4515497Y-15960347D02*
X4515497Y-15912728D01*
X4515497Y-15912728D02*
X4525021Y-15874632D01*
X4525021Y-15874632D02*
X4534545Y-15855585D01*
X4534545Y-15855585D02*
X4544068Y-15846061D01*
X4544068Y-15846061D02*
X4563116Y-15836537D01*
X4753592Y-15836537D02*
X4772640Y-15836537D01*
X4772640Y-15836537D02*
X4791687Y-15846061D01*
X4791687Y-15846061D02*
X4801211Y-15855585D01*
X4801211Y-15855585D02*
X4810735Y-15874632D01*
X4810735Y-15874632D02*
X4820259Y-15912728D01*
X4820259Y-15912728D02*
X4820259Y-15960347D01*
X4820259Y-15960347D02*
X4810735Y-15998442D01*
X4810735Y-15998442D02*
X4801211Y-16017489D01*
X4801211Y-16017489D02*
X4791687Y-16027013D01*
X4791687Y-16027013D02*
X4772640Y-16036537D01*
X4772640Y-16036537D02*
X4753592Y-16036537D01*
X4753592Y-16036537D02*
X4734545Y-16027013D01*
X4734545Y-16027013D02*
X4725021Y-16017489D01*
X4725021Y-16017489D02*
X4715497Y-15998442D01*
X4715497Y-15998442D02*
X4705973Y-15960347D01*
X4705973Y-15960347D02*
X4705973Y-15912728D01*
X4705973Y-15912728D02*
X4715497Y-15874632D01*
X4715497Y-15874632D02*
X4725021Y-15855585D01*
X4725021Y-15855585D02*
X4734545Y-15846061D01*
X4734545Y-15846061D02*
X4753592Y-15836537D01*
X4905973Y-16036537D02*
X4905973Y-15903204D01*
X4905973Y-15922251D02*
X4915497Y-15912728D01*
X4915497Y-15912728D02*
X4934545Y-15903204D01*
X4934545Y-15903204D02*
X4963116Y-15903204D01*
X4963116Y-15903204D02*
X4982164Y-15912728D01*
X4982164Y-15912728D02*
X4991687Y-15931775D01*
X4991687Y-15931775D02*
X4991687Y-16036537D01*
X4991687Y-15931775D02*
X5001211Y-15912728D01*
X5001211Y-15912728D02*
X5020259Y-15903204D01*
X5020259Y-15903204D02*
X5048830Y-15903204D01*
X5048830Y-15903204D02*
X5067878Y-15912728D01*
X5067878Y-15912728D02*
X5077402Y-15931775D01*
X5077402Y-15931775D02*
X5077402Y-16036537D01*
X5172640Y-16036537D02*
X5172640Y-15903204D01*
X5172640Y-15922251D02*
X5182164Y-15912728D01*
X5182164Y-15912728D02*
X5201211Y-15903204D01*
X5201211Y-15903204D02*
X5229783Y-15903204D01*
X5229783Y-15903204D02*
X5248830Y-15912728D01*
X5248830Y-15912728D02*
X5258354Y-15931775D01*
X5258354Y-15931775D02*
X5258354Y-16036537D01*
X5258354Y-15931775D02*
X5267878Y-15912728D01*
X5267878Y-15912728D02*
X5286926Y-15903204D01*
X5286926Y-15903204D02*
X5315497Y-15903204D01*
X5315497Y-15903204D02*
X5334545Y-15912728D01*
X5334545Y-15912728D02*
X5344068Y-15931775D01*
X5344068Y-15931775D02*
X5344068Y-16036537D01*
X5734545Y-15827013D02*
X5563116Y-16084156D01*
X5991687Y-15836537D02*
X6010735Y-15836537D01*
X6010735Y-15836537D02*
X6029783Y-15846061D01*
X6029783Y-15846061D02*
X6039307Y-15855585D01*
X6039307Y-15855585D02*
X6048830Y-15874632D01*
X6048830Y-15874632D02*
X6058354Y-15912728D01*
X6058354Y-15912728D02*
X6058354Y-15960347D01*
X6058354Y-15960347D02*
X6048830Y-15998442D01*
X6048830Y-15998442D02*
X6039307Y-16017489D01*
X6039307Y-16017489D02*
X6029783Y-16027013D01*
X6029783Y-16027013D02*
X6010735Y-16036537D01*
X6010735Y-16036537D02*
X5991687Y-16036537D01*
X5991687Y-16036537D02*
X5972640Y-16027013D01*
X5972640Y-16027013D02*
X5963116Y-16017489D01*
X5963116Y-16017489D02*
X5953592Y-15998442D01*
X5953592Y-15998442D02*
X5944068Y-15960347D01*
X5944068Y-15960347D02*
X5944068Y-15912728D01*
X5944068Y-15912728D02*
X5953592Y-15874632D01*
X5953592Y-15874632D02*
X5963116Y-15855585D01*
X5963116Y-15855585D02*
X5972640Y-15846061D01*
X5972640Y-15846061D02*
X5991687Y-15836537D01*
X6144068Y-16017489D02*
X6153592Y-16027013D01*
X6153592Y-16027013D02*
X6144068Y-16036537D01*
X6144068Y-16036537D02*
X6134545Y-16027013D01*
X6134545Y-16027013D02*
X6144068Y-16017489D01*
X6144068Y-16017489D02*
X6144068Y-16036537D01*
X6277402Y-15836537D02*
X6296449Y-15836537D01*
X6296449Y-15836537D02*
X6315497Y-15846061D01*
X6315497Y-15846061D02*
X6325021Y-15855585D01*
X6325021Y-15855585D02*
X6334545Y-15874632D01*
X6334545Y-15874632D02*
X6344068Y-15912728D01*
X6344068Y-15912728D02*
X6344068Y-15960347D01*
X6344068Y-15960347D02*
X6334545Y-15998442D01*
X6334545Y-15998442D02*
X6325021Y-16017489D01*
X6325021Y-16017489D02*
X6315497Y-16027013D01*
X6315497Y-16027013D02*
X6296449Y-16036537D01*
X6296449Y-16036537D02*
X6277402Y-16036537D01*
X6277402Y-16036537D02*
X6258354Y-16027013D01*
X6258354Y-16027013D02*
X6248830Y-16017489D01*
X6248830Y-16017489D02*
X6239307Y-15998442D01*
X6239307Y-15998442D02*
X6229783Y-15960347D01*
X6229783Y-15960347D02*
X6229783Y-15912728D01*
X6229783Y-15912728D02*
X6239307Y-15874632D01*
X6239307Y-15874632D02*
X6248830Y-15855585D01*
X6248830Y-15855585D02*
X6258354Y-15846061D01*
X6258354Y-15846061D02*
X6277402Y-15836537D01*
X6534545Y-16036537D02*
X6420259Y-16036537D01*
X6477402Y-16036537D02*
X6477402Y-15836537D01*
X6477402Y-15836537D02*
X6458354Y-15865109D01*
X6458354Y-15865109D02*
X6439307Y-15884156D01*
X6439307Y-15884156D02*
X6420259Y-15893680D01*
X6715497Y-15836537D02*
X6620259Y-15836537D01*
X6620259Y-15836537D02*
X6610735Y-15931775D01*
X6610735Y-15931775D02*
X6620259Y-15922251D01*
X6620259Y-15922251D02*
X6639307Y-15912728D01*
X6639307Y-15912728D02*
X6686926Y-15912728D01*
X6686926Y-15912728D02*
X6705973Y-15922251D01*
X6705973Y-15922251D02*
X6715497Y-15931775D01*
X6715497Y-15931775D02*
X6725021Y-15950823D01*
X6725021Y-15950823D02*
X6725021Y-15998442D01*
X6725021Y-15998442D02*
X6715497Y-16017489D01*
X6715497Y-16017489D02*
X6705973Y-16027013D01*
X6705973Y-16027013D02*
X6686926Y-16036537D01*
X6686926Y-16036537D02*
X6639307Y-16036537D01*
X6639307Y-16036537D02*
X6620259Y-16027013D01*
X6620259Y-16027013D02*
X6610735Y-16017489D01*
X6791688Y-15836537D02*
X6925021Y-15836537D01*
X6925021Y-15836537D02*
X6839307Y-16036537D01*
X6991688Y-15836537D02*
X6991688Y-15874632D01*
X7067878Y-15836537D02*
X7067878Y-15874632D01*
X7363116Y-16112728D02*
X7353592Y-16103204D01*
X7353592Y-16103204D02*
X7334545Y-16074632D01*
X7334545Y-16074632D02*
X7325021Y-16055585D01*
X7325021Y-16055585D02*
X7315497Y-16027013D01*
X7315497Y-16027013D02*
X7305973Y-15979394D01*
X7305973Y-15979394D02*
X7305973Y-15941299D01*
X7305973Y-15941299D02*
X7315497Y-15893680D01*
X7315497Y-15893680D02*
X7325021Y-15865109D01*
X7325021Y-15865109D02*
X7334545Y-15846061D01*
X7334545Y-15846061D02*
X7353592Y-15817489D01*
X7353592Y-15817489D02*
X7363116Y-15807966D01*
X7429783Y-15855585D02*
X7439307Y-15846061D01*
X7439307Y-15846061D02*
X7458354Y-15836537D01*
X7458354Y-15836537D02*
X7505973Y-15836537D01*
X7505973Y-15836537D02*
X7525021Y-15846061D01*
X7525021Y-15846061D02*
X7534545Y-15855585D01*
X7534545Y-15855585D02*
X7544069Y-15874632D01*
X7544069Y-15874632D02*
X7544069Y-15893680D01*
X7544069Y-15893680D02*
X7534545Y-15922251D01*
X7534545Y-15922251D02*
X7420259Y-16036537D01*
X7420259Y-16036537D02*
X7544069Y-16036537D01*
X7782164Y-16036537D02*
X7782164Y-15836537D01*
X7867878Y-16036537D02*
X7867878Y-15931775D01*
X7867878Y-15931775D02*
X7858354Y-15912728D01*
X7858354Y-15912728D02*
X7839307Y-15903204D01*
X7839307Y-15903204D02*
X7810735Y-15903204D01*
X7810735Y-15903204D02*
X7791688Y-15912728D01*
X7791688Y-15912728D02*
X7782164Y-15922251D01*
X7991688Y-16036537D02*
X7972640Y-16027013D01*
X7972640Y-16027013D02*
X7963116Y-16017489D01*
X7963116Y-16017489D02*
X7953592Y-15998442D01*
X7953592Y-15998442D02*
X7953592Y-15941299D01*
X7953592Y-15941299D02*
X7963116Y-15922251D01*
X7963116Y-15922251D02*
X7972640Y-15912728D01*
X7972640Y-15912728D02*
X7991688Y-15903204D01*
X7991688Y-15903204D02*
X8020259Y-15903204D01*
X8020259Y-15903204D02*
X8039307Y-15912728D01*
X8039307Y-15912728D02*
X8048831Y-15922251D01*
X8048831Y-15922251D02*
X8058354Y-15941299D01*
X8058354Y-15941299D02*
X8058354Y-15998442D01*
X8058354Y-15998442D02*
X8048831Y-16017489D01*
X8048831Y-16017489D02*
X8039307Y-16027013D01*
X8039307Y-16027013D02*
X8020259Y-16036537D01*
X8020259Y-16036537D02*
X7991688Y-16036537D01*
X8172640Y-16036537D02*
X8153592Y-16027013D01*
X8153592Y-16027013D02*
X8144069Y-16007966D01*
X8144069Y-16007966D02*
X8144069Y-15836537D01*
X8325021Y-16027013D02*
X8305973Y-16036537D01*
X8305973Y-16036537D02*
X8267878Y-16036537D01*
X8267878Y-16036537D02*
X8248831Y-16027013D01*
X8248831Y-16027013D02*
X8239307Y-16007966D01*
X8239307Y-16007966D02*
X8239307Y-15931775D01*
X8239307Y-15931775D02*
X8248831Y-15912728D01*
X8248831Y-15912728D02*
X8267878Y-15903204D01*
X8267878Y-15903204D02*
X8305973Y-15903204D01*
X8305973Y-15903204D02*
X8325021Y-15912728D01*
X8325021Y-15912728D02*
X8334545Y-15931775D01*
X8334545Y-15931775D02*
X8334545Y-15950823D01*
X8334545Y-15950823D02*
X8239307Y-15969870D01*
X8410735Y-16027013D02*
X8429783Y-16036537D01*
X8429783Y-16036537D02*
X8467878Y-16036537D01*
X8467878Y-16036537D02*
X8486926Y-16027013D01*
X8486926Y-16027013D02*
X8496450Y-16007966D01*
X8496450Y-16007966D02*
X8496450Y-15998442D01*
X8496450Y-15998442D02*
X8486926Y-15979394D01*
X8486926Y-15979394D02*
X8467878Y-15969870D01*
X8467878Y-15969870D02*
X8439307Y-15969870D01*
X8439307Y-15969870D02*
X8420259Y-15960347D01*
X8420259Y-15960347D02*
X8410735Y-15941299D01*
X8410735Y-15941299D02*
X8410735Y-15931775D01*
X8410735Y-15931775D02*
X8420259Y-15912728D01*
X8420259Y-15912728D02*
X8439307Y-15903204D01*
X8439307Y-15903204D02*
X8467878Y-15903204D01*
X8467878Y-15903204D02*
X8486926Y-15912728D01*
X8563116Y-16112728D02*
X8572640Y-16103204D01*
X8572640Y-16103204D02*
X8591688Y-16074632D01*
X8591688Y-16074632D02*
X8601212Y-16055585D01*
X8601212Y-16055585D02*
X8610735Y-16027013D01*
X8610735Y-16027013D02*
X8620259Y-15979394D01*
X8620259Y-15979394D02*
X8620259Y-15941299D01*
X8620259Y-15941299D02*
X8610735Y-15893680D01*
X8610735Y-15893680D02*
X8601212Y-15865109D01*
X8601212Y-15865109D02*
X8591688Y-15846061D01*
X8591688Y-15846061D02*
X8572640Y-15817489D01*
X8572640Y-15817489D02*
X8563116Y-15807966D01*
D14*
X3779267Y-16230267D02*
X3779267Y-16187840D01*
X3736840Y-16187840D01*
X3736840Y-16230267D01*
X3779267Y-16230267D01*
D11*
X4086925Y-16100537D02*
X4105973Y-16100537D01*
X4105973Y-16100537D02*
X4125021Y-16110061D01*
X4125021Y-16110061D02*
X4134544Y-16119585D01*
X4134544Y-16119585D02*
X4144068Y-16138632D01*
X4144068Y-16138632D02*
X4153592Y-16176728D01*
X4153592Y-16176728D02*
X4153592Y-16224347D01*
X4153592Y-16224347D02*
X4144068Y-16262442D01*
X4144068Y-16262442D02*
X4134544Y-16281489D01*
X4134544Y-16281489D02*
X4125021Y-16291013D01*
X4125021Y-16291013D02*
X4105973Y-16300537D01*
X4105973Y-16300537D02*
X4086925Y-16300537D01*
X4086925Y-16300537D02*
X4067878Y-16291013D01*
X4067878Y-16291013D02*
X4058354Y-16281489D01*
X4058354Y-16281489D02*
X4048830Y-16262442D01*
X4048830Y-16262442D02*
X4039306Y-16224347D01*
X4039306Y-16224347D02*
X4039306Y-16176728D01*
X4039306Y-16176728D02*
X4048830Y-16138632D01*
X4048830Y-16138632D02*
X4058354Y-16119585D01*
X4058354Y-16119585D02*
X4067878Y-16110061D01*
X4067878Y-16110061D02*
X4086925Y-16100537D01*
X4239306Y-16281489D02*
X4248830Y-16291013D01*
X4248830Y-16291013D02*
X4239306Y-16300537D01*
X4239306Y-16300537D02*
X4229783Y-16291013D01*
X4229783Y-16291013D02*
X4239306Y-16281489D01*
X4239306Y-16281489D02*
X4239306Y-16300537D01*
X4420259Y-16100537D02*
X4382164Y-16100537D01*
X4382164Y-16100537D02*
X4363116Y-16110061D01*
X4363116Y-16110061D02*
X4353592Y-16119585D01*
X4353592Y-16119585D02*
X4334545Y-16148156D01*
X4334545Y-16148156D02*
X4325021Y-16186251D01*
X4325021Y-16186251D02*
X4325021Y-16262442D01*
X4325021Y-16262442D02*
X4334545Y-16281489D01*
X4334545Y-16281489D02*
X4344068Y-16291013D01*
X4344068Y-16291013D02*
X4363116Y-16300537D01*
X4363116Y-16300537D02*
X4401211Y-16300537D01*
X4401211Y-16300537D02*
X4420259Y-16291013D01*
X4420259Y-16291013D02*
X4429783Y-16281489D01*
X4429783Y-16281489D02*
X4439306Y-16262442D01*
X4439306Y-16262442D02*
X4439306Y-16214823D01*
X4439306Y-16214823D02*
X4429783Y-16195775D01*
X4429783Y-16195775D02*
X4420259Y-16186251D01*
X4420259Y-16186251D02*
X4401211Y-16176728D01*
X4401211Y-16176728D02*
X4363116Y-16176728D01*
X4363116Y-16176728D02*
X4344068Y-16186251D01*
X4344068Y-16186251D02*
X4334545Y-16195775D01*
X4334545Y-16195775D02*
X4325021Y-16214823D01*
X4563116Y-16100537D02*
X4582164Y-16100537D01*
X4582164Y-16100537D02*
X4601211Y-16110061D01*
X4601211Y-16110061D02*
X4610735Y-16119585D01*
X4610735Y-16119585D02*
X4620259Y-16138632D01*
X4620259Y-16138632D02*
X4629783Y-16176728D01*
X4629783Y-16176728D02*
X4629783Y-16224347D01*
X4629783Y-16224347D02*
X4620259Y-16262442D01*
X4620259Y-16262442D02*
X4610735Y-16281489D01*
X4610735Y-16281489D02*
X4601211Y-16291013D01*
X4601211Y-16291013D02*
X4582164Y-16300537D01*
X4582164Y-16300537D02*
X4563116Y-16300537D01*
X4563116Y-16300537D02*
X4544068Y-16291013D01*
X4544068Y-16291013D02*
X4534545Y-16281489D01*
X4534545Y-16281489D02*
X4525021Y-16262442D01*
X4525021Y-16262442D02*
X4515497Y-16224347D01*
X4515497Y-16224347D02*
X4515497Y-16176728D01*
X4515497Y-16176728D02*
X4525021Y-16138632D01*
X4525021Y-16138632D02*
X4534545Y-16119585D01*
X4534545Y-16119585D02*
X4544068Y-16110061D01*
X4544068Y-16110061D02*
X4563116Y-16100537D01*
X4753592Y-16100537D02*
X4772640Y-16100537D01*
X4772640Y-16100537D02*
X4791687Y-16110061D01*
X4791687Y-16110061D02*
X4801211Y-16119585D01*
X4801211Y-16119585D02*
X4810735Y-16138632D01*
X4810735Y-16138632D02*
X4820259Y-16176728D01*
X4820259Y-16176728D02*
X4820259Y-16224347D01*
X4820259Y-16224347D02*
X4810735Y-16262442D01*
X4810735Y-16262442D02*
X4801211Y-16281489D01*
X4801211Y-16281489D02*
X4791687Y-16291013D01*
X4791687Y-16291013D02*
X4772640Y-16300537D01*
X4772640Y-16300537D02*
X4753592Y-16300537D01*
X4753592Y-16300537D02*
X4734545Y-16291013D01*
X4734545Y-16291013D02*
X4725021Y-16281489D01*
X4725021Y-16281489D02*
X4715497Y-16262442D01*
X4715497Y-16262442D02*
X4705973Y-16224347D01*
X4705973Y-16224347D02*
X4705973Y-16176728D01*
X4705973Y-16176728D02*
X4715497Y-16138632D01*
X4715497Y-16138632D02*
X4725021Y-16119585D01*
X4725021Y-16119585D02*
X4734545Y-16110061D01*
X4734545Y-16110061D02*
X4753592Y-16100537D01*
X4905973Y-16300537D02*
X4905973Y-16167204D01*
X4905973Y-16186251D02*
X4915497Y-16176728D01*
X4915497Y-16176728D02*
X4934545Y-16167204D01*
X4934545Y-16167204D02*
X4963116Y-16167204D01*
X4963116Y-16167204D02*
X4982164Y-16176728D01*
X4982164Y-16176728D02*
X4991687Y-16195775D01*
X4991687Y-16195775D02*
X4991687Y-16300537D01*
X4991687Y-16195775D02*
X5001211Y-16176728D01*
X5001211Y-16176728D02*
X5020259Y-16167204D01*
X5020259Y-16167204D02*
X5048830Y-16167204D01*
X5048830Y-16167204D02*
X5067878Y-16176728D01*
X5067878Y-16176728D02*
X5077402Y-16195775D01*
X5077402Y-16195775D02*
X5077402Y-16300537D01*
X5172640Y-16300537D02*
X5172640Y-16167204D01*
X5172640Y-16186251D02*
X5182164Y-16176728D01*
X5182164Y-16176728D02*
X5201211Y-16167204D01*
X5201211Y-16167204D02*
X5229783Y-16167204D01*
X5229783Y-16167204D02*
X5248830Y-16176728D01*
X5248830Y-16176728D02*
X5258354Y-16195775D01*
X5258354Y-16195775D02*
X5258354Y-16300537D01*
X5258354Y-16195775D02*
X5267878Y-16176728D01*
X5267878Y-16176728D02*
X5286926Y-16167204D01*
X5286926Y-16167204D02*
X5315497Y-16167204D01*
X5315497Y-16167204D02*
X5334545Y-16176728D01*
X5334545Y-16176728D02*
X5344068Y-16195775D01*
X5344068Y-16195775D02*
X5344068Y-16300537D01*
X5734545Y-16091013D02*
X5563116Y-16348156D01*
X5991687Y-16100537D02*
X6010735Y-16100537D01*
X6010735Y-16100537D02*
X6029783Y-16110061D01*
X6029783Y-16110061D02*
X6039307Y-16119585D01*
X6039307Y-16119585D02*
X6048830Y-16138632D01*
X6048830Y-16138632D02*
X6058354Y-16176728D01*
X6058354Y-16176728D02*
X6058354Y-16224347D01*
X6058354Y-16224347D02*
X6048830Y-16262442D01*
X6048830Y-16262442D02*
X6039307Y-16281489D01*
X6039307Y-16281489D02*
X6029783Y-16291013D01*
X6029783Y-16291013D02*
X6010735Y-16300537D01*
X6010735Y-16300537D02*
X5991687Y-16300537D01*
X5991687Y-16300537D02*
X5972640Y-16291013D01*
X5972640Y-16291013D02*
X5963116Y-16281489D01*
X5963116Y-16281489D02*
X5953592Y-16262442D01*
X5953592Y-16262442D02*
X5944068Y-16224347D01*
X5944068Y-16224347D02*
X5944068Y-16176728D01*
X5944068Y-16176728D02*
X5953592Y-16138632D01*
X5953592Y-16138632D02*
X5963116Y-16119585D01*
X5963116Y-16119585D02*
X5972640Y-16110061D01*
X5972640Y-16110061D02*
X5991687Y-16100537D01*
X6144068Y-16281489D02*
X6153592Y-16291013D01*
X6153592Y-16291013D02*
X6144068Y-16300537D01*
X6144068Y-16300537D02*
X6134545Y-16291013D01*
X6134545Y-16291013D02*
X6144068Y-16281489D01*
X6144068Y-16281489D02*
X6144068Y-16300537D01*
X6277402Y-16100537D02*
X6296449Y-16100537D01*
X6296449Y-16100537D02*
X6315497Y-16110061D01*
X6315497Y-16110061D02*
X6325021Y-16119585D01*
X6325021Y-16119585D02*
X6334545Y-16138632D01*
X6334545Y-16138632D02*
X6344068Y-16176728D01*
X6344068Y-16176728D02*
X6344068Y-16224347D01*
X6344068Y-16224347D02*
X6334545Y-16262442D01*
X6334545Y-16262442D02*
X6325021Y-16281489D01*
X6325021Y-16281489D02*
X6315497Y-16291013D01*
X6315497Y-16291013D02*
X6296449Y-16300537D01*
X6296449Y-16300537D02*
X6277402Y-16300537D01*
X6277402Y-16300537D02*
X6258354Y-16291013D01*
X6258354Y-16291013D02*
X6248830Y-16281489D01*
X6248830Y-16281489D02*
X6239307Y-16262442D01*
X6239307Y-16262442D02*
X6229783Y-16224347D01*
X6229783Y-16224347D02*
X6229783Y-16176728D01*
X6229783Y-16176728D02*
X6239307Y-16138632D01*
X6239307Y-16138632D02*
X6248830Y-16119585D01*
X6248830Y-16119585D02*
X6258354Y-16110061D01*
X6258354Y-16110061D02*
X6277402Y-16100537D01*
X6420259Y-16119585D02*
X6429783Y-16110061D01*
X6429783Y-16110061D02*
X6448830Y-16100537D01*
X6448830Y-16100537D02*
X6496449Y-16100537D01*
X6496449Y-16100537D02*
X6515497Y-16110061D01*
X6515497Y-16110061D02*
X6525021Y-16119585D01*
X6525021Y-16119585D02*
X6534545Y-16138632D01*
X6534545Y-16138632D02*
X6534545Y-16157680D01*
X6534545Y-16157680D02*
X6525021Y-16186251D01*
X6525021Y-16186251D02*
X6410735Y-16300537D01*
X6410735Y-16300537D02*
X6534545Y-16300537D01*
X6601211Y-16100537D02*
X6725021Y-16100537D01*
X6725021Y-16100537D02*
X6658354Y-16176728D01*
X6658354Y-16176728D02*
X6686926Y-16176728D01*
X6686926Y-16176728D02*
X6705973Y-16186251D01*
X6705973Y-16186251D02*
X6715497Y-16195775D01*
X6715497Y-16195775D02*
X6725021Y-16214823D01*
X6725021Y-16214823D02*
X6725021Y-16262442D01*
X6725021Y-16262442D02*
X6715497Y-16281489D01*
X6715497Y-16281489D02*
X6705973Y-16291013D01*
X6705973Y-16291013D02*
X6686926Y-16300537D01*
X6686926Y-16300537D02*
X6629783Y-16300537D01*
X6629783Y-16300537D02*
X6610735Y-16291013D01*
X6610735Y-16291013D02*
X6601211Y-16281489D01*
X6896449Y-16100537D02*
X6858354Y-16100537D01*
X6858354Y-16100537D02*
X6839307Y-16110061D01*
X6839307Y-16110061D02*
X6829783Y-16119585D01*
X6829783Y-16119585D02*
X6810735Y-16148156D01*
X6810735Y-16148156D02*
X6801211Y-16186251D01*
X6801211Y-16186251D02*
X6801211Y-16262442D01*
X6801211Y-16262442D02*
X6810735Y-16281489D01*
X6810735Y-16281489D02*
X6820259Y-16291013D01*
X6820259Y-16291013D02*
X6839307Y-16300537D01*
X6839307Y-16300537D02*
X6877402Y-16300537D01*
X6877402Y-16300537D02*
X6896449Y-16291013D01*
X6896449Y-16291013D02*
X6905973Y-16281489D01*
X6905973Y-16281489D02*
X6915497Y-16262442D01*
X6915497Y-16262442D02*
X6915497Y-16214823D01*
X6915497Y-16214823D02*
X6905973Y-16195775D01*
X6905973Y-16195775D02*
X6896449Y-16186251D01*
X6896449Y-16186251D02*
X6877402Y-16176728D01*
X6877402Y-16176728D02*
X6839307Y-16176728D01*
X6839307Y-16176728D02*
X6820259Y-16186251D01*
X6820259Y-16186251D02*
X6810735Y-16195775D01*
X6810735Y-16195775D02*
X6801211Y-16214823D01*
X6991688Y-16100537D02*
X6991688Y-16138632D01*
X7067878Y-16100537D02*
X7067878Y-16138632D01*
X7363116Y-16376728D02*
X7353592Y-16367204D01*
X7353592Y-16367204D02*
X7334545Y-16338632D01*
X7334545Y-16338632D02*
X7325021Y-16319585D01*
X7325021Y-16319585D02*
X7315497Y-16291013D01*
X7315497Y-16291013D02*
X7305973Y-16243394D01*
X7305973Y-16243394D02*
X7305973Y-16205299D01*
X7305973Y-16205299D02*
X7315497Y-16157680D01*
X7315497Y-16157680D02*
X7325021Y-16129109D01*
X7325021Y-16129109D02*
X7334545Y-16110061D01*
X7334545Y-16110061D02*
X7353592Y-16081489D01*
X7353592Y-16081489D02*
X7363116Y-16071966D01*
X7477402Y-16100537D02*
X7496450Y-16100537D01*
X7496450Y-16100537D02*
X7515497Y-16110061D01*
X7515497Y-16110061D02*
X7525021Y-16119585D01*
X7525021Y-16119585D02*
X7534545Y-16138632D01*
X7534545Y-16138632D02*
X7544069Y-16176728D01*
X7544069Y-16176728D02*
X7544069Y-16224347D01*
X7544069Y-16224347D02*
X7534545Y-16262442D01*
X7534545Y-16262442D02*
X7525021Y-16281489D01*
X7525021Y-16281489D02*
X7515497Y-16291013D01*
X7515497Y-16291013D02*
X7496450Y-16300537D01*
X7496450Y-16300537D02*
X7477402Y-16300537D01*
X7477402Y-16300537D02*
X7458354Y-16291013D01*
X7458354Y-16291013D02*
X7448830Y-16281489D01*
X7448830Y-16281489D02*
X7439307Y-16262442D01*
X7439307Y-16262442D02*
X7429783Y-16224347D01*
X7429783Y-16224347D02*
X7429783Y-16176728D01*
X7429783Y-16176728D02*
X7439307Y-16138632D01*
X7439307Y-16138632D02*
X7448830Y-16119585D01*
X7448830Y-16119585D02*
X7458354Y-16110061D01*
X7458354Y-16110061D02*
X7477402Y-16100537D01*
X7782164Y-16300537D02*
X7782164Y-16100537D01*
X7867878Y-16300537D02*
X7867878Y-16195775D01*
X7867878Y-16195775D02*
X7858354Y-16176728D01*
X7858354Y-16176728D02*
X7839307Y-16167204D01*
X7839307Y-16167204D02*
X7810735Y-16167204D01*
X7810735Y-16167204D02*
X7791688Y-16176728D01*
X7791688Y-16176728D02*
X7782164Y-16186251D01*
X7991688Y-16300537D02*
X7972640Y-16291013D01*
X7972640Y-16291013D02*
X7963116Y-16281489D01*
X7963116Y-16281489D02*
X7953592Y-16262442D01*
X7953592Y-16262442D02*
X7953592Y-16205299D01*
X7953592Y-16205299D02*
X7963116Y-16186251D01*
X7963116Y-16186251D02*
X7972640Y-16176728D01*
X7972640Y-16176728D02*
X7991688Y-16167204D01*
X7991688Y-16167204D02*
X8020259Y-16167204D01*
X8020259Y-16167204D02*
X8039307Y-16176728D01*
X8039307Y-16176728D02*
X8048831Y-16186251D01*
X8048831Y-16186251D02*
X8058354Y-16205299D01*
X8058354Y-16205299D02*
X8058354Y-16262442D01*
X8058354Y-16262442D02*
X8048831Y-16281489D01*
X8048831Y-16281489D02*
X8039307Y-16291013D01*
X8039307Y-16291013D02*
X8020259Y-16300537D01*
X8020259Y-16300537D02*
X7991688Y-16300537D01*
X8172640Y-16300537D02*
X8153592Y-16291013D01*
X8153592Y-16291013D02*
X8144069Y-16271966D01*
X8144069Y-16271966D02*
X8144069Y-16100537D01*
X8325021Y-16291013D02*
X8305973Y-16300537D01*
X8305973Y-16300537D02*
X8267878Y-16300537D01*
X8267878Y-16300537D02*
X8248831Y-16291013D01*
X8248831Y-16291013D02*
X8239307Y-16271966D01*
X8239307Y-16271966D02*
X8239307Y-16195775D01*
X8239307Y-16195775D02*
X8248831Y-16176728D01*
X8248831Y-16176728D02*
X8267878Y-16167204D01*
X8267878Y-16167204D02*
X8305973Y-16167204D01*
X8305973Y-16167204D02*
X8325021Y-16176728D01*
X8325021Y-16176728D02*
X8334545Y-16195775D01*
X8334545Y-16195775D02*
X8334545Y-16214823D01*
X8334545Y-16214823D02*
X8239307Y-16233870D01*
X8410735Y-16291013D02*
X8429783Y-16300537D01*
X8429783Y-16300537D02*
X8467878Y-16300537D01*
X8467878Y-16300537D02*
X8486926Y-16291013D01*
X8486926Y-16291013D02*
X8496450Y-16271966D01*
X8496450Y-16271966D02*
X8496450Y-16262442D01*
X8496450Y-16262442D02*
X8486926Y-16243394D01*
X8486926Y-16243394D02*
X8467878Y-16233870D01*
X8467878Y-16233870D02*
X8439307Y-16233870D01*
X8439307Y-16233870D02*
X8420259Y-16224347D01*
X8420259Y-16224347D02*
X8410735Y-16205299D01*
X8410735Y-16205299D02*
X8410735Y-16195775D01*
X8410735Y-16195775D02*
X8420259Y-16176728D01*
X8420259Y-16176728D02*
X8439307Y-16167204D01*
X8439307Y-16167204D02*
X8467878Y-16167204D01*
X8467878Y-16167204D02*
X8486926Y-16176728D01*
X8734545Y-16224347D02*
X8886926Y-16224347D01*
X8810736Y-16300537D02*
X8810736Y-16148156D01*
X9220259Y-16167204D02*
X9220259Y-16300537D01*
X9172640Y-16091013D02*
X9125021Y-16233870D01*
X9125021Y-16233870D02*
X9248831Y-16233870D01*
X9467878Y-16291013D02*
X9486926Y-16300537D01*
X9486926Y-16300537D02*
X9525021Y-16300537D01*
X9525021Y-16300537D02*
X9544069Y-16291013D01*
X9544069Y-16291013D02*
X9553593Y-16271966D01*
X9553593Y-16271966D02*
X9553593Y-16262442D01*
X9553593Y-16262442D02*
X9544069Y-16243394D01*
X9544069Y-16243394D02*
X9525021Y-16233870D01*
X9525021Y-16233870D02*
X9496450Y-16233870D01*
X9496450Y-16233870D02*
X9477402Y-16224347D01*
X9477402Y-16224347D02*
X9467878Y-16205299D01*
X9467878Y-16205299D02*
X9467878Y-16195775D01*
X9467878Y-16195775D02*
X9477402Y-16176728D01*
X9477402Y-16176728D02*
X9496450Y-16167204D01*
X9496450Y-16167204D02*
X9525021Y-16167204D01*
X9525021Y-16167204D02*
X9544069Y-16176728D01*
X9667878Y-16300537D02*
X9648831Y-16291013D01*
X9648831Y-16291013D02*
X9639307Y-16271966D01*
X9639307Y-16271966D02*
X9639307Y-16100537D01*
X9772640Y-16300537D02*
X9753593Y-16291013D01*
X9753593Y-16291013D02*
X9744069Y-16281489D01*
X9744069Y-16281489D02*
X9734545Y-16262442D01*
X9734545Y-16262442D02*
X9734545Y-16205299D01*
X9734545Y-16205299D02*
X9744069Y-16186251D01*
X9744069Y-16186251D02*
X9753593Y-16176728D01*
X9753593Y-16176728D02*
X9772640Y-16167204D01*
X9772640Y-16167204D02*
X9801212Y-16167204D01*
X9801212Y-16167204D02*
X9820259Y-16176728D01*
X9820259Y-16176728D02*
X9829783Y-16186251D01*
X9829783Y-16186251D02*
X9839307Y-16205299D01*
X9839307Y-16205299D02*
X9839307Y-16262442D01*
X9839307Y-16262442D02*
X9829783Y-16281489D01*
X9829783Y-16281489D02*
X9820259Y-16291013D01*
X9820259Y-16291013D02*
X9801212Y-16300537D01*
X9801212Y-16300537D02*
X9772640Y-16300537D01*
X9896450Y-16167204D02*
X9972640Y-16167204D01*
X9925021Y-16100537D02*
X9925021Y-16271966D01*
X9925021Y-16271966D02*
X9934545Y-16291013D01*
X9934545Y-16291013D02*
X9953593Y-16300537D01*
X9953593Y-16300537D02*
X9972640Y-16300537D01*
X10029783Y-16291013D02*
X10048831Y-16300537D01*
X10048831Y-16300537D02*
X10086926Y-16300537D01*
X10086926Y-16300537D02*
X10105974Y-16291013D01*
X10105974Y-16291013D02*
X10115498Y-16271966D01*
X10115498Y-16271966D02*
X10115498Y-16262442D01*
X10115498Y-16262442D02*
X10105974Y-16243394D01*
X10105974Y-16243394D02*
X10086926Y-16233870D01*
X10086926Y-16233870D02*
X10058355Y-16233870D01*
X10058355Y-16233870D02*
X10039307Y-16224347D01*
X10039307Y-16224347D02*
X10029783Y-16205299D01*
X10029783Y-16205299D02*
X10029783Y-16195775D01*
X10029783Y-16195775D02*
X10039307Y-16176728D01*
X10039307Y-16176728D02*
X10058355Y-16167204D01*
X10058355Y-16167204D02*
X10086926Y-16167204D01*
X10086926Y-16167204D02*
X10105974Y-16176728D01*
X10182164Y-16376728D02*
X10191688Y-16367204D01*
X10191688Y-16367204D02*
X10210736Y-16338632D01*
X10210736Y-16338632D02*
X10220259Y-16319585D01*
X10220259Y-16319585D02*
X10229783Y-16291013D01*
X10229783Y-16291013D02*
X10239307Y-16243394D01*
X10239307Y-16243394D02*
X10239307Y-16205299D01*
X10239307Y-16205299D02*
X10229783Y-16157680D01*
X10229783Y-16157680D02*
X10220259Y-16129109D01*
X10220259Y-16129109D02*
X10210736Y-16110061D01*
X10210736Y-16110061D02*
X10191688Y-16081489D01*
X10191688Y-16081489D02*
X10182164Y-16071966D01*
D15*
X3738053Y-16523053D02*
X3788053Y-16473053D01*
X3738053Y-16423053D01*
X3688053Y-16473053D01*
X3738053Y-16523053D01*
D11*
X4153592Y-16564537D02*
X4039306Y-16564537D01*
X4096449Y-16564537D02*
X4096449Y-16364537D01*
X4096449Y-16364537D02*
X4077402Y-16393109D01*
X4077402Y-16393109D02*
X4058354Y-16412156D01*
X4058354Y-16412156D02*
X4039306Y-16421680D01*
X4239306Y-16545489D02*
X4248830Y-16555013D01*
X4248830Y-16555013D02*
X4239306Y-16564537D01*
X4239306Y-16564537D02*
X4229783Y-16555013D01*
X4229783Y-16555013D02*
X4239306Y-16545489D01*
X4239306Y-16545489D02*
X4239306Y-16564537D01*
X4372640Y-16364537D02*
X4391687Y-16364537D01*
X4391687Y-16364537D02*
X4410735Y-16374061D01*
X4410735Y-16374061D02*
X4420259Y-16383585D01*
X4420259Y-16383585D02*
X4429783Y-16402632D01*
X4429783Y-16402632D02*
X4439306Y-16440728D01*
X4439306Y-16440728D02*
X4439306Y-16488347D01*
X4439306Y-16488347D02*
X4429783Y-16526442D01*
X4429783Y-16526442D02*
X4420259Y-16545489D01*
X4420259Y-16545489D02*
X4410735Y-16555013D01*
X4410735Y-16555013D02*
X4391687Y-16564537D01*
X4391687Y-16564537D02*
X4372640Y-16564537D01*
X4372640Y-16564537D02*
X4353592Y-16555013D01*
X4353592Y-16555013D02*
X4344068Y-16545489D01*
X4344068Y-16545489D02*
X4334545Y-16526442D01*
X4334545Y-16526442D02*
X4325021Y-16488347D01*
X4325021Y-16488347D02*
X4325021Y-16440728D01*
X4325021Y-16440728D02*
X4334545Y-16402632D01*
X4334545Y-16402632D02*
X4344068Y-16383585D01*
X4344068Y-16383585D02*
X4353592Y-16374061D01*
X4353592Y-16374061D02*
X4372640Y-16364537D01*
X4563116Y-16364537D02*
X4582164Y-16364537D01*
X4582164Y-16364537D02*
X4601211Y-16374061D01*
X4601211Y-16374061D02*
X4610735Y-16383585D01*
X4610735Y-16383585D02*
X4620259Y-16402632D01*
X4620259Y-16402632D02*
X4629783Y-16440728D01*
X4629783Y-16440728D02*
X4629783Y-16488347D01*
X4629783Y-16488347D02*
X4620259Y-16526442D01*
X4620259Y-16526442D02*
X4610735Y-16545489D01*
X4610735Y-16545489D02*
X4601211Y-16555013D01*
X4601211Y-16555013D02*
X4582164Y-16564537D01*
X4582164Y-16564537D02*
X4563116Y-16564537D01*
X4563116Y-16564537D02*
X4544068Y-16555013D01*
X4544068Y-16555013D02*
X4534545Y-16545489D01*
X4534545Y-16545489D02*
X4525021Y-16526442D01*
X4525021Y-16526442D02*
X4515497Y-16488347D01*
X4515497Y-16488347D02*
X4515497Y-16440728D01*
X4515497Y-16440728D02*
X4525021Y-16402632D01*
X4525021Y-16402632D02*
X4534545Y-16383585D01*
X4534545Y-16383585D02*
X4544068Y-16374061D01*
X4544068Y-16374061D02*
X4563116Y-16364537D01*
X4753592Y-16364537D02*
X4772640Y-16364537D01*
X4772640Y-16364537D02*
X4791687Y-16374061D01*
X4791687Y-16374061D02*
X4801211Y-16383585D01*
X4801211Y-16383585D02*
X4810735Y-16402632D01*
X4810735Y-16402632D02*
X4820259Y-16440728D01*
X4820259Y-16440728D02*
X4820259Y-16488347D01*
X4820259Y-16488347D02*
X4810735Y-16526442D01*
X4810735Y-16526442D02*
X4801211Y-16545489D01*
X4801211Y-16545489D02*
X4791687Y-16555013D01*
X4791687Y-16555013D02*
X4772640Y-16564537D01*
X4772640Y-16564537D02*
X4753592Y-16564537D01*
X4753592Y-16564537D02*
X4734545Y-16555013D01*
X4734545Y-16555013D02*
X4725021Y-16545489D01*
X4725021Y-16545489D02*
X4715497Y-16526442D01*
X4715497Y-16526442D02*
X4705973Y-16488347D01*
X4705973Y-16488347D02*
X4705973Y-16440728D01*
X4705973Y-16440728D02*
X4715497Y-16402632D01*
X4715497Y-16402632D02*
X4725021Y-16383585D01*
X4725021Y-16383585D02*
X4734545Y-16374061D01*
X4734545Y-16374061D02*
X4753592Y-16364537D01*
X4905973Y-16564537D02*
X4905973Y-16431204D01*
X4905973Y-16450251D02*
X4915497Y-16440728D01*
X4915497Y-16440728D02*
X4934545Y-16431204D01*
X4934545Y-16431204D02*
X4963116Y-16431204D01*
X4963116Y-16431204D02*
X4982164Y-16440728D01*
X4982164Y-16440728D02*
X4991687Y-16459775D01*
X4991687Y-16459775D02*
X4991687Y-16564537D01*
X4991687Y-16459775D02*
X5001211Y-16440728D01*
X5001211Y-16440728D02*
X5020259Y-16431204D01*
X5020259Y-16431204D02*
X5048830Y-16431204D01*
X5048830Y-16431204D02*
X5067878Y-16440728D01*
X5067878Y-16440728D02*
X5077402Y-16459775D01*
X5077402Y-16459775D02*
X5077402Y-16564537D01*
X5172640Y-16564537D02*
X5172640Y-16431204D01*
X5172640Y-16450251D02*
X5182164Y-16440728D01*
X5182164Y-16440728D02*
X5201211Y-16431204D01*
X5201211Y-16431204D02*
X5229783Y-16431204D01*
X5229783Y-16431204D02*
X5248830Y-16440728D01*
X5248830Y-16440728D02*
X5258354Y-16459775D01*
X5258354Y-16459775D02*
X5258354Y-16564537D01*
X5258354Y-16459775D02*
X5267878Y-16440728D01*
X5267878Y-16440728D02*
X5286926Y-16431204D01*
X5286926Y-16431204D02*
X5315497Y-16431204D01*
X5315497Y-16431204D02*
X5334545Y-16440728D01*
X5334545Y-16440728D02*
X5344068Y-16459775D01*
X5344068Y-16459775D02*
X5344068Y-16564537D01*
X5734545Y-16355013D02*
X5563116Y-16612156D01*
X5991687Y-16364537D02*
X6010735Y-16364537D01*
X6010735Y-16364537D02*
X6029783Y-16374061D01*
X6029783Y-16374061D02*
X6039307Y-16383585D01*
X6039307Y-16383585D02*
X6048830Y-16402632D01*
X6048830Y-16402632D02*
X6058354Y-16440728D01*
X6058354Y-16440728D02*
X6058354Y-16488347D01*
X6058354Y-16488347D02*
X6048830Y-16526442D01*
X6048830Y-16526442D02*
X6039307Y-16545489D01*
X6039307Y-16545489D02*
X6029783Y-16555013D01*
X6029783Y-16555013D02*
X6010735Y-16564537D01*
X6010735Y-16564537D02*
X5991687Y-16564537D01*
X5991687Y-16564537D02*
X5972640Y-16555013D01*
X5972640Y-16555013D02*
X5963116Y-16545489D01*
X5963116Y-16545489D02*
X5953592Y-16526442D01*
X5953592Y-16526442D02*
X5944068Y-16488347D01*
X5944068Y-16488347D02*
X5944068Y-16440728D01*
X5944068Y-16440728D02*
X5953592Y-16402632D01*
X5953592Y-16402632D02*
X5963116Y-16383585D01*
X5963116Y-16383585D02*
X5972640Y-16374061D01*
X5972640Y-16374061D02*
X5991687Y-16364537D01*
X6144068Y-16545489D02*
X6153592Y-16555013D01*
X6153592Y-16555013D02*
X6144068Y-16564537D01*
X6144068Y-16564537D02*
X6134545Y-16555013D01*
X6134545Y-16555013D02*
X6144068Y-16545489D01*
X6144068Y-16545489D02*
X6144068Y-16564537D01*
X6277402Y-16364537D02*
X6296449Y-16364537D01*
X6296449Y-16364537D02*
X6315497Y-16374061D01*
X6315497Y-16374061D02*
X6325021Y-16383585D01*
X6325021Y-16383585D02*
X6334545Y-16402632D01*
X6334545Y-16402632D02*
X6344068Y-16440728D01*
X6344068Y-16440728D02*
X6344068Y-16488347D01*
X6344068Y-16488347D02*
X6334545Y-16526442D01*
X6334545Y-16526442D02*
X6325021Y-16545489D01*
X6325021Y-16545489D02*
X6315497Y-16555013D01*
X6315497Y-16555013D02*
X6296449Y-16564537D01*
X6296449Y-16564537D02*
X6277402Y-16564537D01*
X6277402Y-16564537D02*
X6258354Y-16555013D01*
X6258354Y-16555013D02*
X6248830Y-16545489D01*
X6248830Y-16545489D02*
X6239307Y-16526442D01*
X6239307Y-16526442D02*
X6229783Y-16488347D01*
X6229783Y-16488347D02*
X6229783Y-16440728D01*
X6229783Y-16440728D02*
X6239307Y-16402632D01*
X6239307Y-16402632D02*
X6248830Y-16383585D01*
X6248830Y-16383585D02*
X6258354Y-16374061D01*
X6258354Y-16374061D02*
X6277402Y-16364537D01*
X6410735Y-16364537D02*
X6534545Y-16364537D01*
X6534545Y-16364537D02*
X6467878Y-16440728D01*
X6467878Y-16440728D02*
X6496449Y-16440728D01*
X6496449Y-16440728D02*
X6515497Y-16450251D01*
X6515497Y-16450251D02*
X6525021Y-16459775D01*
X6525021Y-16459775D02*
X6534545Y-16478823D01*
X6534545Y-16478823D02*
X6534545Y-16526442D01*
X6534545Y-16526442D02*
X6525021Y-16545489D01*
X6525021Y-16545489D02*
X6515497Y-16555013D01*
X6515497Y-16555013D02*
X6496449Y-16564537D01*
X6496449Y-16564537D02*
X6439307Y-16564537D01*
X6439307Y-16564537D02*
X6420259Y-16555013D01*
X6420259Y-16555013D02*
X6410735Y-16545489D01*
X6629783Y-16564537D02*
X6667878Y-16564537D01*
X6667878Y-16564537D02*
X6686926Y-16555013D01*
X6686926Y-16555013D02*
X6696449Y-16545489D01*
X6696449Y-16545489D02*
X6715497Y-16516918D01*
X6715497Y-16516918D02*
X6725021Y-16478823D01*
X6725021Y-16478823D02*
X6725021Y-16402632D01*
X6725021Y-16402632D02*
X6715497Y-16383585D01*
X6715497Y-16383585D02*
X6705973Y-16374061D01*
X6705973Y-16374061D02*
X6686926Y-16364537D01*
X6686926Y-16364537D02*
X6648830Y-16364537D01*
X6648830Y-16364537D02*
X6629783Y-16374061D01*
X6629783Y-16374061D02*
X6620259Y-16383585D01*
X6620259Y-16383585D02*
X6610735Y-16402632D01*
X6610735Y-16402632D02*
X6610735Y-16450251D01*
X6610735Y-16450251D02*
X6620259Y-16469299D01*
X6620259Y-16469299D02*
X6629783Y-16478823D01*
X6629783Y-16478823D02*
X6648830Y-16488347D01*
X6648830Y-16488347D02*
X6686926Y-16488347D01*
X6686926Y-16488347D02*
X6705973Y-16478823D01*
X6705973Y-16478823D02*
X6715497Y-16469299D01*
X6715497Y-16469299D02*
X6725021Y-16450251D01*
X6896449Y-16431204D02*
X6896449Y-16564537D01*
X6848830Y-16355013D02*
X6801211Y-16497870D01*
X6801211Y-16497870D02*
X6925021Y-16497870D01*
X6991688Y-16364537D02*
X6991688Y-16402632D01*
X7067878Y-16364537D02*
X7067878Y-16402632D01*
X7363116Y-16640728D02*
X7353592Y-16631204D01*
X7353592Y-16631204D02*
X7334545Y-16602632D01*
X7334545Y-16602632D02*
X7325021Y-16583585D01*
X7325021Y-16583585D02*
X7315497Y-16555013D01*
X7315497Y-16555013D02*
X7305973Y-16507394D01*
X7305973Y-16507394D02*
X7305973Y-16469299D01*
X7305973Y-16469299D02*
X7315497Y-16421680D01*
X7315497Y-16421680D02*
X7325021Y-16393109D01*
X7325021Y-16393109D02*
X7334545Y-16374061D01*
X7334545Y-16374061D02*
X7353592Y-16345489D01*
X7353592Y-16345489D02*
X7363116Y-16335966D01*
X7525021Y-16431204D02*
X7525021Y-16564537D01*
X7477402Y-16355013D02*
X7429783Y-16497870D01*
X7429783Y-16497870D02*
X7553592Y-16497870D01*
X7782164Y-16564537D02*
X7782164Y-16364537D01*
X7867878Y-16564537D02*
X7867878Y-16459775D01*
X7867878Y-16459775D02*
X7858354Y-16440728D01*
X7858354Y-16440728D02*
X7839307Y-16431204D01*
X7839307Y-16431204D02*
X7810735Y-16431204D01*
X7810735Y-16431204D02*
X7791688Y-16440728D01*
X7791688Y-16440728D02*
X7782164Y-16450251D01*
X7991688Y-16564537D02*
X7972640Y-16555013D01*
X7972640Y-16555013D02*
X7963116Y-16545489D01*
X7963116Y-16545489D02*
X7953592Y-16526442D01*
X7953592Y-16526442D02*
X7953592Y-16469299D01*
X7953592Y-16469299D02*
X7963116Y-16450251D01*
X7963116Y-16450251D02*
X7972640Y-16440728D01*
X7972640Y-16440728D02*
X7991688Y-16431204D01*
X7991688Y-16431204D02*
X8020259Y-16431204D01*
X8020259Y-16431204D02*
X8039307Y-16440728D01*
X8039307Y-16440728D02*
X8048831Y-16450251D01*
X8048831Y-16450251D02*
X8058354Y-16469299D01*
X8058354Y-16469299D02*
X8058354Y-16526442D01*
X8058354Y-16526442D02*
X8048831Y-16545489D01*
X8048831Y-16545489D02*
X8039307Y-16555013D01*
X8039307Y-16555013D02*
X8020259Y-16564537D01*
X8020259Y-16564537D02*
X7991688Y-16564537D01*
X8172640Y-16564537D02*
X8153592Y-16555013D01*
X8153592Y-16555013D02*
X8144069Y-16535966D01*
X8144069Y-16535966D02*
X8144069Y-16364537D01*
X8325021Y-16555013D02*
X8305973Y-16564537D01*
X8305973Y-16564537D02*
X8267878Y-16564537D01*
X8267878Y-16564537D02*
X8248831Y-16555013D01*
X8248831Y-16555013D02*
X8239307Y-16535966D01*
X8239307Y-16535966D02*
X8239307Y-16459775D01*
X8239307Y-16459775D02*
X8248831Y-16440728D01*
X8248831Y-16440728D02*
X8267878Y-16431204D01*
X8267878Y-16431204D02*
X8305973Y-16431204D01*
X8305973Y-16431204D02*
X8325021Y-16440728D01*
X8325021Y-16440728D02*
X8334545Y-16459775D01*
X8334545Y-16459775D02*
X8334545Y-16478823D01*
X8334545Y-16478823D02*
X8239307Y-16497870D01*
X8410735Y-16555013D02*
X8429783Y-16564537D01*
X8429783Y-16564537D02*
X8467878Y-16564537D01*
X8467878Y-16564537D02*
X8486926Y-16555013D01*
X8486926Y-16555013D02*
X8496450Y-16535966D01*
X8496450Y-16535966D02*
X8496450Y-16526442D01*
X8496450Y-16526442D02*
X8486926Y-16507394D01*
X8486926Y-16507394D02*
X8467878Y-16497870D01*
X8467878Y-16497870D02*
X8439307Y-16497870D01*
X8439307Y-16497870D02*
X8420259Y-16488347D01*
X8420259Y-16488347D02*
X8410735Y-16469299D01*
X8410735Y-16469299D02*
X8410735Y-16459775D01*
X8410735Y-16459775D02*
X8420259Y-16440728D01*
X8420259Y-16440728D02*
X8439307Y-16431204D01*
X8439307Y-16431204D02*
X8467878Y-16431204D01*
X8467878Y-16431204D02*
X8486926Y-16440728D01*
X8563116Y-16640728D02*
X8572640Y-16631204D01*
X8572640Y-16631204D02*
X8591688Y-16602632D01*
X8591688Y-16602632D02*
X8601212Y-16583585D01*
X8601212Y-16583585D02*
X8610735Y-16555013D01*
X8610735Y-16555013D02*
X8620259Y-16507394D01*
X8620259Y-16507394D02*
X8620259Y-16469299D01*
X8620259Y-16469299D02*
X8610735Y-16421680D01*
X8610735Y-16421680D02*
X8601212Y-16393109D01*
X8601212Y-16393109D02*
X8591688Y-16374061D01*
X8591688Y-16374061D02*
X8572640Y-16345489D01*
X8572640Y-16345489D02*
X8563116Y-16335966D01*
D16*
X3678053Y-16682053D02*
X3788053Y-16792053D01*
X3788053Y-16682053D02*
X3678053Y-16792053D01*
X3788053Y-16737053D02*
G75*
G03*
X3788053Y-16737053I-55000J0D01*
G01*
D11*
X4153592Y-16828537D02*
X4039306Y-16828537D01*
X4096449Y-16828537D02*
X4096449Y-16628537D01*
X4096449Y-16628537D02*
X4077402Y-16657109D01*
X4077402Y-16657109D02*
X4058354Y-16676156D01*
X4058354Y-16676156D02*
X4039306Y-16685680D01*
X4239306Y-16809490D02*
X4248830Y-16819013D01*
X4248830Y-16819013D02*
X4239306Y-16828537D01*
X4239306Y-16828537D02*
X4229783Y-16819013D01*
X4229783Y-16819013D02*
X4239306Y-16809490D01*
X4239306Y-16809490D02*
X4239306Y-16828537D01*
X4439306Y-16828537D02*
X4325021Y-16828537D01*
X4382164Y-16828537D02*
X4382164Y-16628537D01*
X4382164Y-16628537D02*
X4363116Y-16657109D01*
X4363116Y-16657109D02*
X4344068Y-16676156D01*
X4344068Y-16676156D02*
X4325021Y-16685680D01*
X4563116Y-16628537D02*
X4582164Y-16628537D01*
X4582164Y-16628537D02*
X4601211Y-16638061D01*
X4601211Y-16638061D02*
X4610735Y-16647585D01*
X4610735Y-16647585D02*
X4620259Y-16666632D01*
X4620259Y-16666632D02*
X4629783Y-16704728D01*
X4629783Y-16704728D02*
X4629783Y-16752347D01*
X4629783Y-16752347D02*
X4620259Y-16790442D01*
X4620259Y-16790442D02*
X4610735Y-16809490D01*
X4610735Y-16809490D02*
X4601211Y-16819013D01*
X4601211Y-16819013D02*
X4582164Y-16828537D01*
X4582164Y-16828537D02*
X4563116Y-16828537D01*
X4563116Y-16828537D02*
X4544068Y-16819013D01*
X4544068Y-16819013D02*
X4534545Y-16809490D01*
X4534545Y-16809490D02*
X4525021Y-16790442D01*
X4525021Y-16790442D02*
X4515497Y-16752347D01*
X4515497Y-16752347D02*
X4515497Y-16704728D01*
X4515497Y-16704728D02*
X4525021Y-16666632D01*
X4525021Y-16666632D02*
X4534545Y-16647585D01*
X4534545Y-16647585D02*
X4544068Y-16638061D01*
X4544068Y-16638061D02*
X4563116Y-16628537D01*
X4753592Y-16628537D02*
X4772640Y-16628537D01*
X4772640Y-16628537D02*
X4791687Y-16638061D01*
X4791687Y-16638061D02*
X4801211Y-16647585D01*
X4801211Y-16647585D02*
X4810735Y-16666632D01*
X4810735Y-16666632D02*
X4820259Y-16704728D01*
X4820259Y-16704728D02*
X4820259Y-16752347D01*
X4820259Y-16752347D02*
X4810735Y-16790442D01*
X4810735Y-16790442D02*
X4801211Y-16809490D01*
X4801211Y-16809490D02*
X4791687Y-16819013D01*
X4791687Y-16819013D02*
X4772640Y-16828537D01*
X4772640Y-16828537D02*
X4753592Y-16828537D01*
X4753592Y-16828537D02*
X4734545Y-16819013D01*
X4734545Y-16819013D02*
X4725021Y-16809490D01*
X4725021Y-16809490D02*
X4715497Y-16790442D01*
X4715497Y-16790442D02*
X4705973Y-16752347D01*
X4705973Y-16752347D02*
X4705973Y-16704728D01*
X4705973Y-16704728D02*
X4715497Y-16666632D01*
X4715497Y-16666632D02*
X4725021Y-16647585D01*
X4725021Y-16647585D02*
X4734545Y-16638061D01*
X4734545Y-16638061D02*
X4753592Y-16628537D01*
X4905973Y-16828537D02*
X4905973Y-16695204D01*
X4905973Y-16714251D02*
X4915497Y-16704728D01*
X4915497Y-16704728D02*
X4934545Y-16695204D01*
X4934545Y-16695204D02*
X4963116Y-16695204D01*
X4963116Y-16695204D02*
X4982164Y-16704728D01*
X4982164Y-16704728D02*
X4991687Y-16723775D01*
X4991687Y-16723775D02*
X4991687Y-16828537D01*
X4991687Y-16723775D02*
X5001211Y-16704728D01*
X5001211Y-16704728D02*
X5020259Y-16695204D01*
X5020259Y-16695204D02*
X5048830Y-16695204D01*
X5048830Y-16695204D02*
X5067878Y-16704728D01*
X5067878Y-16704728D02*
X5077402Y-16723775D01*
X5077402Y-16723775D02*
X5077402Y-16828537D01*
X5172640Y-16828537D02*
X5172640Y-16695204D01*
X5172640Y-16714251D02*
X5182164Y-16704728D01*
X5182164Y-16704728D02*
X5201211Y-16695204D01*
X5201211Y-16695204D02*
X5229783Y-16695204D01*
X5229783Y-16695204D02*
X5248830Y-16704728D01*
X5248830Y-16704728D02*
X5258354Y-16723775D01*
X5258354Y-16723775D02*
X5258354Y-16828537D01*
X5258354Y-16723775D02*
X5267878Y-16704728D01*
X5267878Y-16704728D02*
X5286926Y-16695204D01*
X5286926Y-16695204D02*
X5315497Y-16695204D01*
X5315497Y-16695204D02*
X5334545Y-16704728D01*
X5334545Y-16704728D02*
X5344068Y-16723775D01*
X5344068Y-16723775D02*
X5344068Y-16828537D01*
X5734545Y-16619013D02*
X5563116Y-16876156D01*
X5991687Y-16628537D02*
X6010735Y-16628537D01*
X6010735Y-16628537D02*
X6029783Y-16638061D01*
X6029783Y-16638061D02*
X6039307Y-16647585D01*
X6039307Y-16647585D02*
X6048830Y-16666632D01*
X6048830Y-16666632D02*
X6058354Y-16704728D01*
X6058354Y-16704728D02*
X6058354Y-16752347D01*
X6058354Y-16752347D02*
X6048830Y-16790442D01*
X6048830Y-16790442D02*
X6039307Y-16809490D01*
X6039307Y-16809490D02*
X6029783Y-16819013D01*
X6029783Y-16819013D02*
X6010735Y-16828537D01*
X6010735Y-16828537D02*
X5991687Y-16828537D01*
X5991687Y-16828537D02*
X5972640Y-16819013D01*
X5972640Y-16819013D02*
X5963116Y-16809490D01*
X5963116Y-16809490D02*
X5953592Y-16790442D01*
X5953592Y-16790442D02*
X5944068Y-16752347D01*
X5944068Y-16752347D02*
X5944068Y-16704728D01*
X5944068Y-16704728D02*
X5953592Y-16666632D01*
X5953592Y-16666632D02*
X5963116Y-16647585D01*
X5963116Y-16647585D02*
X5972640Y-16638061D01*
X5972640Y-16638061D02*
X5991687Y-16628537D01*
X6144068Y-16809490D02*
X6153592Y-16819013D01*
X6153592Y-16819013D02*
X6144068Y-16828537D01*
X6144068Y-16828537D02*
X6134545Y-16819013D01*
X6134545Y-16819013D02*
X6144068Y-16809490D01*
X6144068Y-16809490D02*
X6144068Y-16828537D01*
X6277402Y-16628537D02*
X6296449Y-16628537D01*
X6296449Y-16628537D02*
X6315497Y-16638061D01*
X6315497Y-16638061D02*
X6325021Y-16647585D01*
X6325021Y-16647585D02*
X6334545Y-16666632D01*
X6334545Y-16666632D02*
X6344068Y-16704728D01*
X6344068Y-16704728D02*
X6344068Y-16752347D01*
X6344068Y-16752347D02*
X6334545Y-16790442D01*
X6334545Y-16790442D02*
X6325021Y-16809490D01*
X6325021Y-16809490D02*
X6315497Y-16819013D01*
X6315497Y-16819013D02*
X6296449Y-16828537D01*
X6296449Y-16828537D02*
X6277402Y-16828537D01*
X6277402Y-16828537D02*
X6258354Y-16819013D01*
X6258354Y-16819013D02*
X6248830Y-16809490D01*
X6248830Y-16809490D02*
X6239307Y-16790442D01*
X6239307Y-16790442D02*
X6229783Y-16752347D01*
X6229783Y-16752347D02*
X6229783Y-16704728D01*
X6229783Y-16704728D02*
X6239307Y-16666632D01*
X6239307Y-16666632D02*
X6248830Y-16647585D01*
X6248830Y-16647585D02*
X6258354Y-16638061D01*
X6258354Y-16638061D02*
X6277402Y-16628537D01*
X6515497Y-16695204D02*
X6515497Y-16828537D01*
X6467878Y-16619013D02*
X6420259Y-16761870D01*
X6420259Y-16761870D02*
X6544068Y-16761870D01*
X6601211Y-16628537D02*
X6725021Y-16628537D01*
X6725021Y-16628537D02*
X6658354Y-16704728D01*
X6658354Y-16704728D02*
X6686926Y-16704728D01*
X6686926Y-16704728D02*
X6705973Y-16714251D01*
X6705973Y-16714251D02*
X6715497Y-16723775D01*
X6715497Y-16723775D02*
X6725021Y-16742823D01*
X6725021Y-16742823D02*
X6725021Y-16790442D01*
X6725021Y-16790442D02*
X6715497Y-16809490D01*
X6715497Y-16809490D02*
X6705973Y-16819013D01*
X6705973Y-16819013D02*
X6686926Y-16828537D01*
X6686926Y-16828537D02*
X6629783Y-16828537D01*
X6629783Y-16828537D02*
X6610735Y-16819013D01*
X6610735Y-16819013D02*
X6601211Y-16809490D01*
X6791688Y-16628537D02*
X6915497Y-16628537D01*
X6915497Y-16628537D02*
X6848830Y-16704728D01*
X6848830Y-16704728D02*
X6877402Y-16704728D01*
X6877402Y-16704728D02*
X6896449Y-16714251D01*
X6896449Y-16714251D02*
X6905973Y-16723775D01*
X6905973Y-16723775D02*
X6915497Y-16742823D01*
X6915497Y-16742823D02*
X6915497Y-16790442D01*
X6915497Y-16790442D02*
X6905973Y-16809490D01*
X6905973Y-16809490D02*
X6896449Y-16819013D01*
X6896449Y-16819013D02*
X6877402Y-16828537D01*
X6877402Y-16828537D02*
X6820259Y-16828537D01*
X6820259Y-16828537D02*
X6801211Y-16819013D01*
X6801211Y-16819013D02*
X6791688Y-16809490D01*
X6991688Y-16628537D02*
X6991688Y-16666632D01*
X7067878Y-16628537D02*
X7067878Y-16666632D01*
X7363116Y-16904728D02*
X7353592Y-16895204D01*
X7353592Y-16895204D02*
X7334545Y-16866632D01*
X7334545Y-16866632D02*
X7325021Y-16847585D01*
X7325021Y-16847585D02*
X7315497Y-16819013D01*
X7315497Y-16819013D02*
X7305973Y-16771394D01*
X7305973Y-16771394D02*
X7305973Y-16733299D01*
X7305973Y-16733299D02*
X7315497Y-16685680D01*
X7315497Y-16685680D02*
X7325021Y-16657109D01*
X7325021Y-16657109D02*
X7334545Y-16638061D01*
X7334545Y-16638061D02*
X7353592Y-16609489D01*
X7353592Y-16609489D02*
X7363116Y-16599966D01*
X7429783Y-16647585D02*
X7439307Y-16638061D01*
X7439307Y-16638061D02*
X7458354Y-16628537D01*
X7458354Y-16628537D02*
X7505973Y-16628537D01*
X7505973Y-16628537D02*
X7525021Y-16638061D01*
X7525021Y-16638061D02*
X7534545Y-16647585D01*
X7534545Y-16647585D02*
X7544069Y-16666632D01*
X7544069Y-16666632D02*
X7544069Y-16685680D01*
X7544069Y-16685680D02*
X7534545Y-16714251D01*
X7534545Y-16714251D02*
X7420259Y-16828537D01*
X7420259Y-16828537D02*
X7544069Y-16828537D01*
X7715497Y-16695204D02*
X7715497Y-16828537D01*
X7667878Y-16619013D02*
X7620259Y-16761870D01*
X7620259Y-16761870D02*
X7744069Y-16761870D01*
X7972640Y-16828537D02*
X7972640Y-16628537D01*
X8058354Y-16828537D02*
X8058354Y-16723775D01*
X8058354Y-16723775D02*
X8048831Y-16704728D01*
X8048831Y-16704728D02*
X8029783Y-16695204D01*
X8029783Y-16695204D02*
X8001211Y-16695204D01*
X8001211Y-16695204D02*
X7982164Y-16704728D01*
X7982164Y-16704728D02*
X7972640Y-16714251D01*
X8182164Y-16828537D02*
X8163116Y-16819013D01*
X8163116Y-16819013D02*
X8153592Y-16809490D01*
X8153592Y-16809490D02*
X8144069Y-16790442D01*
X8144069Y-16790442D02*
X8144069Y-16733299D01*
X8144069Y-16733299D02*
X8153592Y-16714251D01*
X8153592Y-16714251D02*
X8163116Y-16704728D01*
X8163116Y-16704728D02*
X8182164Y-16695204D01*
X8182164Y-16695204D02*
X8210735Y-16695204D01*
X8210735Y-16695204D02*
X8229783Y-16704728D01*
X8229783Y-16704728D02*
X8239307Y-16714251D01*
X8239307Y-16714251D02*
X8248831Y-16733299D01*
X8248831Y-16733299D02*
X8248831Y-16790442D01*
X8248831Y-16790442D02*
X8239307Y-16809490D01*
X8239307Y-16809490D02*
X8229783Y-16819013D01*
X8229783Y-16819013D02*
X8210735Y-16828537D01*
X8210735Y-16828537D02*
X8182164Y-16828537D01*
X8363116Y-16828537D02*
X8344069Y-16819013D01*
X8344069Y-16819013D02*
X8334545Y-16799966D01*
X8334545Y-16799966D02*
X8334545Y-16628537D01*
X8515497Y-16819013D02*
X8496450Y-16828537D01*
X8496450Y-16828537D02*
X8458354Y-16828537D01*
X8458354Y-16828537D02*
X8439307Y-16819013D01*
X8439307Y-16819013D02*
X8429783Y-16799966D01*
X8429783Y-16799966D02*
X8429783Y-16723775D01*
X8429783Y-16723775D02*
X8439307Y-16704728D01*
X8439307Y-16704728D02*
X8458354Y-16695204D01*
X8458354Y-16695204D02*
X8496450Y-16695204D01*
X8496450Y-16695204D02*
X8515497Y-16704728D01*
X8515497Y-16704728D02*
X8525021Y-16723775D01*
X8525021Y-16723775D02*
X8525021Y-16742823D01*
X8525021Y-16742823D02*
X8429783Y-16761870D01*
X8601212Y-16819013D02*
X8620259Y-16828537D01*
X8620259Y-16828537D02*
X8658354Y-16828537D01*
X8658354Y-16828537D02*
X8677402Y-16819013D01*
X8677402Y-16819013D02*
X8686926Y-16799966D01*
X8686926Y-16799966D02*
X8686926Y-16790442D01*
X8686926Y-16790442D02*
X8677402Y-16771394D01*
X8677402Y-16771394D02*
X8658354Y-16761870D01*
X8658354Y-16761870D02*
X8629783Y-16761870D01*
X8629783Y-16761870D02*
X8610735Y-16752347D01*
X8610735Y-16752347D02*
X8601212Y-16733299D01*
X8601212Y-16733299D02*
X8601212Y-16723775D01*
X8601212Y-16723775D02*
X8610735Y-16704728D01*
X8610735Y-16704728D02*
X8629783Y-16695204D01*
X8629783Y-16695204D02*
X8658354Y-16695204D01*
X8658354Y-16695204D02*
X8677402Y-16704728D01*
X8753593Y-16904728D02*
X8763116Y-16895204D01*
X8763116Y-16895204D02*
X8782164Y-16866632D01*
X8782164Y-16866632D02*
X8791688Y-16847585D01*
X8791688Y-16847585D02*
X8801212Y-16819013D01*
X8801212Y-16819013D02*
X8810735Y-16771394D01*
X8810735Y-16771394D02*
X8810735Y-16733299D01*
X8810735Y-16733299D02*
X8801212Y-16685680D01*
X8801212Y-16685680D02*
X8791688Y-16657109D01*
X8791688Y-16657109D02*
X8782164Y-16638061D01*
X8782164Y-16638061D02*
X8763116Y-16609489D01*
X8763116Y-16609489D02*
X8753593Y-16599966D01*
D17*
X3661053Y-16937553D02*
X3788053Y-17064553D01*
X3788053Y-16937553D02*
X3661053Y-17064553D01*
X3724553Y-16937553D02*
X3724553Y-17064553D01*
X3661053Y-17001053D02*
X3788053Y-17001053D01*
D11*
X4153592Y-17092537D02*
X4039306Y-17092537D01*
X4096449Y-17092537D02*
X4096449Y-16892537D01*
X4096449Y-16892537D02*
X4077402Y-16921109D01*
X4077402Y-16921109D02*
X4058354Y-16940156D01*
X4058354Y-16940156D02*
X4039306Y-16949680D01*
X4239306Y-17073490D02*
X4248830Y-17083013D01*
X4248830Y-17083013D02*
X4239306Y-17092537D01*
X4239306Y-17092537D02*
X4229783Y-17083013D01*
X4229783Y-17083013D02*
X4239306Y-17073490D01*
X4239306Y-17073490D02*
X4239306Y-17092537D01*
X4325021Y-16911585D02*
X4334545Y-16902061D01*
X4334545Y-16902061D02*
X4353592Y-16892537D01*
X4353592Y-16892537D02*
X4401211Y-16892537D01*
X4401211Y-16892537D02*
X4420259Y-16902061D01*
X4420259Y-16902061D02*
X4429783Y-16911585D01*
X4429783Y-16911585D02*
X4439306Y-16930632D01*
X4439306Y-16930632D02*
X4439306Y-16949680D01*
X4439306Y-16949680D02*
X4429783Y-16978251D01*
X4429783Y-16978251D02*
X4315497Y-17092537D01*
X4315497Y-17092537D02*
X4439306Y-17092537D01*
X4505973Y-16892537D02*
X4639306Y-16892537D01*
X4639306Y-16892537D02*
X4553592Y-17092537D01*
X4753592Y-16892537D02*
X4772640Y-16892537D01*
X4772640Y-16892537D02*
X4791687Y-16902061D01*
X4791687Y-16902061D02*
X4801211Y-16911585D01*
X4801211Y-16911585D02*
X4810735Y-16930632D01*
X4810735Y-16930632D02*
X4820259Y-16968728D01*
X4820259Y-16968728D02*
X4820259Y-17016347D01*
X4820259Y-17016347D02*
X4810735Y-17054442D01*
X4810735Y-17054442D02*
X4801211Y-17073490D01*
X4801211Y-17073490D02*
X4791687Y-17083013D01*
X4791687Y-17083013D02*
X4772640Y-17092537D01*
X4772640Y-17092537D02*
X4753592Y-17092537D01*
X4753592Y-17092537D02*
X4734545Y-17083013D01*
X4734545Y-17083013D02*
X4725021Y-17073490D01*
X4725021Y-17073490D02*
X4715497Y-17054442D01*
X4715497Y-17054442D02*
X4705973Y-17016347D01*
X4705973Y-17016347D02*
X4705973Y-16968728D01*
X4705973Y-16968728D02*
X4715497Y-16930632D01*
X4715497Y-16930632D02*
X4725021Y-16911585D01*
X4725021Y-16911585D02*
X4734545Y-16902061D01*
X4734545Y-16902061D02*
X4753592Y-16892537D01*
X4905973Y-17092537D02*
X4905973Y-16959204D01*
X4905973Y-16978251D02*
X4915497Y-16968728D01*
X4915497Y-16968728D02*
X4934545Y-16959204D01*
X4934545Y-16959204D02*
X4963116Y-16959204D01*
X4963116Y-16959204D02*
X4982164Y-16968728D01*
X4982164Y-16968728D02*
X4991687Y-16987775D01*
X4991687Y-16987775D02*
X4991687Y-17092537D01*
X4991687Y-16987775D02*
X5001211Y-16968728D01*
X5001211Y-16968728D02*
X5020259Y-16959204D01*
X5020259Y-16959204D02*
X5048830Y-16959204D01*
X5048830Y-16959204D02*
X5067878Y-16968728D01*
X5067878Y-16968728D02*
X5077402Y-16987775D01*
X5077402Y-16987775D02*
X5077402Y-17092537D01*
X5172640Y-17092537D02*
X5172640Y-16959204D01*
X5172640Y-16978251D02*
X5182164Y-16968728D01*
X5182164Y-16968728D02*
X5201211Y-16959204D01*
X5201211Y-16959204D02*
X5229783Y-16959204D01*
X5229783Y-16959204D02*
X5248830Y-16968728D01*
X5248830Y-16968728D02*
X5258354Y-16987775D01*
X5258354Y-16987775D02*
X5258354Y-17092537D01*
X5258354Y-16987775D02*
X5267878Y-16968728D01*
X5267878Y-16968728D02*
X5286926Y-16959204D01*
X5286926Y-16959204D02*
X5315497Y-16959204D01*
X5315497Y-16959204D02*
X5334545Y-16968728D01*
X5334545Y-16968728D02*
X5344068Y-16987775D01*
X5344068Y-16987775D02*
X5344068Y-17092537D01*
X5734545Y-16883013D02*
X5563116Y-17140156D01*
X5991687Y-16892537D02*
X6010735Y-16892537D01*
X6010735Y-16892537D02*
X6029783Y-16902061D01*
X6029783Y-16902061D02*
X6039307Y-16911585D01*
X6039307Y-16911585D02*
X6048830Y-16930632D01*
X6048830Y-16930632D02*
X6058354Y-16968728D01*
X6058354Y-16968728D02*
X6058354Y-17016347D01*
X6058354Y-17016347D02*
X6048830Y-17054442D01*
X6048830Y-17054442D02*
X6039307Y-17073490D01*
X6039307Y-17073490D02*
X6029783Y-17083013D01*
X6029783Y-17083013D02*
X6010735Y-17092537D01*
X6010735Y-17092537D02*
X5991687Y-17092537D01*
X5991687Y-17092537D02*
X5972640Y-17083013D01*
X5972640Y-17083013D02*
X5963116Y-17073490D01*
X5963116Y-17073490D02*
X5953592Y-17054442D01*
X5953592Y-17054442D02*
X5944068Y-17016347D01*
X5944068Y-17016347D02*
X5944068Y-16968728D01*
X5944068Y-16968728D02*
X5953592Y-16930632D01*
X5953592Y-16930632D02*
X5963116Y-16911585D01*
X5963116Y-16911585D02*
X5972640Y-16902061D01*
X5972640Y-16902061D02*
X5991687Y-16892537D01*
X6144068Y-17073490D02*
X6153592Y-17083013D01*
X6153592Y-17083013D02*
X6144068Y-17092537D01*
X6144068Y-17092537D02*
X6134545Y-17083013D01*
X6134545Y-17083013D02*
X6144068Y-17073490D01*
X6144068Y-17073490D02*
X6144068Y-17092537D01*
X6277402Y-16892537D02*
X6296449Y-16892537D01*
X6296449Y-16892537D02*
X6315497Y-16902061D01*
X6315497Y-16902061D02*
X6325021Y-16911585D01*
X6325021Y-16911585D02*
X6334545Y-16930632D01*
X6334545Y-16930632D02*
X6344068Y-16968728D01*
X6344068Y-16968728D02*
X6344068Y-17016347D01*
X6344068Y-17016347D02*
X6334545Y-17054442D01*
X6334545Y-17054442D02*
X6325021Y-17073490D01*
X6325021Y-17073490D02*
X6315497Y-17083013D01*
X6315497Y-17083013D02*
X6296449Y-17092537D01*
X6296449Y-17092537D02*
X6277402Y-17092537D01*
X6277402Y-17092537D02*
X6258354Y-17083013D01*
X6258354Y-17083013D02*
X6248830Y-17073490D01*
X6248830Y-17073490D02*
X6239307Y-17054442D01*
X6239307Y-17054442D02*
X6229783Y-17016347D01*
X6229783Y-17016347D02*
X6229783Y-16968728D01*
X6229783Y-16968728D02*
X6239307Y-16930632D01*
X6239307Y-16930632D02*
X6248830Y-16911585D01*
X6248830Y-16911585D02*
X6258354Y-16902061D01*
X6258354Y-16902061D02*
X6277402Y-16892537D01*
X6525021Y-16892537D02*
X6429783Y-16892537D01*
X6429783Y-16892537D02*
X6420259Y-16987775D01*
X6420259Y-16987775D02*
X6429783Y-16978251D01*
X6429783Y-16978251D02*
X6448830Y-16968728D01*
X6448830Y-16968728D02*
X6496449Y-16968728D01*
X6496449Y-16968728D02*
X6515497Y-16978251D01*
X6515497Y-16978251D02*
X6525021Y-16987775D01*
X6525021Y-16987775D02*
X6534545Y-17006823D01*
X6534545Y-17006823D02*
X6534545Y-17054442D01*
X6534545Y-17054442D02*
X6525021Y-17073490D01*
X6525021Y-17073490D02*
X6515497Y-17083013D01*
X6515497Y-17083013D02*
X6496449Y-17092537D01*
X6496449Y-17092537D02*
X6448830Y-17092537D01*
X6448830Y-17092537D02*
X6429783Y-17083013D01*
X6429783Y-17083013D02*
X6420259Y-17073490D01*
X6658354Y-16892537D02*
X6677402Y-16892537D01*
X6677402Y-16892537D02*
X6696449Y-16902061D01*
X6696449Y-16902061D02*
X6705973Y-16911585D01*
X6705973Y-16911585D02*
X6715497Y-16930632D01*
X6715497Y-16930632D02*
X6725021Y-16968728D01*
X6725021Y-16968728D02*
X6725021Y-17016347D01*
X6725021Y-17016347D02*
X6715497Y-17054442D01*
X6715497Y-17054442D02*
X6705973Y-17073490D01*
X6705973Y-17073490D02*
X6696449Y-17083013D01*
X6696449Y-17083013D02*
X6677402Y-17092537D01*
X6677402Y-17092537D02*
X6658354Y-17092537D01*
X6658354Y-17092537D02*
X6639307Y-17083013D01*
X6639307Y-17083013D02*
X6629783Y-17073490D01*
X6629783Y-17073490D02*
X6620259Y-17054442D01*
X6620259Y-17054442D02*
X6610735Y-17016347D01*
X6610735Y-17016347D02*
X6610735Y-16968728D01*
X6610735Y-16968728D02*
X6620259Y-16930632D01*
X6620259Y-16930632D02*
X6629783Y-16911585D01*
X6629783Y-16911585D02*
X6639307Y-16902061D01*
X6639307Y-16902061D02*
X6658354Y-16892537D01*
X6848830Y-16892537D02*
X6867878Y-16892537D01*
X6867878Y-16892537D02*
X6886926Y-16902061D01*
X6886926Y-16902061D02*
X6896449Y-16911585D01*
X6896449Y-16911585D02*
X6905973Y-16930632D01*
X6905973Y-16930632D02*
X6915497Y-16968728D01*
X6915497Y-16968728D02*
X6915497Y-17016347D01*
X6915497Y-17016347D02*
X6905973Y-17054442D01*
X6905973Y-17054442D02*
X6896449Y-17073490D01*
X6896449Y-17073490D02*
X6886926Y-17083013D01*
X6886926Y-17083013D02*
X6867878Y-17092537D01*
X6867878Y-17092537D02*
X6848830Y-17092537D01*
X6848830Y-17092537D02*
X6829783Y-17083013D01*
X6829783Y-17083013D02*
X6820259Y-17073490D01*
X6820259Y-17073490D02*
X6810735Y-17054442D01*
X6810735Y-17054442D02*
X6801211Y-17016347D01*
X6801211Y-17016347D02*
X6801211Y-16968728D01*
X6801211Y-16968728D02*
X6810735Y-16930632D01*
X6810735Y-16930632D02*
X6820259Y-16911585D01*
X6820259Y-16911585D02*
X6829783Y-16902061D01*
X6829783Y-16902061D02*
X6848830Y-16892537D01*
X6991688Y-16892537D02*
X6991688Y-16930632D01*
X7067878Y-16892537D02*
X7067878Y-16930632D01*
X7363116Y-17168728D02*
X7353592Y-17159204D01*
X7353592Y-17159204D02*
X7334545Y-17130632D01*
X7334545Y-17130632D02*
X7325021Y-17111585D01*
X7325021Y-17111585D02*
X7315497Y-17083013D01*
X7315497Y-17083013D02*
X7305973Y-17035394D01*
X7305973Y-17035394D02*
X7305973Y-16997299D01*
X7305973Y-16997299D02*
X7315497Y-16949680D01*
X7315497Y-16949680D02*
X7325021Y-16921109D01*
X7325021Y-16921109D02*
X7334545Y-16902061D01*
X7334545Y-16902061D02*
X7353592Y-16873490D01*
X7353592Y-16873490D02*
X7363116Y-16863966D01*
X7429783Y-16911585D02*
X7439307Y-16902061D01*
X7439307Y-16902061D02*
X7458354Y-16892537D01*
X7458354Y-16892537D02*
X7505973Y-16892537D01*
X7505973Y-16892537D02*
X7525021Y-16902061D01*
X7525021Y-16902061D02*
X7534545Y-16911585D01*
X7534545Y-16911585D02*
X7544069Y-16930632D01*
X7544069Y-16930632D02*
X7544069Y-16949680D01*
X7544069Y-16949680D02*
X7534545Y-16978251D01*
X7534545Y-16978251D02*
X7420259Y-17092537D01*
X7420259Y-17092537D02*
X7544069Y-17092537D01*
X7715497Y-16959204D02*
X7715497Y-17092537D01*
X7667878Y-16883013D02*
X7620259Y-17025871D01*
X7620259Y-17025871D02*
X7744069Y-17025871D01*
X7972640Y-17092537D02*
X7972640Y-16892537D01*
X8058354Y-17092537D02*
X8058354Y-16987775D01*
X8058354Y-16987775D02*
X8048831Y-16968728D01*
X8048831Y-16968728D02*
X8029783Y-16959204D01*
X8029783Y-16959204D02*
X8001211Y-16959204D01*
X8001211Y-16959204D02*
X7982164Y-16968728D01*
X7982164Y-16968728D02*
X7972640Y-16978251D01*
X8182164Y-17092537D02*
X8163116Y-17083013D01*
X8163116Y-17083013D02*
X8153592Y-17073490D01*
X8153592Y-17073490D02*
X8144069Y-17054442D01*
X8144069Y-17054442D02*
X8144069Y-16997299D01*
X8144069Y-16997299D02*
X8153592Y-16978251D01*
X8153592Y-16978251D02*
X8163116Y-16968728D01*
X8163116Y-16968728D02*
X8182164Y-16959204D01*
X8182164Y-16959204D02*
X8210735Y-16959204D01*
X8210735Y-16959204D02*
X8229783Y-16968728D01*
X8229783Y-16968728D02*
X8239307Y-16978251D01*
X8239307Y-16978251D02*
X8248831Y-16997299D01*
X8248831Y-16997299D02*
X8248831Y-17054442D01*
X8248831Y-17054442D02*
X8239307Y-17073490D01*
X8239307Y-17073490D02*
X8229783Y-17083013D01*
X8229783Y-17083013D02*
X8210735Y-17092537D01*
X8210735Y-17092537D02*
X8182164Y-17092537D01*
X8363116Y-17092537D02*
X8344069Y-17083013D01*
X8344069Y-17083013D02*
X8334545Y-17063966D01*
X8334545Y-17063966D02*
X8334545Y-16892537D01*
X8515497Y-17083013D02*
X8496450Y-17092537D01*
X8496450Y-17092537D02*
X8458354Y-17092537D01*
X8458354Y-17092537D02*
X8439307Y-17083013D01*
X8439307Y-17083013D02*
X8429783Y-17063966D01*
X8429783Y-17063966D02*
X8429783Y-16987775D01*
X8429783Y-16987775D02*
X8439307Y-16968728D01*
X8439307Y-16968728D02*
X8458354Y-16959204D01*
X8458354Y-16959204D02*
X8496450Y-16959204D01*
X8496450Y-16959204D02*
X8515497Y-16968728D01*
X8515497Y-16968728D02*
X8525021Y-16987775D01*
X8525021Y-16987775D02*
X8525021Y-17006823D01*
X8525021Y-17006823D02*
X8429783Y-17025871D01*
X8601212Y-17083013D02*
X8620259Y-17092537D01*
X8620259Y-17092537D02*
X8658354Y-17092537D01*
X8658354Y-17092537D02*
X8677402Y-17083013D01*
X8677402Y-17083013D02*
X8686926Y-17063966D01*
X8686926Y-17063966D02*
X8686926Y-17054442D01*
X8686926Y-17054442D02*
X8677402Y-17035394D01*
X8677402Y-17035394D02*
X8658354Y-17025871D01*
X8658354Y-17025871D02*
X8629783Y-17025871D01*
X8629783Y-17025871D02*
X8610735Y-17016347D01*
X8610735Y-17016347D02*
X8601212Y-16997299D01*
X8601212Y-16997299D02*
X8601212Y-16987775D01*
X8601212Y-16987775D02*
X8610735Y-16968728D01*
X8610735Y-16968728D02*
X8629783Y-16959204D01*
X8629783Y-16959204D02*
X8658354Y-16959204D01*
X8658354Y-16959204D02*
X8677402Y-16968728D01*
X8753593Y-17168728D02*
X8763116Y-17159204D01*
X8763116Y-17159204D02*
X8782164Y-17130632D01*
X8782164Y-17130632D02*
X8791688Y-17111585D01*
X8791688Y-17111585D02*
X8801212Y-17083013D01*
X8801212Y-17083013D02*
X8810735Y-17035394D01*
X8810735Y-17035394D02*
X8810735Y-16997299D01*
X8810735Y-16997299D02*
X8801212Y-16949680D01*
X8801212Y-16949680D02*
X8791688Y-16921109D01*
X8791688Y-16921109D02*
X8782164Y-16902061D01*
X8782164Y-16902061D02*
X8763116Y-16873490D01*
X8763116Y-16873490D02*
X8753593Y-16863966D01*
M02*
