%TF.GenerationSoftware,KiCad,Pcbnew,7.0.5*%
%TF.CreationDate,2023-10-21T15:45:59-07:00*%
%TF.ProjectId,VBox,56426f78-2e6b-4696-9361-645f70636258,rev?*%
%TF.SameCoordinates,Original*%
%TF.FileFunction,Soldermask,Bot*%
%TF.FilePolarity,Negative*%
%FSLAX46Y46*%
G04 Gerber Fmt 4.6, Leading zero omitted, Abs format (unit mm)*
G04 Created by KiCad (PCBNEW 7.0.5) date 2023-10-21 15:45:59*
%MOMM*%
%LPD*%
G01*
G04 APERTURE LIST*
%ADD10C,2.000000*%
%ADD11C,1.701800*%
%ADD12C,3.000000*%
%ADD13C,3.429000*%
%ADD14R,2.600000X2.600000*%
%ADD15C,2.032000*%
%ADD16C,0.650000*%
%ADD17O,1.000000X2.100000*%
%ADD18O,1.000000X1.600000*%
%ADD19C,6.400000*%
%ADD20O,1.600000X2.000000*%
G04 APERTURE END LIST*
D10*
%TO.C,SW5*%
X89750000Y-40750000D03*
X89750000Y-34250000D03*
X94250000Y-40750000D03*
X94250000Y-34250000D03*
%TD*%
D11*
%TO.C,SW10*%
X141265534Y-62855534D03*
D12*
X146765534Y-56905534D03*
D13*
X146765534Y-62855534D03*
D12*
X151765534Y-59105534D03*
D11*
X152265534Y-62855534D03*
D14*
X143490534Y-56905534D03*
D15*
X146765534Y-68755534D03*
X141765534Y-66655534D03*
D14*
X155040534Y-59105534D03*
%TD*%
D16*
%TO.C,USB1*%
X145795534Y-28495534D03*
X140015534Y-28495534D03*
D17*
X147225534Y-29025534D03*
D18*
X147225534Y-24845534D03*
D17*
X138585534Y-29025534D03*
D18*
X138585534Y-24845534D03*
%TD*%
D10*
%TO.C,SW4*%
X81050000Y-40750000D03*
X81050000Y-34250000D03*
X85550000Y-40750000D03*
X85550000Y-34250000D03*
%TD*%
D11*
%TO.C,SW15*%
X162265534Y-82785534D03*
D12*
X167765534Y-76835534D03*
D13*
X167765534Y-82785534D03*
D12*
X172765534Y-79035534D03*
D11*
X173265534Y-82785534D03*
D14*
X164490534Y-76835534D03*
D15*
X167765534Y-88685534D03*
X162765534Y-86585534D03*
D14*
X176040534Y-79035534D03*
%TD*%
D19*
%TO.C,H3*%
X240905534Y-34745534D03*
%TD*%
D10*
%TO.C,SW6*%
X98450000Y-40750000D03*
X98450000Y-34250000D03*
X102950000Y-40750000D03*
X102950000Y-34250000D03*
%TD*%
%TO.C,SW3*%
X71150000Y-40750000D03*
X71150000Y-34250000D03*
X75650000Y-40750000D03*
X75650000Y-34250000D03*
%TD*%
D11*
%TO.C,SW12*%
X196795534Y-51205534D03*
D12*
X202295534Y-45255534D03*
D13*
X202295534Y-51205534D03*
D12*
X207295534Y-47455534D03*
D11*
X207795534Y-51205534D03*
D14*
X199020534Y-45255534D03*
D15*
X202295534Y-57105534D03*
X197295534Y-55005534D03*
D14*
X210570534Y-47455534D03*
%TD*%
D11*
%TO.C,SW8*%
X79725534Y-62915534D03*
D12*
X85225534Y-56965534D03*
D13*
X85225534Y-62915534D03*
D12*
X90225534Y-59165534D03*
D11*
X90725534Y-62915534D03*
D14*
X81950534Y-56965534D03*
D15*
X85225534Y-68815534D03*
X80225534Y-66715534D03*
D14*
X93500534Y-59165534D03*
%TD*%
D20*
%TO.C,OLED1*%
X116200000Y-31200000D03*
X118740000Y-31200000D03*
X121280000Y-31200000D03*
X123820000Y-31200000D03*
%TD*%
D11*
%TO.C,SW18*%
X123825534Y-127365534D03*
D12*
X129325534Y-121415534D03*
D13*
X129325534Y-127365534D03*
D12*
X134325534Y-123615534D03*
D11*
X134825534Y-127365534D03*
D14*
X126050534Y-121415534D03*
D15*
X129325534Y-133265534D03*
X124325534Y-131165534D03*
D14*
X137600534Y-123615534D03*
%TD*%
D19*
%TO.C,H6*%
X147905534Y-140745534D03*
%TD*%
D10*
%TO.C,SW1*%
X53700000Y-40745534D03*
X53700000Y-34245534D03*
X58200000Y-40745534D03*
X58200000Y-34245534D03*
%TD*%
D11*
%TO.C,SW17*%
X220325534Y-82785534D03*
D12*
X225825534Y-76835534D03*
D13*
X225825534Y-82785534D03*
D12*
X230825534Y-79035534D03*
D11*
X231325534Y-82785534D03*
D14*
X222550534Y-76835534D03*
D15*
X225825534Y-88685534D03*
X220825534Y-86585534D03*
D14*
X234100534Y-79035534D03*
%TD*%
D19*
%TO.C,H2*%
X154505534Y-34745534D03*
%TD*%
D11*
%TO.C,SW16*%
X191115534Y-82785534D03*
D12*
X196615534Y-76835534D03*
D13*
X196615534Y-82785534D03*
D12*
X201615534Y-79035534D03*
D11*
X202115534Y-82785534D03*
D14*
X193340534Y-76835534D03*
D15*
X196615534Y-88685534D03*
X191615534Y-86585534D03*
D14*
X204890534Y-79035534D03*
%TD*%
D19*
%TO.C,H4*%
X131405534Y-75745534D03*
%TD*%
%TO.C,H5*%
X44905534Y-140745534D03*
%TD*%
%TO.C,H7*%
X240905534Y-140745534D03*
%TD*%
D11*
%TO.C,SW9*%
X106325534Y-74265534D03*
D12*
X111825534Y-68315534D03*
D13*
X111825534Y-74265534D03*
D12*
X116825534Y-70515534D03*
D11*
X117325534Y-74265534D03*
D14*
X108550534Y-68315534D03*
D15*
X111825534Y-80165534D03*
X106825534Y-78065534D03*
D14*
X120100534Y-70515534D03*
%TD*%
D10*
%TO.C,SW2*%
X62400000Y-40750000D03*
X62400000Y-34250000D03*
X66900000Y-40750000D03*
X66900000Y-34250000D03*
%TD*%
D11*
%TO.C,SW11*%
X167825534Y-51325534D03*
D12*
X173325534Y-45375534D03*
D13*
X173325534Y-51325534D03*
D12*
X178325534Y-47575534D03*
D11*
X178825534Y-51325534D03*
D14*
X170050534Y-45375534D03*
D15*
X173325534Y-57225534D03*
X168325534Y-55125534D03*
D14*
X181600534Y-47575534D03*
%TD*%
D11*
%TO.C,SW7*%
X50630534Y-62795534D03*
D12*
X56130534Y-56845534D03*
D13*
X56130534Y-62795534D03*
D12*
X61130534Y-59045534D03*
D11*
X61630534Y-62795534D03*
D14*
X52855534Y-56845534D03*
D15*
X56130534Y-68695534D03*
X51130534Y-66595534D03*
D14*
X64405534Y-59045534D03*
%TD*%
D11*
%TO.C,SW14*%
X135655534Y-93895534D03*
D12*
X141155534Y-87945534D03*
D13*
X141155534Y-93895534D03*
D12*
X146155534Y-90145534D03*
D11*
X146655534Y-93895534D03*
D14*
X137880534Y-87945534D03*
D15*
X141155534Y-99795534D03*
X136155534Y-97695534D03*
D14*
X149430534Y-90145534D03*
%TD*%
D19*
%TO.C,H1*%
X44905534Y-34745534D03*
%TD*%
D11*
%TO.C,SW13*%
X225765534Y-51445534D03*
D12*
X231265534Y-45495534D03*
D13*
X231265534Y-51445534D03*
D12*
X236265534Y-47695534D03*
D11*
X236765534Y-51445534D03*
D14*
X227990534Y-45495534D03*
D15*
X231265534Y-57345534D03*
X226265534Y-55245534D03*
D14*
X239540534Y-47695534D03*
%TD*%
M02*
