%TF.GenerationSoftware,KiCad,Pcbnew,7.0.5*%
%TF.CreationDate,2023-10-21T15:47:48-07:00*%
%TF.ProjectId,VBox,56426f78-2e6b-4696-9361-645f70636258,rev?*%
%TF.SameCoordinates,Original*%
%TF.FileFunction,Drillmap*%
%TF.FilePolarity,Positive*%
%FSLAX45Y45*%
G04 Gerber Fmt 4.5, Leading zero omitted, Abs format (unit mm)*
G04 Created by KiCad (PCBNEW 7.0.5) date 2023-10-21 15:47:48*
%MOMM*%
%LPD*%
G01*
G04 APERTURE LIST*
%ADD10C,0.050000*%
%ADD11C,0.200000*%
%ADD12C,0.065000*%
%ADD13C,0.170180*%
%ADD14C,0.300000*%
%ADD15C,0.342900*%
%ADD16C,0.640000*%
G04 APERTURE END LIST*
D10*
X24790557Y-3274553D02*
G75*
G03*
X24290553Y-2774553I-500007J-7D01*
G01*
X4290553Y-2774553D02*
X13640553Y-2774553D01*
X13740553Y-2324553D02*
X14840553Y-2324553D01*
X14840553Y-2324553D02*
X14840553Y-2674553D01*
X4290553Y-2774553D02*
G75*
G03*
X3790553Y-3274553I0J-500000D01*
G01*
X3790553Y-14274553D02*
G75*
G03*
X4290553Y-14774553I500000J0D01*
G01*
X14940553Y-2774553D02*
X24290553Y-2774553D01*
X24290553Y-14774553D02*
G75*
G03*
X24790553Y-14274553I-3J500003D01*
G01*
X13640553Y-2774553D02*
G75*
G03*
X13740553Y-2674553I-3J100003D01*
G01*
X24290553Y-14774553D02*
X4290553Y-14774553D01*
X13740553Y-2674553D02*
X13740553Y-2324553D01*
X14840557Y-2674553D02*
G75*
G03*
X14940553Y-2774553I99993J-7D01*
G01*
X24790553Y-3274553D02*
X24790553Y-14274553D01*
X3790553Y-14274553D02*
X3790553Y-3274553D01*
D11*
D12*
X13969053Y-2817053D02*
X14034053Y-2882053D01*
X14034053Y-2817053D02*
X13969053Y-2882053D01*
X14547053Y-2817053D02*
X14612053Y-2882053D01*
X14612053Y-2817053D02*
X14547053Y-2882053D01*
D13*
X5148143Y-6279553D02*
G75*
G03*
X5148143Y-6279553I-85090J0D01*
G01*
X6248143Y-6279553D02*
G75*
G03*
X6248143Y-6279553I-85090J0D01*
G01*
X8057643Y-6291553D02*
G75*
G03*
X8057643Y-6291553I-85090J0D01*
G01*
X9157643Y-6291553D02*
G75*
G03*
X9157643Y-6291553I-85090J0D01*
G01*
X10717643Y-7426553D02*
G75*
G03*
X10717643Y-7426553I-85090J0D01*
G01*
X11817643Y-7426553D02*
G75*
G03*
X11817643Y-7426553I-85090J0D01*
G01*
X12467643Y-12736553D02*
G75*
G03*
X12467643Y-12736553I-85090J0D01*
G01*
X13567643Y-12736553D02*
G75*
G03*
X13567643Y-12736553I-85090J0D01*
G01*
X13650643Y-9389553D02*
G75*
G03*
X13650643Y-9389553I-85090J0D01*
G01*
X14211643Y-6285553D02*
G75*
G03*
X14211643Y-6285553I-85090J0D01*
G01*
X14750643Y-9389553D02*
G75*
G03*
X14750643Y-9389553I-85090J0D01*
G01*
X15311643Y-6285553D02*
G75*
G03*
X15311643Y-6285553I-85090J0D01*
G01*
X16311643Y-8278553D02*
G75*
G03*
X16311643Y-8278553I-85090J0D01*
G01*
X16867643Y-5132553D02*
G75*
G03*
X16867643Y-5132553I-85090J0D01*
G01*
X17411643Y-8278553D02*
G75*
G03*
X17411643Y-8278553I-85090J0D01*
G01*
X17967643Y-5132553D02*
G75*
G03*
X17967643Y-5132553I-85090J0D01*
G01*
X19196643Y-8278553D02*
G75*
G03*
X19196643Y-8278553I-85090J0D01*
G01*
X19764643Y-5120553D02*
G75*
G03*
X19764643Y-5120553I-85090J0D01*
G01*
X20296643Y-8278553D02*
G75*
G03*
X20296643Y-8278553I-85090J0D01*
G01*
X20864643Y-5120553D02*
G75*
G03*
X20864643Y-5120553I-85090J0D01*
G01*
X22117643Y-8278553D02*
G75*
G03*
X22117643Y-8278553I-85090J0D01*
G01*
X22661643Y-5144553D02*
G75*
G03*
X22661643Y-5144553I-85090J0D01*
G01*
X23217643Y-8278553D02*
G75*
G03*
X23217643Y-8278553I-85090J0D01*
G01*
X23761643Y-5144553D02*
G75*
G03*
X23761643Y-5144553I-85090J0D01*
G01*
D14*
X5613053Y-5534553D02*
X5613053Y-5834553D01*
X5463053Y-5684553D02*
X5763053Y-5684553D01*
X6113053Y-5754553D02*
X6113053Y-6054553D01*
X5963053Y-5904553D02*
X6263053Y-5904553D01*
X8522553Y-5546553D02*
X8522553Y-5846553D01*
X8372553Y-5696553D02*
X8672553Y-5696553D01*
X9022553Y-5766553D02*
X9022553Y-6066553D01*
X8872553Y-5916553D02*
X9172553Y-5916553D01*
X11182553Y-6681553D02*
X11182553Y-6981553D01*
X11032553Y-6831553D02*
X11332553Y-6831553D01*
X11682553Y-6901553D02*
X11682553Y-7201553D01*
X11532553Y-7051553D02*
X11832553Y-7051553D01*
X12932553Y-11991553D02*
X12932553Y-12291553D01*
X12782553Y-12141553D02*
X13082553Y-12141553D01*
X13432553Y-12211553D02*
X13432553Y-12511553D01*
X13282553Y-12361553D02*
X13582553Y-12361553D01*
X14115553Y-8644553D02*
X14115553Y-8944553D01*
X13965553Y-8794553D02*
X14265553Y-8794553D01*
X14615553Y-8864553D02*
X14615553Y-9164553D01*
X14465553Y-9014553D02*
X14765553Y-9014553D01*
X14676553Y-5540553D02*
X14676553Y-5840553D01*
X14526553Y-5690553D02*
X14826553Y-5690553D01*
X15176553Y-5760553D02*
X15176553Y-6060553D01*
X15026553Y-5910553D02*
X15326553Y-5910553D01*
X16776553Y-7533553D02*
X16776553Y-7833553D01*
X16626553Y-7683553D02*
X16926553Y-7683553D01*
X17276553Y-7753553D02*
X17276553Y-8053553D01*
X17126553Y-7903553D02*
X17426553Y-7903553D01*
X17332553Y-4387553D02*
X17332553Y-4687553D01*
X17182553Y-4537553D02*
X17482553Y-4537553D01*
X17832553Y-4607553D02*
X17832553Y-4907553D01*
X17682553Y-4757553D02*
X17982553Y-4757553D01*
X19661553Y-7533553D02*
X19661553Y-7833553D01*
X19511553Y-7683553D02*
X19811553Y-7683553D01*
X20161553Y-7753553D02*
X20161553Y-8053553D01*
X20011553Y-7903553D02*
X20311553Y-7903553D01*
X20229553Y-4375553D02*
X20229553Y-4675553D01*
X20079553Y-4525553D02*
X20379553Y-4525553D01*
X20729553Y-4595553D02*
X20729553Y-4895553D01*
X20579553Y-4745553D02*
X20879553Y-4745553D01*
X22582553Y-7533553D02*
X22582553Y-7833553D01*
X22432553Y-7683553D02*
X22732553Y-7683553D01*
X23082553Y-7753553D02*
X23082553Y-8053553D01*
X22932553Y-7903553D02*
X23232553Y-7903553D01*
X23126553Y-4399553D02*
X23126553Y-4699553D01*
X22976553Y-4549553D02*
X23276553Y-4549553D01*
X23626553Y-4619553D02*
X23626553Y-4919553D01*
X23476553Y-4769553D02*
X23776553Y-4769553D01*
D15*
X5734288Y-6400788D02*
X5734288Y-6158319D01*
X5491819Y-6158319D01*
X5491819Y-6400788D01*
X5734288Y-6400788D01*
X8643788Y-6412788D02*
X8643788Y-6170319D01*
X8401319Y-6170319D01*
X8401319Y-6412788D01*
X8643788Y-6412788D01*
X11303788Y-7547788D02*
X11303788Y-7305319D01*
X11061319Y-7305319D01*
X11061319Y-7547788D01*
X11303788Y-7547788D01*
X13053788Y-12857788D02*
X13053788Y-12615319D01*
X12811319Y-12615319D01*
X12811319Y-12857788D01*
X13053788Y-12857788D01*
X14236788Y-9510788D02*
X14236788Y-9268319D01*
X13994319Y-9268319D01*
X13994319Y-9510788D01*
X14236788Y-9510788D01*
X14797788Y-6406788D02*
X14797788Y-6164319D01*
X14555319Y-6164319D01*
X14555319Y-6406788D01*
X14797788Y-6406788D01*
X16897788Y-8399788D02*
X16897788Y-8157319D01*
X16655319Y-8157319D01*
X16655319Y-8399788D01*
X16897788Y-8399788D01*
X17453788Y-5253788D02*
X17453788Y-5011319D01*
X17211319Y-5011319D01*
X17211319Y-5253788D01*
X17453788Y-5253788D01*
X19782788Y-8399788D02*
X19782788Y-8157319D01*
X19540319Y-8157319D01*
X19540319Y-8399788D01*
X19782788Y-8399788D01*
X20350788Y-5241788D02*
X20350788Y-4999319D01*
X20108319Y-4999319D01*
X20108319Y-5241788D01*
X20350788Y-5241788D01*
X22703788Y-8399788D02*
X22703788Y-8157319D01*
X22461319Y-8157319D01*
X22461319Y-8399788D01*
X22703788Y-8399788D01*
X23247788Y-5265788D02*
X23247788Y-5023319D01*
X23005319Y-5023319D01*
X23005319Y-5265788D01*
X23247788Y-5265788D01*
D16*
X4490553Y-3794553D02*
X4810553Y-3474553D01*
X4490553Y-3154553D01*
X4170553Y-3474553D01*
X4490553Y-3794553D01*
X4490553Y-14394553D02*
X4810553Y-14074553D01*
X4490553Y-13754553D01*
X4170553Y-14074553D01*
X4490553Y-14394553D01*
X13140553Y-7894553D02*
X13460553Y-7574553D01*
X13140553Y-7254553D01*
X12820553Y-7574553D01*
X13140553Y-7894553D01*
X14790553Y-14394553D02*
X15110553Y-14074553D01*
X14790553Y-13754553D01*
X14470553Y-14074553D01*
X14790553Y-14394553D01*
X15450553Y-3794553D02*
X15770553Y-3474553D01*
X15450553Y-3154553D01*
X15130553Y-3474553D01*
X15450553Y-3794553D01*
X24090553Y-3794553D02*
X24410553Y-3474553D01*
X24090553Y-3154553D01*
X23770553Y-3474553D01*
X24090553Y-3794553D01*
X24090553Y-14394553D02*
X24410553Y-14074553D01*
X24090553Y-13754553D01*
X23770553Y-14074553D01*
X24090553Y-14394553D01*
D11*
X4048830Y-15088537D02*
X4048830Y-14888537D01*
X4048830Y-14888537D02*
X4096449Y-14888537D01*
X4096449Y-14888537D02*
X4125021Y-14898061D01*
X4125021Y-14898061D02*
X4144068Y-14917109D01*
X4144068Y-14917109D02*
X4153592Y-14936156D01*
X4153592Y-14936156D02*
X4163116Y-14974251D01*
X4163116Y-14974251D02*
X4163116Y-15002823D01*
X4163116Y-15002823D02*
X4153592Y-15040918D01*
X4153592Y-15040918D02*
X4144068Y-15059966D01*
X4144068Y-15059966D02*
X4125021Y-15079013D01*
X4125021Y-15079013D02*
X4096449Y-15088537D01*
X4096449Y-15088537D02*
X4048830Y-15088537D01*
X4248830Y-15088537D02*
X4248830Y-14955204D01*
X4248830Y-14993299D02*
X4258354Y-14974251D01*
X4258354Y-14974251D02*
X4267878Y-14964728D01*
X4267878Y-14964728D02*
X4286925Y-14955204D01*
X4286925Y-14955204D02*
X4305973Y-14955204D01*
X4372640Y-15088537D02*
X4372640Y-14955204D01*
X4372640Y-14888537D02*
X4363116Y-14898061D01*
X4363116Y-14898061D02*
X4372640Y-14907585D01*
X4372640Y-14907585D02*
X4382164Y-14898061D01*
X4382164Y-14898061D02*
X4372640Y-14888537D01*
X4372640Y-14888537D02*
X4372640Y-14907585D01*
X4496449Y-15088537D02*
X4477402Y-15079013D01*
X4477402Y-15079013D02*
X4467878Y-15059966D01*
X4467878Y-15059966D02*
X4467878Y-14888537D01*
X4601211Y-15088537D02*
X4582164Y-15079013D01*
X4582164Y-15079013D02*
X4572640Y-15059966D01*
X4572640Y-15059966D02*
X4572640Y-14888537D01*
X4829783Y-15088537D02*
X4829783Y-14888537D01*
X4829783Y-14888537D02*
X4896449Y-15031394D01*
X4896449Y-15031394D02*
X4963116Y-14888537D01*
X4963116Y-14888537D02*
X4963116Y-15088537D01*
X5144068Y-15088537D02*
X5144068Y-14983775D01*
X5144068Y-14983775D02*
X5134545Y-14964728D01*
X5134545Y-14964728D02*
X5115497Y-14955204D01*
X5115497Y-14955204D02*
X5077402Y-14955204D01*
X5077402Y-14955204D02*
X5058354Y-14964728D01*
X5144068Y-15079013D02*
X5125021Y-15088537D01*
X5125021Y-15088537D02*
X5077402Y-15088537D01*
X5077402Y-15088537D02*
X5058354Y-15079013D01*
X5058354Y-15079013D02*
X5048830Y-15059966D01*
X5048830Y-15059966D02*
X5048830Y-15040918D01*
X5048830Y-15040918D02*
X5058354Y-15021870D01*
X5058354Y-15021870D02*
X5077402Y-15012347D01*
X5077402Y-15012347D02*
X5125021Y-15012347D01*
X5125021Y-15012347D02*
X5144068Y-15002823D01*
X5239306Y-14955204D02*
X5239306Y-15155204D01*
X5239306Y-14964728D02*
X5258354Y-14955204D01*
X5258354Y-14955204D02*
X5296449Y-14955204D01*
X5296449Y-14955204D02*
X5315497Y-14964728D01*
X5315497Y-14964728D02*
X5325021Y-14974251D01*
X5325021Y-14974251D02*
X5334545Y-14993299D01*
X5334545Y-14993299D02*
X5334545Y-15050442D01*
X5334545Y-15050442D02*
X5325021Y-15069489D01*
X5325021Y-15069489D02*
X5315497Y-15079013D01*
X5315497Y-15079013D02*
X5296449Y-15088537D01*
X5296449Y-15088537D02*
X5258354Y-15088537D01*
X5258354Y-15088537D02*
X5239306Y-15079013D01*
X5420259Y-15069489D02*
X5429783Y-15079013D01*
X5429783Y-15079013D02*
X5420259Y-15088537D01*
X5420259Y-15088537D02*
X5410735Y-15079013D01*
X5410735Y-15079013D02*
X5420259Y-15069489D01*
X5420259Y-15069489D02*
X5420259Y-15088537D01*
X5420259Y-14964728D02*
X5429783Y-14974251D01*
X5429783Y-14974251D02*
X5420259Y-14983775D01*
X5420259Y-14983775D02*
X5410735Y-14974251D01*
X5410735Y-14974251D02*
X5420259Y-14964728D01*
X5420259Y-14964728D02*
X5420259Y-14983775D01*
D12*
X3723053Y-15384553D02*
X3788053Y-15449553D01*
X3788053Y-15384553D02*
X3723053Y-15449553D01*
D11*
X4086925Y-15308537D02*
X4105973Y-15308537D01*
X4105973Y-15308537D02*
X4125021Y-15318061D01*
X4125021Y-15318061D02*
X4134544Y-15327585D01*
X4134544Y-15327585D02*
X4144068Y-15346632D01*
X4144068Y-15346632D02*
X4153592Y-15384728D01*
X4153592Y-15384728D02*
X4153592Y-15432347D01*
X4153592Y-15432347D02*
X4144068Y-15470442D01*
X4144068Y-15470442D02*
X4134544Y-15489489D01*
X4134544Y-15489489D02*
X4125021Y-15499013D01*
X4125021Y-15499013D02*
X4105973Y-15508537D01*
X4105973Y-15508537D02*
X4086925Y-15508537D01*
X4086925Y-15508537D02*
X4067878Y-15499013D01*
X4067878Y-15499013D02*
X4058354Y-15489489D01*
X4058354Y-15489489D02*
X4048830Y-15470442D01*
X4048830Y-15470442D02*
X4039306Y-15432347D01*
X4039306Y-15432347D02*
X4039306Y-15384728D01*
X4039306Y-15384728D02*
X4048830Y-15346632D01*
X4048830Y-15346632D02*
X4058354Y-15327585D01*
X4058354Y-15327585D02*
X4067878Y-15318061D01*
X4067878Y-15318061D02*
X4086925Y-15308537D01*
X4239306Y-15489489D02*
X4248830Y-15499013D01*
X4248830Y-15499013D02*
X4239306Y-15508537D01*
X4239306Y-15508537D02*
X4229783Y-15499013D01*
X4229783Y-15499013D02*
X4239306Y-15489489D01*
X4239306Y-15489489D02*
X4239306Y-15508537D01*
X4420259Y-15308537D02*
X4382164Y-15308537D01*
X4382164Y-15308537D02*
X4363116Y-15318061D01*
X4363116Y-15318061D02*
X4353592Y-15327585D01*
X4353592Y-15327585D02*
X4334545Y-15356156D01*
X4334545Y-15356156D02*
X4325021Y-15394251D01*
X4325021Y-15394251D02*
X4325021Y-15470442D01*
X4325021Y-15470442D02*
X4334545Y-15489489D01*
X4334545Y-15489489D02*
X4344068Y-15499013D01*
X4344068Y-15499013D02*
X4363116Y-15508537D01*
X4363116Y-15508537D02*
X4401211Y-15508537D01*
X4401211Y-15508537D02*
X4420259Y-15499013D01*
X4420259Y-15499013D02*
X4429783Y-15489489D01*
X4429783Y-15489489D02*
X4439306Y-15470442D01*
X4439306Y-15470442D02*
X4439306Y-15422823D01*
X4439306Y-15422823D02*
X4429783Y-15403775D01*
X4429783Y-15403775D02*
X4420259Y-15394251D01*
X4420259Y-15394251D02*
X4401211Y-15384728D01*
X4401211Y-15384728D02*
X4363116Y-15384728D01*
X4363116Y-15384728D02*
X4344068Y-15394251D01*
X4344068Y-15394251D02*
X4334545Y-15403775D01*
X4334545Y-15403775D02*
X4325021Y-15422823D01*
X4620259Y-15308537D02*
X4525021Y-15308537D01*
X4525021Y-15308537D02*
X4515497Y-15403775D01*
X4515497Y-15403775D02*
X4525021Y-15394251D01*
X4525021Y-15394251D02*
X4544068Y-15384728D01*
X4544068Y-15384728D02*
X4591687Y-15384728D01*
X4591687Y-15384728D02*
X4610735Y-15394251D01*
X4610735Y-15394251D02*
X4620259Y-15403775D01*
X4620259Y-15403775D02*
X4629783Y-15422823D01*
X4629783Y-15422823D02*
X4629783Y-15470442D01*
X4629783Y-15470442D02*
X4620259Y-15489489D01*
X4620259Y-15489489D02*
X4610735Y-15499013D01*
X4610735Y-15499013D02*
X4591687Y-15508537D01*
X4591687Y-15508537D02*
X4544068Y-15508537D01*
X4544068Y-15508537D02*
X4525021Y-15499013D01*
X4525021Y-15499013D02*
X4515497Y-15489489D01*
X4753592Y-15308537D02*
X4772640Y-15308537D01*
X4772640Y-15308537D02*
X4791687Y-15318061D01*
X4791687Y-15318061D02*
X4801211Y-15327585D01*
X4801211Y-15327585D02*
X4810735Y-15346632D01*
X4810735Y-15346632D02*
X4820259Y-15384728D01*
X4820259Y-15384728D02*
X4820259Y-15432347D01*
X4820259Y-15432347D02*
X4810735Y-15470442D01*
X4810735Y-15470442D02*
X4801211Y-15489489D01*
X4801211Y-15489489D02*
X4791687Y-15499013D01*
X4791687Y-15499013D02*
X4772640Y-15508537D01*
X4772640Y-15508537D02*
X4753592Y-15508537D01*
X4753592Y-15508537D02*
X4734545Y-15499013D01*
X4734545Y-15499013D02*
X4725021Y-15489489D01*
X4725021Y-15489489D02*
X4715497Y-15470442D01*
X4715497Y-15470442D02*
X4705973Y-15432347D01*
X4705973Y-15432347D02*
X4705973Y-15384728D01*
X4705973Y-15384728D02*
X4715497Y-15346632D01*
X4715497Y-15346632D02*
X4725021Y-15327585D01*
X4725021Y-15327585D02*
X4734545Y-15318061D01*
X4734545Y-15318061D02*
X4753592Y-15308537D01*
X4905973Y-15508537D02*
X4905973Y-15375204D01*
X4905973Y-15394251D02*
X4915497Y-15384728D01*
X4915497Y-15384728D02*
X4934545Y-15375204D01*
X4934545Y-15375204D02*
X4963116Y-15375204D01*
X4963116Y-15375204D02*
X4982164Y-15384728D01*
X4982164Y-15384728D02*
X4991687Y-15403775D01*
X4991687Y-15403775D02*
X4991687Y-15508537D01*
X4991687Y-15403775D02*
X5001211Y-15384728D01*
X5001211Y-15384728D02*
X5020259Y-15375204D01*
X5020259Y-15375204D02*
X5048830Y-15375204D01*
X5048830Y-15375204D02*
X5067878Y-15384728D01*
X5067878Y-15384728D02*
X5077402Y-15403775D01*
X5077402Y-15403775D02*
X5077402Y-15508537D01*
X5172640Y-15508537D02*
X5172640Y-15375204D01*
X5172640Y-15394251D02*
X5182164Y-15384728D01*
X5182164Y-15384728D02*
X5201211Y-15375204D01*
X5201211Y-15375204D02*
X5229783Y-15375204D01*
X5229783Y-15375204D02*
X5248830Y-15384728D01*
X5248830Y-15384728D02*
X5258354Y-15403775D01*
X5258354Y-15403775D02*
X5258354Y-15508537D01*
X5258354Y-15403775D02*
X5267878Y-15384728D01*
X5267878Y-15384728D02*
X5286926Y-15375204D01*
X5286926Y-15375204D02*
X5315497Y-15375204D01*
X5315497Y-15375204D02*
X5334545Y-15384728D01*
X5334545Y-15384728D02*
X5344068Y-15403775D01*
X5344068Y-15403775D02*
X5344068Y-15508537D01*
X5734545Y-15299013D02*
X5563116Y-15556156D01*
X5991687Y-15308537D02*
X6010735Y-15308537D01*
X6010735Y-15308537D02*
X6029783Y-15318061D01*
X6029783Y-15318061D02*
X6039307Y-15327585D01*
X6039307Y-15327585D02*
X6048830Y-15346632D01*
X6048830Y-15346632D02*
X6058354Y-15384728D01*
X6058354Y-15384728D02*
X6058354Y-15432347D01*
X6058354Y-15432347D02*
X6048830Y-15470442D01*
X6048830Y-15470442D02*
X6039307Y-15489489D01*
X6039307Y-15489489D02*
X6029783Y-15499013D01*
X6029783Y-15499013D02*
X6010735Y-15508537D01*
X6010735Y-15508537D02*
X5991687Y-15508537D01*
X5991687Y-15508537D02*
X5972640Y-15499013D01*
X5972640Y-15499013D02*
X5963116Y-15489489D01*
X5963116Y-15489489D02*
X5953592Y-15470442D01*
X5953592Y-15470442D02*
X5944068Y-15432347D01*
X5944068Y-15432347D02*
X5944068Y-15384728D01*
X5944068Y-15384728D02*
X5953592Y-15346632D01*
X5953592Y-15346632D02*
X5963116Y-15327585D01*
X5963116Y-15327585D02*
X5972640Y-15318061D01*
X5972640Y-15318061D02*
X5991687Y-15308537D01*
X6144068Y-15489489D02*
X6153592Y-15499013D01*
X6153592Y-15499013D02*
X6144068Y-15508537D01*
X6144068Y-15508537D02*
X6134545Y-15499013D01*
X6134545Y-15499013D02*
X6144068Y-15489489D01*
X6144068Y-15489489D02*
X6144068Y-15508537D01*
X6277402Y-15308537D02*
X6296449Y-15308537D01*
X6296449Y-15308537D02*
X6315497Y-15318061D01*
X6315497Y-15318061D02*
X6325021Y-15327585D01*
X6325021Y-15327585D02*
X6334545Y-15346632D01*
X6334545Y-15346632D02*
X6344068Y-15384728D01*
X6344068Y-15384728D02*
X6344068Y-15432347D01*
X6344068Y-15432347D02*
X6334545Y-15470442D01*
X6334545Y-15470442D02*
X6325021Y-15489489D01*
X6325021Y-15489489D02*
X6315497Y-15499013D01*
X6315497Y-15499013D02*
X6296449Y-15508537D01*
X6296449Y-15508537D02*
X6277402Y-15508537D01*
X6277402Y-15508537D02*
X6258354Y-15499013D01*
X6258354Y-15499013D02*
X6248830Y-15489489D01*
X6248830Y-15489489D02*
X6239307Y-15470442D01*
X6239307Y-15470442D02*
X6229783Y-15432347D01*
X6229783Y-15432347D02*
X6229783Y-15384728D01*
X6229783Y-15384728D02*
X6239307Y-15346632D01*
X6239307Y-15346632D02*
X6248830Y-15327585D01*
X6248830Y-15327585D02*
X6258354Y-15318061D01*
X6258354Y-15318061D02*
X6277402Y-15308537D01*
X6420259Y-15327585D02*
X6429783Y-15318061D01*
X6429783Y-15318061D02*
X6448830Y-15308537D01*
X6448830Y-15308537D02*
X6496449Y-15308537D01*
X6496449Y-15308537D02*
X6515497Y-15318061D01*
X6515497Y-15318061D02*
X6525021Y-15327585D01*
X6525021Y-15327585D02*
X6534545Y-15346632D01*
X6534545Y-15346632D02*
X6534545Y-15365680D01*
X6534545Y-15365680D02*
X6525021Y-15394251D01*
X6525021Y-15394251D02*
X6410735Y-15508537D01*
X6410735Y-15508537D02*
X6534545Y-15508537D01*
X6715497Y-15308537D02*
X6620259Y-15308537D01*
X6620259Y-15308537D02*
X6610735Y-15403775D01*
X6610735Y-15403775D02*
X6620259Y-15394251D01*
X6620259Y-15394251D02*
X6639307Y-15384728D01*
X6639307Y-15384728D02*
X6686926Y-15384728D01*
X6686926Y-15384728D02*
X6705973Y-15394251D01*
X6705973Y-15394251D02*
X6715497Y-15403775D01*
X6715497Y-15403775D02*
X6725021Y-15422823D01*
X6725021Y-15422823D02*
X6725021Y-15470442D01*
X6725021Y-15470442D02*
X6715497Y-15489489D01*
X6715497Y-15489489D02*
X6705973Y-15499013D01*
X6705973Y-15499013D02*
X6686926Y-15508537D01*
X6686926Y-15508537D02*
X6639307Y-15508537D01*
X6639307Y-15508537D02*
X6620259Y-15499013D01*
X6620259Y-15499013D02*
X6610735Y-15489489D01*
X6896449Y-15308537D02*
X6858354Y-15308537D01*
X6858354Y-15308537D02*
X6839307Y-15318061D01*
X6839307Y-15318061D02*
X6829783Y-15327585D01*
X6829783Y-15327585D02*
X6810735Y-15356156D01*
X6810735Y-15356156D02*
X6801211Y-15394251D01*
X6801211Y-15394251D02*
X6801211Y-15470442D01*
X6801211Y-15470442D02*
X6810735Y-15489489D01*
X6810735Y-15489489D02*
X6820259Y-15499013D01*
X6820259Y-15499013D02*
X6839307Y-15508537D01*
X6839307Y-15508537D02*
X6877402Y-15508537D01*
X6877402Y-15508537D02*
X6896449Y-15499013D01*
X6896449Y-15499013D02*
X6905973Y-15489489D01*
X6905973Y-15489489D02*
X6915497Y-15470442D01*
X6915497Y-15470442D02*
X6915497Y-15422823D01*
X6915497Y-15422823D02*
X6905973Y-15403775D01*
X6905973Y-15403775D02*
X6896449Y-15394251D01*
X6896449Y-15394251D02*
X6877402Y-15384728D01*
X6877402Y-15384728D02*
X6839307Y-15384728D01*
X6839307Y-15384728D02*
X6820259Y-15394251D01*
X6820259Y-15394251D02*
X6810735Y-15403775D01*
X6810735Y-15403775D02*
X6801211Y-15422823D01*
X6991688Y-15308537D02*
X6991688Y-15346632D01*
X7067878Y-15308537D02*
X7067878Y-15346632D01*
X7363116Y-15584728D02*
X7353592Y-15575204D01*
X7353592Y-15575204D02*
X7334545Y-15546632D01*
X7334545Y-15546632D02*
X7325021Y-15527585D01*
X7325021Y-15527585D02*
X7315497Y-15499013D01*
X7315497Y-15499013D02*
X7305973Y-15451394D01*
X7305973Y-15451394D02*
X7305973Y-15413299D01*
X7305973Y-15413299D02*
X7315497Y-15365680D01*
X7315497Y-15365680D02*
X7325021Y-15337109D01*
X7325021Y-15337109D02*
X7334545Y-15318061D01*
X7334545Y-15318061D02*
X7353592Y-15289489D01*
X7353592Y-15289489D02*
X7363116Y-15279966D01*
X7429783Y-15327585D02*
X7439307Y-15318061D01*
X7439307Y-15318061D02*
X7458354Y-15308537D01*
X7458354Y-15308537D02*
X7505973Y-15308537D01*
X7505973Y-15308537D02*
X7525021Y-15318061D01*
X7525021Y-15318061D02*
X7534545Y-15327585D01*
X7534545Y-15327585D02*
X7544069Y-15346632D01*
X7544069Y-15346632D02*
X7544069Y-15365680D01*
X7544069Y-15365680D02*
X7534545Y-15394251D01*
X7534545Y-15394251D02*
X7420259Y-15508537D01*
X7420259Y-15508537D02*
X7544069Y-15508537D01*
X7782164Y-15508537D02*
X7782164Y-15308537D01*
X7867878Y-15508537D02*
X7867878Y-15403775D01*
X7867878Y-15403775D02*
X7858354Y-15384728D01*
X7858354Y-15384728D02*
X7839307Y-15375204D01*
X7839307Y-15375204D02*
X7810735Y-15375204D01*
X7810735Y-15375204D02*
X7791688Y-15384728D01*
X7791688Y-15384728D02*
X7782164Y-15394251D01*
X7991688Y-15508537D02*
X7972640Y-15499013D01*
X7972640Y-15499013D02*
X7963116Y-15489489D01*
X7963116Y-15489489D02*
X7953592Y-15470442D01*
X7953592Y-15470442D02*
X7953592Y-15413299D01*
X7953592Y-15413299D02*
X7963116Y-15394251D01*
X7963116Y-15394251D02*
X7972640Y-15384728D01*
X7972640Y-15384728D02*
X7991688Y-15375204D01*
X7991688Y-15375204D02*
X8020259Y-15375204D01*
X8020259Y-15375204D02*
X8039307Y-15384728D01*
X8039307Y-15384728D02*
X8048831Y-15394251D01*
X8048831Y-15394251D02*
X8058354Y-15413299D01*
X8058354Y-15413299D02*
X8058354Y-15470442D01*
X8058354Y-15470442D02*
X8048831Y-15489489D01*
X8048831Y-15489489D02*
X8039307Y-15499013D01*
X8039307Y-15499013D02*
X8020259Y-15508537D01*
X8020259Y-15508537D02*
X7991688Y-15508537D01*
X8172640Y-15508537D02*
X8153592Y-15499013D01*
X8153592Y-15499013D02*
X8144069Y-15479966D01*
X8144069Y-15479966D02*
X8144069Y-15308537D01*
X8325021Y-15499013D02*
X8305973Y-15508537D01*
X8305973Y-15508537D02*
X8267878Y-15508537D01*
X8267878Y-15508537D02*
X8248831Y-15499013D01*
X8248831Y-15499013D02*
X8239307Y-15479966D01*
X8239307Y-15479966D02*
X8239307Y-15403775D01*
X8239307Y-15403775D02*
X8248831Y-15384728D01*
X8248831Y-15384728D02*
X8267878Y-15375204D01*
X8267878Y-15375204D02*
X8305973Y-15375204D01*
X8305973Y-15375204D02*
X8325021Y-15384728D01*
X8325021Y-15384728D02*
X8334545Y-15403775D01*
X8334545Y-15403775D02*
X8334545Y-15422823D01*
X8334545Y-15422823D02*
X8239307Y-15441870D01*
X8410735Y-15499013D02*
X8429783Y-15508537D01*
X8429783Y-15508537D02*
X8467878Y-15508537D01*
X8467878Y-15508537D02*
X8486926Y-15499013D01*
X8486926Y-15499013D02*
X8496450Y-15479966D01*
X8496450Y-15479966D02*
X8496450Y-15470442D01*
X8496450Y-15470442D02*
X8486926Y-15451394D01*
X8486926Y-15451394D02*
X8467878Y-15441870D01*
X8467878Y-15441870D02*
X8439307Y-15441870D01*
X8439307Y-15441870D02*
X8420259Y-15432347D01*
X8420259Y-15432347D02*
X8410735Y-15413299D01*
X8410735Y-15413299D02*
X8410735Y-15403775D01*
X8410735Y-15403775D02*
X8420259Y-15384728D01*
X8420259Y-15384728D02*
X8439307Y-15375204D01*
X8439307Y-15375204D02*
X8467878Y-15375204D01*
X8467878Y-15375204D02*
X8486926Y-15384728D01*
X8563116Y-15584728D02*
X8572640Y-15575204D01*
X8572640Y-15575204D02*
X8591688Y-15546632D01*
X8591688Y-15546632D02*
X8601212Y-15527585D01*
X8601212Y-15527585D02*
X8610735Y-15499013D01*
X8610735Y-15499013D02*
X8620259Y-15451394D01*
X8620259Y-15451394D02*
X8620259Y-15413299D01*
X8620259Y-15413299D02*
X8610735Y-15365680D01*
X8610735Y-15365680D02*
X8601212Y-15337109D01*
X8601212Y-15337109D02*
X8591688Y-15318061D01*
X8591688Y-15318061D02*
X8572640Y-15289489D01*
X8572640Y-15289489D02*
X8563116Y-15279966D01*
X8925021Y-15584728D02*
X8915497Y-15575204D01*
X8915497Y-15575204D02*
X8896450Y-15546632D01*
X8896450Y-15546632D02*
X8886926Y-15527585D01*
X8886926Y-15527585D02*
X8877402Y-15499013D01*
X8877402Y-15499013D02*
X8867878Y-15451394D01*
X8867878Y-15451394D02*
X8867878Y-15413299D01*
X8867878Y-15413299D02*
X8877402Y-15365680D01*
X8877402Y-15365680D02*
X8886926Y-15337109D01*
X8886926Y-15337109D02*
X8896450Y-15318061D01*
X8896450Y-15318061D02*
X8915497Y-15289489D01*
X8915497Y-15289489D02*
X8925021Y-15279966D01*
X9001212Y-15375204D02*
X9001212Y-15508537D01*
X9001212Y-15394251D02*
X9010735Y-15384728D01*
X9010735Y-15384728D02*
X9029783Y-15375204D01*
X9029783Y-15375204D02*
X9058355Y-15375204D01*
X9058355Y-15375204D02*
X9077402Y-15384728D01*
X9077402Y-15384728D02*
X9086926Y-15403775D01*
X9086926Y-15403775D02*
X9086926Y-15508537D01*
X9210735Y-15508537D02*
X9191688Y-15499013D01*
X9191688Y-15499013D02*
X9182164Y-15489489D01*
X9182164Y-15489489D02*
X9172640Y-15470442D01*
X9172640Y-15470442D02*
X9172640Y-15413299D01*
X9172640Y-15413299D02*
X9182164Y-15394251D01*
X9182164Y-15394251D02*
X9191688Y-15384728D01*
X9191688Y-15384728D02*
X9210735Y-15375204D01*
X9210735Y-15375204D02*
X9239307Y-15375204D01*
X9239307Y-15375204D02*
X9258355Y-15384728D01*
X9258355Y-15384728D02*
X9267878Y-15394251D01*
X9267878Y-15394251D02*
X9277402Y-15413299D01*
X9277402Y-15413299D02*
X9277402Y-15470442D01*
X9277402Y-15470442D02*
X9267878Y-15489489D01*
X9267878Y-15489489D02*
X9258355Y-15499013D01*
X9258355Y-15499013D02*
X9239307Y-15508537D01*
X9239307Y-15508537D02*
X9210735Y-15508537D01*
X9334545Y-15375204D02*
X9410735Y-15375204D01*
X9363116Y-15308537D02*
X9363116Y-15479966D01*
X9363116Y-15479966D02*
X9372640Y-15499013D01*
X9372640Y-15499013D02*
X9391688Y-15508537D01*
X9391688Y-15508537D02*
X9410735Y-15508537D01*
X9629783Y-15375204D02*
X9629783Y-15575204D01*
X9629783Y-15384728D02*
X9648831Y-15375204D01*
X9648831Y-15375204D02*
X9686926Y-15375204D01*
X9686926Y-15375204D02*
X9705974Y-15384728D01*
X9705974Y-15384728D02*
X9715497Y-15394251D01*
X9715497Y-15394251D02*
X9725021Y-15413299D01*
X9725021Y-15413299D02*
X9725021Y-15470442D01*
X9725021Y-15470442D02*
X9715497Y-15489489D01*
X9715497Y-15489489D02*
X9705974Y-15499013D01*
X9705974Y-15499013D02*
X9686926Y-15508537D01*
X9686926Y-15508537D02*
X9648831Y-15508537D01*
X9648831Y-15508537D02*
X9629783Y-15499013D01*
X9839307Y-15508537D02*
X9820259Y-15499013D01*
X9820259Y-15499013D02*
X9810736Y-15479966D01*
X9810736Y-15479966D02*
X9810736Y-15308537D01*
X10001212Y-15508537D02*
X10001212Y-15403775D01*
X10001212Y-15403775D02*
X9991688Y-15384728D01*
X9991688Y-15384728D02*
X9972640Y-15375204D01*
X9972640Y-15375204D02*
X9934545Y-15375204D01*
X9934545Y-15375204D02*
X9915497Y-15384728D01*
X10001212Y-15499013D02*
X9982164Y-15508537D01*
X9982164Y-15508537D02*
X9934545Y-15508537D01*
X9934545Y-15508537D02*
X9915497Y-15499013D01*
X9915497Y-15499013D02*
X9905974Y-15479966D01*
X9905974Y-15479966D02*
X9905974Y-15460918D01*
X9905974Y-15460918D02*
X9915497Y-15441870D01*
X9915497Y-15441870D02*
X9934545Y-15432347D01*
X9934545Y-15432347D02*
X9982164Y-15432347D01*
X9982164Y-15432347D02*
X10001212Y-15422823D01*
X10067878Y-15375204D02*
X10144069Y-15375204D01*
X10096450Y-15308537D02*
X10096450Y-15479966D01*
X10096450Y-15479966D02*
X10105974Y-15499013D01*
X10105974Y-15499013D02*
X10125021Y-15508537D01*
X10125021Y-15508537D02*
X10144069Y-15508537D01*
X10286926Y-15499013D02*
X10267878Y-15508537D01*
X10267878Y-15508537D02*
X10229783Y-15508537D01*
X10229783Y-15508537D02*
X10210736Y-15499013D01*
X10210736Y-15499013D02*
X10201212Y-15479966D01*
X10201212Y-15479966D02*
X10201212Y-15403775D01*
X10201212Y-15403775D02*
X10210736Y-15384728D01*
X10210736Y-15384728D02*
X10229783Y-15375204D01*
X10229783Y-15375204D02*
X10267878Y-15375204D01*
X10267878Y-15375204D02*
X10286926Y-15384728D01*
X10286926Y-15384728D02*
X10296450Y-15403775D01*
X10296450Y-15403775D02*
X10296450Y-15422823D01*
X10296450Y-15422823D02*
X10201212Y-15441870D01*
X10467878Y-15508537D02*
X10467878Y-15308537D01*
X10467878Y-15499013D02*
X10448831Y-15508537D01*
X10448831Y-15508537D02*
X10410736Y-15508537D01*
X10410736Y-15508537D02*
X10391688Y-15499013D01*
X10391688Y-15499013D02*
X10382164Y-15489489D01*
X10382164Y-15489489D02*
X10372640Y-15470442D01*
X10372640Y-15470442D02*
X10372640Y-15413299D01*
X10372640Y-15413299D02*
X10382164Y-15394251D01*
X10382164Y-15394251D02*
X10391688Y-15384728D01*
X10391688Y-15384728D02*
X10410736Y-15375204D01*
X10410736Y-15375204D02*
X10448831Y-15375204D01*
X10448831Y-15375204D02*
X10467878Y-15384728D01*
X10544069Y-15584728D02*
X10553593Y-15575204D01*
X10553593Y-15575204D02*
X10572640Y-15546632D01*
X10572640Y-15546632D02*
X10582164Y-15527585D01*
X10582164Y-15527585D02*
X10591688Y-15499013D01*
X10591688Y-15499013D02*
X10601212Y-15451394D01*
X10601212Y-15451394D02*
X10601212Y-15413299D01*
X10601212Y-15413299D02*
X10591688Y-15365680D01*
X10591688Y-15365680D02*
X10582164Y-15337109D01*
X10582164Y-15337109D02*
X10572640Y-15318061D01*
X10572640Y-15318061D02*
X10553593Y-15289489D01*
X10553593Y-15289489D02*
X10544069Y-15279966D01*
D13*
X3788053Y-15681053D02*
G75*
G03*
X3788053Y-15681053I-85090J0D01*
G01*
D11*
X4153592Y-15772537D02*
X4039306Y-15772537D01*
X4096449Y-15772537D02*
X4096449Y-15572537D01*
X4096449Y-15572537D02*
X4077402Y-15601109D01*
X4077402Y-15601109D02*
X4058354Y-15620156D01*
X4058354Y-15620156D02*
X4039306Y-15629680D01*
X4239306Y-15753489D02*
X4248830Y-15763013D01*
X4248830Y-15763013D02*
X4239306Y-15772537D01*
X4239306Y-15772537D02*
X4229783Y-15763013D01*
X4229783Y-15763013D02*
X4239306Y-15753489D01*
X4239306Y-15753489D02*
X4239306Y-15772537D01*
X4315497Y-15572537D02*
X4448830Y-15572537D01*
X4448830Y-15572537D02*
X4363116Y-15772537D01*
X4563116Y-15572537D02*
X4582164Y-15572537D01*
X4582164Y-15572537D02*
X4601211Y-15582061D01*
X4601211Y-15582061D02*
X4610735Y-15591585D01*
X4610735Y-15591585D02*
X4620259Y-15610632D01*
X4620259Y-15610632D02*
X4629783Y-15648728D01*
X4629783Y-15648728D02*
X4629783Y-15696347D01*
X4629783Y-15696347D02*
X4620259Y-15734442D01*
X4620259Y-15734442D02*
X4610735Y-15753489D01*
X4610735Y-15753489D02*
X4601211Y-15763013D01*
X4601211Y-15763013D02*
X4582164Y-15772537D01*
X4582164Y-15772537D02*
X4563116Y-15772537D01*
X4563116Y-15772537D02*
X4544068Y-15763013D01*
X4544068Y-15763013D02*
X4534545Y-15753489D01*
X4534545Y-15753489D02*
X4525021Y-15734442D01*
X4525021Y-15734442D02*
X4515497Y-15696347D01*
X4515497Y-15696347D02*
X4515497Y-15648728D01*
X4515497Y-15648728D02*
X4525021Y-15610632D01*
X4525021Y-15610632D02*
X4534545Y-15591585D01*
X4534545Y-15591585D02*
X4544068Y-15582061D01*
X4544068Y-15582061D02*
X4563116Y-15572537D01*
X4705973Y-15591585D02*
X4715497Y-15582061D01*
X4715497Y-15582061D02*
X4734545Y-15572537D01*
X4734545Y-15572537D02*
X4782164Y-15572537D01*
X4782164Y-15572537D02*
X4801211Y-15582061D01*
X4801211Y-15582061D02*
X4810735Y-15591585D01*
X4810735Y-15591585D02*
X4820259Y-15610632D01*
X4820259Y-15610632D02*
X4820259Y-15629680D01*
X4820259Y-15629680D02*
X4810735Y-15658251D01*
X4810735Y-15658251D02*
X4696449Y-15772537D01*
X4696449Y-15772537D02*
X4820259Y-15772537D01*
X4905973Y-15772537D02*
X4905973Y-15639204D01*
X4905973Y-15658251D02*
X4915497Y-15648728D01*
X4915497Y-15648728D02*
X4934545Y-15639204D01*
X4934545Y-15639204D02*
X4963116Y-15639204D01*
X4963116Y-15639204D02*
X4982164Y-15648728D01*
X4982164Y-15648728D02*
X4991687Y-15667775D01*
X4991687Y-15667775D02*
X4991687Y-15772537D01*
X4991687Y-15667775D02*
X5001211Y-15648728D01*
X5001211Y-15648728D02*
X5020259Y-15639204D01*
X5020259Y-15639204D02*
X5048830Y-15639204D01*
X5048830Y-15639204D02*
X5067878Y-15648728D01*
X5067878Y-15648728D02*
X5077402Y-15667775D01*
X5077402Y-15667775D02*
X5077402Y-15772537D01*
X5172640Y-15772537D02*
X5172640Y-15639204D01*
X5172640Y-15658251D02*
X5182164Y-15648728D01*
X5182164Y-15648728D02*
X5201211Y-15639204D01*
X5201211Y-15639204D02*
X5229783Y-15639204D01*
X5229783Y-15639204D02*
X5248830Y-15648728D01*
X5248830Y-15648728D02*
X5258354Y-15667775D01*
X5258354Y-15667775D02*
X5258354Y-15772537D01*
X5258354Y-15667775D02*
X5267878Y-15648728D01*
X5267878Y-15648728D02*
X5286926Y-15639204D01*
X5286926Y-15639204D02*
X5315497Y-15639204D01*
X5315497Y-15639204D02*
X5334545Y-15648728D01*
X5334545Y-15648728D02*
X5344068Y-15667775D01*
X5344068Y-15667775D02*
X5344068Y-15772537D01*
X5734545Y-15563013D02*
X5563116Y-15820156D01*
X5991687Y-15572537D02*
X6010735Y-15572537D01*
X6010735Y-15572537D02*
X6029783Y-15582061D01*
X6029783Y-15582061D02*
X6039307Y-15591585D01*
X6039307Y-15591585D02*
X6048830Y-15610632D01*
X6048830Y-15610632D02*
X6058354Y-15648728D01*
X6058354Y-15648728D02*
X6058354Y-15696347D01*
X6058354Y-15696347D02*
X6048830Y-15734442D01*
X6048830Y-15734442D02*
X6039307Y-15753489D01*
X6039307Y-15753489D02*
X6029783Y-15763013D01*
X6029783Y-15763013D02*
X6010735Y-15772537D01*
X6010735Y-15772537D02*
X5991687Y-15772537D01*
X5991687Y-15772537D02*
X5972640Y-15763013D01*
X5972640Y-15763013D02*
X5963116Y-15753489D01*
X5963116Y-15753489D02*
X5953592Y-15734442D01*
X5953592Y-15734442D02*
X5944068Y-15696347D01*
X5944068Y-15696347D02*
X5944068Y-15648728D01*
X5944068Y-15648728D02*
X5953592Y-15610632D01*
X5953592Y-15610632D02*
X5963116Y-15591585D01*
X5963116Y-15591585D02*
X5972640Y-15582061D01*
X5972640Y-15582061D02*
X5991687Y-15572537D01*
X6144068Y-15753489D02*
X6153592Y-15763013D01*
X6153592Y-15763013D02*
X6144068Y-15772537D01*
X6144068Y-15772537D02*
X6134545Y-15763013D01*
X6134545Y-15763013D02*
X6144068Y-15753489D01*
X6144068Y-15753489D02*
X6144068Y-15772537D01*
X6277402Y-15572537D02*
X6296449Y-15572537D01*
X6296449Y-15572537D02*
X6315497Y-15582061D01*
X6315497Y-15582061D02*
X6325021Y-15591585D01*
X6325021Y-15591585D02*
X6334545Y-15610632D01*
X6334545Y-15610632D02*
X6344068Y-15648728D01*
X6344068Y-15648728D02*
X6344068Y-15696347D01*
X6344068Y-15696347D02*
X6334545Y-15734442D01*
X6334545Y-15734442D02*
X6325021Y-15753489D01*
X6325021Y-15753489D02*
X6315497Y-15763013D01*
X6315497Y-15763013D02*
X6296449Y-15772537D01*
X6296449Y-15772537D02*
X6277402Y-15772537D01*
X6277402Y-15772537D02*
X6258354Y-15763013D01*
X6258354Y-15763013D02*
X6248830Y-15753489D01*
X6248830Y-15753489D02*
X6239307Y-15734442D01*
X6239307Y-15734442D02*
X6229783Y-15696347D01*
X6229783Y-15696347D02*
X6229783Y-15648728D01*
X6229783Y-15648728D02*
X6239307Y-15610632D01*
X6239307Y-15610632D02*
X6248830Y-15591585D01*
X6248830Y-15591585D02*
X6258354Y-15582061D01*
X6258354Y-15582061D02*
X6277402Y-15572537D01*
X6515497Y-15572537D02*
X6477402Y-15572537D01*
X6477402Y-15572537D02*
X6458354Y-15582061D01*
X6458354Y-15582061D02*
X6448830Y-15591585D01*
X6448830Y-15591585D02*
X6429783Y-15620156D01*
X6429783Y-15620156D02*
X6420259Y-15658251D01*
X6420259Y-15658251D02*
X6420259Y-15734442D01*
X6420259Y-15734442D02*
X6429783Y-15753489D01*
X6429783Y-15753489D02*
X6439307Y-15763013D01*
X6439307Y-15763013D02*
X6458354Y-15772537D01*
X6458354Y-15772537D02*
X6496449Y-15772537D01*
X6496449Y-15772537D02*
X6515497Y-15763013D01*
X6515497Y-15763013D02*
X6525021Y-15753489D01*
X6525021Y-15753489D02*
X6534545Y-15734442D01*
X6534545Y-15734442D02*
X6534545Y-15686823D01*
X6534545Y-15686823D02*
X6525021Y-15667775D01*
X6525021Y-15667775D02*
X6515497Y-15658251D01*
X6515497Y-15658251D02*
X6496449Y-15648728D01*
X6496449Y-15648728D02*
X6458354Y-15648728D01*
X6458354Y-15648728D02*
X6439307Y-15658251D01*
X6439307Y-15658251D02*
X6429783Y-15667775D01*
X6429783Y-15667775D02*
X6420259Y-15686823D01*
X6601211Y-15572537D02*
X6734545Y-15572537D01*
X6734545Y-15572537D02*
X6648830Y-15772537D01*
X6848830Y-15572537D02*
X6867878Y-15572537D01*
X6867878Y-15572537D02*
X6886926Y-15582061D01*
X6886926Y-15582061D02*
X6896449Y-15591585D01*
X6896449Y-15591585D02*
X6905973Y-15610632D01*
X6905973Y-15610632D02*
X6915497Y-15648728D01*
X6915497Y-15648728D02*
X6915497Y-15696347D01*
X6915497Y-15696347D02*
X6905973Y-15734442D01*
X6905973Y-15734442D02*
X6896449Y-15753489D01*
X6896449Y-15753489D02*
X6886926Y-15763013D01*
X6886926Y-15763013D02*
X6867878Y-15772537D01*
X6867878Y-15772537D02*
X6848830Y-15772537D01*
X6848830Y-15772537D02*
X6829783Y-15763013D01*
X6829783Y-15763013D02*
X6820259Y-15753489D01*
X6820259Y-15753489D02*
X6810735Y-15734442D01*
X6810735Y-15734442D02*
X6801211Y-15696347D01*
X6801211Y-15696347D02*
X6801211Y-15648728D01*
X6801211Y-15648728D02*
X6810735Y-15610632D01*
X6810735Y-15610632D02*
X6820259Y-15591585D01*
X6820259Y-15591585D02*
X6829783Y-15582061D01*
X6829783Y-15582061D02*
X6848830Y-15572537D01*
X6991688Y-15572537D02*
X6991688Y-15610632D01*
X7067878Y-15572537D02*
X7067878Y-15610632D01*
X7363116Y-15848728D02*
X7353592Y-15839204D01*
X7353592Y-15839204D02*
X7334545Y-15810632D01*
X7334545Y-15810632D02*
X7325021Y-15791585D01*
X7325021Y-15791585D02*
X7315497Y-15763013D01*
X7315497Y-15763013D02*
X7305973Y-15715394D01*
X7305973Y-15715394D02*
X7305973Y-15677299D01*
X7305973Y-15677299D02*
X7315497Y-15629680D01*
X7315497Y-15629680D02*
X7325021Y-15601109D01*
X7325021Y-15601109D02*
X7334545Y-15582061D01*
X7334545Y-15582061D02*
X7353592Y-15553489D01*
X7353592Y-15553489D02*
X7363116Y-15543966D01*
X7429783Y-15591585D02*
X7439307Y-15582061D01*
X7439307Y-15582061D02*
X7458354Y-15572537D01*
X7458354Y-15572537D02*
X7505973Y-15572537D01*
X7505973Y-15572537D02*
X7525021Y-15582061D01*
X7525021Y-15582061D02*
X7534545Y-15591585D01*
X7534545Y-15591585D02*
X7544069Y-15610632D01*
X7544069Y-15610632D02*
X7544069Y-15629680D01*
X7544069Y-15629680D02*
X7534545Y-15658251D01*
X7534545Y-15658251D02*
X7420259Y-15772537D01*
X7420259Y-15772537D02*
X7544069Y-15772537D01*
X7715497Y-15639204D02*
X7715497Y-15772537D01*
X7667878Y-15563013D02*
X7620259Y-15705870D01*
X7620259Y-15705870D02*
X7744069Y-15705870D01*
X7972640Y-15772537D02*
X7972640Y-15572537D01*
X8058354Y-15772537D02*
X8058354Y-15667775D01*
X8058354Y-15667775D02*
X8048831Y-15648728D01*
X8048831Y-15648728D02*
X8029783Y-15639204D01*
X8029783Y-15639204D02*
X8001211Y-15639204D01*
X8001211Y-15639204D02*
X7982164Y-15648728D01*
X7982164Y-15648728D02*
X7972640Y-15658251D01*
X8182164Y-15772537D02*
X8163116Y-15763013D01*
X8163116Y-15763013D02*
X8153592Y-15753489D01*
X8153592Y-15753489D02*
X8144069Y-15734442D01*
X8144069Y-15734442D02*
X8144069Y-15677299D01*
X8144069Y-15677299D02*
X8153592Y-15658251D01*
X8153592Y-15658251D02*
X8163116Y-15648728D01*
X8163116Y-15648728D02*
X8182164Y-15639204D01*
X8182164Y-15639204D02*
X8210735Y-15639204D01*
X8210735Y-15639204D02*
X8229783Y-15648728D01*
X8229783Y-15648728D02*
X8239307Y-15658251D01*
X8239307Y-15658251D02*
X8248831Y-15677299D01*
X8248831Y-15677299D02*
X8248831Y-15734442D01*
X8248831Y-15734442D02*
X8239307Y-15753489D01*
X8239307Y-15753489D02*
X8229783Y-15763013D01*
X8229783Y-15763013D02*
X8210735Y-15772537D01*
X8210735Y-15772537D02*
X8182164Y-15772537D01*
X8363116Y-15772537D02*
X8344069Y-15763013D01*
X8344069Y-15763013D02*
X8334545Y-15743966D01*
X8334545Y-15743966D02*
X8334545Y-15572537D01*
X8515497Y-15763013D02*
X8496450Y-15772537D01*
X8496450Y-15772537D02*
X8458354Y-15772537D01*
X8458354Y-15772537D02*
X8439307Y-15763013D01*
X8439307Y-15763013D02*
X8429783Y-15743966D01*
X8429783Y-15743966D02*
X8429783Y-15667775D01*
X8429783Y-15667775D02*
X8439307Y-15648728D01*
X8439307Y-15648728D02*
X8458354Y-15639204D01*
X8458354Y-15639204D02*
X8496450Y-15639204D01*
X8496450Y-15639204D02*
X8515497Y-15648728D01*
X8515497Y-15648728D02*
X8525021Y-15667775D01*
X8525021Y-15667775D02*
X8525021Y-15686823D01*
X8525021Y-15686823D02*
X8429783Y-15705870D01*
X8601212Y-15763013D02*
X8620259Y-15772537D01*
X8620259Y-15772537D02*
X8658354Y-15772537D01*
X8658354Y-15772537D02*
X8677402Y-15763013D01*
X8677402Y-15763013D02*
X8686926Y-15743966D01*
X8686926Y-15743966D02*
X8686926Y-15734442D01*
X8686926Y-15734442D02*
X8677402Y-15715394D01*
X8677402Y-15715394D02*
X8658354Y-15705870D01*
X8658354Y-15705870D02*
X8629783Y-15705870D01*
X8629783Y-15705870D02*
X8610735Y-15696347D01*
X8610735Y-15696347D02*
X8601212Y-15677299D01*
X8601212Y-15677299D02*
X8601212Y-15667775D01*
X8601212Y-15667775D02*
X8610735Y-15648728D01*
X8610735Y-15648728D02*
X8629783Y-15639204D01*
X8629783Y-15639204D02*
X8658354Y-15639204D01*
X8658354Y-15639204D02*
X8677402Y-15648728D01*
X8753593Y-15848728D02*
X8763116Y-15839204D01*
X8763116Y-15839204D02*
X8782164Y-15810632D01*
X8782164Y-15810632D02*
X8791688Y-15791585D01*
X8791688Y-15791585D02*
X8801212Y-15763013D01*
X8801212Y-15763013D02*
X8810735Y-15715394D01*
X8810735Y-15715394D02*
X8810735Y-15677299D01*
X8810735Y-15677299D02*
X8801212Y-15629680D01*
X8801212Y-15629680D02*
X8791688Y-15601109D01*
X8791688Y-15601109D02*
X8782164Y-15582061D01*
X8782164Y-15582061D02*
X8763116Y-15553489D01*
X8763116Y-15553489D02*
X8753593Y-15543966D01*
X9115497Y-15848728D02*
X9105974Y-15839204D01*
X9105974Y-15839204D02*
X9086926Y-15810632D01*
X9086926Y-15810632D02*
X9077402Y-15791585D01*
X9077402Y-15791585D02*
X9067878Y-15763013D01*
X9067878Y-15763013D02*
X9058355Y-15715394D01*
X9058355Y-15715394D02*
X9058355Y-15677299D01*
X9058355Y-15677299D02*
X9067878Y-15629680D01*
X9067878Y-15629680D02*
X9077402Y-15601109D01*
X9077402Y-15601109D02*
X9086926Y-15582061D01*
X9086926Y-15582061D02*
X9105974Y-15553489D01*
X9105974Y-15553489D02*
X9115497Y-15543966D01*
X9191688Y-15639204D02*
X9191688Y-15772537D01*
X9191688Y-15658251D02*
X9201212Y-15648728D01*
X9201212Y-15648728D02*
X9220259Y-15639204D01*
X9220259Y-15639204D02*
X9248831Y-15639204D01*
X9248831Y-15639204D02*
X9267878Y-15648728D01*
X9267878Y-15648728D02*
X9277402Y-15667775D01*
X9277402Y-15667775D02*
X9277402Y-15772537D01*
X9401212Y-15772537D02*
X9382164Y-15763013D01*
X9382164Y-15763013D02*
X9372640Y-15753489D01*
X9372640Y-15753489D02*
X9363116Y-15734442D01*
X9363116Y-15734442D02*
X9363116Y-15677299D01*
X9363116Y-15677299D02*
X9372640Y-15658251D01*
X9372640Y-15658251D02*
X9382164Y-15648728D01*
X9382164Y-15648728D02*
X9401212Y-15639204D01*
X9401212Y-15639204D02*
X9429783Y-15639204D01*
X9429783Y-15639204D02*
X9448831Y-15648728D01*
X9448831Y-15648728D02*
X9458355Y-15658251D01*
X9458355Y-15658251D02*
X9467878Y-15677299D01*
X9467878Y-15677299D02*
X9467878Y-15734442D01*
X9467878Y-15734442D02*
X9458355Y-15753489D01*
X9458355Y-15753489D02*
X9448831Y-15763013D01*
X9448831Y-15763013D02*
X9429783Y-15772537D01*
X9429783Y-15772537D02*
X9401212Y-15772537D01*
X9525021Y-15639204D02*
X9601212Y-15639204D01*
X9553593Y-15572537D02*
X9553593Y-15743966D01*
X9553593Y-15743966D02*
X9563116Y-15763013D01*
X9563116Y-15763013D02*
X9582164Y-15772537D01*
X9582164Y-15772537D02*
X9601212Y-15772537D01*
X9820259Y-15639204D02*
X9820259Y-15839204D01*
X9820259Y-15648728D02*
X9839307Y-15639204D01*
X9839307Y-15639204D02*
X9877402Y-15639204D01*
X9877402Y-15639204D02*
X9896450Y-15648728D01*
X9896450Y-15648728D02*
X9905974Y-15658251D01*
X9905974Y-15658251D02*
X9915497Y-15677299D01*
X9915497Y-15677299D02*
X9915497Y-15734442D01*
X9915497Y-15734442D02*
X9905974Y-15753489D01*
X9905974Y-15753489D02*
X9896450Y-15763013D01*
X9896450Y-15763013D02*
X9877402Y-15772537D01*
X9877402Y-15772537D02*
X9839307Y-15772537D01*
X9839307Y-15772537D02*
X9820259Y-15763013D01*
X10029783Y-15772537D02*
X10010736Y-15763013D01*
X10010736Y-15763013D02*
X10001212Y-15743966D01*
X10001212Y-15743966D02*
X10001212Y-15572537D01*
X10191688Y-15772537D02*
X10191688Y-15667775D01*
X10191688Y-15667775D02*
X10182164Y-15648728D01*
X10182164Y-15648728D02*
X10163117Y-15639204D01*
X10163117Y-15639204D02*
X10125021Y-15639204D01*
X10125021Y-15639204D02*
X10105974Y-15648728D01*
X10191688Y-15763013D02*
X10172640Y-15772537D01*
X10172640Y-15772537D02*
X10125021Y-15772537D01*
X10125021Y-15772537D02*
X10105974Y-15763013D01*
X10105974Y-15763013D02*
X10096450Y-15743966D01*
X10096450Y-15743966D02*
X10096450Y-15724918D01*
X10096450Y-15724918D02*
X10105974Y-15705870D01*
X10105974Y-15705870D02*
X10125021Y-15696347D01*
X10125021Y-15696347D02*
X10172640Y-15696347D01*
X10172640Y-15696347D02*
X10191688Y-15686823D01*
X10258355Y-15639204D02*
X10334545Y-15639204D01*
X10286926Y-15572537D02*
X10286926Y-15743966D01*
X10286926Y-15743966D02*
X10296450Y-15763013D01*
X10296450Y-15763013D02*
X10315497Y-15772537D01*
X10315497Y-15772537D02*
X10334545Y-15772537D01*
X10477402Y-15763013D02*
X10458355Y-15772537D01*
X10458355Y-15772537D02*
X10420259Y-15772537D01*
X10420259Y-15772537D02*
X10401212Y-15763013D01*
X10401212Y-15763013D02*
X10391688Y-15743966D01*
X10391688Y-15743966D02*
X10391688Y-15667775D01*
X10391688Y-15667775D02*
X10401212Y-15648728D01*
X10401212Y-15648728D02*
X10420259Y-15639204D01*
X10420259Y-15639204D02*
X10458355Y-15639204D01*
X10458355Y-15639204D02*
X10477402Y-15648728D01*
X10477402Y-15648728D02*
X10486926Y-15667775D01*
X10486926Y-15667775D02*
X10486926Y-15686823D01*
X10486926Y-15686823D02*
X10391688Y-15705870D01*
X10658355Y-15772537D02*
X10658355Y-15572537D01*
X10658355Y-15763013D02*
X10639307Y-15772537D01*
X10639307Y-15772537D02*
X10601212Y-15772537D01*
X10601212Y-15772537D02*
X10582164Y-15763013D01*
X10582164Y-15763013D02*
X10572640Y-15753489D01*
X10572640Y-15753489D02*
X10563117Y-15734442D01*
X10563117Y-15734442D02*
X10563117Y-15677299D01*
X10563117Y-15677299D02*
X10572640Y-15658251D01*
X10572640Y-15658251D02*
X10582164Y-15648728D01*
X10582164Y-15648728D02*
X10601212Y-15639204D01*
X10601212Y-15639204D02*
X10639307Y-15639204D01*
X10639307Y-15639204D02*
X10658355Y-15648728D01*
X10734545Y-15848728D02*
X10744069Y-15839204D01*
X10744069Y-15839204D02*
X10763117Y-15810632D01*
X10763117Y-15810632D02*
X10772640Y-15791585D01*
X10772640Y-15791585D02*
X10782164Y-15763013D01*
X10782164Y-15763013D02*
X10791688Y-15715394D01*
X10791688Y-15715394D02*
X10791688Y-15677299D01*
X10791688Y-15677299D02*
X10782164Y-15629680D01*
X10782164Y-15629680D02*
X10772640Y-15601109D01*
X10772640Y-15601109D02*
X10763117Y-15582061D01*
X10763117Y-15582061D02*
X10744069Y-15553489D01*
X10744069Y-15553489D02*
X10734545Y-15543966D01*
X3688053Y-15871233D02*
X3688053Y-16071233D01*
X3588053Y-15971233D02*
X3788053Y-15971233D01*
X4029783Y-15862717D02*
X4153592Y-15862717D01*
X4153592Y-15862717D02*
X4086925Y-15938908D01*
X4086925Y-15938908D02*
X4115497Y-15938908D01*
X4115497Y-15938908D02*
X4134544Y-15948431D01*
X4134544Y-15948431D02*
X4144068Y-15957955D01*
X4144068Y-15957955D02*
X4153592Y-15977003D01*
X4153592Y-15977003D02*
X4153592Y-16024622D01*
X4153592Y-16024622D02*
X4144068Y-16043669D01*
X4144068Y-16043669D02*
X4134544Y-16053193D01*
X4134544Y-16053193D02*
X4115497Y-16062717D01*
X4115497Y-16062717D02*
X4058354Y-16062717D01*
X4058354Y-16062717D02*
X4039306Y-16053193D01*
X4039306Y-16053193D02*
X4029783Y-16043669D01*
X4239306Y-16043669D02*
X4248830Y-16053193D01*
X4248830Y-16053193D02*
X4239306Y-16062717D01*
X4239306Y-16062717D02*
X4229783Y-16053193D01*
X4229783Y-16053193D02*
X4239306Y-16043669D01*
X4239306Y-16043669D02*
X4239306Y-16062717D01*
X4372640Y-15862717D02*
X4391687Y-15862717D01*
X4391687Y-15862717D02*
X4410735Y-15872241D01*
X4410735Y-15872241D02*
X4420259Y-15881765D01*
X4420259Y-15881765D02*
X4429783Y-15900812D01*
X4429783Y-15900812D02*
X4439306Y-15938908D01*
X4439306Y-15938908D02*
X4439306Y-15986527D01*
X4439306Y-15986527D02*
X4429783Y-16024622D01*
X4429783Y-16024622D02*
X4420259Y-16043669D01*
X4420259Y-16043669D02*
X4410735Y-16053193D01*
X4410735Y-16053193D02*
X4391687Y-16062717D01*
X4391687Y-16062717D02*
X4372640Y-16062717D01*
X4372640Y-16062717D02*
X4353592Y-16053193D01*
X4353592Y-16053193D02*
X4344068Y-16043669D01*
X4344068Y-16043669D02*
X4334545Y-16024622D01*
X4334545Y-16024622D02*
X4325021Y-15986527D01*
X4325021Y-15986527D02*
X4325021Y-15938908D01*
X4325021Y-15938908D02*
X4334545Y-15900812D01*
X4334545Y-15900812D02*
X4344068Y-15881765D01*
X4344068Y-15881765D02*
X4353592Y-15872241D01*
X4353592Y-15872241D02*
X4372640Y-15862717D01*
X4563116Y-15862717D02*
X4582164Y-15862717D01*
X4582164Y-15862717D02*
X4601211Y-15872241D01*
X4601211Y-15872241D02*
X4610735Y-15881765D01*
X4610735Y-15881765D02*
X4620259Y-15900812D01*
X4620259Y-15900812D02*
X4629783Y-15938908D01*
X4629783Y-15938908D02*
X4629783Y-15986527D01*
X4629783Y-15986527D02*
X4620259Y-16024622D01*
X4620259Y-16024622D02*
X4610735Y-16043669D01*
X4610735Y-16043669D02*
X4601211Y-16053193D01*
X4601211Y-16053193D02*
X4582164Y-16062717D01*
X4582164Y-16062717D02*
X4563116Y-16062717D01*
X4563116Y-16062717D02*
X4544068Y-16053193D01*
X4544068Y-16053193D02*
X4534545Y-16043669D01*
X4534545Y-16043669D02*
X4525021Y-16024622D01*
X4525021Y-16024622D02*
X4515497Y-15986527D01*
X4515497Y-15986527D02*
X4515497Y-15938908D01*
X4515497Y-15938908D02*
X4525021Y-15900812D01*
X4525021Y-15900812D02*
X4534545Y-15881765D01*
X4534545Y-15881765D02*
X4544068Y-15872241D01*
X4544068Y-15872241D02*
X4563116Y-15862717D01*
X4753592Y-15862717D02*
X4772640Y-15862717D01*
X4772640Y-15862717D02*
X4791687Y-15872241D01*
X4791687Y-15872241D02*
X4801211Y-15881765D01*
X4801211Y-15881765D02*
X4810735Y-15900812D01*
X4810735Y-15900812D02*
X4820259Y-15938908D01*
X4820259Y-15938908D02*
X4820259Y-15986527D01*
X4820259Y-15986527D02*
X4810735Y-16024622D01*
X4810735Y-16024622D02*
X4801211Y-16043669D01*
X4801211Y-16043669D02*
X4791687Y-16053193D01*
X4791687Y-16053193D02*
X4772640Y-16062717D01*
X4772640Y-16062717D02*
X4753592Y-16062717D01*
X4753592Y-16062717D02*
X4734545Y-16053193D01*
X4734545Y-16053193D02*
X4725021Y-16043669D01*
X4725021Y-16043669D02*
X4715497Y-16024622D01*
X4715497Y-16024622D02*
X4705973Y-15986527D01*
X4705973Y-15986527D02*
X4705973Y-15938908D01*
X4705973Y-15938908D02*
X4715497Y-15900812D01*
X4715497Y-15900812D02*
X4725021Y-15881765D01*
X4725021Y-15881765D02*
X4734545Y-15872241D01*
X4734545Y-15872241D02*
X4753592Y-15862717D01*
X4905973Y-16062717D02*
X4905973Y-15929384D01*
X4905973Y-15948431D02*
X4915497Y-15938908D01*
X4915497Y-15938908D02*
X4934545Y-15929384D01*
X4934545Y-15929384D02*
X4963116Y-15929384D01*
X4963116Y-15929384D02*
X4982164Y-15938908D01*
X4982164Y-15938908D02*
X4991687Y-15957955D01*
X4991687Y-15957955D02*
X4991687Y-16062717D01*
X4991687Y-15957955D02*
X5001211Y-15938908D01*
X5001211Y-15938908D02*
X5020259Y-15929384D01*
X5020259Y-15929384D02*
X5048830Y-15929384D01*
X5048830Y-15929384D02*
X5067878Y-15938908D01*
X5067878Y-15938908D02*
X5077402Y-15957955D01*
X5077402Y-15957955D02*
X5077402Y-16062717D01*
X5172640Y-16062717D02*
X5172640Y-15929384D01*
X5172640Y-15948431D02*
X5182164Y-15938908D01*
X5182164Y-15938908D02*
X5201211Y-15929384D01*
X5201211Y-15929384D02*
X5229783Y-15929384D01*
X5229783Y-15929384D02*
X5248830Y-15938908D01*
X5248830Y-15938908D02*
X5258354Y-15957955D01*
X5258354Y-15957955D02*
X5258354Y-16062717D01*
X5258354Y-15957955D02*
X5267878Y-15938908D01*
X5267878Y-15938908D02*
X5286926Y-15929384D01*
X5286926Y-15929384D02*
X5315497Y-15929384D01*
X5315497Y-15929384D02*
X5334545Y-15938908D01*
X5334545Y-15938908D02*
X5344068Y-15957955D01*
X5344068Y-15957955D02*
X5344068Y-16062717D01*
X5734545Y-15853193D02*
X5563116Y-16110336D01*
X5991687Y-15862717D02*
X6010735Y-15862717D01*
X6010735Y-15862717D02*
X6029783Y-15872241D01*
X6029783Y-15872241D02*
X6039307Y-15881765D01*
X6039307Y-15881765D02*
X6048830Y-15900812D01*
X6048830Y-15900812D02*
X6058354Y-15938908D01*
X6058354Y-15938908D02*
X6058354Y-15986527D01*
X6058354Y-15986527D02*
X6048830Y-16024622D01*
X6048830Y-16024622D02*
X6039307Y-16043669D01*
X6039307Y-16043669D02*
X6029783Y-16053193D01*
X6029783Y-16053193D02*
X6010735Y-16062717D01*
X6010735Y-16062717D02*
X5991687Y-16062717D01*
X5991687Y-16062717D02*
X5972640Y-16053193D01*
X5972640Y-16053193D02*
X5963116Y-16043669D01*
X5963116Y-16043669D02*
X5953592Y-16024622D01*
X5953592Y-16024622D02*
X5944068Y-15986527D01*
X5944068Y-15986527D02*
X5944068Y-15938908D01*
X5944068Y-15938908D02*
X5953592Y-15900812D01*
X5953592Y-15900812D02*
X5963116Y-15881765D01*
X5963116Y-15881765D02*
X5972640Y-15872241D01*
X5972640Y-15872241D02*
X5991687Y-15862717D01*
X6144068Y-16043669D02*
X6153592Y-16053193D01*
X6153592Y-16053193D02*
X6144068Y-16062717D01*
X6144068Y-16062717D02*
X6134545Y-16053193D01*
X6134545Y-16053193D02*
X6144068Y-16043669D01*
X6144068Y-16043669D02*
X6144068Y-16062717D01*
X6344068Y-16062717D02*
X6229783Y-16062717D01*
X6286926Y-16062717D02*
X6286926Y-15862717D01*
X6286926Y-15862717D02*
X6267878Y-15891289D01*
X6267878Y-15891289D02*
X6248830Y-15910336D01*
X6248830Y-15910336D02*
X6229783Y-15919860D01*
X6534545Y-16062717D02*
X6420259Y-16062717D01*
X6477402Y-16062717D02*
X6477402Y-15862717D01*
X6477402Y-15862717D02*
X6458354Y-15891289D01*
X6458354Y-15891289D02*
X6439307Y-15910336D01*
X6439307Y-15910336D02*
X6420259Y-15919860D01*
X6648830Y-15948431D02*
X6629783Y-15938908D01*
X6629783Y-15938908D02*
X6620259Y-15929384D01*
X6620259Y-15929384D02*
X6610735Y-15910336D01*
X6610735Y-15910336D02*
X6610735Y-15900812D01*
X6610735Y-15900812D02*
X6620259Y-15881765D01*
X6620259Y-15881765D02*
X6629783Y-15872241D01*
X6629783Y-15872241D02*
X6648830Y-15862717D01*
X6648830Y-15862717D02*
X6686926Y-15862717D01*
X6686926Y-15862717D02*
X6705973Y-15872241D01*
X6705973Y-15872241D02*
X6715497Y-15881765D01*
X6715497Y-15881765D02*
X6725021Y-15900812D01*
X6725021Y-15900812D02*
X6725021Y-15910336D01*
X6725021Y-15910336D02*
X6715497Y-15929384D01*
X6715497Y-15929384D02*
X6705973Y-15938908D01*
X6705973Y-15938908D02*
X6686926Y-15948431D01*
X6686926Y-15948431D02*
X6648830Y-15948431D01*
X6648830Y-15948431D02*
X6629783Y-15957955D01*
X6629783Y-15957955D02*
X6620259Y-15967479D01*
X6620259Y-15967479D02*
X6610735Y-15986527D01*
X6610735Y-15986527D02*
X6610735Y-16024622D01*
X6610735Y-16024622D02*
X6620259Y-16043669D01*
X6620259Y-16043669D02*
X6629783Y-16053193D01*
X6629783Y-16053193D02*
X6648830Y-16062717D01*
X6648830Y-16062717D02*
X6686926Y-16062717D01*
X6686926Y-16062717D02*
X6705973Y-16053193D01*
X6705973Y-16053193D02*
X6715497Y-16043669D01*
X6715497Y-16043669D02*
X6725021Y-16024622D01*
X6725021Y-16024622D02*
X6725021Y-15986527D01*
X6725021Y-15986527D02*
X6715497Y-15967479D01*
X6715497Y-15967479D02*
X6705973Y-15957955D01*
X6705973Y-15957955D02*
X6686926Y-15948431D01*
X6915497Y-16062717D02*
X6801211Y-16062717D01*
X6858354Y-16062717D02*
X6858354Y-15862717D01*
X6858354Y-15862717D02*
X6839307Y-15891289D01*
X6839307Y-15891289D02*
X6820259Y-15910336D01*
X6820259Y-15910336D02*
X6801211Y-15919860D01*
X6991688Y-15862717D02*
X6991688Y-15900812D01*
X7067878Y-15862717D02*
X7067878Y-15900812D01*
X7363116Y-16138908D02*
X7353592Y-16129384D01*
X7353592Y-16129384D02*
X7334545Y-16100812D01*
X7334545Y-16100812D02*
X7325021Y-16081765D01*
X7325021Y-16081765D02*
X7315497Y-16053193D01*
X7315497Y-16053193D02*
X7305973Y-16005574D01*
X7305973Y-16005574D02*
X7305973Y-15967479D01*
X7305973Y-15967479D02*
X7315497Y-15919860D01*
X7315497Y-15919860D02*
X7325021Y-15891289D01*
X7325021Y-15891289D02*
X7334545Y-15872241D01*
X7334545Y-15872241D02*
X7353592Y-15843669D01*
X7353592Y-15843669D02*
X7363116Y-15834146D01*
X7429783Y-15881765D02*
X7439307Y-15872241D01*
X7439307Y-15872241D02*
X7458354Y-15862717D01*
X7458354Y-15862717D02*
X7505973Y-15862717D01*
X7505973Y-15862717D02*
X7525021Y-15872241D01*
X7525021Y-15872241D02*
X7534545Y-15881765D01*
X7534545Y-15881765D02*
X7544069Y-15900812D01*
X7544069Y-15900812D02*
X7544069Y-15919860D01*
X7544069Y-15919860D02*
X7534545Y-15948431D01*
X7534545Y-15948431D02*
X7420259Y-16062717D01*
X7420259Y-16062717D02*
X7544069Y-16062717D01*
X7715497Y-15929384D02*
X7715497Y-16062717D01*
X7667878Y-15853193D02*
X7620259Y-15996050D01*
X7620259Y-15996050D02*
X7744069Y-15996050D01*
X7972640Y-16062717D02*
X7972640Y-15862717D01*
X8058354Y-16062717D02*
X8058354Y-15957955D01*
X8058354Y-15957955D02*
X8048831Y-15938908D01*
X8048831Y-15938908D02*
X8029783Y-15929384D01*
X8029783Y-15929384D02*
X8001211Y-15929384D01*
X8001211Y-15929384D02*
X7982164Y-15938908D01*
X7982164Y-15938908D02*
X7972640Y-15948431D01*
X8182164Y-16062717D02*
X8163116Y-16053193D01*
X8163116Y-16053193D02*
X8153592Y-16043669D01*
X8153592Y-16043669D02*
X8144069Y-16024622D01*
X8144069Y-16024622D02*
X8144069Y-15967479D01*
X8144069Y-15967479D02*
X8153592Y-15948431D01*
X8153592Y-15948431D02*
X8163116Y-15938908D01*
X8163116Y-15938908D02*
X8182164Y-15929384D01*
X8182164Y-15929384D02*
X8210735Y-15929384D01*
X8210735Y-15929384D02*
X8229783Y-15938908D01*
X8229783Y-15938908D02*
X8239307Y-15948431D01*
X8239307Y-15948431D02*
X8248831Y-15967479D01*
X8248831Y-15967479D02*
X8248831Y-16024622D01*
X8248831Y-16024622D02*
X8239307Y-16043669D01*
X8239307Y-16043669D02*
X8229783Y-16053193D01*
X8229783Y-16053193D02*
X8210735Y-16062717D01*
X8210735Y-16062717D02*
X8182164Y-16062717D01*
X8363116Y-16062717D02*
X8344069Y-16053193D01*
X8344069Y-16053193D02*
X8334545Y-16034146D01*
X8334545Y-16034146D02*
X8334545Y-15862717D01*
X8515497Y-16053193D02*
X8496450Y-16062717D01*
X8496450Y-16062717D02*
X8458354Y-16062717D01*
X8458354Y-16062717D02*
X8439307Y-16053193D01*
X8439307Y-16053193D02*
X8429783Y-16034146D01*
X8429783Y-16034146D02*
X8429783Y-15957955D01*
X8429783Y-15957955D02*
X8439307Y-15938908D01*
X8439307Y-15938908D02*
X8458354Y-15929384D01*
X8458354Y-15929384D02*
X8496450Y-15929384D01*
X8496450Y-15929384D02*
X8515497Y-15938908D01*
X8515497Y-15938908D02*
X8525021Y-15957955D01*
X8525021Y-15957955D02*
X8525021Y-15977003D01*
X8525021Y-15977003D02*
X8429783Y-15996050D01*
X8601212Y-16053193D02*
X8620259Y-16062717D01*
X8620259Y-16062717D02*
X8658354Y-16062717D01*
X8658354Y-16062717D02*
X8677402Y-16053193D01*
X8677402Y-16053193D02*
X8686926Y-16034146D01*
X8686926Y-16034146D02*
X8686926Y-16024622D01*
X8686926Y-16024622D02*
X8677402Y-16005574D01*
X8677402Y-16005574D02*
X8658354Y-15996050D01*
X8658354Y-15996050D02*
X8629783Y-15996050D01*
X8629783Y-15996050D02*
X8610735Y-15986527D01*
X8610735Y-15986527D02*
X8601212Y-15967479D01*
X8601212Y-15967479D02*
X8601212Y-15957955D01*
X8601212Y-15957955D02*
X8610735Y-15938908D01*
X8610735Y-15938908D02*
X8629783Y-15929384D01*
X8629783Y-15929384D02*
X8658354Y-15929384D01*
X8658354Y-15929384D02*
X8677402Y-15938908D01*
X8753593Y-16138908D02*
X8763116Y-16129384D01*
X8763116Y-16129384D02*
X8782164Y-16100812D01*
X8782164Y-16100812D02*
X8791688Y-16081765D01*
X8791688Y-16081765D02*
X8801212Y-16053193D01*
X8801212Y-16053193D02*
X8810735Y-16005574D01*
X8810735Y-16005574D02*
X8810735Y-15967479D01*
X8810735Y-15967479D02*
X8801212Y-15919860D01*
X8801212Y-15919860D02*
X8791688Y-15891289D01*
X8791688Y-15891289D02*
X8782164Y-15872241D01*
X8782164Y-15872241D02*
X8763116Y-15843669D01*
X8763116Y-15843669D02*
X8753593Y-15834146D01*
X9115497Y-16138908D02*
X9105974Y-16129384D01*
X9105974Y-16129384D02*
X9086926Y-16100812D01*
X9086926Y-16100812D02*
X9077402Y-16081765D01*
X9077402Y-16081765D02*
X9067878Y-16053193D01*
X9067878Y-16053193D02*
X9058355Y-16005574D01*
X9058355Y-16005574D02*
X9058355Y-15967479D01*
X9058355Y-15967479D02*
X9067878Y-15919860D01*
X9067878Y-15919860D02*
X9077402Y-15891289D01*
X9077402Y-15891289D02*
X9086926Y-15872241D01*
X9086926Y-15872241D02*
X9105974Y-15843669D01*
X9105974Y-15843669D02*
X9115497Y-15834146D01*
X9191688Y-15929384D02*
X9191688Y-16062717D01*
X9191688Y-15948431D02*
X9201212Y-15938908D01*
X9201212Y-15938908D02*
X9220259Y-15929384D01*
X9220259Y-15929384D02*
X9248831Y-15929384D01*
X9248831Y-15929384D02*
X9267878Y-15938908D01*
X9267878Y-15938908D02*
X9277402Y-15957955D01*
X9277402Y-15957955D02*
X9277402Y-16062717D01*
X9401212Y-16062717D02*
X9382164Y-16053193D01*
X9382164Y-16053193D02*
X9372640Y-16043669D01*
X9372640Y-16043669D02*
X9363116Y-16024622D01*
X9363116Y-16024622D02*
X9363116Y-15967479D01*
X9363116Y-15967479D02*
X9372640Y-15948431D01*
X9372640Y-15948431D02*
X9382164Y-15938908D01*
X9382164Y-15938908D02*
X9401212Y-15929384D01*
X9401212Y-15929384D02*
X9429783Y-15929384D01*
X9429783Y-15929384D02*
X9448831Y-15938908D01*
X9448831Y-15938908D02*
X9458355Y-15948431D01*
X9458355Y-15948431D02*
X9467878Y-15967479D01*
X9467878Y-15967479D02*
X9467878Y-16024622D01*
X9467878Y-16024622D02*
X9458355Y-16043669D01*
X9458355Y-16043669D02*
X9448831Y-16053193D01*
X9448831Y-16053193D02*
X9429783Y-16062717D01*
X9429783Y-16062717D02*
X9401212Y-16062717D01*
X9525021Y-15929384D02*
X9601212Y-15929384D01*
X9553593Y-15862717D02*
X9553593Y-16034146D01*
X9553593Y-16034146D02*
X9563116Y-16053193D01*
X9563116Y-16053193D02*
X9582164Y-16062717D01*
X9582164Y-16062717D02*
X9601212Y-16062717D01*
X9820259Y-15929384D02*
X9820259Y-16129384D01*
X9820259Y-15938908D02*
X9839307Y-15929384D01*
X9839307Y-15929384D02*
X9877402Y-15929384D01*
X9877402Y-15929384D02*
X9896450Y-15938908D01*
X9896450Y-15938908D02*
X9905974Y-15948431D01*
X9905974Y-15948431D02*
X9915497Y-15967479D01*
X9915497Y-15967479D02*
X9915497Y-16024622D01*
X9915497Y-16024622D02*
X9905974Y-16043669D01*
X9905974Y-16043669D02*
X9896450Y-16053193D01*
X9896450Y-16053193D02*
X9877402Y-16062717D01*
X9877402Y-16062717D02*
X9839307Y-16062717D01*
X9839307Y-16062717D02*
X9820259Y-16053193D01*
X10029783Y-16062717D02*
X10010736Y-16053193D01*
X10010736Y-16053193D02*
X10001212Y-16034146D01*
X10001212Y-16034146D02*
X10001212Y-15862717D01*
X10191688Y-16062717D02*
X10191688Y-15957955D01*
X10191688Y-15957955D02*
X10182164Y-15938908D01*
X10182164Y-15938908D02*
X10163117Y-15929384D01*
X10163117Y-15929384D02*
X10125021Y-15929384D01*
X10125021Y-15929384D02*
X10105974Y-15938908D01*
X10191688Y-16053193D02*
X10172640Y-16062717D01*
X10172640Y-16062717D02*
X10125021Y-16062717D01*
X10125021Y-16062717D02*
X10105974Y-16053193D01*
X10105974Y-16053193D02*
X10096450Y-16034146D01*
X10096450Y-16034146D02*
X10096450Y-16015098D01*
X10096450Y-16015098D02*
X10105974Y-15996050D01*
X10105974Y-15996050D02*
X10125021Y-15986527D01*
X10125021Y-15986527D02*
X10172640Y-15986527D01*
X10172640Y-15986527D02*
X10191688Y-15977003D01*
X10258355Y-15929384D02*
X10334545Y-15929384D01*
X10286926Y-15862717D02*
X10286926Y-16034146D01*
X10286926Y-16034146D02*
X10296450Y-16053193D01*
X10296450Y-16053193D02*
X10315497Y-16062717D01*
X10315497Y-16062717D02*
X10334545Y-16062717D01*
X10477402Y-16053193D02*
X10458355Y-16062717D01*
X10458355Y-16062717D02*
X10420259Y-16062717D01*
X10420259Y-16062717D02*
X10401212Y-16053193D01*
X10401212Y-16053193D02*
X10391688Y-16034146D01*
X10391688Y-16034146D02*
X10391688Y-15957955D01*
X10391688Y-15957955D02*
X10401212Y-15938908D01*
X10401212Y-15938908D02*
X10420259Y-15929384D01*
X10420259Y-15929384D02*
X10458355Y-15929384D01*
X10458355Y-15929384D02*
X10477402Y-15938908D01*
X10477402Y-15938908D02*
X10486926Y-15957955D01*
X10486926Y-15957955D02*
X10486926Y-15977003D01*
X10486926Y-15977003D02*
X10391688Y-15996050D01*
X10658355Y-16062717D02*
X10658355Y-15862717D01*
X10658355Y-16053193D02*
X10639307Y-16062717D01*
X10639307Y-16062717D02*
X10601212Y-16062717D01*
X10601212Y-16062717D02*
X10582164Y-16053193D01*
X10582164Y-16053193D02*
X10572640Y-16043669D01*
X10572640Y-16043669D02*
X10563117Y-16024622D01*
X10563117Y-16024622D02*
X10563117Y-15967479D01*
X10563117Y-15967479D02*
X10572640Y-15948431D01*
X10572640Y-15948431D02*
X10582164Y-15938908D01*
X10582164Y-15938908D02*
X10601212Y-15929384D01*
X10601212Y-15929384D02*
X10639307Y-15929384D01*
X10639307Y-15929384D02*
X10658355Y-15938908D01*
X10734545Y-16138908D02*
X10744069Y-16129384D01*
X10744069Y-16129384D02*
X10763117Y-16100812D01*
X10763117Y-16100812D02*
X10772640Y-16081765D01*
X10772640Y-16081765D02*
X10782164Y-16053193D01*
X10782164Y-16053193D02*
X10791688Y-16005574D01*
X10791688Y-16005574D02*
X10791688Y-15967479D01*
X10791688Y-15967479D02*
X10782164Y-15919860D01*
X10782164Y-15919860D02*
X10772640Y-15891289D01*
X10772640Y-15891289D02*
X10763117Y-15872241D01*
X10763117Y-15872241D02*
X10744069Y-15843669D01*
X10744069Y-15843669D02*
X10734545Y-15834146D01*
X3758765Y-16361945D02*
X3758765Y-16220522D01*
X3617342Y-16220522D01*
X3617342Y-16361945D01*
X3758765Y-16361945D01*
X4029783Y-16182717D02*
X4153592Y-16182717D01*
X4153592Y-16182717D02*
X4086925Y-16258908D01*
X4086925Y-16258908D02*
X4115497Y-16258908D01*
X4115497Y-16258908D02*
X4134544Y-16268431D01*
X4134544Y-16268431D02*
X4144068Y-16277955D01*
X4144068Y-16277955D02*
X4153592Y-16297003D01*
X4153592Y-16297003D02*
X4153592Y-16344622D01*
X4153592Y-16344622D02*
X4144068Y-16363669D01*
X4144068Y-16363669D02*
X4134544Y-16373193D01*
X4134544Y-16373193D02*
X4115497Y-16382717D01*
X4115497Y-16382717D02*
X4058354Y-16382717D01*
X4058354Y-16382717D02*
X4039306Y-16373193D01*
X4039306Y-16373193D02*
X4029783Y-16363669D01*
X4239306Y-16363669D02*
X4248830Y-16373193D01*
X4248830Y-16373193D02*
X4239306Y-16382717D01*
X4239306Y-16382717D02*
X4229783Y-16373193D01*
X4229783Y-16373193D02*
X4239306Y-16363669D01*
X4239306Y-16363669D02*
X4239306Y-16382717D01*
X4420259Y-16249384D02*
X4420259Y-16382717D01*
X4372640Y-16173193D02*
X4325021Y-16316050D01*
X4325021Y-16316050D02*
X4448830Y-16316050D01*
X4515497Y-16201765D02*
X4525021Y-16192241D01*
X4525021Y-16192241D02*
X4544068Y-16182717D01*
X4544068Y-16182717D02*
X4591687Y-16182717D01*
X4591687Y-16182717D02*
X4610735Y-16192241D01*
X4610735Y-16192241D02*
X4620259Y-16201765D01*
X4620259Y-16201765D02*
X4629783Y-16220812D01*
X4629783Y-16220812D02*
X4629783Y-16239860D01*
X4629783Y-16239860D02*
X4620259Y-16268431D01*
X4620259Y-16268431D02*
X4505973Y-16382717D01*
X4505973Y-16382717D02*
X4629783Y-16382717D01*
X4725021Y-16382717D02*
X4763116Y-16382717D01*
X4763116Y-16382717D02*
X4782164Y-16373193D01*
X4782164Y-16373193D02*
X4791687Y-16363669D01*
X4791687Y-16363669D02*
X4810735Y-16335098D01*
X4810735Y-16335098D02*
X4820259Y-16297003D01*
X4820259Y-16297003D02*
X4820259Y-16220812D01*
X4820259Y-16220812D02*
X4810735Y-16201765D01*
X4810735Y-16201765D02*
X4801211Y-16192241D01*
X4801211Y-16192241D02*
X4782164Y-16182717D01*
X4782164Y-16182717D02*
X4744068Y-16182717D01*
X4744068Y-16182717D02*
X4725021Y-16192241D01*
X4725021Y-16192241D02*
X4715497Y-16201765D01*
X4715497Y-16201765D02*
X4705973Y-16220812D01*
X4705973Y-16220812D02*
X4705973Y-16268431D01*
X4705973Y-16268431D02*
X4715497Y-16287479D01*
X4715497Y-16287479D02*
X4725021Y-16297003D01*
X4725021Y-16297003D02*
X4744068Y-16306527D01*
X4744068Y-16306527D02*
X4782164Y-16306527D01*
X4782164Y-16306527D02*
X4801211Y-16297003D01*
X4801211Y-16297003D02*
X4810735Y-16287479D01*
X4810735Y-16287479D02*
X4820259Y-16268431D01*
X4905973Y-16382717D02*
X4905973Y-16249384D01*
X4905973Y-16268431D02*
X4915497Y-16258908D01*
X4915497Y-16258908D02*
X4934545Y-16249384D01*
X4934545Y-16249384D02*
X4963116Y-16249384D01*
X4963116Y-16249384D02*
X4982164Y-16258908D01*
X4982164Y-16258908D02*
X4991687Y-16277955D01*
X4991687Y-16277955D02*
X4991687Y-16382717D01*
X4991687Y-16277955D02*
X5001211Y-16258908D01*
X5001211Y-16258908D02*
X5020259Y-16249384D01*
X5020259Y-16249384D02*
X5048830Y-16249384D01*
X5048830Y-16249384D02*
X5067878Y-16258908D01*
X5067878Y-16258908D02*
X5077402Y-16277955D01*
X5077402Y-16277955D02*
X5077402Y-16382717D01*
X5172640Y-16382717D02*
X5172640Y-16249384D01*
X5172640Y-16268431D02*
X5182164Y-16258908D01*
X5182164Y-16258908D02*
X5201211Y-16249384D01*
X5201211Y-16249384D02*
X5229783Y-16249384D01*
X5229783Y-16249384D02*
X5248830Y-16258908D01*
X5248830Y-16258908D02*
X5258354Y-16277955D01*
X5258354Y-16277955D02*
X5258354Y-16382717D01*
X5258354Y-16277955D02*
X5267878Y-16258908D01*
X5267878Y-16258908D02*
X5286926Y-16249384D01*
X5286926Y-16249384D02*
X5315497Y-16249384D01*
X5315497Y-16249384D02*
X5334545Y-16258908D01*
X5334545Y-16258908D02*
X5344068Y-16277955D01*
X5344068Y-16277955D02*
X5344068Y-16382717D01*
X5734545Y-16173193D02*
X5563116Y-16430336D01*
X5991687Y-16182717D02*
X6010735Y-16182717D01*
X6010735Y-16182717D02*
X6029783Y-16192241D01*
X6029783Y-16192241D02*
X6039307Y-16201765D01*
X6039307Y-16201765D02*
X6048830Y-16220812D01*
X6048830Y-16220812D02*
X6058354Y-16258908D01*
X6058354Y-16258908D02*
X6058354Y-16306527D01*
X6058354Y-16306527D02*
X6048830Y-16344622D01*
X6048830Y-16344622D02*
X6039307Y-16363669D01*
X6039307Y-16363669D02*
X6029783Y-16373193D01*
X6029783Y-16373193D02*
X6010735Y-16382717D01*
X6010735Y-16382717D02*
X5991687Y-16382717D01*
X5991687Y-16382717D02*
X5972640Y-16373193D01*
X5972640Y-16373193D02*
X5963116Y-16363669D01*
X5963116Y-16363669D02*
X5953592Y-16344622D01*
X5953592Y-16344622D02*
X5944068Y-16306527D01*
X5944068Y-16306527D02*
X5944068Y-16258908D01*
X5944068Y-16258908D02*
X5953592Y-16220812D01*
X5953592Y-16220812D02*
X5963116Y-16201765D01*
X5963116Y-16201765D02*
X5972640Y-16192241D01*
X5972640Y-16192241D02*
X5991687Y-16182717D01*
X6144068Y-16363669D02*
X6153592Y-16373193D01*
X6153592Y-16373193D02*
X6144068Y-16382717D01*
X6144068Y-16382717D02*
X6134545Y-16373193D01*
X6134545Y-16373193D02*
X6144068Y-16363669D01*
X6144068Y-16363669D02*
X6144068Y-16382717D01*
X6344068Y-16382717D02*
X6229783Y-16382717D01*
X6286926Y-16382717D02*
X6286926Y-16182717D01*
X6286926Y-16182717D02*
X6267878Y-16211289D01*
X6267878Y-16211289D02*
X6248830Y-16230336D01*
X6248830Y-16230336D02*
X6229783Y-16239860D01*
X6410735Y-16182717D02*
X6534545Y-16182717D01*
X6534545Y-16182717D02*
X6467878Y-16258908D01*
X6467878Y-16258908D02*
X6496449Y-16258908D01*
X6496449Y-16258908D02*
X6515497Y-16268431D01*
X6515497Y-16268431D02*
X6525021Y-16277955D01*
X6525021Y-16277955D02*
X6534545Y-16297003D01*
X6534545Y-16297003D02*
X6534545Y-16344622D01*
X6534545Y-16344622D02*
X6525021Y-16363669D01*
X6525021Y-16363669D02*
X6515497Y-16373193D01*
X6515497Y-16373193D02*
X6496449Y-16382717D01*
X6496449Y-16382717D02*
X6439307Y-16382717D01*
X6439307Y-16382717D02*
X6420259Y-16373193D01*
X6420259Y-16373193D02*
X6410735Y-16363669D01*
X6715497Y-16182717D02*
X6620259Y-16182717D01*
X6620259Y-16182717D02*
X6610735Y-16277955D01*
X6610735Y-16277955D02*
X6620259Y-16268431D01*
X6620259Y-16268431D02*
X6639307Y-16258908D01*
X6639307Y-16258908D02*
X6686926Y-16258908D01*
X6686926Y-16258908D02*
X6705973Y-16268431D01*
X6705973Y-16268431D02*
X6715497Y-16277955D01*
X6715497Y-16277955D02*
X6725021Y-16297003D01*
X6725021Y-16297003D02*
X6725021Y-16344622D01*
X6725021Y-16344622D02*
X6715497Y-16363669D01*
X6715497Y-16363669D02*
X6705973Y-16373193D01*
X6705973Y-16373193D02*
X6686926Y-16382717D01*
X6686926Y-16382717D02*
X6639307Y-16382717D01*
X6639307Y-16382717D02*
X6620259Y-16373193D01*
X6620259Y-16373193D02*
X6610735Y-16363669D01*
X6848830Y-16182717D02*
X6867878Y-16182717D01*
X6867878Y-16182717D02*
X6886926Y-16192241D01*
X6886926Y-16192241D02*
X6896449Y-16201765D01*
X6896449Y-16201765D02*
X6905973Y-16220812D01*
X6905973Y-16220812D02*
X6915497Y-16258908D01*
X6915497Y-16258908D02*
X6915497Y-16306527D01*
X6915497Y-16306527D02*
X6905973Y-16344622D01*
X6905973Y-16344622D02*
X6896449Y-16363669D01*
X6896449Y-16363669D02*
X6886926Y-16373193D01*
X6886926Y-16373193D02*
X6867878Y-16382717D01*
X6867878Y-16382717D02*
X6848830Y-16382717D01*
X6848830Y-16382717D02*
X6829783Y-16373193D01*
X6829783Y-16373193D02*
X6820259Y-16363669D01*
X6820259Y-16363669D02*
X6810735Y-16344622D01*
X6810735Y-16344622D02*
X6801211Y-16306527D01*
X6801211Y-16306527D02*
X6801211Y-16258908D01*
X6801211Y-16258908D02*
X6810735Y-16220812D01*
X6810735Y-16220812D02*
X6820259Y-16201765D01*
X6820259Y-16201765D02*
X6829783Y-16192241D01*
X6829783Y-16192241D02*
X6848830Y-16182717D01*
X6991688Y-16182717D02*
X6991688Y-16220812D01*
X7067878Y-16182717D02*
X7067878Y-16220812D01*
X7363116Y-16458908D02*
X7353592Y-16449384D01*
X7353592Y-16449384D02*
X7334545Y-16420812D01*
X7334545Y-16420812D02*
X7325021Y-16401765D01*
X7325021Y-16401765D02*
X7315497Y-16373193D01*
X7315497Y-16373193D02*
X7305973Y-16325574D01*
X7305973Y-16325574D02*
X7305973Y-16287479D01*
X7305973Y-16287479D02*
X7315497Y-16239860D01*
X7315497Y-16239860D02*
X7325021Y-16211289D01*
X7325021Y-16211289D02*
X7334545Y-16192241D01*
X7334545Y-16192241D02*
X7353592Y-16163669D01*
X7353592Y-16163669D02*
X7363116Y-16154146D01*
X7544069Y-16382717D02*
X7429783Y-16382717D01*
X7486926Y-16382717D02*
X7486926Y-16182717D01*
X7486926Y-16182717D02*
X7467878Y-16211289D01*
X7467878Y-16211289D02*
X7448830Y-16230336D01*
X7448830Y-16230336D02*
X7429783Y-16239860D01*
X7620259Y-16201765D02*
X7629783Y-16192241D01*
X7629783Y-16192241D02*
X7648830Y-16182717D01*
X7648830Y-16182717D02*
X7696450Y-16182717D01*
X7696450Y-16182717D02*
X7715497Y-16192241D01*
X7715497Y-16192241D02*
X7725021Y-16201765D01*
X7725021Y-16201765D02*
X7734545Y-16220812D01*
X7734545Y-16220812D02*
X7734545Y-16239860D01*
X7734545Y-16239860D02*
X7725021Y-16268431D01*
X7725021Y-16268431D02*
X7610735Y-16382717D01*
X7610735Y-16382717D02*
X7734545Y-16382717D01*
X7972640Y-16382717D02*
X7972640Y-16182717D01*
X8058354Y-16382717D02*
X8058354Y-16277955D01*
X8058354Y-16277955D02*
X8048831Y-16258908D01*
X8048831Y-16258908D02*
X8029783Y-16249384D01*
X8029783Y-16249384D02*
X8001211Y-16249384D01*
X8001211Y-16249384D02*
X7982164Y-16258908D01*
X7982164Y-16258908D02*
X7972640Y-16268431D01*
X8182164Y-16382717D02*
X8163116Y-16373193D01*
X8163116Y-16373193D02*
X8153592Y-16363669D01*
X8153592Y-16363669D02*
X8144069Y-16344622D01*
X8144069Y-16344622D02*
X8144069Y-16287479D01*
X8144069Y-16287479D02*
X8153592Y-16268431D01*
X8153592Y-16268431D02*
X8163116Y-16258908D01*
X8163116Y-16258908D02*
X8182164Y-16249384D01*
X8182164Y-16249384D02*
X8210735Y-16249384D01*
X8210735Y-16249384D02*
X8229783Y-16258908D01*
X8229783Y-16258908D02*
X8239307Y-16268431D01*
X8239307Y-16268431D02*
X8248831Y-16287479D01*
X8248831Y-16287479D02*
X8248831Y-16344622D01*
X8248831Y-16344622D02*
X8239307Y-16363669D01*
X8239307Y-16363669D02*
X8229783Y-16373193D01*
X8229783Y-16373193D02*
X8210735Y-16382717D01*
X8210735Y-16382717D02*
X8182164Y-16382717D01*
X8363116Y-16382717D02*
X8344069Y-16373193D01*
X8344069Y-16373193D02*
X8334545Y-16354146D01*
X8334545Y-16354146D02*
X8334545Y-16182717D01*
X8515497Y-16373193D02*
X8496450Y-16382717D01*
X8496450Y-16382717D02*
X8458354Y-16382717D01*
X8458354Y-16382717D02*
X8439307Y-16373193D01*
X8439307Y-16373193D02*
X8429783Y-16354146D01*
X8429783Y-16354146D02*
X8429783Y-16277955D01*
X8429783Y-16277955D02*
X8439307Y-16258908D01*
X8439307Y-16258908D02*
X8458354Y-16249384D01*
X8458354Y-16249384D02*
X8496450Y-16249384D01*
X8496450Y-16249384D02*
X8515497Y-16258908D01*
X8515497Y-16258908D02*
X8525021Y-16277955D01*
X8525021Y-16277955D02*
X8525021Y-16297003D01*
X8525021Y-16297003D02*
X8429783Y-16316050D01*
X8601212Y-16373193D02*
X8620259Y-16382717D01*
X8620259Y-16382717D02*
X8658354Y-16382717D01*
X8658354Y-16382717D02*
X8677402Y-16373193D01*
X8677402Y-16373193D02*
X8686926Y-16354146D01*
X8686926Y-16354146D02*
X8686926Y-16344622D01*
X8686926Y-16344622D02*
X8677402Y-16325574D01*
X8677402Y-16325574D02*
X8658354Y-16316050D01*
X8658354Y-16316050D02*
X8629783Y-16316050D01*
X8629783Y-16316050D02*
X8610735Y-16306527D01*
X8610735Y-16306527D02*
X8601212Y-16287479D01*
X8601212Y-16287479D02*
X8601212Y-16277955D01*
X8601212Y-16277955D02*
X8610735Y-16258908D01*
X8610735Y-16258908D02*
X8629783Y-16249384D01*
X8629783Y-16249384D02*
X8658354Y-16249384D01*
X8658354Y-16249384D02*
X8677402Y-16258908D01*
X8753593Y-16458908D02*
X8763116Y-16449384D01*
X8763116Y-16449384D02*
X8782164Y-16420812D01*
X8782164Y-16420812D02*
X8791688Y-16401765D01*
X8791688Y-16401765D02*
X8801212Y-16373193D01*
X8801212Y-16373193D02*
X8810735Y-16325574D01*
X8810735Y-16325574D02*
X8810735Y-16287479D01*
X8810735Y-16287479D02*
X8801212Y-16239860D01*
X8801212Y-16239860D02*
X8791688Y-16211289D01*
X8791688Y-16211289D02*
X8782164Y-16192241D01*
X8782164Y-16192241D02*
X8763116Y-16163669D01*
X8763116Y-16163669D02*
X8753593Y-16154146D01*
X9115497Y-16458908D02*
X9105974Y-16449384D01*
X9105974Y-16449384D02*
X9086926Y-16420812D01*
X9086926Y-16420812D02*
X9077402Y-16401765D01*
X9077402Y-16401765D02*
X9067878Y-16373193D01*
X9067878Y-16373193D02*
X9058355Y-16325574D01*
X9058355Y-16325574D02*
X9058355Y-16287479D01*
X9058355Y-16287479D02*
X9067878Y-16239860D01*
X9067878Y-16239860D02*
X9077402Y-16211289D01*
X9077402Y-16211289D02*
X9086926Y-16192241D01*
X9086926Y-16192241D02*
X9105974Y-16163669D01*
X9105974Y-16163669D02*
X9115497Y-16154146D01*
X9191688Y-16249384D02*
X9191688Y-16382717D01*
X9191688Y-16268431D02*
X9201212Y-16258908D01*
X9201212Y-16258908D02*
X9220259Y-16249384D01*
X9220259Y-16249384D02*
X9248831Y-16249384D01*
X9248831Y-16249384D02*
X9267878Y-16258908D01*
X9267878Y-16258908D02*
X9277402Y-16277955D01*
X9277402Y-16277955D02*
X9277402Y-16382717D01*
X9401212Y-16382717D02*
X9382164Y-16373193D01*
X9382164Y-16373193D02*
X9372640Y-16363669D01*
X9372640Y-16363669D02*
X9363116Y-16344622D01*
X9363116Y-16344622D02*
X9363116Y-16287479D01*
X9363116Y-16287479D02*
X9372640Y-16268431D01*
X9372640Y-16268431D02*
X9382164Y-16258908D01*
X9382164Y-16258908D02*
X9401212Y-16249384D01*
X9401212Y-16249384D02*
X9429783Y-16249384D01*
X9429783Y-16249384D02*
X9448831Y-16258908D01*
X9448831Y-16258908D02*
X9458355Y-16268431D01*
X9458355Y-16268431D02*
X9467878Y-16287479D01*
X9467878Y-16287479D02*
X9467878Y-16344622D01*
X9467878Y-16344622D02*
X9458355Y-16363669D01*
X9458355Y-16363669D02*
X9448831Y-16373193D01*
X9448831Y-16373193D02*
X9429783Y-16382717D01*
X9429783Y-16382717D02*
X9401212Y-16382717D01*
X9525021Y-16249384D02*
X9601212Y-16249384D01*
X9553593Y-16182717D02*
X9553593Y-16354146D01*
X9553593Y-16354146D02*
X9563116Y-16373193D01*
X9563116Y-16373193D02*
X9582164Y-16382717D01*
X9582164Y-16382717D02*
X9601212Y-16382717D01*
X9820259Y-16249384D02*
X9820259Y-16449384D01*
X9820259Y-16258908D02*
X9839307Y-16249384D01*
X9839307Y-16249384D02*
X9877402Y-16249384D01*
X9877402Y-16249384D02*
X9896450Y-16258908D01*
X9896450Y-16258908D02*
X9905974Y-16268431D01*
X9905974Y-16268431D02*
X9915497Y-16287479D01*
X9915497Y-16287479D02*
X9915497Y-16344622D01*
X9915497Y-16344622D02*
X9905974Y-16363669D01*
X9905974Y-16363669D02*
X9896450Y-16373193D01*
X9896450Y-16373193D02*
X9877402Y-16382717D01*
X9877402Y-16382717D02*
X9839307Y-16382717D01*
X9839307Y-16382717D02*
X9820259Y-16373193D01*
X10029783Y-16382717D02*
X10010736Y-16373193D01*
X10010736Y-16373193D02*
X10001212Y-16354146D01*
X10001212Y-16354146D02*
X10001212Y-16182717D01*
X10191688Y-16382717D02*
X10191688Y-16277955D01*
X10191688Y-16277955D02*
X10182164Y-16258908D01*
X10182164Y-16258908D02*
X10163117Y-16249384D01*
X10163117Y-16249384D02*
X10125021Y-16249384D01*
X10125021Y-16249384D02*
X10105974Y-16258908D01*
X10191688Y-16373193D02*
X10172640Y-16382717D01*
X10172640Y-16382717D02*
X10125021Y-16382717D01*
X10125021Y-16382717D02*
X10105974Y-16373193D01*
X10105974Y-16373193D02*
X10096450Y-16354146D01*
X10096450Y-16354146D02*
X10096450Y-16335098D01*
X10096450Y-16335098D02*
X10105974Y-16316050D01*
X10105974Y-16316050D02*
X10125021Y-16306527D01*
X10125021Y-16306527D02*
X10172640Y-16306527D01*
X10172640Y-16306527D02*
X10191688Y-16297003D01*
X10258355Y-16249384D02*
X10334545Y-16249384D01*
X10286926Y-16182717D02*
X10286926Y-16354146D01*
X10286926Y-16354146D02*
X10296450Y-16373193D01*
X10296450Y-16373193D02*
X10315497Y-16382717D01*
X10315497Y-16382717D02*
X10334545Y-16382717D01*
X10477402Y-16373193D02*
X10458355Y-16382717D01*
X10458355Y-16382717D02*
X10420259Y-16382717D01*
X10420259Y-16382717D02*
X10401212Y-16373193D01*
X10401212Y-16373193D02*
X10391688Y-16354146D01*
X10391688Y-16354146D02*
X10391688Y-16277955D01*
X10391688Y-16277955D02*
X10401212Y-16258908D01*
X10401212Y-16258908D02*
X10420259Y-16249384D01*
X10420259Y-16249384D02*
X10458355Y-16249384D01*
X10458355Y-16249384D02*
X10477402Y-16258908D01*
X10477402Y-16258908D02*
X10486926Y-16277955D01*
X10486926Y-16277955D02*
X10486926Y-16297003D01*
X10486926Y-16297003D02*
X10391688Y-16316050D01*
X10658355Y-16382717D02*
X10658355Y-16182717D01*
X10658355Y-16373193D02*
X10639307Y-16382717D01*
X10639307Y-16382717D02*
X10601212Y-16382717D01*
X10601212Y-16382717D02*
X10582164Y-16373193D01*
X10582164Y-16373193D02*
X10572640Y-16363669D01*
X10572640Y-16363669D02*
X10563117Y-16344622D01*
X10563117Y-16344622D02*
X10563117Y-16287479D01*
X10563117Y-16287479D02*
X10572640Y-16268431D01*
X10572640Y-16268431D02*
X10582164Y-16258908D01*
X10582164Y-16258908D02*
X10601212Y-16249384D01*
X10601212Y-16249384D02*
X10639307Y-16249384D01*
X10639307Y-16249384D02*
X10658355Y-16258908D01*
X10734545Y-16458908D02*
X10744069Y-16449384D01*
X10744069Y-16449384D02*
X10763117Y-16420812D01*
X10763117Y-16420812D02*
X10772640Y-16401765D01*
X10772640Y-16401765D02*
X10782164Y-16373193D01*
X10782164Y-16373193D02*
X10791688Y-16325574D01*
X10791688Y-16325574D02*
X10791688Y-16287479D01*
X10791688Y-16287479D02*
X10782164Y-16239860D01*
X10782164Y-16239860D02*
X10772640Y-16211289D01*
X10772640Y-16211289D02*
X10763117Y-16192241D01*
X10763117Y-16192241D02*
X10744069Y-16163669D01*
X10744069Y-16163669D02*
X10734545Y-16154146D01*
X3688053Y-16711233D02*
X3788053Y-16611233D01*
X3688053Y-16511233D01*
X3588053Y-16611233D01*
X3688053Y-16711233D01*
X4134544Y-16502717D02*
X4096449Y-16502717D01*
X4096449Y-16502717D02*
X4077402Y-16512241D01*
X4077402Y-16512241D02*
X4067878Y-16521765D01*
X4067878Y-16521765D02*
X4048830Y-16550336D01*
X4048830Y-16550336D02*
X4039306Y-16588431D01*
X4039306Y-16588431D02*
X4039306Y-16664622D01*
X4039306Y-16664622D02*
X4048830Y-16683669D01*
X4048830Y-16683669D02*
X4058354Y-16693193D01*
X4058354Y-16693193D02*
X4077402Y-16702717D01*
X4077402Y-16702717D02*
X4115497Y-16702717D01*
X4115497Y-16702717D02*
X4134544Y-16693193D01*
X4134544Y-16693193D02*
X4144068Y-16683669D01*
X4144068Y-16683669D02*
X4153592Y-16664622D01*
X4153592Y-16664622D02*
X4153592Y-16617003D01*
X4153592Y-16617003D02*
X4144068Y-16597955D01*
X4144068Y-16597955D02*
X4134544Y-16588431D01*
X4134544Y-16588431D02*
X4115497Y-16578908D01*
X4115497Y-16578908D02*
X4077402Y-16578908D01*
X4077402Y-16578908D02*
X4058354Y-16588431D01*
X4058354Y-16588431D02*
X4048830Y-16597955D01*
X4048830Y-16597955D02*
X4039306Y-16617003D01*
X4239306Y-16683669D02*
X4248830Y-16693193D01*
X4248830Y-16693193D02*
X4239306Y-16702717D01*
X4239306Y-16702717D02*
X4229783Y-16693193D01*
X4229783Y-16693193D02*
X4239306Y-16683669D01*
X4239306Y-16683669D02*
X4239306Y-16702717D01*
X4420259Y-16569384D02*
X4420259Y-16702717D01*
X4372640Y-16493193D02*
X4325021Y-16636050D01*
X4325021Y-16636050D02*
X4448830Y-16636050D01*
X4563116Y-16502717D02*
X4582164Y-16502717D01*
X4582164Y-16502717D02*
X4601211Y-16512241D01*
X4601211Y-16512241D02*
X4610735Y-16521765D01*
X4610735Y-16521765D02*
X4620259Y-16540812D01*
X4620259Y-16540812D02*
X4629783Y-16578908D01*
X4629783Y-16578908D02*
X4629783Y-16626527D01*
X4629783Y-16626527D02*
X4620259Y-16664622D01*
X4620259Y-16664622D02*
X4610735Y-16683669D01*
X4610735Y-16683669D02*
X4601211Y-16693193D01*
X4601211Y-16693193D02*
X4582164Y-16702717D01*
X4582164Y-16702717D02*
X4563116Y-16702717D01*
X4563116Y-16702717D02*
X4544068Y-16693193D01*
X4544068Y-16693193D02*
X4534545Y-16683669D01*
X4534545Y-16683669D02*
X4525021Y-16664622D01*
X4525021Y-16664622D02*
X4515497Y-16626527D01*
X4515497Y-16626527D02*
X4515497Y-16578908D01*
X4515497Y-16578908D02*
X4525021Y-16540812D01*
X4525021Y-16540812D02*
X4534545Y-16521765D01*
X4534545Y-16521765D02*
X4544068Y-16512241D01*
X4544068Y-16512241D02*
X4563116Y-16502717D01*
X4753592Y-16502717D02*
X4772640Y-16502717D01*
X4772640Y-16502717D02*
X4791687Y-16512241D01*
X4791687Y-16512241D02*
X4801211Y-16521765D01*
X4801211Y-16521765D02*
X4810735Y-16540812D01*
X4810735Y-16540812D02*
X4820259Y-16578908D01*
X4820259Y-16578908D02*
X4820259Y-16626527D01*
X4820259Y-16626527D02*
X4810735Y-16664622D01*
X4810735Y-16664622D02*
X4801211Y-16683669D01*
X4801211Y-16683669D02*
X4791687Y-16693193D01*
X4791687Y-16693193D02*
X4772640Y-16702717D01*
X4772640Y-16702717D02*
X4753592Y-16702717D01*
X4753592Y-16702717D02*
X4734545Y-16693193D01*
X4734545Y-16693193D02*
X4725021Y-16683669D01*
X4725021Y-16683669D02*
X4715497Y-16664622D01*
X4715497Y-16664622D02*
X4705973Y-16626527D01*
X4705973Y-16626527D02*
X4705973Y-16578908D01*
X4705973Y-16578908D02*
X4715497Y-16540812D01*
X4715497Y-16540812D02*
X4725021Y-16521765D01*
X4725021Y-16521765D02*
X4734545Y-16512241D01*
X4734545Y-16512241D02*
X4753592Y-16502717D01*
X4905973Y-16702717D02*
X4905973Y-16569384D01*
X4905973Y-16588431D02*
X4915497Y-16578908D01*
X4915497Y-16578908D02*
X4934545Y-16569384D01*
X4934545Y-16569384D02*
X4963116Y-16569384D01*
X4963116Y-16569384D02*
X4982164Y-16578908D01*
X4982164Y-16578908D02*
X4991687Y-16597955D01*
X4991687Y-16597955D02*
X4991687Y-16702717D01*
X4991687Y-16597955D02*
X5001211Y-16578908D01*
X5001211Y-16578908D02*
X5020259Y-16569384D01*
X5020259Y-16569384D02*
X5048830Y-16569384D01*
X5048830Y-16569384D02*
X5067878Y-16578908D01*
X5067878Y-16578908D02*
X5077402Y-16597955D01*
X5077402Y-16597955D02*
X5077402Y-16702717D01*
X5172640Y-16702717D02*
X5172640Y-16569384D01*
X5172640Y-16588431D02*
X5182164Y-16578908D01*
X5182164Y-16578908D02*
X5201211Y-16569384D01*
X5201211Y-16569384D02*
X5229783Y-16569384D01*
X5229783Y-16569384D02*
X5248830Y-16578908D01*
X5248830Y-16578908D02*
X5258354Y-16597955D01*
X5258354Y-16597955D02*
X5258354Y-16702717D01*
X5258354Y-16597955D02*
X5267878Y-16578908D01*
X5267878Y-16578908D02*
X5286926Y-16569384D01*
X5286926Y-16569384D02*
X5315497Y-16569384D01*
X5315497Y-16569384D02*
X5334545Y-16578908D01*
X5334545Y-16578908D02*
X5344068Y-16597955D01*
X5344068Y-16597955D02*
X5344068Y-16702717D01*
X5734545Y-16493193D02*
X5563116Y-16750336D01*
X5991687Y-16502717D02*
X6010735Y-16502717D01*
X6010735Y-16502717D02*
X6029783Y-16512241D01*
X6029783Y-16512241D02*
X6039307Y-16521765D01*
X6039307Y-16521765D02*
X6048830Y-16540812D01*
X6048830Y-16540812D02*
X6058354Y-16578908D01*
X6058354Y-16578908D02*
X6058354Y-16626527D01*
X6058354Y-16626527D02*
X6048830Y-16664622D01*
X6048830Y-16664622D02*
X6039307Y-16683669D01*
X6039307Y-16683669D02*
X6029783Y-16693193D01*
X6029783Y-16693193D02*
X6010735Y-16702717D01*
X6010735Y-16702717D02*
X5991687Y-16702717D01*
X5991687Y-16702717D02*
X5972640Y-16693193D01*
X5972640Y-16693193D02*
X5963116Y-16683669D01*
X5963116Y-16683669D02*
X5953592Y-16664622D01*
X5953592Y-16664622D02*
X5944068Y-16626527D01*
X5944068Y-16626527D02*
X5944068Y-16578908D01*
X5944068Y-16578908D02*
X5953592Y-16540812D01*
X5953592Y-16540812D02*
X5963116Y-16521765D01*
X5963116Y-16521765D02*
X5972640Y-16512241D01*
X5972640Y-16512241D02*
X5991687Y-16502717D01*
X6144068Y-16683669D02*
X6153592Y-16693193D01*
X6153592Y-16693193D02*
X6144068Y-16702717D01*
X6144068Y-16702717D02*
X6134545Y-16693193D01*
X6134545Y-16693193D02*
X6144068Y-16683669D01*
X6144068Y-16683669D02*
X6144068Y-16702717D01*
X6229783Y-16521765D02*
X6239307Y-16512241D01*
X6239307Y-16512241D02*
X6258354Y-16502717D01*
X6258354Y-16502717D02*
X6305973Y-16502717D01*
X6305973Y-16502717D02*
X6325021Y-16512241D01*
X6325021Y-16512241D02*
X6334545Y-16521765D01*
X6334545Y-16521765D02*
X6344068Y-16540812D01*
X6344068Y-16540812D02*
X6344068Y-16559860D01*
X6344068Y-16559860D02*
X6334545Y-16588431D01*
X6334545Y-16588431D02*
X6220259Y-16702717D01*
X6220259Y-16702717D02*
X6344068Y-16702717D01*
X6525021Y-16502717D02*
X6429783Y-16502717D01*
X6429783Y-16502717D02*
X6420259Y-16597955D01*
X6420259Y-16597955D02*
X6429783Y-16588431D01*
X6429783Y-16588431D02*
X6448830Y-16578908D01*
X6448830Y-16578908D02*
X6496449Y-16578908D01*
X6496449Y-16578908D02*
X6515497Y-16588431D01*
X6515497Y-16588431D02*
X6525021Y-16597955D01*
X6525021Y-16597955D02*
X6534545Y-16617003D01*
X6534545Y-16617003D02*
X6534545Y-16664622D01*
X6534545Y-16664622D02*
X6525021Y-16683669D01*
X6525021Y-16683669D02*
X6515497Y-16693193D01*
X6515497Y-16693193D02*
X6496449Y-16702717D01*
X6496449Y-16702717D02*
X6448830Y-16702717D01*
X6448830Y-16702717D02*
X6429783Y-16693193D01*
X6429783Y-16693193D02*
X6420259Y-16683669D01*
X6610735Y-16521765D02*
X6620259Y-16512241D01*
X6620259Y-16512241D02*
X6639307Y-16502717D01*
X6639307Y-16502717D02*
X6686926Y-16502717D01*
X6686926Y-16502717D02*
X6705973Y-16512241D01*
X6705973Y-16512241D02*
X6715497Y-16521765D01*
X6715497Y-16521765D02*
X6725021Y-16540812D01*
X6725021Y-16540812D02*
X6725021Y-16559860D01*
X6725021Y-16559860D02*
X6715497Y-16588431D01*
X6715497Y-16588431D02*
X6601211Y-16702717D01*
X6601211Y-16702717D02*
X6725021Y-16702717D01*
X6848830Y-16502717D02*
X6867878Y-16502717D01*
X6867878Y-16502717D02*
X6886926Y-16512241D01*
X6886926Y-16512241D02*
X6896449Y-16521765D01*
X6896449Y-16521765D02*
X6905973Y-16540812D01*
X6905973Y-16540812D02*
X6915497Y-16578908D01*
X6915497Y-16578908D02*
X6915497Y-16626527D01*
X6915497Y-16626527D02*
X6905973Y-16664622D01*
X6905973Y-16664622D02*
X6896449Y-16683669D01*
X6896449Y-16683669D02*
X6886926Y-16693193D01*
X6886926Y-16693193D02*
X6867878Y-16702717D01*
X6867878Y-16702717D02*
X6848830Y-16702717D01*
X6848830Y-16702717D02*
X6829783Y-16693193D01*
X6829783Y-16693193D02*
X6820259Y-16683669D01*
X6820259Y-16683669D02*
X6810735Y-16664622D01*
X6810735Y-16664622D02*
X6801211Y-16626527D01*
X6801211Y-16626527D02*
X6801211Y-16578908D01*
X6801211Y-16578908D02*
X6810735Y-16540812D01*
X6810735Y-16540812D02*
X6820259Y-16521765D01*
X6820259Y-16521765D02*
X6829783Y-16512241D01*
X6829783Y-16512241D02*
X6848830Y-16502717D01*
X6991688Y-16502717D02*
X6991688Y-16540812D01*
X7067878Y-16502717D02*
X7067878Y-16540812D01*
X7363116Y-16778908D02*
X7353592Y-16769384D01*
X7353592Y-16769384D02*
X7334545Y-16740812D01*
X7334545Y-16740812D02*
X7325021Y-16721765D01*
X7325021Y-16721765D02*
X7315497Y-16693193D01*
X7315497Y-16693193D02*
X7305973Y-16645574D01*
X7305973Y-16645574D02*
X7305973Y-16607479D01*
X7305973Y-16607479D02*
X7315497Y-16559860D01*
X7315497Y-16559860D02*
X7325021Y-16531289D01*
X7325021Y-16531289D02*
X7334545Y-16512241D01*
X7334545Y-16512241D02*
X7353592Y-16483669D01*
X7353592Y-16483669D02*
X7363116Y-16474146D01*
X7420259Y-16502717D02*
X7553592Y-16502717D01*
X7553592Y-16502717D02*
X7467878Y-16702717D01*
X7782164Y-16702717D02*
X7782164Y-16502717D01*
X7867878Y-16702717D02*
X7867878Y-16597955D01*
X7867878Y-16597955D02*
X7858354Y-16578908D01*
X7858354Y-16578908D02*
X7839307Y-16569384D01*
X7839307Y-16569384D02*
X7810735Y-16569384D01*
X7810735Y-16569384D02*
X7791688Y-16578908D01*
X7791688Y-16578908D02*
X7782164Y-16588431D01*
X7991688Y-16702717D02*
X7972640Y-16693193D01*
X7972640Y-16693193D02*
X7963116Y-16683669D01*
X7963116Y-16683669D02*
X7953592Y-16664622D01*
X7953592Y-16664622D02*
X7953592Y-16607479D01*
X7953592Y-16607479D02*
X7963116Y-16588431D01*
X7963116Y-16588431D02*
X7972640Y-16578908D01*
X7972640Y-16578908D02*
X7991688Y-16569384D01*
X7991688Y-16569384D02*
X8020259Y-16569384D01*
X8020259Y-16569384D02*
X8039307Y-16578908D01*
X8039307Y-16578908D02*
X8048831Y-16588431D01*
X8048831Y-16588431D02*
X8058354Y-16607479D01*
X8058354Y-16607479D02*
X8058354Y-16664622D01*
X8058354Y-16664622D02*
X8048831Y-16683669D01*
X8048831Y-16683669D02*
X8039307Y-16693193D01*
X8039307Y-16693193D02*
X8020259Y-16702717D01*
X8020259Y-16702717D02*
X7991688Y-16702717D01*
X8172640Y-16702717D02*
X8153592Y-16693193D01*
X8153592Y-16693193D02*
X8144069Y-16674146D01*
X8144069Y-16674146D02*
X8144069Y-16502717D01*
X8325021Y-16693193D02*
X8305973Y-16702717D01*
X8305973Y-16702717D02*
X8267878Y-16702717D01*
X8267878Y-16702717D02*
X8248831Y-16693193D01*
X8248831Y-16693193D02*
X8239307Y-16674146D01*
X8239307Y-16674146D02*
X8239307Y-16597955D01*
X8239307Y-16597955D02*
X8248831Y-16578908D01*
X8248831Y-16578908D02*
X8267878Y-16569384D01*
X8267878Y-16569384D02*
X8305973Y-16569384D01*
X8305973Y-16569384D02*
X8325021Y-16578908D01*
X8325021Y-16578908D02*
X8334545Y-16597955D01*
X8334545Y-16597955D02*
X8334545Y-16617003D01*
X8334545Y-16617003D02*
X8239307Y-16636050D01*
X8410735Y-16693193D02*
X8429783Y-16702717D01*
X8429783Y-16702717D02*
X8467878Y-16702717D01*
X8467878Y-16702717D02*
X8486926Y-16693193D01*
X8486926Y-16693193D02*
X8496450Y-16674146D01*
X8496450Y-16674146D02*
X8496450Y-16664622D01*
X8496450Y-16664622D02*
X8486926Y-16645574D01*
X8486926Y-16645574D02*
X8467878Y-16636050D01*
X8467878Y-16636050D02*
X8439307Y-16636050D01*
X8439307Y-16636050D02*
X8420259Y-16626527D01*
X8420259Y-16626527D02*
X8410735Y-16607479D01*
X8410735Y-16607479D02*
X8410735Y-16597955D01*
X8410735Y-16597955D02*
X8420259Y-16578908D01*
X8420259Y-16578908D02*
X8439307Y-16569384D01*
X8439307Y-16569384D02*
X8467878Y-16569384D01*
X8467878Y-16569384D02*
X8486926Y-16578908D01*
X8563116Y-16778908D02*
X8572640Y-16769384D01*
X8572640Y-16769384D02*
X8591688Y-16740812D01*
X8591688Y-16740812D02*
X8601212Y-16721765D01*
X8601212Y-16721765D02*
X8610735Y-16693193D01*
X8610735Y-16693193D02*
X8620259Y-16645574D01*
X8620259Y-16645574D02*
X8620259Y-16607479D01*
X8620259Y-16607479D02*
X8610735Y-16559860D01*
X8610735Y-16559860D02*
X8601212Y-16531289D01*
X8601212Y-16531289D02*
X8591688Y-16512241D01*
X8591688Y-16512241D02*
X8572640Y-16483669D01*
X8572640Y-16483669D02*
X8563116Y-16474146D01*
X8925021Y-16778908D02*
X8915497Y-16769384D01*
X8915497Y-16769384D02*
X8896450Y-16740812D01*
X8896450Y-16740812D02*
X8886926Y-16721765D01*
X8886926Y-16721765D02*
X8877402Y-16693193D01*
X8877402Y-16693193D02*
X8867878Y-16645574D01*
X8867878Y-16645574D02*
X8867878Y-16607479D01*
X8867878Y-16607479D02*
X8877402Y-16559860D01*
X8877402Y-16559860D02*
X8886926Y-16531289D01*
X8886926Y-16531289D02*
X8896450Y-16512241D01*
X8896450Y-16512241D02*
X8915497Y-16483669D01*
X8915497Y-16483669D02*
X8925021Y-16474146D01*
X9001212Y-16569384D02*
X9001212Y-16702717D01*
X9001212Y-16588431D02*
X9010735Y-16578908D01*
X9010735Y-16578908D02*
X9029783Y-16569384D01*
X9029783Y-16569384D02*
X9058355Y-16569384D01*
X9058355Y-16569384D02*
X9077402Y-16578908D01*
X9077402Y-16578908D02*
X9086926Y-16597955D01*
X9086926Y-16597955D02*
X9086926Y-16702717D01*
X9210735Y-16702717D02*
X9191688Y-16693193D01*
X9191688Y-16693193D02*
X9182164Y-16683669D01*
X9182164Y-16683669D02*
X9172640Y-16664622D01*
X9172640Y-16664622D02*
X9172640Y-16607479D01*
X9172640Y-16607479D02*
X9182164Y-16588431D01*
X9182164Y-16588431D02*
X9191688Y-16578908D01*
X9191688Y-16578908D02*
X9210735Y-16569384D01*
X9210735Y-16569384D02*
X9239307Y-16569384D01*
X9239307Y-16569384D02*
X9258355Y-16578908D01*
X9258355Y-16578908D02*
X9267878Y-16588431D01*
X9267878Y-16588431D02*
X9277402Y-16607479D01*
X9277402Y-16607479D02*
X9277402Y-16664622D01*
X9277402Y-16664622D02*
X9267878Y-16683669D01*
X9267878Y-16683669D02*
X9258355Y-16693193D01*
X9258355Y-16693193D02*
X9239307Y-16702717D01*
X9239307Y-16702717D02*
X9210735Y-16702717D01*
X9334545Y-16569384D02*
X9410735Y-16569384D01*
X9363116Y-16502717D02*
X9363116Y-16674146D01*
X9363116Y-16674146D02*
X9372640Y-16693193D01*
X9372640Y-16693193D02*
X9391688Y-16702717D01*
X9391688Y-16702717D02*
X9410735Y-16702717D01*
X9629783Y-16569384D02*
X9629783Y-16769384D01*
X9629783Y-16578908D02*
X9648831Y-16569384D01*
X9648831Y-16569384D02*
X9686926Y-16569384D01*
X9686926Y-16569384D02*
X9705974Y-16578908D01*
X9705974Y-16578908D02*
X9715497Y-16588431D01*
X9715497Y-16588431D02*
X9725021Y-16607479D01*
X9725021Y-16607479D02*
X9725021Y-16664622D01*
X9725021Y-16664622D02*
X9715497Y-16683669D01*
X9715497Y-16683669D02*
X9705974Y-16693193D01*
X9705974Y-16693193D02*
X9686926Y-16702717D01*
X9686926Y-16702717D02*
X9648831Y-16702717D01*
X9648831Y-16702717D02*
X9629783Y-16693193D01*
X9839307Y-16702717D02*
X9820259Y-16693193D01*
X9820259Y-16693193D02*
X9810736Y-16674146D01*
X9810736Y-16674146D02*
X9810736Y-16502717D01*
X10001212Y-16702717D02*
X10001212Y-16597955D01*
X10001212Y-16597955D02*
X9991688Y-16578908D01*
X9991688Y-16578908D02*
X9972640Y-16569384D01*
X9972640Y-16569384D02*
X9934545Y-16569384D01*
X9934545Y-16569384D02*
X9915497Y-16578908D01*
X10001212Y-16693193D02*
X9982164Y-16702717D01*
X9982164Y-16702717D02*
X9934545Y-16702717D01*
X9934545Y-16702717D02*
X9915497Y-16693193D01*
X9915497Y-16693193D02*
X9905974Y-16674146D01*
X9905974Y-16674146D02*
X9905974Y-16655098D01*
X9905974Y-16655098D02*
X9915497Y-16636050D01*
X9915497Y-16636050D02*
X9934545Y-16626527D01*
X9934545Y-16626527D02*
X9982164Y-16626527D01*
X9982164Y-16626527D02*
X10001212Y-16617003D01*
X10067878Y-16569384D02*
X10144069Y-16569384D01*
X10096450Y-16502717D02*
X10096450Y-16674146D01*
X10096450Y-16674146D02*
X10105974Y-16693193D01*
X10105974Y-16693193D02*
X10125021Y-16702717D01*
X10125021Y-16702717D02*
X10144069Y-16702717D01*
X10286926Y-16693193D02*
X10267878Y-16702717D01*
X10267878Y-16702717D02*
X10229783Y-16702717D01*
X10229783Y-16702717D02*
X10210736Y-16693193D01*
X10210736Y-16693193D02*
X10201212Y-16674146D01*
X10201212Y-16674146D02*
X10201212Y-16597955D01*
X10201212Y-16597955D02*
X10210736Y-16578908D01*
X10210736Y-16578908D02*
X10229783Y-16569384D01*
X10229783Y-16569384D02*
X10267878Y-16569384D01*
X10267878Y-16569384D02*
X10286926Y-16578908D01*
X10286926Y-16578908D02*
X10296450Y-16597955D01*
X10296450Y-16597955D02*
X10296450Y-16617003D01*
X10296450Y-16617003D02*
X10201212Y-16636050D01*
X10467878Y-16702717D02*
X10467878Y-16502717D01*
X10467878Y-16693193D02*
X10448831Y-16702717D01*
X10448831Y-16702717D02*
X10410736Y-16702717D01*
X10410736Y-16702717D02*
X10391688Y-16693193D01*
X10391688Y-16693193D02*
X10382164Y-16683669D01*
X10382164Y-16683669D02*
X10372640Y-16664622D01*
X10372640Y-16664622D02*
X10372640Y-16607479D01*
X10372640Y-16607479D02*
X10382164Y-16588431D01*
X10382164Y-16588431D02*
X10391688Y-16578908D01*
X10391688Y-16578908D02*
X10410736Y-16569384D01*
X10410736Y-16569384D02*
X10448831Y-16569384D01*
X10448831Y-16569384D02*
X10467878Y-16578908D01*
X10544069Y-16778908D02*
X10553593Y-16769384D01*
X10553593Y-16769384D02*
X10572640Y-16740812D01*
X10572640Y-16740812D02*
X10582164Y-16721765D01*
X10582164Y-16721765D02*
X10591688Y-16693193D01*
X10591688Y-16693193D02*
X10601212Y-16645574D01*
X10601212Y-16645574D02*
X10601212Y-16607479D01*
X10601212Y-16607479D02*
X10591688Y-16559860D01*
X10591688Y-16559860D02*
X10582164Y-16531289D01*
X10582164Y-16531289D02*
X10572640Y-16512241D01*
X10572640Y-16512241D02*
X10553593Y-16483669D01*
X10553593Y-16483669D02*
X10544069Y-16474146D01*
M02*
