M48
; DRILL file {KiCad 7.0.5} date Sat Oct 21 15:47:13 2023
; FORMAT={-:-/ absolute / inch / decimal}
; #@! TF.CreationDate,2023-10-21T15:47:13-07:00
; #@! TF.GenerationSoftware,Kicad,Pcbnew,7.0.5
; #@! TF.FileFunction,Plated,1,2,PTH
FMAT,2
INCH
; #@! TA.AperFunction,Plated,PTH,ViaDrill
T1C0.0138
; #@! TA.AperFunction,Plated,PTH,ComponentDrill
T2C0.0138
; #@! TA.AperFunction,Plated,PTH,ViaDrill
T3C0.0157
; #@! TA.AperFunction,Plated,PTH,ComponentDrill
T4C0.0236
; #@! TA.AperFunction,Plated,PTH,ComponentDrill
T5C0.0394
; #@! TA.AperFunction,Plated,PTH,ComponentDrill
T6C0.0433
; #@! TA.AperFunction,Plated,PTH,ComponentDrill
T7C0.0500
%
G90
G05
T1
X2.2Y-3.15
X2.35Y-5.65
X2.35Y-5.7
X2.4344Y-4.324
X2.45Y-2.8
X2.45Y-5.4
X2.4504Y-4.3644
X2.4506Y-4.4
X2.5Y-5.65
X2.55Y-2.65
X2.6Y-4.45
X2.65Y-5.6
X2.65Y-5.65
X2.7Y-1.9
X2.7Y-4.1677
X2.75Y-4.3
X2.8Y-5.7
X2.85Y-4.1441
X2.85Y-4.45
X2.95Y-5.55
X2.9595Y-3.9814
X3.0Y-5.65
X3.0Y-5.7
X3.0264Y-4.4736
X3.0371Y-4.1308
X3.1579Y-4.1689
X3.2Y-5.65
X3.25Y-3.75
X3.2803Y-4.4788
X3.3Y-3.15
X3.3Y-5.6
X3.3245Y-3.8696
X3.35Y-4.0
X3.35Y-5.65
X3.3663Y-3.8739
X3.3726Y-4.3314
X3.3748Y-4.1642
X3.4Y-2.8
X3.4Y-4.45
X3.4919Y-3.8856
X3.5Y-5.7
X3.5334Y-3.9072
X3.55Y-2.8
X3.65Y-4.05
X3.65Y-4.1
X3.65Y-4.5
X3.65Y-5.6
X3.7Y-2.65
X3.7Y-4.2634
X3.8Y-2.0
X3.95Y-3.7
X4.0Y-3.7
X4.0051Y-3.3
X4.05Y-3.3
X4.05Y-3.7
X4.05Y-4.0701
X4.05Y-4.15
X4.1Y-4.2
X4.15Y-3.5
X4.2Y-4.15
X4.2Y-4.25
X4.2343Y-4.3343
X4.2394Y-4.3728
X4.3Y-4.1
X4.341Y-4.05
X4.3725Y-4.05
X4.4275Y-4.1
X4.45Y-3.25
X4.45Y-4.2
X4.55Y-5.6
X4.6Y-3.25
X4.7023Y-1.8236
X4.75Y-3.1
X4.7547Y-1.8051
X4.9Y-2.0
X5.15Y-5.3
X5.25Y-5.3
X5.35Y-5.3
X5.45Y-2.85
X5.5Y-4.35
X5.5Y-4.55
X5.5337Y-1.3
X5.55Y-3.0
X5.55Y-3.2
X5.65Y-4.0
X5.7Y-4.0
X5.75Y-1.35
X5.7543Y-1.24
X5.8Y-2.8
X5.85Y-3.9
X6.05Y-2.0
X6.1Y-2.65
X6.1Y-2.8
X6.3Y-3.05
X6.5Y-1.75
X6.55Y-3.9
X6.65Y-3.55
X6.75Y-3.55
X6.8Y-3.55
X6.9Y-2.35
X7.05Y-2.35
X7.05Y-2.6
X7.15Y-2.2
X7.4Y-3.05
X7.5Y-1.55
X7.7Y-1.6
X7.7Y-3.9
X7.8Y-3.55
X7.9Y-3.55
X8.0Y-2.35
X8.0Y-3.6
X8.2Y-2.35
X8.2525Y-2.5488
X8.3Y-2.2
X8.5Y-1.55
X8.65Y-2.9
X8.8Y-1.5
X8.85Y-3.9
X8.9Y-2.55
X9.0Y-3.55
X9.05Y-3.55
X9.15Y-2.35
X9.15Y-3.55
X9.3Y-2.35
X9.45Y-2.2
T2
X3.2986Y-4.1974
X3.2986Y-4.2476
X3.2986Y-4.2978
X3.3488Y-4.1974
X3.3488Y-4.2476
X3.3488Y-4.2978
X3.399Y-4.1974
X3.399Y-4.2476
X3.399Y-4.2978
T3
X3.6583Y-3.881
X5.6875Y-1.3421
T5
X4.5748Y-1.2283
X4.6748Y-1.2283
X4.7748Y-1.2283
X4.8748Y-1.2283
T6
X2.1142Y-1.3482
X2.1142Y-1.6042
X2.2913Y-1.3482
X2.2913Y-1.6042
X2.4567Y-1.3484
X2.4567Y-1.6043
X2.6339Y-1.3484
X2.6339Y-1.6043
X2.8012Y-1.3484
X2.8012Y-1.6043
X2.9783Y-1.3484
X2.9783Y-1.6043
X3.1909Y-1.3484
X3.1909Y-1.6043
X3.3681Y-1.3484
X3.3681Y-1.6043
X3.5335Y-1.3484
X3.5335Y-1.6043
X3.7106Y-1.3484
X3.7106Y-1.6043
X3.876Y-1.3484
X3.876Y-1.6043
X4.0531Y-1.3484
X4.0531Y-1.6043
T7
X2.013Y-2.6219
X2.2099Y-2.7045
X3.1585Y-2.6266
X3.3553Y-2.7093
X4.2057Y-3.0734
X4.4026Y-3.1561
X4.8947Y-5.164
X5.0916Y-5.2467
X5.3605Y-3.8463
X5.5573Y-3.929
X5.5813Y-2.6242
X5.7782Y-2.7069
X6.4081Y-3.4089
X6.6049Y-3.4916
X6.627Y-2.1703
X6.8238Y-2.253
X7.5439Y-3.4089
X7.7408Y-3.4916
X7.7675Y-2.1656
X7.9644Y-2.2482
X8.6939Y-3.4089
X8.8908Y-3.4916
X8.9081Y-2.175
X9.1049Y-2.2577
T4
G00X5.4561Y-0.99
M15
G01X5.4561Y-0.9664
M16
G05
G00X5.4561Y-1.1644
M15
G01X5.4561Y-1.1211
M16
G05
G00X5.7963Y-0.99
M15
G01X5.7963Y-0.9664
M16
G05
G00X5.7963Y-1.1644
M15
G01X5.7963Y-1.1211
M16
G05
T0
M30
