M48
; DRILL file {KiCad 7.0.5} date Sat Oct 21 15:47:13 2023
; FORMAT={-:-/ absolute / inch / decimal}
; #@! TF.CreationDate,2023-10-21T15:47:13-07:00
; #@! TF.GenerationSoftware,Kicad,Pcbnew,7.0.5
; #@! TF.FileFunction,NonPlated,1,2,NPTH
FMAT,2
INCH
; #@! TA.AperFunction,NonPlated,NPTH,ComponentDrill
T1C0.0256
; #@! TA.AperFunction,NonPlated,NPTH,ComponentDrill
T2C0.0670
; #@! TA.AperFunction,NonPlated,NPTH,ComponentDrill
T3C0.1181
; #@! TA.AperFunction,NonPlated,NPTH,ComponentDrill
T4C0.1350
; #@! TA.AperFunction,NonPlated,NPTH,ComponentDrill
T5C0.2520
%
G90
G05
T1
X5.5124Y-1.1219
X5.74Y-1.1219
T2
X1.9933Y-2.4723
X2.4264Y-2.4723
X3.1388Y-2.477
X3.5719Y-2.477
X4.186Y-2.9238
X4.6191Y-2.9238
X4.875Y-5.0144
X5.3081Y-5.0144
X5.3408Y-3.6967
X5.5616Y-2.4746
X5.7738Y-3.6967
X5.9947Y-2.4746
X6.3884Y-3.2593
X6.6073Y-2.0207
X6.8215Y-3.2593
X7.0404Y-2.0207
X7.5242Y-3.2593
X7.7479Y-2.016
X7.9573Y-3.2593
X8.1809Y-2.016
X8.6742Y-3.2593
X8.8884Y-2.0254
X9.1073Y-3.2593
X9.3215Y-2.0254
T3
X2.2099Y-2.238
X2.4067Y-2.3246
X3.3553Y-2.2427
X3.5522Y-2.3294
X4.4026Y-2.6896
X4.5994Y-2.7762
X5.0916Y-4.7801
X5.2884Y-4.8668
X5.5573Y-3.4624
X5.7542Y-3.549
X5.7782Y-2.2404
X5.975Y-2.327
X6.6049Y-3.025
X6.8018Y-3.1116
X6.8238Y-1.7864
X7.0207Y-1.8731
X7.7408Y-3.025
X7.9376Y-3.1116
X7.9644Y-1.7817
X8.1612Y-1.8683
X8.8908Y-3.025
X9.0876Y-3.1116
X9.1049Y-1.7912
X9.3018Y-1.8778
T4
X2.2099Y-2.4723
X3.3553Y-2.477
X4.4026Y-2.9238
X5.0916Y-5.0144
X5.5573Y-3.6967
X5.7782Y-2.4746
X6.6049Y-3.2593
X6.8238Y-2.0207
X7.7408Y-3.2593
X7.9644Y-2.016
X8.8908Y-3.2593
X9.1049Y-2.0254
T5
X1.7679Y-1.3679
X1.7679Y-5.5412
X5.1734Y-2.9821
X5.8231Y-5.5412
X6.0829Y-1.3679
X9.4845Y-1.3679
X9.4845Y-5.5412
T0
M30
