%TF.GenerationSoftware,KiCad,Pcbnew,7.0.5*%
%TF.CreationDate,2023-10-21T15:45:59-07:00*%
%TF.ProjectId,VBox,56426f78-2e6b-4696-9361-645f70636258,rev?*%
%TF.SameCoordinates,Original*%
%TF.FileFunction,Legend,Bot*%
%TF.FilePolarity,Positive*%
%FSLAX46Y46*%
G04 Gerber Fmt 4.6, Leading zero omitted, Abs format (unit mm)*
G04 Created by KiCad (PCBNEW 7.0.5) date 2023-10-21 15:45:59*
%MOMM*%
%LPD*%
G01*
G04 APERTURE LIST*
%ADD10C,0.150000*%
G04 APERTURE END LIST*
D10*
%TO.C,SW10*%
X153020057Y-55642734D02*
X152877200Y-55690353D01*
X152877200Y-55690353D02*
X152639105Y-55690353D01*
X152639105Y-55690353D02*
X152543867Y-55642734D01*
X152543867Y-55642734D02*
X152496248Y-55595114D01*
X152496248Y-55595114D02*
X152448629Y-55499876D01*
X152448629Y-55499876D02*
X152448629Y-55404638D01*
X152448629Y-55404638D02*
X152496248Y-55309400D01*
X152496248Y-55309400D02*
X152543867Y-55261781D01*
X152543867Y-55261781D02*
X152639105Y-55214162D01*
X152639105Y-55214162D02*
X152829581Y-55166543D01*
X152829581Y-55166543D02*
X152924819Y-55118924D01*
X152924819Y-55118924D02*
X152972438Y-55071305D01*
X152972438Y-55071305D02*
X153020057Y-54976067D01*
X153020057Y-54976067D02*
X153020057Y-54880829D01*
X153020057Y-54880829D02*
X152972438Y-54785591D01*
X152972438Y-54785591D02*
X152924819Y-54737972D01*
X152924819Y-54737972D02*
X152829581Y-54690353D01*
X152829581Y-54690353D02*
X152591486Y-54690353D01*
X152591486Y-54690353D02*
X152448629Y-54737972D01*
X152115295Y-54690353D02*
X151877200Y-55690353D01*
X151877200Y-55690353D02*
X151686724Y-54976067D01*
X151686724Y-54976067D02*
X151496248Y-55690353D01*
X151496248Y-55690353D02*
X151258153Y-54690353D01*
X150353391Y-55690353D02*
X150924819Y-55690353D01*
X150639105Y-55690353D02*
X150639105Y-54690353D01*
X150639105Y-54690353D02*
X150734343Y-54833210D01*
X150734343Y-54833210D02*
X150829581Y-54928448D01*
X150829581Y-54928448D02*
X150924819Y-54976067D01*
X149734343Y-54690353D02*
X149639105Y-54690353D01*
X149639105Y-54690353D02*
X149543867Y-54737972D01*
X149543867Y-54737972D02*
X149496248Y-54785591D01*
X149496248Y-54785591D02*
X149448629Y-54880829D01*
X149448629Y-54880829D02*
X149401010Y-55071305D01*
X149401010Y-55071305D02*
X149401010Y-55309400D01*
X149401010Y-55309400D02*
X149448629Y-55499876D01*
X149448629Y-55499876D02*
X149496248Y-55595114D01*
X149496248Y-55595114D02*
X149543867Y-55642734D01*
X149543867Y-55642734D02*
X149639105Y-55690353D01*
X149639105Y-55690353D02*
X149734343Y-55690353D01*
X149734343Y-55690353D02*
X149829581Y-55642734D01*
X149829581Y-55642734D02*
X149877200Y-55595114D01*
X149877200Y-55595114D02*
X149924819Y-55499876D01*
X149924819Y-55499876D02*
X149972438Y-55309400D01*
X149972438Y-55309400D02*
X149972438Y-55071305D01*
X149972438Y-55071305D02*
X149924819Y-54880829D01*
X149924819Y-54880829D02*
X149877200Y-54785591D01*
X149877200Y-54785591D02*
X149829581Y-54737972D01*
X149829581Y-54737972D02*
X149734343Y-54690353D01*
%TO.C,SW15*%
X174020057Y-75572734D02*
X173877200Y-75620353D01*
X173877200Y-75620353D02*
X173639105Y-75620353D01*
X173639105Y-75620353D02*
X173543867Y-75572734D01*
X173543867Y-75572734D02*
X173496248Y-75525114D01*
X173496248Y-75525114D02*
X173448629Y-75429876D01*
X173448629Y-75429876D02*
X173448629Y-75334638D01*
X173448629Y-75334638D02*
X173496248Y-75239400D01*
X173496248Y-75239400D02*
X173543867Y-75191781D01*
X173543867Y-75191781D02*
X173639105Y-75144162D01*
X173639105Y-75144162D02*
X173829581Y-75096543D01*
X173829581Y-75096543D02*
X173924819Y-75048924D01*
X173924819Y-75048924D02*
X173972438Y-75001305D01*
X173972438Y-75001305D02*
X174020057Y-74906067D01*
X174020057Y-74906067D02*
X174020057Y-74810829D01*
X174020057Y-74810829D02*
X173972438Y-74715591D01*
X173972438Y-74715591D02*
X173924819Y-74667972D01*
X173924819Y-74667972D02*
X173829581Y-74620353D01*
X173829581Y-74620353D02*
X173591486Y-74620353D01*
X173591486Y-74620353D02*
X173448629Y-74667972D01*
X173115295Y-74620353D02*
X172877200Y-75620353D01*
X172877200Y-75620353D02*
X172686724Y-74906067D01*
X172686724Y-74906067D02*
X172496248Y-75620353D01*
X172496248Y-75620353D02*
X172258153Y-74620353D01*
X171353391Y-75620353D02*
X171924819Y-75620353D01*
X171639105Y-75620353D02*
X171639105Y-74620353D01*
X171639105Y-74620353D02*
X171734343Y-74763210D01*
X171734343Y-74763210D02*
X171829581Y-74858448D01*
X171829581Y-74858448D02*
X171924819Y-74906067D01*
X170448629Y-74620353D02*
X170924819Y-74620353D01*
X170924819Y-74620353D02*
X170972438Y-75096543D01*
X170972438Y-75096543D02*
X170924819Y-75048924D01*
X170924819Y-75048924D02*
X170829581Y-75001305D01*
X170829581Y-75001305D02*
X170591486Y-75001305D01*
X170591486Y-75001305D02*
X170496248Y-75048924D01*
X170496248Y-75048924D02*
X170448629Y-75096543D01*
X170448629Y-75096543D02*
X170401010Y-75191781D01*
X170401010Y-75191781D02*
X170401010Y-75429876D01*
X170401010Y-75429876D02*
X170448629Y-75525114D01*
X170448629Y-75525114D02*
X170496248Y-75572734D01*
X170496248Y-75572734D02*
X170591486Y-75620353D01*
X170591486Y-75620353D02*
X170829581Y-75620353D01*
X170829581Y-75620353D02*
X170924819Y-75572734D01*
X170924819Y-75572734D02*
X170972438Y-75525114D01*
%TO.C,SW12*%
X208550057Y-43992734D02*
X208407200Y-44040353D01*
X208407200Y-44040353D02*
X208169105Y-44040353D01*
X208169105Y-44040353D02*
X208073867Y-43992734D01*
X208073867Y-43992734D02*
X208026248Y-43945114D01*
X208026248Y-43945114D02*
X207978629Y-43849876D01*
X207978629Y-43849876D02*
X207978629Y-43754638D01*
X207978629Y-43754638D02*
X208026248Y-43659400D01*
X208026248Y-43659400D02*
X208073867Y-43611781D01*
X208073867Y-43611781D02*
X208169105Y-43564162D01*
X208169105Y-43564162D02*
X208359581Y-43516543D01*
X208359581Y-43516543D02*
X208454819Y-43468924D01*
X208454819Y-43468924D02*
X208502438Y-43421305D01*
X208502438Y-43421305D02*
X208550057Y-43326067D01*
X208550057Y-43326067D02*
X208550057Y-43230829D01*
X208550057Y-43230829D02*
X208502438Y-43135591D01*
X208502438Y-43135591D02*
X208454819Y-43087972D01*
X208454819Y-43087972D02*
X208359581Y-43040353D01*
X208359581Y-43040353D02*
X208121486Y-43040353D01*
X208121486Y-43040353D02*
X207978629Y-43087972D01*
X207645295Y-43040353D02*
X207407200Y-44040353D01*
X207407200Y-44040353D02*
X207216724Y-43326067D01*
X207216724Y-43326067D02*
X207026248Y-44040353D01*
X207026248Y-44040353D02*
X206788153Y-43040353D01*
X205883391Y-44040353D02*
X206454819Y-44040353D01*
X206169105Y-44040353D02*
X206169105Y-43040353D01*
X206169105Y-43040353D02*
X206264343Y-43183210D01*
X206264343Y-43183210D02*
X206359581Y-43278448D01*
X206359581Y-43278448D02*
X206454819Y-43326067D01*
X205502438Y-43135591D02*
X205454819Y-43087972D01*
X205454819Y-43087972D02*
X205359581Y-43040353D01*
X205359581Y-43040353D02*
X205121486Y-43040353D01*
X205121486Y-43040353D02*
X205026248Y-43087972D01*
X205026248Y-43087972D02*
X204978629Y-43135591D01*
X204978629Y-43135591D02*
X204931010Y-43230829D01*
X204931010Y-43230829D02*
X204931010Y-43326067D01*
X204931010Y-43326067D02*
X204978629Y-43468924D01*
X204978629Y-43468924D02*
X205550057Y-44040353D01*
X205550057Y-44040353D02*
X204931010Y-44040353D01*
%TO.C,SW8*%
X91003866Y-55702734D02*
X90861009Y-55750353D01*
X90861009Y-55750353D02*
X90622914Y-55750353D01*
X90622914Y-55750353D02*
X90527676Y-55702734D01*
X90527676Y-55702734D02*
X90480057Y-55655114D01*
X90480057Y-55655114D02*
X90432438Y-55559876D01*
X90432438Y-55559876D02*
X90432438Y-55464638D01*
X90432438Y-55464638D02*
X90480057Y-55369400D01*
X90480057Y-55369400D02*
X90527676Y-55321781D01*
X90527676Y-55321781D02*
X90622914Y-55274162D01*
X90622914Y-55274162D02*
X90813390Y-55226543D01*
X90813390Y-55226543D02*
X90908628Y-55178924D01*
X90908628Y-55178924D02*
X90956247Y-55131305D01*
X90956247Y-55131305D02*
X91003866Y-55036067D01*
X91003866Y-55036067D02*
X91003866Y-54940829D01*
X91003866Y-54940829D02*
X90956247Y-54845591D01*
X90956247Y-54845591D02*
X90908628Y-54797972D01*
X90908628Y-54797972D02*
X90813390Y-54750353D01*
X90813390Y-54750353D02*
X90575295Y-54750353D01*
X90575295Y-54750353D02*
X90432438Y-54797972D01*
X90099104Y-54750353D02*
X89861009Y-55750353D01*
X89861009Y-55750353D02*
X89670533Y-55036067D01*
X89670533Y-55036067D02*
X89480057Y-55750353D01*
X89480057Y-55750353D02*
X89241962Y-54750353D01*
X88718152Y-55178924D02*
X88813390Y-55131305D01*
X88813390Y-55131305D02*
X88861009Y-55083686D01*
X88861009Y-55083686D02*
X88908628Y-54988448D01*
X88908628Y-54988448D02*
X88908628Y-54940829D01*
X88908628Y-54940829D02*
X88861009Y-54845591D01*
X88861009Y-54845591D02*
X88813390Y-54797972D01*
X88813390Y-54797972D02*
X88718152Y-54750353D01*
X88718152Y-54750353D02*
X88527676Y-54750353D01*
X88527676Y-54750353D02*
X88432438Y-54797972D01*
X88432438Y-54797972D02*
X88384819Y-54845591D01*
X88384819Y-54845591D02*
X88337200Y-54940829D01*
X88337200Y-54940829D02*
X88337200Y-54988448D01*
X88337200Y-54988448D02*
X88384819Y-55083686D01*
X88384819Y-55083686D02*
X88432438Y-55131305D01*
X88432438Y-55131305D02*
X88527676Y-55178924D01*
X88527676Y-55178924D02*
X88718152Y-55178924D01*
X88718152Y-55178924D02*
X88813390Y-55226543D01*
X88813390Y-55226543D02*
X88861009Y-55274162D01*
X88861009Y-55274162D02*
X88908628Y-55369400D01*
X88908628Y-55369400D02*
X88908628Y-55559876D01*
X88908628Y-55559876D02*
X88861009Y-55655114D01*
X88861009Y-55655114D02*
X88813390Y-55702734D01*
X88813390Y-55702734D02*
X88718152Y-55750353D01*
X88718152Y-55750353D02*
X88527676Y-55750353D01*
X88527676Y-55750353D02*
X88432438Y-55702734D01*
X88432438Y-55702734D02*
X88384819Y-55655114D01*
X88384819Y-55655114D02*
X88337200Y-55559876D01*
X88337200Y-55559876D02*
X88337200Y-55369400D01*
X88337200Y-55369400D02*
X88384819Y-55274162D01*
X88384819Y-55274162D02*
X88432438Y-55226543D01*
X88432438Y-55226543D02*
X88527676Y-55178924D01*
%TO.C,SW18*%
X135580057Y-120152734D02*
X135437200Y-120200353D01*
X135437200Y-120200353D02*
X135199105Y-120200353D01*
X135199105Y-120200353D02*
X135103867Y-120152734D01*
X135103867Y-120152734D02*
X135056248Y-120105114D01*
X135056248Y-120105114D02*
X135008629Y-120009876D01*
X135008629Y-120009876D02*
X135008629Y-119914638D01*
X135008629Y-119914638D02*
X135056248Y-119819400D01*
X135056248Y-119819400D02*
X135103867Y-119771781D01*
X135103867Y-119771781D02*
X135199105Y-119724162D01*
X135199105Y-119724162D02*
X135389581Y-119676543D01*
X135389581Y-119676543D02*
X135484819Y-119628924D01*
X135484819Y-119628924D02*
X135532438Y-119581305D01*
X135532438Y-119581305D02*
X135580057Y-119486067D01*
X135580057Y-119486067D02*
X135580057Y-119390829D01*
X135580057Y-119390829D02*
X135532438Y-119295591D01*
X135532438Y-119295591D02*
X135484819Y-119247972D01*
X135484819Y-119247972D02*
X135389581Y-119200353D01*
X135389581Y-119200353D02*
X135151486Y-119200353D01*
X135151486Y-119200353D02*
X135008629Y-119247972D01*
X134675295Y-119200353D02*
X134437200Y-120200353D01*
X134437200Y-120200353D02*
X134246724Y-119486067D01*
X134246724Y-119486067D02*
X134056248Y-120200353D01*
X134056248Y-120200353D02*
X133818153Y-119200353D01*
X132913391Y-120200353D02*
X133484819Y-120200353D01*
X133199105Y-120200353D02*
X133199105Y-119200353D01*
X133199105Y-119200353D02*
X133294343Y-119343210D01*
X133294343Y-119343210D02*
X133389581Y-119438448D01*
X133389581Y-119438448D02*
X133484819Y-119486067D01*
X132341962Y-119628924D02*
X132437200Y-119581305D01*
X132437200Y-119581305D02*
X132484819Y-119533686D01*
X132484819Y-119533686D02*
X132532438Y-119438448D01*
X132532438Y-119438448D02*
X132532438Y-119390829D01*
X132532438Y-119390829D02*
X132484819Y-119295591D01*
X132484819Y-119295591D02*
X132437200Y-119247972D01*
X132437200Y-119247972D02*
X132341962Y-119200353D01*
X132341962Y-119200353D02*
X132151486Y-119200353D01*
X132151486Y-119200353D02*
X132056248Y-119247972D01*
X132056248Y-119247972D02*
X132008629Y-119295591D01*
X132008629Y-119295591D02*
X131961010Y-119390829D01*
X131961010Y-119390829D02*
X131961010Y-119438448D01*
X131961010Y-119438448D02*
X132008629Y-119533686D01*
X132008629Y-119533686D02*
X132056248Y-119581305D01*
X132056248Y-119581305D02*
X132151486Y-119628924D01*
X132151486Y-119628924D02*
X132341962Y-119628924D01*
X132341962Y-119628924D02*
X132437200Y-119676543D01*
X132437200Y-119676543D02*
X132484819Y-119724162D01*
X132484819Y-119724162D02*
X132532438Y-119819400D01*
X132532438Y-119819400D02*
X132532438Y-120009876D01*
X132532438Y-120009876D02*
X132484819Y-120105114D01*
X132484819Y-120105114D02*
X132437200Y-120152734D01*
X132437200Y-120152734D02*
X132341962Y-120200353D01*
X132341962Y-120200353D02*
X132151486Y-120200353D01*
X132151486Y-120200353D02*
X132056248Y-120152734D01*
X132056248Y-120152734D02*
X132008629Y-120105114D01*
X132008629Y-120105114D02*
X131961010Y-120009876D01*
X131961010Y-120009876D02*
X131961010Y-119819400D01*
X131961010Y-119819400D02*
X132008629Y-119724162D01*
X132008629Y-119724162D02*
X132056248Y-119676543D01*
X132056248Y-119676543D02*
X132151486Y-119628924D01*
%TO.C,SW17*%
X232080057Y-75572734D02*
X231937200Y-75620353D01*
X231937200Y-75620353D02*
X231699105Y-75620353D01*
X231699105Y-75620353D02*
X231603867Y-75572734D01*
X231603867Y-75572734D02*
X231556248Y-75525114D01*
X231556248Y-75525114D02*
X231508629Y-75429876D01*
X231508629Y-75429876D02*
X231508629Y-75334638D01*
X231508629Y-75334638D02*
X231556248Y-75239400D01*
X231556248Y-75239400D02*
X231603867Y-75191781D01*
X231603867Y-75191781D02*
X231699105Y-75144162D01*
X231699105Y-75144162D02*
X231889581Y-75096543D01*
X231889581Y-75096543D02*
X231984819Y-75048924D01*
X231984819Y-75048924D02*
X232032438Y-75001305D01*
X232032438Y-75001305D02*
X232080057Y-74906067D01*
X232080057Y-74906067D02*
X232080057Y-74810829D01*
X232080057Y-74810829D02*
X232032438Y-74715591D01*
X232032438Y-74715591D02*
X231984819Y-74667972D01*
X231984819Y-74667972D02*
X231889581Y-74620353D01*
X231889581Y-74620353D02*
X231651486Y-74620353D01*
X231651486Y-74620353D02*
X231508629Y-74667972D01*
X231175295Y-74620353D02*
X230937200Y-75620353D01*
X230937200Y-75620353D02*
X230746724Y-74906067D01*
X230746724Y-74906067D02*
X230556248Y-75620353D01*
X230556248Y-75620353D02*
X230318153Y-74620353D01*
X229413391Y-75620353D02*
X229984819Y-75620353D01*
X229699105Y-75620353D02*
X229699105Y-74620353D01*
X229699105Y-74620353D02*
X229794343Y-74763210D01*
X229794343Y-74763210D02*
X229889581Y-74858448D01*
X229889581Y-74858448D02*
X229984819Y-74906067D01*
X229080057Y-74620353D02*
X228413391Y-74620353D01*
X228413391Y-74620353D02*
X228841962Y-75620353D01*
%TO.C,SW16*%
X202870057Y-75572734D02*
X202727200Y-75620353D01*
X202727200Y-75620353D02*
X202489105Y-75620353D01*
X202489105Y-75620353D02*
X202393867Y-75572734D01*
X202393867Y-75572734D02*
X202346248Y-75525114D01*
X202346248Y-75525114D02*
X202298629Y-75429876D01*
X202298629Y-75429876D02*
X202298629Y-75334638D01*
X202298629Y-75334638D02*
X202346248Y-75239400D01*
X202346248Y-75239400D02*
X202393867Y-75191781D01*
X202393867Y-75191781D02*
X202489105Y-75144162D01*
X202489105Y-75144162D02*
X202679581Y-75096543D01*
X202679581Y-75096543D02*
X202774819Y-75048924D01*
X202774819Y-75048924D02*
X202822438Y-75001305D01*
X202822438Y-75001305D02*
X202870057Y-74906067D01*
X202870057Y-74906067D02*
X202870057Y-74810829D01*
X202870057Y-74810829D02*
X202822438Y-74715591D01*
X202822438Y-74715591D02*
X202774819Y-74667972D01*
X202774819Y-74667972D02*
X202679581Y-74620353D01*
X202679581Y-74620353D02*
X202441486Y-74620353D01*
X202441486Y-74620353D02*
X202298629Y-74667972D01*
X201965295Y-74620353D02*
X201727200Y-75620353D01*
X201727200Y-75620353D02*
X201536724Y-74906067D01*
X201536724Y-74906067D02*
X201346248Y-75620353D01*
X201346248Y-75620353D02*
X201108153Y-74620353D01*
X200203391Y-75620353D02*
X200774819Y-75620353D01*
X200489105Y-75620353D02*
X200489105Y-74620353D01*
X200489105Y-74620353D02*
X200584343Y-74763210D01*
X200584343Y-74763210D02*
X200679581Y-74858448D01*
X200679581Y-74858448D02*
X200774819Y-74906067D01*
X199346248Y-74620353D02*
X199536724Y-74620353D01*
X199536724Y-74620353D02*
X199631962Y-74667972D01*
X199631962Y-74667972D02*
X199679581Y-74715591D01*
X199679581Y-74715591D02*
X199774819Y-74858448D01*
X199774819Y-74858448D02*
X199822438Y-75048924D01*
X199822438Y-75048924D02*
X199822438Y-75429876D01*
X199822438Y-75429876D02*
X199774819Y-75525114D01*
X199774819Y-75525114D02*
X199727200Y-75572734D01*
X199727200Y-75572734D02*
X199631962Y-75620353D01*
X199631962Y-75620353D02*
X199441486Y-75620353D01*
X199441486Y-75620353D02*
X199346248Y-75572734D01*
X199346248Y-75572734D02*
X199298629Y-75525114D01*
X199298629Y-75525114D02*
X199251010Y-75429876D01*
X199251010Y-75429876D02*
X199251010Y-75191781D01*
X199251010Y-75191781D02*
X199298629Y-75096543D01*
X199298629Y-75096543D02*
X199346248Y-75048924D01*
X199346248Y-75048924D02*
X199441486Y-75001305D01*
X199441486Y-75001305D02*
X199631962Y-75001305D01*
X199631962Y-75001305D02*
X199727200Y-75048924D01*
X199727200Y-75048924D02*
X199774819Y-75096543D01*
X199774819Y-75096543D02*
X199822438Y-75191781D01*
%TO.C,SW9*%
X117603866Y-67052734D02*
X117461009Y-67100353D01*
X117461009Y-67100353D02*
X117222914Y-67100353D01*
X117222914Y-67100353D02*
X117127676Y-67052734D01*
X117127676Y-67052734D02*
X117080057Y-67005114D01*
X117080057Y-67005114D02*
X117032438Y-66909876D01*
X117032438Y-66909876D02*
X117032438Y-66814638D01*
X117032438Y-66814638D02*
X117080057Y-66719400D01*
X117080057Y-66719400D02*
X117127676Y-66671781D01*
X117127676Y-66671781D02*
X117222914Y-66624162D01*
X117222914Y-66624162D02*
X117413390Y-66576543D01*
X117413390Y-66576543D02*
X117508628Y-66528924D01*
X117508628Y-66528924D02*
X117556247Y-66481305D01*
X117556247Y-66481305D02*
X117603866Y-66386067D01*
X117603866Y-66386067D02*
X117603866Y-66290829D01*
X117603866Y-66290829D02*
X117556247Y-66195591D01*
X117556247Y-66195591D02*
X117508628Y-66147972D01*
X117508628Y-66147972D02*
X117413390Y-66100353D01*
X117413390Y-66100353D02*
X117175295Y-66100353D01*
X117175295Y-66100353D02*
X117032438Y-66147972D01*
X116699104Y-66100353D02*
X116461009Y-67100353D01*
X116461009Y-67100353D02*
X116270533Y-66386067D01*
X116270533Y-66386067D02*
X116080057Y-67100353D01*
X116080057Y-67100353D02*
X115841962Y-66100353D01*
X115413390Y-67100353D02*
X115222914Y-67100353D01*
X115222914Y-67100353D02*
X115127676Y-67052734D01*
X115127676Y-67052734D02*
X115080057Y-67005114D01*
X115080057Y-67005114D02*
X114984819Y-66862257D01*
X114984819Y-66862257D02*
X114937200Y-66671781D01*
X114937200Y-66671781D02*
X114937200Y-66290829D01*
X114937200Y-66290829D02*
X114984819Y-66195591D01*
X114984819Y-66195591D02*
X115032438Y-66147972D01*
X115032438Y-66147972D02*
X115127676Y-66100353D01*
X115127676Y-66100353D02*
X115318152Y-66100353D01*
X115318152Y-66100353D02*
X115413390Y-66147972D01*
X115413390Y-66147972D02*
X115461009Y-66195591D01*
X115461009Y-66195591D02*
X115508628Y-66290829D01*
X115508628Y-66290829D02*
X115508628Y-66528924D01*
X115508628Y-66528924D02*
X115461009Y-66624162D01*
X115461009Y-66624162D02*
X115413390Y-66671781D01*
X115413390Y-66671781D02*
X115318152Y-66719400D01*
X115318152Y-66719400D02*
X115127676Y-66719400D01*
X115127676Y-66719400D02*
X115032438Y-66671781D01*
X115032438Y-66671781D02*
X114984819Y-66624162D01*
X114984819Y-66624162D02*
X114937200Y-66528924D01*
%TO.C,SW11*%
X179580057Y-44112734D02*
X179437200Y-44160353D01*
X179437200Y-44160353D02*
X179199105Y-44160353D01*
X179199105Y-44160353D02*
X179103867Y-44112734D01*
X179103867Y-44112734D02*
X179056248Y-44065114D01*
X179056248Y-44065114D02*
X179008629Y-43969876D01*
X179008629Y-43969876D02*
X179008629Y-43874638D01*
X179008629Y-43874638D02*
X179056248Y-43779400D01*
X179056248Y-43779400D02*
X179103867Y-43731781D01*
X179103867Y-43731781D02*
X179199105Y-43684162D01*
X179199105Y-43684162D02*
X179389581Y-43636543D01*
X179389581Y-43636543D02*
X179484819Y-43588924D01*
X179484819Y-43588924D02*
X179532438Y-43541305D01*
X179532438Y-43541305D02*
X179580057Y-43446067D01*
X179580057Y-43446067D02*
X179580057Y-43350829D01*
X179580057Y-43350829D02*
X179532438Y-43255591D01*
X179532438Y-43255591D02*
X179484819Y-43207972D01*
X179484819Y-43207972D02*
X179389581Y-43160353D01*
X179389581Y-43160353D02*
X179151486Y-43160353D01*
X179151486Y-43160353D02*
X179008629Y-43207972D01*
X178675295Y-43160353D02*
X178437200Y-44160353D01*
X178437200Y-44160353D02*
X178246724Y-43446067D01*
X178246724Y-43446067D02*
X178056248Y-44160353D01*
X178056248Y-44160353D02*
X177818153Y-43160353D01*
X176913391Y-44160353D02*
X177484819Y-44160353D01*
X177199105Y-44160353D02*
X177199105Y-43160353D01*
X177199105Y-43160353D02*
X177294343Y-43303210D01*
X177294343Y-43303210D02*
X177389581Y-43398448D01*
X177389581Y-43398448D02*
X177484819Y-43446067D01*
X175961010Y-44160353D02*
X176532438Y-44160353D01*
X176246724Y-44160353D02*
X176246724Y-43160353D01*
X176246724Y-43160353D02*
X176341962Y-43303210D01*
X176341962Y-43303210D02*
X176437200Y-43398448D01*
X176437200Y-43398448D02*
X176532438Y-43446067D01*
%TO.C,SW7*%
X61908866Y-55582734D02*
X61766009Y-55630353D01*
X61766009Y-55630353D02*
X61527914Y-55630353D01*
X61527914Y-55630353D02*
X61432676Y-55582734D01*
X61432676Y-55582734D02*
X61385057Y-55535114D01*
X61385057Y-55535114D02*
X61337438Y-55439876D01*
X61337438Y-55439876D02*
X61337438Y-55344638D01*
X61337438Y-55344638D02*
X61385057Y-55249400D01*
X61385057Y-55249400D02*
X61432676Y-55201781D01*
X61432676Y-55201781D02*
X61527914Y-55154162D01*
X61527914Y-55154162D02*
X61718390Y-55106543D01*
X61718390Y-55106543D02*
X61813628Y-55058924D01*
X61813628Y-55058924D02*
X61861247Y-55011305D01*
X61861247Y-55011305D02*
X61908866Y-54916067D01*
X61908866Y-54916067D02*
X61908866Y-54820829D01*
X61908866Y-54820829D02*
X61861247Y-54725591D01*
X61861247Y-54725591D02*
X61813628Y-54677972D01*
X61813628Y-54677972D02*
X61718390Y-54630353D01*
X61718390Y-54630353D02*
X61480295Y-54630353D01*
X61480295Y-54630353D02*
X61337438Y-54677972D01*
X61004104Y-54630353D02*
X60766009Y-55630353D01*
X60766009Y-55630353D02*
X60575533Y-54916067D01*
X60575533Y-54916067D02*
X60385057Y-55630353D01*
X60385057Y-55630353D02*
X60146962Y-54630353D01*
X59861247Y-54630353D02*
X59194581Y-54630353D01*
X59194581Y-54630353D02*
X59623152Y-55630353D01*
%TO.C,SW14*%
X147410057Y-86682734D02*
X147267200Y-86730353D01*
X147267200Y-86730353D02*
X147029105Y-86730353D01*
X147029105Y-86730353D02*
X146933867Y-86682734D01*
X146933867Y-86682734D02*
X146886248Y-86635114D01*
X146886248Y-86635114D02*
X146838629Y-86539876D01*
X146838629Y-86539876D02*
X146838629Y-86444638D01*
X146838629Y-86444638D02*
X146886248Y-86349400D01*
X146886248Y-86349400D02*
X146933867Y-86301781D01*
X146933867Y-86301781D02*
X147029105Y-86254162D01*
X147029105Y-86254162D02*
X147219581Y-86206543D01*
X147219581Y-86206543D02*
X147314819Y-86158924D01*
X147314819Y-86158924D02*
X147362438Y-86111305D01*
X147362438Y-86111305D02*
X147410057Y-86016067D01*
X147410057Y-86016067D02*
X147410057Y-85920829D01*
X147410057Y-85920829D02*
X147362438Y-85825591D01*
X147362438Y-85825591D02*
X147314819Y-85777972D01*
X147314819Y-85777972D02*
X147219581Y-85730353D01*
X147219581Y-85730353D02*
X146981486Y-85730353D01*
X146981486Y-85730353D02*
X146838629Y-85777972D01*
X146505295Y-85730353D02*
X146267200Y-86730353D01*
X146267200Y-86730353D02*
X146076724Y-86016067D01*
X146076724Y-86016067D02*
X145886248Y-86730353D01*
X145886248Y-86730353D02*
X145648153Y-85730353D01*
X144743391Y-86730353D02*
X145314819Y-86730353D01*
X145029105Y-86730353D02*
X145029105Y-85730353D01*
X145029105Y-85730353D02*
X145124343Y-85873210D01*
X145124343Y-85873210D02*
X145219581Y-85968448D01*
X145219581Y-85968448D02*
X145314819Y-86016067D01*
X143886248Y-86063686D02*
X143886248Y-86730353D01*
X144124343Y-85682734D02*
X144362438Y-86397019D01*
X144362438Y-86397019D02*
X143743391Y-86397019D01*
%TO.C,SW13*%
X237520057Y-44232734D02*
X237377200Y-44280353D01*
X237377200Y-44280353D02*
X237139105Y-44280353D01*
X237139105Y-44280353D02*
X237043867Y-44232734D01*
X237043867Y-44232734D02*
X236996248Y-44185114D01*
X236996248Y-44185114D02*
X236948629Y-44089876D01*
X236948629Y-44089876D02*
X236948629Y-43994638D01*
X236948629Y-43994638D02*
X236996248Y-43899400D01*
X236996248Y-43899400D02*
X237043867Y-43851781D01*
X237043867Y-43851781D02*
X237139105Y-43804162D01*
X237139105Y-43804162D02*
X237329581Y-43756543D01*
X237329581Y-43756543D02*
X237424819Y-43708924D01*
X237424819Y-43708924D02*
X237472438Y-43661305D01*
X237472438Y-43661305D02*
X237520057Y-43566067D01*
X237520057Y-43566067D02*
X237520057Y-43470829D01*
X237520057Y-43470829D02*
X237472438Y-43375591D01*
X237472438Y-43375591D02*
X237424819Y-43327972D01*
X237424819Y-43327972D02*
X237329581Y-43280353D01*
X237329581Y-43280353D02*
X237091486Y-43280353D01*
X237091486Y-43280353D02*
X236948629Y-43327972D01*
X236615295Y-43280353D02*
X236377200Y-44280353D01*
X236377200Y-44280353D02*
X236186724Y-43566067D01*
X236186724Y-43566067D02*
X235996248Y-44280353D01*
X235996248Y-44280353D02*
X235758153Y-43280353D01*
X234853391Y-44280353D02*
X235424819Y-44280353D01*
X235139105Y-44280353D02*
X235139105Y-43280353D01*
X235139105Y-43280353D02*
X235234343Y-43423210D01*
X235234343Y-43423210D02*
X235329581Y-43518448D01*
X235329581Y-43518448D02*
X235424819Y-43566067D01*
X234520057Y-43280353D02*
X233901010Y-43280353D01*
X233901010Y-43280353D02*
X234234343Y-43661305D01*
X234234343Y-43661305D02*
X234091486Y-43661305D01*
X234091486Y-43661305D02*
X233996248Y-43708924D01*
X233996248Y-43708924D02*
X233948629Y-43756543D01*
X233948629Y-43756543D02*
X233901010Y-43851781D01*
X233901010Y-43851781D02*
X233901010Y-44089876D01*
X233901010Y-44089876D02*
X233948629Y-44185114D01*
X233948629Y-44185114D02*
X233996248Y-44232734D01*
X233996248Y-44232734D02*
X234091486Y-44280353D01*
X234091486Y-44280353D02*
X234377200Y-44280353D01*
X234377200Y-44280353D02*
X234472438Y-44232734D01*
X234472438Y-44232734D02*
X234520057Y-44185114D01*
%TO.C,SW10*%
X144765534Y-55155534D02*
X145265534Y-54655534D01*
X144765534Y-58655534D02*
X145265534Y-59155534D01*
X145265534Y-54655534D02*
X148265534Y-54655534D01*
X145265534Y-59155534D02*
X147765534Y-59155534D01*
X148265534Y-54655534D02*
X148765534Y-55155534D01*
X148765534Y-56155534D02*
X148765534Y-55155534D01*
X149265534Y-60655534D02*
X149265534Y-61355534D01*
X149265534Y-61355534D02*
X153765534Y-61355534D01*
X153765534Y-56655534D02*
X149265534Y-56655534D01*
X153765534Y-57255534D02*
X153765534Y-56655534D01*
X153765534Y-61355534D02*
X153765534Y-60855534D01*
X149265534Y-60655534D02*
G75*
G03*
X147765534Y-59155534I-1500000J0D01*
G01*
X148765534Y-56155534D02*
G75*
G03*
X149265534Y-56655534I500000J0D01*
G01*
%TO.C,SW15*%
X165765534Y-75085534D02*
X166265534Y-74585534D01*
X165765534Y-78585534D02*
X166265534Y-79085534D01*
X166265534Y-74585534D02*
X169265534Y-74585534D01*
X166265534Y-79085534D02*
X168765534Y-79085534D01*
X169265534Y-74585534D02*
X169765534Y-75085534D01*
X169765534Y-76085534D02*
X169765534Y-75085534D01*
X170265534Y-80585534D02*
X170265534Y-81285534D01*
X170265534Y-81285534D02*
X174765534Y-81285534D01*
X174765534Y-76585534D02*
X170265534Y-76585534D01*
X174765534Y-77185534D02*
X174765534Y-76585534D01*
X174765534Y-81285534D02*
X174765534Y-80785534D01*
X170265534Y-80585534D02*
G75*
G03*
X168765534Y-79085534I-1500000J0D01*
G01*
X169765534Y-76085534D02*
G75*
G03*
X170265534Y-76585534I500000J0D01*
G01*
%TO.C,SW12*%
X200295534Y-43505534D02*
X200795534Y-43005534D01*
X200295534Y-47005534D02*
X200795534Y-47505534D01*
X200795534Y-43005534D02*
X203795534Y-43005534D01*
X200795534Y-47505534D02*
X203295534Y-47505534D01*
X203795534Y-43005534D02*
X204295534Y-43505534D01*
X204295534Y-44505534D02*
X204295534Y-43505534D01*
X204795534Y-49005534D02*
X204795534Y-49705534D01*
X204795534Y-49705534D02*
X209295534Y-49705534D01*
X209295534Y-45005534D02*
X204795534Y-45005534D01*
X209295534Y-45605534D02*
X209295534Y-45005534D01*
X209295534Y-49705534D02*
X209295534Y-49205534D01*
X204795534Y-49005534D02*
G75*
G03*
X203295534Y-47505534I-1500000J0D01*
G01*
X204295534Y-44505534D02*
G75*
G03*
X204795534Y-45005534I500000J0D01*
G01*
%TO.C,SW8*%
X83225534Y-55215534D02*
X83725534Y-54715534D01*
X83225534Y-58715534D02*
X83725534Y-59215534D01*
X83725534Y-54715534D02*
X86725534Y-54715534D01*
X83725534Y-59215534D02*
X86225534Y-59215534D01*
X86725534Y-54715534D02*
X87225534Y-55215534D01*
X87225534Y-56215534D02*
X87225534Y-55215534D01*
X87725534Y-60715534D02*
X87725534Y-61415534D01*
X87725534Y-61415534D02*
X92225534Y-61415534D01*
X92225534Y-56715534D02*
X87725534Y-56715534D01*
X92225534Y-57315534D02*
X92225534Y-56715534D01*
X92225534Y-61415534D02*
X92225534Y-60915534D01*
X87725534Y-60715534D02*
G75*
G03*
X86225534Y-59215534I-1500000J0D01*
G01*
X87225534Y-56215534D02*
G75*
G03*
X87725534Y-56715534I500000J0D01*
G01*
%TO.C,SW18*%
X127325534Y-119665534D02*
X127825534Y-119165534D01*
X127325534Y-123165534D02*
X127825534Y-123665534D01*
X127825534Y-119165534D02*
X130825534Y-119165534D01*
X127825534Y-123665534D02*
X130325534Y-123665534D01*
X130825534Y-119165534D02*
X131325534Y-119665534D01*
X131325534Y-120665534D02*
X131325534Y-119665534D01*
X131825534Y-125165534D02*
X131825534Y-125865534D01*
X131825534Y-125865534D02*
X136325534Y-125865534D01*
X136325534Y-121165534D02*
X131825534Y-121165534D01*
X136325534Y-121765534D02*
X136325534Y-121165534D01*
X136325534Y-125865534D02*
X136325534Y-125365534D01*
X131825534Y-125165534D02*
G75*
G03*
X130325534Y-123665534I-1500000J0D01*
G01*
X131325534Y-120665534D02*
G75*
G03*
X131825534Y-121165534I500000J0D01*
G01*
%TO.C,SW17*%
X223825534Y-75085534D02*
X224325534Y-74585534D01*
X223825534Y-78585534D02*
X224325534Y-79085534D01*
X224325534Y-74585534D02*
X227325534Y-74585534D01*
X224325534Y-79085534D02*
X226825534Y-79085534D01*
X227325534Y-74585534D02*
X227825534Y-75085534D01*
X227825534Y-76085534D02*
X227825534Y-75085534D01*
X228325534Y-80585534D02*
X228325534Y-81285534D01*
X228325534Y-81285534D02*
X232825534Y-81285534D01*
X232825534Y-76585534D02*
X228325534Y-76585534D01*
X232825534Y-77185534D02*
X232825534Y-76585534D01*
X232825534Y-81285534D02*
X232825534Y-80785534D01*
X228325534Y-80585534D02*
G75*
G03*
X226825534Y-79085534I-1500000J0D01*
G01*
X227825534Y-76085534D02*
G75*
G03*
X228325534Y-76585534I500000J0D01*
G01*
%TO.C,SW16*%
X194615534Y-75085534D02*
X195115534Y-74585534D01*
X194615534Y-78585534D02*
X195115534Y-79085534D01*
X195115534Y-74585534D02*
X198115534Y-74585534D01*
X195115534Y-79085534D02*
X197615534Y-79085534D01*
X198115534Y-74585534D02*
X198615534Y-75085534D01*
X198615534Y-76085534D02*
X198615534Y-75085534D01*
X199115534Y-80585534D02*
X199115534Y-81285534D01*
X199115534Y-81285534D02*
X203615534Y-81285534D01*
X203615534Y-76585534D02*
X199115534Y-76585534D01*
X203615534Y-77185534D02*
X203615534Y-76585534D01*
X203615534Y-81285534D02*
X203615534Y-80785534D01*
X199115534Y-80585534D02*
G75*
G03*
X197615534Y-79085534I-1500000J0D01*
G01*
X198615534Y-76085534D02*
G75*
G03*
X199115534Y-76585534I500000J0D01*
G01*
%TO.C,SW9*%
X109825534Y-66565534D02*
X110325534Y-66065534D01*
X109825534Y-70065534D02*
X110325534Y-70565534D01*
X110325534Y-66065534D02*
X113325534Y-66065534D01*
X110325534Y-70565534D02*
X112825534Y-70565534D01*
X113325534Y-66065534D02*
X113825534Y-66565534D01*
X113825534Y-67565534D02*
X113825534Y-66565534D01*
X114325534Y-72065534D02*
X114325534Y-72765534D01*
X114325534Y-72765534D02*
X118825534Y-72765534D01*
X118825534Y-68065534D02*
X114325534Y-68065534D01*
X118825534Y-68665534D02*
X118825534Y-68065534D01*
X118825534Y-72765534D02*
X118825534Y-72265534D01*
X114325534Y-72065534D02*
G75*
G03*
X112825534Y-70565534I-1500000J0D01*
G01*
X113825534Y-67565534D02*
G75*
G03*
X114325534Y-68065534I500000J0D01*
G01*
%TO.C,SW11*%
X171325534Y-43625534D02*
X171825534Y-43125534D01*
X171325534Y-47125534D02*
X171825534Y-47625534D01*
X171825534Y-43125534D02*
X174825534Y-43125534D01*
X171825534Y-47625534D02*
X174325534Y-47625534D01*
X174825534Y-43125534D02*
X175325534Y-43625534D01*
X175325534Y-44625534D02*
X175325534Y-43625534D01*
X175825534Y-49125534D02*
X175825534Y-49825534D01*
X175825534Y-49825534D02*
X180325534Y-49825534D01*
X180325534Y-45125534D02*
X175825534Y-45125534D01*
X180325534Y-45725534D02*
X180325534Y-45125534D01*
X180325534Y-49825534D02*
X180325534Y-49325534D01*
X175825534Y-49125534D02*
G75*
G03*
X174325534Y-47625534I-1500000J0D01*
G01*
X175325534Y-44625534D02*
G75*
G03*
X175825534Y-45125534I500000J0D01*
G01*
%TO.C,SW7*%
X54130534Y-55095534D02*
X54630534Y-54595534D01*
X54130534Y-58595534D02*
X54630534Y-59095534D01*
X54630534Y-54595534D02*
X57630534Y-54595534D01*
X54630534Y-59095534D02*
X57130534Y-59095534D01*
X57630534Y-54595534D02*
X58130534Y-55095534D01*
X58130534Y-56095534D02*
X58130534Y-55095534D01*
X58630534Y-60595534D02*
X58630534Y-61295534D01*
X58630534Y-61295534D02*
X63130534Y-61295534D01*
X63130534Y-56595534D02*
X58630534Y-56595534D01*
X63130534Y-57195534D02*
X63130534Y-56595534D01*
X63130534Y-61295534D02*
X63130534Y-60795534D01*
X58630534Y-60595534D02*
G75*
G03*
X57130534Y-59095534I-1500000J0D01*
G01*
X58130534Y-56095534D02*
G75*
G03*
X58630534Y-56595534I500000J0D01*
G01*
%TO.C,SW14*%
X139155534Y-86195534D02*
X139655534Y-85695534D01*
X139155534Y-89695534D02*
X139655534Y-90195534D01*
X139655534Y-85695534D02*
X142655534Y-85695534D01*
X139655534Y-90195534D02*
X142155534Y-90195534D01*
X142655534Y-85695534D02*
X143155534Y-86195534D01*
X143155534Y-87195534D02*
X143155534Y-86195534D01*
X143655534Y-91695534D02*
X143655534Y-92395534D01*
X143655534Y-92395534D02*
X148155534Y-92395534D01*
X148155534Y-87695534D02*
X143655534Y-87695534D01*
X148155534Y-88295534D02*
X148155534Y-87695534D01*
X148155534Y-92395534D02*
X148155534Y-91895534D01*
X143655534Y-91695534D02*
G75*
G03*
X142155534Y-90195534I-1500000J0D01*
G01*
X143155534Y-87195534D02*
G75*
G03*
X143655534Y-87695534I500000J0D01*
G01*
%TO.C,SW13*%
X229265534Y-43745534D02*
X229765534Y-43245534D01*
X229265534Y-47245534D02*
X229765534Y-47745534D01*
X229765534Y-43245534D02*
X232765534Y-43245534D01*
X229765534Y-47745534D02*
X232265534Y-47745534D01*
X232765534Y-43245534D02*
X233265534Y-43745534D01*
X233265534Y-44745534D02*
X233265534Y-43745534D01*
X233765534Y-49245534D02*
X233765534Y-49945534D01*
X233765534Y-49945534D02*
X238265534Y-49945534D01*
X238265534Y-45245534D02*
X233765534Y-45245534D01*
X238265534Y-45845534D02*
X238265534Y-45245534D01*
X238265534Y-49945534D02*
X238265534Y-49445534D01*
X233765534Y-49245534D02*
G75*
G03*
X232265534Y-47745534I-1500000J0D01*
G01*
X233265534Y-44745534D02*
G75*
G03*
X233765534Y-45245534I500000J0D01*
G01*
%TD*%
M02*
